<svg width="100%" xmlns="http://www.w3.org/2000/svg" viewBox="0 0 300 156.08"> <defs> <style> .cls-1 { fill: #231f20; } </style> </defs> <g> <path fill="currentColor" class="cls-1" d="M.13,44.44c-.22-.53.07-.83.35-1.16,2.66-3.04,5.26-6.13,7.98-9.12,1.72-1.89,3.57-3.65,5.41-5.43,2.85-2.76,5.85-5.36,8.98-7.8.48-.37.82-.92,1.38-1.57.81-.05,1.56-.74,2.38-1.39,1.64-1.3,3.34-2.53,5.06-3.73,4.32-2.99,9.02-5.23,13.89-7.17,3.11-1.24,6.17-2.62,9.25-3.96,1.27-.55,2.33-.09,2.72,1.26.44,1.54.84,3.09,1.29,4.62.24.84.51,1.67.82,2.49,1.07,2.81,2.13,5.63,3.27,8.42,1.69,4.11,3.99,7.89,6.52,11.53,1.19,1.72,2.53,3.34,3.8,5.01.16.21.36.41.47.64.23.51-.02.9-.59.93-.67.04-1.29-.08-1.74-.66-1.3-1.73-2.67-3.42-3.91-5.2-1.41-2.03-2.71-4.14-4.06-6.22-2.59.18-5.08-.39-7.59-.87-3.37-.65-6.75-1.23-10.21-1.14-2.8.07-5.53-.55-8.26-1.08-2.24-.44-4.51-.78-6.76-1.15-1.35-.22-2.72-.36-4.06-.64-.67-.14-1.16-.03-1.68.38-3.21,2.52-6.28,5.2-9.25,8.01-4.62,4.35-8.85,9.05-12.78,14.03-.72.91-1.5,1.33-2.7.97ZM55.57,4.96c-.28.07-.5.09-.71.17-1.67.64-3.36,1.26-5.01,1.94-3.13,1.3-6.29,2.56-9.36,4-4.16,1.95-7.92,4.57-11.59,7.31-.47.35-.9.76-1.47,1.25.5.13.79.22,1.08.27,1.59.23,3.17.43,4.76.67,1.36.2,2.71.42,4.06.66,2.55.45,5.07,1.05,7.69,1.1,4.58.09,9.11.71,13.6,1.62,1.26.25,2.54.35,4.01.54-2.89-6.46-5.56-12.76-7.05-19.54Z"/> <path fill="currentColor" class="cls-1" d="M290.9,106.85c-.21-1.61-.5-3.18-.62-4.77-.37-4.91-.65-9.82-1.01-14.72-.17-2.28-.45-4.55-.71-6.83-.04-.39-.19-.76-.29-1.15-.1,0-.2.02-.29.02-.22,1.45-.55,2.9-.63,4.36-.21,3.89-.71,7.74-1.25,11.6-.37,2.64-.49,5.32-.1,7.99.12.82-.03,1.06-.73,1.29-.64.21-1.05,0-1.1-.71-.1-1.52-.26-3.05-.16-4.57.17-2.55.52-5.08.79-7.62.18-1.74.32-3.5.54-5.23.35-2.72.75-5.43,1.15-8.14.09-.64.23-1.28.4-1.9.11-.41.34-.82.86-.78.51.04,1.13,0,1.38.58.44,1.05.94,2.1,1.17,3.21.75,3.59.96,7.25,1.13,10.91.1,2.32.23,4.64.36,6.97.02.44.09.89.17,1.61.24-.46.37-.67.45-.89.4-1.03.81-2.05,1.15-3.1.2-.61.31-1.26.38-1.89.23-2.01.41-4.02.63-6.02.1-.95.26-1.89.33-2.84.19-2.45.91-4.79,1.46-7.16.17-.74.33-1.49.46-2.23.15-.89,1.42-1.51,2.18-1.03.36.23.31.56.21.91-.49,1.84-1.03,3.67-1.43,5.54-.29,1.37-.38,2.78-.57,4.17-.09.64-.16,1.28-.28,1.92-.41,2.22-.79,4.43-.63,6.7.03.39-.12.82-.26,1.2-.72,2.01-1.5,3.99-2.2,6.01-.22.64-.29,1.34-.36,2.02-.1.95-.13,1.9-.19,2.86-.1,1.65-.72,1.96-2.39,1.74Z"/> <path fill="currentColor" class="cls-1" d="M62.63,125.96c.15.54.28,1.04.42,1.55.04.14.13.27.2.41.67,1.39.49,1.74-1.1,2.07-1.02-1.95-1.49-4.07-1.66-6.23-.19-2.39-.19-4.8-.3-7.2-.14-3.01-.37-6.01-.47-9.02-.12-3.58-.17-7.17-.18-10.75,0-2.4.13-4.79.21-7.38.4-.11.89-.34,1.39-.35,3.66-.06,7.33-.24,10.99-.08,4,.17,7.97.8,11.82,2,.72.22,1.4.57,2.17.89-.21.45.03,1.05-.57,1.19-.49.12-1.05.19-1.52.06-1.09-.3-2.12-.82-3.22-1.11-4.52-1.21-9.13-1.75-13.81-1.64-1.74.04-3.49.19-5.35.3-.2,3.8-.56,7.51-.37,11.32.42.08.79.14,1.15.22,3.62.77,7.26,1.48,10.61,3.14,1.02.51,2,1.12,2.97,1.72.63.39,1.07.96,1.32,1.68.27.78.22.96-.46,1.43-.28.19-.57.35-.98.61-.09-1.72-1.29-2.45-2.52-3.05-1.64-.81-3.3-1.58-5.02-2.19-1.79-.63-3.66-1.06-5.5-1.55-.43-.11-.89-.13-1.35-.2,0,1.65-.05,3.2.01,4.75.1,2.86.26,5.71.41,8.56.12,2.25.25,4.49.38,6.73.01.18.07.36.11.54,2.14-.34,4.26-.58,6.33-1.05,2.6-.59,5.15-1.37,7.73-2.06.4-.11.81-.22,1.22-.22.49-.01.9.21.99.76.06.42-.44,1.07-.9,1-1.7-.26-3.11.66-4.63,1.05-2.88.75-5.77,1.45-8.74,1.72-.52.05-1.03.21-1.77.37Z"/> <path fill="currentColor" class="cls-1" d="M181.95,13.42c-.88.59-3.5,1.02-7.11,1.15-2.42.09-4.77-.33-7.25-1.03-.35,3.1-.48,6.07-.09,9.19.68.02,1.27.07,1.87.06,2.75-.08,5.47-.47,8.16-1.06,3.5-.77,7.01-1.51,10.52-2.21,1.19-.24,2.42-.32,3.63-.46.52-.06,1.01-.05,1.53-.31.52-.26,1.19-.24,1.7.25.19.18.41.34.64.48.32.2.6.5.41.83-.13.23-.54.33-.84.41-.25.06-.54.05-.8,0-2.16-.5-4.25-.04-6.34.42-2.68.59-5.33,1.35-8.03,1.81-3.49.6-6.97,1.37-10.54,1.37-1.22,0-2.44-.12-3.65-.22-.65-.05-.81-.23-.8-1,.03-2.9.04-5.8.17-8.69.13-2.78.42-5.55.62-8.33.04-.56,0-1.12,0-1.66,1.33-.7,2.58-.62,3.98-.24,1.25.34,2.64.21,3.97.2.76,0,1.53-.11,2.27-.26.79-.16,1.28.2,1.81.72-.43.68-1.03.87-1.68.95-2.51.31-5.02.46-7.51-.13-.1-.02-.22.01-.38.02-.19,2.05-.38,4.08-.56,6.05,1.17.37,2.2.73,3.26,1.01,2.15.57,4.32.39,6.48.12.87-.11,1.74-.27,2.61-.3.71-.02,1.56-.16,1.93.87Z"/> <path fill="currentColor" class="cls-1" d="M272.71,84.24c-.63.22-1.21.41-1.93.07-.47-.22-1.13-.1-1.7-.08-2.59.11-5.18.24-7.77.36-.07,0-.14.06-.25.11-.5,2.19-1.01,4.4-1.57,6.79,1.3-.06,2.47-.12,3.63-.18,1.1-.06,2.21-.17,3.31-.18.81,0,.84.08,1.01,1.08-.51.45-1.16.46-1.8.51-.8.06-1.6.09-2.4.17-.35.04-.68.05-.85.56-.2.59-.89.47-1.4.45-.6-.02-1.2-.14-1.78-.22-.99,3.28-1.55,10.24-.22,13.04.47,0,.97.07,1.44-.01,4.54-.8,9.08-1.64,13.74-2.48-.24-.7-.45-1.32-.67-1.99.19-.08.36-.22.45-.17.62.3,1.25.6,1.83.98.46.31.85.74,1.31,1.16.04.92.02,1.01-.96,1.21-2.01.41-4.04.77-6.06,1.14-2.21.41-4.41.85-6.63,1.22-1.99.33-3.99.56-6.01.84-.69-1.72-.89-3.37-1-5.03-.21-3.14.16-6.25.73-9.33.09-.47.28-.94-.1-1.42-.12-.15-.11-.59.02-.74.83-.9.85-2.09,1.14-3.16.38-1.39.59-2.83.88-4.25.08-.41.13-.83.24-1.24.29-1.15.61-1.27,1.7-.81.44.19.94.33,1.41.32,2.67-.09,5.34-.24,8-.37.38-.02.76-.05,1.14-.04,1.11.06,1.37.45,1.14,1.69Z"/> <path fill="currentColor" class="cls-1" d="M97.86,106.87c.38.22.7.41,1.02.58,2.47,1.31,4.59,2.99,5.97,5.49.38.69.93,1.29,1.45,1.9.52.61.54,1.05-.01,1.56-.75.69-1.31.73-1.85.06-.55-.68-1.08-1.39-1.52-2.14-1.51-2.59-3.63-4.48-6.32-5.78-.71-.34-1.41-.7-2.21-1.09-.06.32-.14.5-.13.67.16,2.32.25,4.65,1,6.88.29.86.7,1.68,1.13,2.48.39.73.1,1.46-.72,1.62-.47.09-.7-.2-.85-.59-.49-1.32-1.13-2.6-1.44-3.96-.59-2.6-.97-5.25-.84-7.94.1-2.03.47-4,1.08-5.94.79-2.47,2.54-3.94,4.89-4.75,1.14-.39,2.35-.33,3.49.07,1.39.48,2.49,2.47,2.35,4.11-.2,2.29-1.2,4.07-3.28,5.16-1,.53-2.03,1.02-3.22,1.61ZM94.38,105.39c2.14.29,3.98-.22,5.71-1.17,1.64-.9,2.2-2.46,2.33-4.19.09-1.12-.87-2.45-1.84-2.6-1.94-.31-3.76.23-4.75,2.14-.91,1.77-1.35,3.7-1.45,5.82Z"/> <path fill="currentColor" class="cls-1" d="M176.26,91.94c-.78,1.06-1.8,1.47-2.91,1.51-1.98.07-3.96.01-5.94-.02-.52,0-1.05-.09-1.6-.15-.46,1.78-.9,3.47-1.33,5.12,2.04.59,4.02,1.2,6.03,1.72.75.2,1.55.34,2.3-.22.23-.17.65-.18.97-.14.63.08.92.81.49,1.28-.24.26-.61.45-.95.57-1.34.45-2.71.39-4.06.02-1.25-.34-2.48-.76-3.72-1.13-.5-.15-1.01-.29-1.58-.45-.71,2.63-1.46,5.13-1.79,7.86,2.08-.79,4.01-1.66,6.02-2.26,2.03-.61,4.14-.95,6.27-1.43,0-.03.05-.13.05-.24,0-.37-.15-.79.35-.98.34-.13,1.08.26,1.33.63.22.33.49.64.76.99-.19,1.08-.29,1.16-1.4,1.3-1.89.24-3.79.41-5.66.76-2.69.51-5.07,1.86-7.53,2.99-.1.05-.21.1-.31.15-.53.27-1.12.5-1.63.15-.53-.36-.26-.98-.19-1.49.49-3.87,1.6-7.6,2.66-11.33.37-1.32.66-2.66.95-4,.2-.9.34-.96,1.24-1.22,1.38-.41,2.72.03,4.07.02,1.33-.02,2.67.01,4-.03.45-.02.89-.2,1.33-.32.69-.2.77-.19,1.77.34Z"/> <path fill="currentColor" class="cls-1" d="M151.69,24.36c-.37.23-.66.52-.99.59-3.29.65-6.57,1.36-9.89,1.87-2.82.43-5.68.71-8.53.91-2.89.21-5.79.24-8.69.36-.61.02-1.21.11-1.82.12-.83,0-1.02-.15-1.03-.99-.03-3.01-.05-6.02-.03-9.04.01-1.79.13-3.58.15-5.38,0-.76-.11-1.52-.16-2.28-.05-.63.06-.75.66-.76.11,0,.23.01.34.02,1.16.06,1.28.09,1.38,1.2.11,1.17.14,2.36.09,3.53-.17,3.89-.33,7.78-.04,11.66,0,.11.07.21.12.38.16.03.34.09.52.08,5.38-.12,10.77-.26,16.09-1.14,3.38-.56,6.74-1.3,10.1-1.97.89-.18,1.03-.14,1.72.83Z"/> <path fill="currentColor" class="cls-1" d="M84.49,10.61c.68-.01,1.2-.07,1.71-.02.5.05.68.44.67.91-.02.95,0,1.91-.1,2.85-.29,2.65-.67,5.29-.95,7.94-.1.98-.06,1.98-.06,2.97,0,.66.25,1.19.88,1.46,1.36.59,2.69,1.26,4.09,1.75,4.05,1.41,8.3,1.52,12.53,1.7.8.03,1.6.06,2.4.03.56-.02,1.13,0,1.56-.53.16-.19.54-.22.83-.28.34-.07.77-.15.87.27.07.28-.03.72-.22.92-.6.62-1.22,1.18-2.25,1.12-3.38-.22-6.78-.31-10.16-.52-3.69-.23-7.21-1.2-10.54-2.77-2.36-1.11-2.41-1.18-2.29-3.81.11-2.43.39-4.86.65-7.28.23-2.15.67-4.29.38-6.71Z"/> <path fill="currentColor" class="cls-1" d="M191.6,92.61c-1.54,5.16-3.64,10.19-4.79,15.69,1.57-.22,2.95-.41,4.33-.59,2.64-.35,5.29-.65,7.93-1.06,2.78-.44,5.55-.96,8.32-1.5,2.2-.43,4.38-.96,6.57-1.45.04,0,.07-.02.11-.02.74-.12,1.16.03,1.24.45.11.52-.3,1.05-.95,1.19-.93.2-1.86.39-2.8.57-2.92.57-5.82,1.2-8.75,1.69-2.63.44-5.29.69-7.93,1.08-2.86.42-5.71.89-8.57,1.37-.55.09-1.04.1-1.66-.24.4-1.64.72-3.32,1.22-4.94,1.22-3.93,2.52-7.82,3.79-11.74.44-1.37.65-1.44,1.94-.51Z"/> <path fill="currentColor" class="cls-1" d="M288.2.37c.38-.06.66-.2.88-.13,2.36.78,4.76.35,7.15.25.91-.04,1.82-.07,2.73-.03.77.04,1.07.37,1.04.92-.03.44-.4.69-1.12.72-2.66.09-5.32.18-8.12.27-.05,1-.09,2.04-.15,3.23,1.13-.13,2.2-.3,3.28-.35,1.37-.07,2.74-.07,4.1-.04.4,0,.79.23,1.16.35.06.93,0,1.05-.69,1.15-.37.05-.76.06-1.14.03-2.27-.17-4.46.43-6.66.69-.24.86-.25,1.37-.04,2.69.29-.08.58-.14.86-.22,1.16-.36,2.33-.73,3.49-1.1.51-.17,1.15-.11,1.36-.84.04-.13.49-.25.7-.2.55.13,1.08.32,1.59.56.2.09.46.38.44.55-.03.26-.27.49-.43.73-.03.05-.14.04-.21.06-2.59.78-5.18,1.56-7.76,2.34-.18.05-.36.12-.55.14-1.22.09-1.73-.27-1.8-1.48-.1-1.63-.08-3.27-.09-4.91-.01-1.75,0-3.5,0-5.38Z"/> <path fill="currentColor" class="cls-1" d="M136.37,95.59c-.71,0-1.46.03-2.21,0-2.55-.12-5.1-.27-7.65-.41-.11,0-.23-.02-.34-.05-.42-.12-.89-.32-.75-.82.07-.26.54-.55.84-.57.83-.06,1.67-.01,2.5.04,1.74.12,3.48.3,5.23.38.75.03,1.51-.16,2.26-.18,4.08-.1,8.15-.16,12.23-.25.76-.02,1.51-.12,2.27-.16.56-.03,1.16-.12,1.51.5-.24,1.11-1.07,1.3-1.99,1.32-2.4.05-4.8.08-7.21.12-1.18.02-2.36.03-3.55.06-1.05.02-1.32.15-1.53,1.16-.41,1.97-.81,3.96-1.02,5.96-.2,1.96-.43,3.95-.03,5.93.1.49.21.97.3,1.46.14.74-.14,1.2-.82,1.36-.43.1-.78-.02-.85-.5-.16-1.21-.42-2.42-.42-3.63,0-3.36.19-6.71,1.07-9.98.12-.44.17-.9.24-1.35.01-.07-.03-.14-.09-.38Z"/> <path fill="currentColor" class="cls-1" d="M242.56,105.93c0,1.47-.11,1.6-1.24,1.78-1.35.22-2.7.5-4.05.69-3.07.43-6.16.34-9.25.27-1.52-.04-3.05-.14-4.57-.19-.49-.02-.71-.18-.87-.69-.68-2.22-.95-4.47-.74-6.77.28-3,.65-5.98.94-8.98.09-.94.08-1.9.07-2.85,0-.76.19-1.12.76-1.13.58-.02,1.1.42,1.11,1.05.01,1.14,0,2.29-.1,3.42-.25,2.81-.65,5.6-.78,8.42-.08,1.58.18,3.19.42,4.76.17,1.13.31,1.21,1.42,1.25,3.85.16,7.7.29,11.54-.11,1.17-.12,2.32-.45,3.48-.66.59-.11,1.19-.16,1.87-.25Z"/> <path fill="currentColor" class="cls-1" d="M119.23,119.01c-.23-1.23.21-1.76,1.39-1.89.49-.05.98-.09,1.45-.22,1.54-.42,2.52-1.48,2.89-2.97.41-1.66.63-3.36.9-5.05.11-.71-.13-1.36-.6-1.91-.44-.52-.86-1.08-1.36-1.54-1.05-.97-2.26-1.5-3.75-1.32-.83.1-1.67.16-2.5.11-1.37-.09-1.97-.73-2.11-2.07-.22-2.06-.19-2.26,1.36-3.69.98-.9,2.01-1.75,3.1-2.52,1.06-.75,2.27-1.01,3.56-.45,0,.73-.54,1.05-1.02,1.07-1.43.07-2.37.96-3.36,1.78-.53.44-1,.94-1.46,1.45-.19.21-.35.51-.39.79-.23,1.6.33,2.23,1.96,2.07,1.38-.13,2.73-.2,4.07.25,1.97.67,3.3,2.06,4.14,3.87.31.68.33,1.58.24,2.34-.21,1.66-.51,3.31-.9,4.94-.43,1.82-1.56,3.13-3.3,3.81-1.13.45-2.31.77-3.48,1.11-.24.07-.51.01-.84.01Z"/> <path fill="currentColor" class="cls-1" d="M237.83,8.25c.5,1.8.98,3.5,1.53,5.47-.07.36-.6.44-1.15.48-.56.04-1.08-.07-1.37-.61-.43-.81-.89-1.61-1.21-2.45-.26-.68-.66-.92-1.35-.96-1.13-.05-2.25-.2-3.46-.32-.15.66-.26,1.25-.42,1.83-.25.92-.79,1.25-1.71,1.08-.68-.13-.98-.52-.89-1.21,0-.07.05-.14.08-.21.15-.51.38-1.02.41-1.54.03-.5-.15-1.02-.24-1.6.83-.23,1.26-.84,1.55-1.63.32-.85.71-1.68,1.13-2.49.4-.77.87-1.51,1.37-2.35.22-.04.55-.14.88-.15.82,0,1.47.27,1.8,1.11.52,1.31,1.14,2.58,1.59,3.91.29.84.59,1.56,1.48,1.65ZM234.57,8.7c-.45-1.44-.87-2.68-1.4-3.89-.08,0-.16.01-.24.02-.47,1.09-.94,2.19-1.48,3.44,1.1.15,2.01.28,3.12.43Z"/> <path fill="currentColor" class="cls-1" d="M206.24,4c-.6-.03-1.02.02-1.4-.08-.5-.14-.88,0-1.3.23-1.15.64-1.85,1.65-2.44,2.92.36.14.66.26.97.36,1.01.33,2.05.6,3.04.98,1.72.66,2.7,1.92,2.83,3.79.09,1.25.16,2.51.26,3.76.07.82-.21,1.44-.85,2-1.48,1.29-3.05,2.41-4.97,2.93-.45.12-.97.08-1.45.05-.41-.03-.72-.21-.69-.72.03-.45.31-.52.67-.62,1.73-.46,3.22-1.34,4.48-2.62.44-.44.67-.9.61-1.52-.11-1.21-.2-2.43-.31-3.64-.1-1.12-.61-1.95-1.75-2.3-.58-.18-1.18-.32-1.74-.54-.95-.37-1.9-.75-2.81-1.22-.57-.3-.73-.88-.48-1.48.66-1.58,1.53-3,3.21-3.68,1.35-.54,2.61-.43,3.71.59.16.15.21.42.39.81Z"/> <path fill="currentColor" class="cls-1" d="M222.59,10.49c.57-1.01.98-1.82,1.46-2.58.79-1.25,1.6-2.48,2.45-3.68.34-.49,1.89-.52,2.34-.14.35.3.4.73.04,1.09-2.15,2.19-3.44,4.91-4.67,7.66-.29.66-.72.99-1.5.97-.76-.02-1.16-.33-1.48-1-.52-1.1-1.16-2.14-1.72-3.23-.59-1.15-1.12-2.34-1.7-3.5-.18-.37-.41-.72-.65-1.05-.51-.74-.32-1.24.55-1.3,1.51-.11,1.77-.05,2.19,1.22.03.11.11.2.18.29.04.06.11.1.27.22.3-.44.6-.87.88-1.3.48-.74.84-.79,1.69-.19-.44,1.11-.89,2.18-2.37,2.28,0,.1-.05.22-.01.3.62,1.22,1.26,2.43,2.03,3.92Z"/> <path fill="currentColor" class="cls-1" d="M277,2.66c-.14,3.54-1.13,7.02.24,10.47-.57.52-1.23.51-1.85.5-.22,0-.58-.29-.64-.51-.38-1.43-.79-2.86-.67-4.38.16-2.05.27-4.1.4-6.14-1.01-.44-1.94-.86-2.88-1.25-.54-.22-.78-.57-.62-1.19.86-.23,1.69-.25,2.51.23.35.21.68.31,1.15.05.61-.34,1.35-.25,1.96.15.48.32.96.33,1.51.31,1.56-.05,3.12-.03,4.68-.04.08,0,.15,0,.23,0,.67.09,1.06.4,1.05.83-.01.46-.55.85-1.2.76-1.91-.26-3.8-.08-5.86.21Z"/> <path fill="currentColor" class="cls-1" d="M247.57,13c2.17-.71,4.15-1.36,6.21-2.03v-1.37c.83-.16,1.46-.02,1.95.65.17.24.41.43.61.65.54.57.39,1.14-.36,1.37-2.83.87-5.66,1.75-8.5,2.59-.49.14-1.06.12-1.57.03-.24-.05-.55-.44-.57-.7-.09-1.02-.2-2.06-.09-3.07.23-2.08.59-4.14.89-6.21.07-.45.1-.91.14-1.36.03-.45.21-.72.72-.64.15.03.3.04.45.05.98.1,1.19.3,1.07,1.3-.29,2.38-.64,4.75-.95,7.12-.06.47,0,.96,0,1.62Z"/> <path fill="currentColor" class="cls-1" d="M264.95,2.65c-.84.95-2.07.85-3.12,1.57-.04.61-.12,1.39-.13,2.18-.03,1.75-.02,3.5.46,5.22.18.64-.04.91-.69,1.01-.99.16-1.56-.14-1.72-1.18-.24-1.61-.35-3.25-.48-4.88-.06-.72,0-1.44,0-2.31-.76,0-1.51,0-2.25,0-.42,0-.84-.02-1.25-.07-.51-.07-.69-.45-.69-.9,0-.49.41-.5.73-.54.98-.1,1.96-.17,2.94-.26.19-.02.39-.02.55-.1,1.69-.84,3.41-.47,5.12-.12.16.03.29.2.54.38Z"/> </g> <path fill="currentColor" class="cls-1" d="M51.58,102.01c-.77,0-1.63,0-2.5,0-.91,0-1.83.09-2.78-.36-.15-.9-.43-1.83-.42-2.77.04-3.58.13-7.17.31-10.75.09-1.82.4-3.64.58-5.46.03-.33.05-.74-.11-1-.49-.77-.41-1.6-.38-2.43.05-1.3.1-2.59.13-3.89,0-.17-.07-.35-.11-.5-.88-.07-1.7-.17-2,.81-.4-.03-.71-.07-1.01-.08-.91-.02-1.05.09-1.15,1-.08.72-.11,1.45-.19,2.17-.31,2.8-.17,5.65-1.12,8.36-.2.57-.25,1.2-.29,1.8-.17,2.51-.31,5.02-.46,7.54-.09,1.52-.2,3.04-.31,4.65-1.29.13-2.41.09-3.54-.14l-3.22-.37c-.76-.08-1.46-.13-2.16-.24-3.02-.47-6.03-.95-9.04-1.43-.15-.02-.3-.08-.45-.07-2.49.13-4.81-.7-7.18-1.29-.92-.23-1.86-.33-2.9-.51,1.8-9.91,4.26-19.61,9-28.59.05,0,.44-1.34.49-1.35l-.53-1.22c-.38-.08-.77-.1-1.22-.03-2.01,4.11-3.98,8.22-5.45,12.7-.16-.27-.22-.35-.25-.45-.04-.11-.01-.25-.07-.33-.88-1.19-.7-2.5-.48-3.84.1-.61-.02-1.26-.04-1.84-1.87-.49-2.08-.47-2.68,1.13-.68,1.81-1.22,3.69-1.72,5.56-.77,2.91-1.48,5.84-2.18,8.77-.85,3.56-1.72,7.11-2.48,10.69-.84,3.99-1.66,7.99-2.05,12.05-.38,3.95-.88,7.89-1.07,11.85-.2,4.42-.1,8.85-.14,13.28,0,.99-.04,1.98-.13,2.97-.31,3.24-.42,6.46.06,9.7.17,1.17.46,2.16,1.65,2.53.41,1.43.13,2.89.73,4.19,1.23-.22,1.85-.88,1.81-2.1-.04-.95-.26-1.88-.37-2.82-.27-2.12-.59-4.23-.76-6.35-.19-2.47-.29-4.95-.31-7.43-.01-1.52.03-3.07.36-4.54.48-2.15,1.23-4.24,1.88-6.36.04-.13.15-.23.22-.34-.05,10.4.63,20.71,2.1,31.18.52-.22,1.04-.28,1.2-.55.36-.61.93-1.25.39-2.07-.09-.14-.01-.39-.01-.92.55,1.07,1.16.65,1.73.52.52-.12.6-.42.35-.84-.9-1.46-1.28-3.09-1.53-4.75-.29-1.88-.52-3.77-.76-5.66-.52-4.05-.92-8.11-.96-12.19-.03-2.97,0-5.95.17-8.92.2-3.42.52-6.84.9-10.26.3-2.77.74-5.52,1.14-8.27.15-1.05.35-2.08.52-3.1.61.12,1.12.23,1.71.34-.05.22-.11.43-.14.64-.11.75,0,.99.72,1.19,1.96.55,3.83,1.45,5.94,1.45.6,0,1.2.22,1.8.32,1.96.31,3.91.69,5.88.87,1.93.18,3.86.26,5.8.34l4.62.12h2.41c-.1,1.55-.19,3.1-.29,4.66l-.02,5.23c.31,3.23.6,6.46.94,9.68.28,2.65.7,5.29.9,7.95.24,3.2.55,6.38,1.14,9.54.06.31.22.6.33.89,1.68-.46,1.87-.77,1.57-2.27-.1-.48-.18-.98-.22-1.47-.17-2.05-.33-4.09-.49-6.14l.23-.03c.05.17.12.34.15.52.15.75.3,1.49.45,2.24.08.4.32.61.73.53.87-.17,1.37-1.07,1.15-1.96-.23-.92-.45-1.85-.65-2.78-.14-.65-.2-1.28.55-1.69.2-.11.31-.5.33-.77.03-.37-.06-.76-.1-1.14-.28-2.54-.49-5.09-.88-7.61-.19-1.24.03-2.05,1.22-2.54.67-.28.78-.84.66-1.52-.23-1.35-.41-2.71-.6-4.07-.04-.25,0-.52,0-.75,1.28-.69,1.37-.93.96-2.27-.21-.69-.4-1.39-.55-2.1-.17-.77-.28-1.54-.43-2.38,1.87-.22,3.64.12,5.37-.29-.13-.63-.23-1.14-.36-1.79ZM7.07,105.89c-.21,2.24-.33,4.49-.64,6.72-.31,2.18-.77,4.34-1.23,6.49-.47,2.17-1.02,4.32-1.53,6.48-.56-3.94,1.74-22.03,3.83-26.26.05,2.2-.22,4.39-.42,6.57ZM8.09,90.77c-.76,2.7-1.66,5.36-2.52,8.04-.03.1-.12.19-.18.28-.05-.01-.1-.03-.16-.04.91-3.84,1.82-7.67,2.73-11.51.09.01.17.02.26.04.12,1.07.15,2.18-.14,3.19ZM43.5,87.89h-.12v-1.04s.08-.02.12-.04v1.07ZM44.36,76.8s-.04-.02-.06-.04v-.48s.04,0,.06,0v.52Z"/> </svg>