<svg width="100%" xmlns="http://www.w3.org/2000/svg" viewBox="0 0 300 265.87"> <path fill="currentColor" d="M249.15,119.76c-2.35-7.13-4.62-14.02-7.15-21.71-.31,1.36-.55,1.96-.56,2.56-.05,3.48-.43,7.01.07,10.42.34,2.31-.61,4.18-.86,6.25-.18,1.5-2.76,2.54-4.79,2.31-2.1-.23-2.91-.97-3.02-3.22-.15-3.1-.11-6.21-.17-9.31-.07-3.48-.11-6.96-.29-10.44-.32-6.1-.46-12.19.3-17.8,1.71-1.04,3.11-1.78,4.39-2.69,2.87-2.05,5.16-1.68,7.11,1.25.83.06,1.66.15,2.49.18.82.03,1.64,0,2.82,0,.21,4.32.4,8.43.6,12.55.2.03.39.07.59.1.81-2.8,1.78-5.56,2.37-8.41.4-1.91-.09-3.88,1.69-5.57.77-.73.32-2.72.45-4.38,1.28-.6,2.54-1.12,4.22-.96,2.73.25,5.49.07,8.78.07.34,2.89.87,5.94,1.04,9,.53,9.84,1.66,19.58,4.02,29.18.81,3.28.03,5.27-4.12,5.28-.96,0-1.92-.18-2.88-.13-2.26.11-4.33.53-6.11,2.27-2.83,2.77-6.32,3.63-11,3.19Z"/> <path fill="currentColor" d="M50.29,181c-3.91,3.91-5.23,3.91-8.19.07-1.17-1.51-2.44-2.61-4.37-2.82-.47-.05-1.1,0-1.39-.28-2.52-2.46-4.68-1.14-7.05.37-3.22,2.05-5.75,4.42-6.76,8.31-1.21,4.69-3.76,9.01-3.9,14-.09,3.36-.48,6.73-.26,10.06.43,6.47,1.24,12.92,3.71,18.99.62,1.52,1.58,3,2.71,4.18,2.98,3.12,5.98,3.87,8.51-1.22,2.96-5.95,5.2-12.36,5.96-19.12.22-1.98.42-3.96.67-6.36-3.78,1.22-6.88.69-9.88-1.31.49-1.51,1.59-1.86,2.81-1.94,4.52-.3,9.05-.56,13.57-.83.47-.03,1.13-.23,1.37,0,2.05,1.93,4.79,1.22,7.13,1.96.56.18,1.13.3,1.76.47,1.13,2.73.75,5.45.35,8.16-.37,2.55-1.78,4.98-.83,7.91.51-.09.94-.11,1.33-.25,1.92-.7,2.89-.28,2.89,1.5-.02,5.87-.15,11.74-.24,17.61,0,.1-.11.2-.48.79-2.15.02-4.62-.1-7.07.11-2.75.24-4-2.08-5.76-2.95-.39-5.18-.76-10.16-1.14-15.14-.21-.07-.42-.14-.63-.21-.75,1.77-1.52,3.53-2.24,5.31-.63,1.55-.95,3.3-1.87,4.64-1.19,1.74-2.57,3.66-4.34,4.61-4.77,2.55-9.92,3.56-15.3,1.93-2.25-.68-4.3-1.83-5.38-3.96-1.47-2.87-3.14-5.77-3.88-8.86-2.92-12.21-2.97-24.48.17-36.71,1.85-7.19,5.58-12.9,12.23-16.56,1.84-1.01,3.66-1.72,5.79-1.65,6.15.21,11.87,1.78,16.81,5.54,1.19.91,2.03,2.28,3.18,3.62Z"/> <path fill="currentColor" d="M0,262.35c1.25-.54,2.24-1.16,3.31-1.39,9.16-1.94,18.26-4.22,27.7-4.52,6.65-.21,13.09-1.42,19.28-4.07,5.01-2.15,10.33-3.13,15.83-2.9,9.13.38,18.26.72,27.39,1.07,5.43.21,10.72-.19,15.95-2.12,6.7-2.46,13.83-3.01,20.9-3.63,11.6-1.02,23.23-1.57,34.76-3.6,8.74-1.53,17.7-1.74,26.5-2.96,9.39-1.3,18.71-3.08,28.05-4.71,7.21-1.26,14.44-2.42,21.58-3.99,8.8-1.93,17.71-1.09,26.57-1.54,1.91-.1,3.89.01,5.2,2.14-1.38,2.01-3.03,3.37-5.8,3.15-3.59-.28-7.2-.38-10.8-.4-8.44-.04-16.75,1.08-25.01,2.83-7.98,1.69-16,3.16-24.01,4.74-1.53.3-3.05.66-4.56,1.04-2.79.71-5.51,1.29-8.49,1.13-3.19-.17-6.43.49-9.63.86-.3.03-.57.92-.79.9-8.13-1-15.55,2.87-23.46,3.37-2.63.17-5.23.72-7.86.9-8.27.58-16.55.97-24.81,1.67-2.61.22-5.11.69-7.76.12-1.67-.36-3.46.14-3.85,2.37-2.7.96-5.35,2.53-8.11,2.76-5.49.45-11.04.28-16.56.15-8.17-.19-16.33-.8-24.49-.77-4.81.01-9.55,1.32-13.91,3.45-3.66,1.78-7.51,2.42-11.47,2.82-6.81.69-13.64,1.27-20.44,2.11-4.64.58-9.26,1.41-13.85,2.34-3.13.63-5.31-.42-7.36-3.34Z"/> <path fill="currentColor" d="M49.16,39.93c1.96,5.01,3.19,9.69,3.5,14.67.32,5.15-1.59,8.41-6.36,10.35-7.42,3.01-14.94,5.23-23.08,4.5-1.23-.11-2.37-.25-3.71.58-.94.58-2.93-.15-4.26-.73-1.24-.54-.72-1.86-.42-2.89,1.08-3.81,2.14-7.62,3.25-11.43.43-1.49.82-2.93,2.5-3.73.58-.28.77-1.6.95-2.48,2.03-9.76,4.38-19.42,8.18-28.68,3.71-9.03,10.39-14.09,20.01-15.37.71-.09,1.44-.1,2.15-.17,3.23-.35,6.5-.89,9.3,1.47,3.52,2.95,7.03,5.94,7.82,10.84.48,2.95,1.15,5.91,1.24,8.89.17,5.64-2.34,9.37-7.69,11.32-3.13,1.14-6.48,1.7-9.75,2.45-1.04.24-2.13.25-3.63.42ZM32.27,31.89c2.18,0,4.16-.44,5.83.08,7.45,2.3,14.92,1.92,22.4.55,2.67-.49,3.59-1.56,3.34-4.27-.34-3.67-.82-7.42-1.93-10.91-1.53-4.8-6.84-8.02-11.85-7.48-4.32.46-7.92,2.59-10.68,5.99-3.87,4.76-5.9,10.31-7.11,16.04ZM21.76,63.28c.79-.32,1.28-.6,1.82-.71.55-.12,1.17-.21,1.7-.07,6.74,1.77,13.01-.08,19.27-2.31,1.36-.48,1.78-1.33,1.85-2.69.41-7.96-3.59-14.93-10.76-18.42-1.55-.75-3.24-1.22-5.32-2-1.57,7.42-3.07,14.53-4.65,21.95-1.32.78-4.1.61-3.91,4.24Z"/> <path fill="currentColor" d="M94.44,198.95c.7,6.51-1.07,12.19.39,17.95.61,2.4.38,5,.63,7.51.47,4.72,1.79,9.19,4.14,13.31.9,1.58,1.36,3.13-.08,4.57-.53.53-1.31.99-2.04,1.11-1.15.18-2.35.05-3.7.05-3.14-5.3-5.24-10.98-6.01-17.14-1.08-8.61-1.35-17.28-.71-25.91.8-10.86,4.14-20.89,11.06-29.57,2.1-2.63,4.72-4.03,7.85-4.66,6.26-1.25,12.02.59,17.16,3.81,3.54,2.22,5.02,6.36,6.12,10.34.23.85-.44,2.07-.94,2.98-3.47,6.36-8.79,10.36-15.81,12.12-2.42.61-4.82,1.27-7.7,2.04.91.73,1.46,1.29,2.11,1.67,9.05,5.25,18.02,10.61,26.32,17.03.86.66,1.77,1.26,2.57,1.98,1.44,1.29,1.34,2.49-.22,3.45-1.99,1.23-6.02.59-7.93-.81-5.99-4.42-11.99-8.83-18.19-12.95-4.58-3.04-9.46-5.62-15.02-8.88ZM95.6,195.28c5.16-1.38,9.73-2.74,14.36-3.81,5.01-1.16,8.07-4.48,10.31-8.76.45-.86.72-2.24.33-3.02-1.25-2.55-2.52-5.24-4.39-7.32-2.94-3.28-9.23-2.76-11.83.73-4.35,5.85-7.17,12.43-8.77,19.53-.15.66-.02,1.37-.02,2.66Z"/> <path fill="currentColor" d="M36.42,103.36c.85.75,1.4,1.36,2.07,1.8,6.08,4.01,9.53,10.05,12.58,16.37.49,1.01.7,2.36.51,3.47-.75,4.49-1.21,9.13-2.71,13.39-2.17,6.14-6.34,10.91-12.2,14.12-6.09,3.33-12.69,4.27-19.45,4.72-1.2.08-2.4.22-3.6.15-1.18-.07-2.5-.07-3.48-.61-4.43-2.46-8.17-5.51-8.42-11.19-.46-10.61.1-21.12,2.78-31.44.21-.82.89-1.69,1.59-2.18,2.23-1.55,3.69-3.66,5.01-5.96,2.55-4.46,5.13-8.91,7.81-13.29,4.05-6.61,11.6-8.36,17.92-7.27,5.21.9,8,4.47,7.69,9.28-.21,3.25-2.57,5-4.85,6.76-.91.71-2.01,1.18-3.27,1.89ZM20.37,103.41c-.81,1.58-1.43,3-2.23,4.3-.86,1.41-1.61,3.2-2.91,3.98-4.01,2.39-5.1,6.15-5.52,10.3-.52,5.13-.98,10.27-1.24,15.42-.11,2.25.11,4.57.58,6.77,1.19,5.6,5.28,8.54,10.96,8.06,2.26-.19,4.5-.65,6.76-.83,4.91-.39,8.91-2.4,12-6.27,3.26-4.08,4.29-8.92,5.48-13.88,1.19-4.96.12-8.93-2.73-12.78-.14-.19-.26-.4-.39-.6-4.94-7.34-11.32-12.63-20.75-14.48ZM22.78,96.93c2.43,1.16,4.22,2.09,6.08,2.88,2.56,1.09,5.24.42,7.14-1.67,1.72-1.89,2.14-3.67,1.1-5.5-1.39-2.44-3.64-3.42-6.34-3.06-1.1.15-2.38.63-3.12,1.39-1.71,1.77-3.15,3.82-4.86,5.96Z"/> <path fill="currentColor" d="M212.71,220.72c0-4.05-.05-7.87.01-11.69.15-9.24.3-18.47.57-27.71.07-2.39.43-4.79.87-7.14.55-2.95,1.3-5.85-.07-8.81.61-.38.97-.74,1.39-.84,3.15-.69,6.38-1.11,9.47-2.01,6.4-1.85,12.62-.81,18.83.81.41.11.72.57,1.12.91-.43,1.61-1.17,2.7-2.95,2.56-1.42-.11-2.94-.01-4.24-.49-4.75-1.74-8.97.45-13.32,1.58-.53.14-1.09.97-1.27,1.58-1.58,5.58-2.69,11.22-1.69,17.05.04.21.26.39.57.83,7.21-.32,14.57-1.57,22.44-.79-.33,1.27-.6,2.34-.95,3.68.74.16,1.6.35,2.99.66.29,1.5.63,3.27,1.01,5.22.84.1,1.89.22,2.94.35-1.74,2.48-3.54,3.17-14.03,6.12-5.02,1.41-10.05,2.21-15.68,1.37-.43,4.36-.5,8.39.16,12.4.1.63,1.29,1.47,2.03,1.53,6.26.48,12.44.3,18.46-1.97,2.14-.81,4.61-.74,7.07-1.1.8,2.35-.43,3.28-2.01,3.64-5.03,1.13-10.06,2.5-15.17,3.02-4.86.49-9.81.06-14.72-.05-1.16-.03-2.31-.42-3.83-.72ZM221.13,192.44c4.21-.11,8.02-.96,9.77-2.24-3.38.33-6.48-.2-9.77,2.24ZM228.05,200.57c-.02-.2-.04-.4-.06-.6-2.21.1-4.42.2-6.62.3.03.33.06.66.09.99,2.2-.23,4.39-.47,6.59-.7Z"/> <path fill="currentColor" d="M187.16,170.78c-1.24,1.55-2.11,2.63-3.26,4.06,1.13.24,2,.5,2.89.59,2.31.22,3.77,1.17,4.99,3.39,4.41,8.02,7.42,16.63,10.87,25.04,1.75,4.27,2.16,8.83.74,13.42-1.23,4.01-2.5,7.93-4.41,11.74-4.2,8.35-18.47,9.86-25.29,3.8-5.32-4.72-9.02-10.12-10.01-17.35-.7-5.06-.93-9.93.37-14.97,2.28-8.89,4.91-17.58,10.16-25.24.81-1.19,1.67-2.35,2.59-3.46,1.87-2.24,4.04-3.29,6.94-1.75.79.42,1.81.4,3.42.72ZM183.15,178.41c-4.02,2.16-4.59,2.31-6.12,6.49-2.26,6.17-4.18,12.49-5.89,18.84-.64,2.36-.54,5.01-.32,7.49.63,7.4,3.03,14.03,8.94,19.01,5.11,4.3,7.97,4.55,11.83-2.22.24-.42.48-.84.63-1.3,1.22-3.63,2.76-7.2,3.52-10.93.53-2.62.56-5.62-.17-8.17-2.93-10.14-6.71-19.97-12.41-29.21Z"/> <path fill="currentColor" d="M203.02,3.37c-.55.84-1.14,1.72-1.62,2.46,2.1.32,4.32.34,6.29,1.05,3.5,1.24,6.91,2.78,10.24,4.42,4.9,2.41,7.48,6.59,8.4,11.86,1.34,7.68.18,15.13-2.7,22.23-1.84,4.54-4.22,8.89-6.67,13.14-3.7,6.4-8.51,8.8-16.85,6.87-4.29-.99-8.4-2.85-12.48-4.57-3.06-1.29-4.88-4-5.76-7.05-2.43-8.41-2.89-16.84-.91-25.54,2.09-9.2,7.13-16.68,12.36-24.16.41-.59.94-1.09,1.43-1.61,3.25-3.51,5.43-3.29,8.27.92ZM195.79,12.73c.18-.22-.07.04-.27.33-1.01,1.49-2.05,2.97-2.99,4.51-6.79,11.15-7.69,23.03-4.33,35.42.75,2.77,2.56,4.53,5.29,5.44,2.28.76,4.52,1.62,6.77,2.46,4.56,1.71,7.14,1.23,10.08-2.75,6.8-9.23,11.24-19.3,10.15-31.15-.37-3.98-1.49-7.85-4.82-10.1-3.33-2.25-7.26-3.62-10.95-5.3-.49-.22-1.19-.07-1.77.02-2.21.32-4.41.68-7.16,1.12Z"/> <path fill="currentColor" d="M247.7,29.03c-1.49,5.77-3.41,11.15-3.21,17.09,7.84-.74,15.31-1.44,23.15-2.17.34,2.04.62,3.75.93,5.66-3.86,1.98-8.06.92-12.03,1.49-3.91.57-7.85.9-11.82,1.34-.53.88-.9,2.39-1.81,2.87-2.91,1.53-4.68.32-5.01-2.99-.78-7.82,1.08-15.3,3.05-22.72,1.89-7.09,3.45-14.22,4.23-21.52.33-3.09.72-3.06,4.02-3.75,2.25-.47,4.15.03,6.21.5,7.26,1.64,14.53,3.28,21.82,4.78,2.46.5,5,.6,7.51.83,2.66.25,3.52,1.63,2.46,4.02-1.11,2.5-3.43,3.04-5.76,3.41-1.39.22-2.84.04-4.52.04-.16-.56-.39-1.32-.65-2.21-8.01-1.61-16.08-3.23-24.53-4.93-.69,4.06-1.31,7.8-1.97,11.69,5.51,2.13,11.04,2.61,16.49,3.13,5.35.52,10.76.42,16.23.6,1.31,1.94.69,3.79-.75,5.08-1.35,1.21-3.03,2.24-5.15.98-.82-.49-2.07-.31-3.13-.36-5.63-.29-11.27-.4-16.88-.9-2.83-.25-5.59-1.21-8.93-1.98Z"/> <path fill="currentColor" d="M86.75,97.89c-1.1-.48-1.94-.85-3.08-1.35.77-.81,1.25-1.48,1.87-1.94,1.26-.92,3.02-1.44,3.83-2.63,3.3-4.88,8.4-3.32,12.89-3.95.83-.12,1.68-.03,2.52-.03,5.82.05,9.08,2.84,9.81,8.71.49,3.92.78,7.88.93,11.83.23,5.89-.27,11.73-1.41,17.53-.95,4.85-3.16,8.81-7.48,11.35-2.99,1.76-5.93,3.81-9.18,4.89-5.18,1.72-10.22,1.02-14.36-3.05-2.49-2.45-3.04-5.82-3.34-8.92-.41-4.25-.15-8.63.32-12.89.76-6.88,3.48-13.19,6.68-19.56ZM109.25,110.7c-.17-.02-.33-.04-.5-.06,0-.96.03-1.92,0-2.88-.06-1.56-.08-3.13-.27-4.67-.3-2.37-.5-4.8-1.17-7.07-1.11-3.74-3.4-4.79-7.17-3.89-2.88.69-5.06,2.04-6.11,4.97-.36,1-1.05,1.88-1.57,2.83-4.63,8.51-7.16,17.51-6.17,27.27.24,2.37.7,4.77,1.44,7.02,1.19,3.65,4.77,5.77,7.82,4.57,5.67-2.24,10.56-5.49,11.65-12.09.87-5.3,1.38-10.67,2.06-16Z"/> <path fill="currentColor" d="M219.23,94.34c-1.44,1.45-2.97,2.01-4.92,1.97-6.84-.16-13.69-.19-20.54-.26-.57,0-1.15.1-1.85.16-.24,2.52-.4,4.89-.71,7.23-.19,1.48.5,2.18,1.75,2.72,3.17,1.37,6.56,1.18,9.87,1.35,3.47.18,6.96-.11,10.44-.19.84-.02,1.68-.09,2.52-.06,1.29.05,3.09-.13,2.9,1.72-.11.98-1.41,2.38-2.41,2.61-2.55.59-5.24.93-7.86.83-5.26-.21-10.51-.78-15.77-1.19-.69-.05-1.39,0-2.29,0v10.5c1.04.37,2.22.95,3.45,1.19,6.94,1.32,13.78,1.73,20.31-1.92,1.82-1.02,4.03-1.34,5.88-1.92,1.81,1.75,1.36,3.16-.21,4.07-1.85,1.07-3.88,1.87-5.87,2.69-10.31,4.24-20.42,2.91-30.37-.95,0-3.84-.18-7.52.05-11.17.24-3.71,1.02-7.38,1.31-11.08.25-3.15,1.07-6.37-.97-9.38-.75-1.1.07-2.32,1.56-2.56,1.53-.25,3.16-.59,4.65-.34,8.02,1.3,16.06.54,24.09.4,3.21-.06,4.29.1,4.98,3.61Z"/> <path fill="currentColor" d="M273.58,155.3c.47,4.66.89,9.17,1.38,13.68.63,5.84,1.44,11.66,1.91,17.51.29,3.67-.02,7.39.17,11.08.17,3.22.26,6.53,1.11,9.61,1.12,4.1-1.71,5.64-3.57,7.68-1.51-1.08-2.93-1.77-3.87-2.86-1.05-1.23-1.95-2.75-2.4-4.29-2.27-7.89-3.4-15.98-3.31-24.19.09-8.28.49-16.56.77-24.83.11-3.16.65-3.66,3.85-3.64,1.06,0,2.11.13,3.96.25Z"/> <path fill="currentColor" d="M92.11,57.97c6.2.56,12.31.53,18.37-.32,4.77-.67,9.5-1.28,14.33-1.21,1.54.02,2.94-.35,3.1,1.8.16,2.02-.98,3.69-2.76,3.94-.59.08-1.2.06-1.8.08-9.01.28-18.01.66-27.02.79-3.2.05-6.42-.41-9.6-.82-1.59-.21-2.24-1.19-2.21-3.04.11-9.82,3.51-18.81,6.67-27.88,2.21-6.34,4.32-12.72,6.48-19.08.37-1.1.76-2.19,1.2-3.46,1.2.34,2.12.52,2.98.87,1.38.57,2.06,1.56,1.64,3.15-.27,1.04-.38,2.13-.65,3.18-2.24,8.57-5.2,16.9-8.21,25.23-1.88,5.22-3.43,10.73-2.51,16.76Z"/> <path fill="currentColor" d="M292.71,9.35c2.11-.47,4.07-.9,5.86-1.29,1.43,1.61,1.61,3.07,1.3,4.87-.96,5.55-1.87,11.13-2.47,16.73-.44,4.05-.35,8.16-.52,12.24-.2,4.68-.49,9.36-.61,14.04-.04,1.55-.61,2.59-1.97,3.07-1.28.46-2.31-.16-3.05-1.27-.19-.29-.44-.54-.69-.85-1.55.26-3.07.51-4.64.77-1.54-.81-1.83-2.22-1.96-3.88-.41-5.36.13-10.65,1.96-15.63,3.01-8.19,4.3-16.73,5.94-25.21.22-1.16.54-2.3.85-3.57Z"/> <path fill="currentColor" d="M142.11,120.95c1.02-1.61,1.79-2.78,2.52-3.98,3.93-6.47,7.96-12.86,13.01-18.56,1.34-1.51,2.56-2.71,4.72-2.7.75,0,1.5-.61,2.47-1.03.87,1.55,1.51,2.79-.21,4.33-4.78,4.28-8.39,9.52-11.79,14.9-2.88,4.56-5.71,9.16-8.66,13.69-2.28,3.49-2.8,3.63-7.4,2.88-1.85-8.43-4.38-16.8-5.09-25.56-.2-2.5-.77-4.97-1.22-7.45-.42-2.3-.22-2.77,1.92-3.43,1.21-.38,2.45-.64,4.02-1.04,2.18,9.15,1.98,18.67,5.71,27.96Z"/> <path fill="currentColor" d="M19.56,174.24c-.53-1.31-.91-2.25-1.56-3.89,1.45.59,2.3.94,3.5,1.43-.69.88-1.21,1.53-1.93,2.46Z"/> </svg>