<svg width="100%" xmlns="http://www.w3.org/2000/svg" viewBox="0 0 300 87.64"> <path fill="currentColor" d="M13.83,87.64c-.2-.59-.31-1.04-.5-1.46-.22-.51-.53-.99-.75-1.5-.31-.71-.57-1.44-.85-2.17-.46-1.21-.84-2.45-1.4-3.61-1.02-2.1-1.61-4.31-2.22-6.54-.68-2.51-1.63-4.95-2.53-7.39-.63-1.71-1.41-3.36-2.09-5.06-.54-1.34-1.04-2.7-1.53-4.06-.14-.38-.2-.79-.28-1.19-.25-1.18-.51-2.36-.75-3.54-.25-1.22-.48-2.44-.73-3.66-.04-.18-.15-.37-.13-.53.31-1.85-.14-3.69-.05-5.54.09-1.83.07-3.66.21-5.48.11-1.36.29-2.73.62-4.06.3-1.23.26-2.43.19-3.65-.16-2.92-.13-5.83.35-8.71.31-1.83,1.15-3.45,2.15-5,1.6-2.48,3.83-4.36,6.01-6.29.89-.79,1.77-1.61,2.64-2.42,1.56-1.45,3.23-2.68,5.38-3.14.72-.16,1.39-.52,2.09-.78,2.88-1.06,5.89-1.27,8.93-1.26.26,0,.51-.07.77-.11,3.15-.5,6.28-.75,9.45-.07,5.61,1.21,10.33,3.84,14.19,8.16,2.99,3.35,4.88,7.21,6.04,11.47.36,1.32.46,2.73.52,4.1.12,3.13.07,6.26-.41,9.38-.4,2.62-.81,5.23-1.59,7.77-.36,1.17-.81,2.31-1.24,3.46-1.39,3.7-3.29,7.11-5.81,10.16-1.35,1.64-2.84,3.16-4.26,4.73-1.75,1.94-3.49,3.88-5.25,5.82-1.23,1.35-2.46,2.69-3.71,4.02-1.43,1.52-2.87,3.02-4.32,4.53-.31.32-.62.66-.98.91-2.87,2.04-5.44,4.43-8,6.83-1.87,1.75-4.05,3.05-6.32,4.2-.83.42-1.67.84-2.51,1.23-.36.17-.76.26-1.33.44ZM46.3,6.58h0c-.8-.39-1.58-.82-2.39-1.17-3.02-1.31-6.11-2.3-9.45-2.53-1.6-.11-3.12,0-4.63.39-.84.22-1.6.15-2.41-.05-.49-.12-1.07-.25-1.52-.11-2.03.62-4.08,1.21-6.03,2.05-4.31,1.85-7.27,5.3-9.96,8.95-2.87,3.9-4.87,8.3-6.52,12.84-.21.58-.34,1.24-.31,1.85.12,2.16.45,4.31.49,6.47.08,4.44.38,8.86,1.07,13.26.35,2.21.59,4.44,1.01,6.63.56,2.89,1.22,5.76,1.9,8.63.43,1.81.87,3.62,1.89,5.24.96,1.51,1.79,3.1,2.73,4.63,1.82,2.96,3.67,5.89,5.51,8.83.23.36.47.71.76,1.13,2.24-1.64,4.51-3,6.39-4.9,1.71-1.73,3.55-3.31,5.56-4.68.8-.54,1.6-1.12,2.27-1.81,2.4-2.46,4.75-4.96,7.09-7.48.68-.73,1.26-1.56,1.88-2.34.92-.91,1.83-1.82,2.75-2.73,1.01-.97,1.97-1.99,2.92-3.28-.37.14-.54.21-.94.36.26-.34.37-.48.48-.62,1.32-1.57,2.64-3.13,3.97-4.69.21-.25.5-.43.73-.66.25-.25.51-.51.7-.81.16-.25.2-.56.31-.84.9-2.12,1.85-4.22,2.69-6.36,1.14-2.89,1.63-5.95,2.01-9.02.2-1.63.18-3.28.34-4.91.14-1.49.26-2.98-.16-4.44-.35-1.23-.12-2.58-.81-3.73.22-1.2-.55-2.13-.85-3.19-.12-.43-.26-.85-.41-1.35-1.06-.21-1.32-1.12-1.52-2.08.21.25.43.5.8.93-.11-1.01-.46-1.66-.95-2.21-.92-1.03-1.85-2.05-2.79-3.05-2.44-2.58-5.27-4.61-8.61-5.88-2.63-1-5.33-1.68-8.16-1.71-.63,0-1.32-.2-2.07.34.37.04.57.09.76.08,2.37-.1,4.68.2,6.95.87,2.12.63,4.19,1.37,6.04,2.61.2.13.33.36.49.54ZM17.04,4.93c-.07-.07-.14-.15-.21-.22-.77.44-1.63.76-2.28,1.33-2.67,2.33-5.27,4.73-7.89,7.12-.3.27-.55.61-.79.94-1.95,2.64-2.87,5.62-2.96,8.87,0,.35.04.7.06,1.04,3.09-7.6,7.37-14.23,14.08-19.08ZM4.18,57.38c-1.45-7.09-2.2-14.27-2.63-21.5-.87,7.37.09,14.53,2.63,21.5ZM11.36,75.66s-.08.04-.12.06c.74,2.13,1.43,4.28,2.24,6.39.39,1.03.8,2.1,1.78,2.92.57-.25,1.16-.51,2.02-.89-.56-.46-1.01-.7-1.27-1.07-.73-1.03-1.39-2.11-2.06-3.18-.88-1.41-1.73-2.82-2.6-4.23Z"/> <path fill="currentColor" d="M106.42,46.65c-1.12-3.43-2.24-6.88-3.37-10.35-5.73-.38-11.39.33-16.96-.78-1.13,1.03-1.37,2.47-1.88,3.76-1.16,2.97-1.7,6.1-2.22,9.24-.58,3.55-.65,7.13-.39,10.71.2,2.66.64,5.26,2.19,7.6-.46.36-1.18.6-.71,1.4.21.06.49.13.85.22-.15.14-.22.24-.3.26-.14.03-.32.06-.44,0-.92-.41-1.81-.25-2.71.14-1.8-1.36-2.73-3.19-3.19-5.35-.68-3.21-.74-6.46-.62-9.7.12-3.36.64-6.68,1.41-9.95.24-1.02.44-2.05.74-3.04.55-1.81,1.07-3.64,2.08-5.27.1-.16.2-.33.23-.5.32-1.84,1.34-3.35,2.31-4.88.2-.31.37-.64.54-.97.67-1.33,1.3-2.68,2.03-3.98.52-.91,1.17-1.75,1.77-2.62.02-.03.06-.05.07-.08.29-1.22,1.26-2.03,1.83-3.09.29-.55.7-1.04,1.04-1.57,1.61-2.55,3.46-4.93,5.41-7.22.36-.42.66-.89,1.03-1.38.33.14.67.28,1.07.45.76-1.14,1.85-.07,2.79-.44,0,.31-.08.58.02.75.12.2.4.3.47.35.14.67.19,1.22.38,1.72.93,2.42,1.26,4.98,1.78,7.5.76,3.68,1.53,7.37,2.32,11.05.19.87.47,1.72.65,2.59.12.55.43.71.94.74,1.16.06,2.31.15,3.46.23.34.02.68.08,1.01.05,1.2-.13,1.76.72,2.37,1.5.28.36.13.76-.33.84-.39.07-.8.02-1.28.02-.06.66-.4.67-1,.55-1.19-.22-2.41-.28-3.77-.42.03.46-.02.84.09,1.16.88,2.56,1.82,5.1,2.66,7.67.44,1.36.72,2.78,1.06,4.16-.48.07-.9.13-1.42.2-.05-.12-.14-.35-.25-.63-.19.13-.39.26-.62.41.2.22.37.41.55.61-.11.1-.17.19-.21.18-.18-.03-.42-.2-.52-.14-.83.52-1.43-.35-2.17-.36-.13,0-.26-.25-.37-.4-.29-.38-.57-.77-.84-1.17-.33-.5-.16-1.24.43-1.76ZM98.19,15.11c-2.05,1.66-10.56,15.58-11.1,18.22h15.12c-1.91-5.93-2.29-12.16-4.01-18.22ZM90.11,24.34c.57-.5.94-.82,1.36-1.2.14-.52.32-1.13.49-1.74-.64.72-1.13,1.5-1.6,2.29-.07.12-.1.26-.25.66ZM102.61,21.52c.09,0,.19-.02.28-.02-.17-.67-.33-1.35-.5-2.02-.07.02-.14.03-.22.05.14.66.29,1.33.43,1.99ZM101.06,13.28c-.1.03-.19.05-.29.08.17.54.35,1.09.52,1.63.1-.03.19-.06.29-.09-.17-.54-.35-1.08-.52-1.61ZM92.3,20.56q.8-.47.85-1.35c-.34.54-.59.94-.85,1.35ZM96.32,15.74c-.83.05-1.05.48-1.17,1.02.34-.29.68-.59,1.17-1.02ZM102.9,23.11l.31-.1c-.11-.32.01-.71-.57-.88.09.33.17.65.26.98ZM101.61,15.65c.05.38-.31.86.33,1.25-.13-.5-.23-.87-.33-1.25ZM102.05,17.37c-.08,0-.17.02-.25.03.05.17.09.34.14.51.04,0,.08-.01.11-.02v-.52Z"/> <path fill="currentColor" d="M210.68,46.1c-.12-.44-.33-.8-.29-1.13.31-2.78.64-5.55,1.6-8.2.24-.67.55-1.31.81-1.97.13-.34.22-.7.34-1.09-.26-.08-.46-.14-.65-.2-.02-1.26.29-1.61,1.34-2.09.43-.2.73-.75,1-1.19.41-.67.74-1.38,1.1-2.08.63-1.23,1.29-2.42,2.12-3.55,1.01-1.38,1.82-2.91,2.72-4.37.59-.95,1.18-1.9,1.72-2.77.63-.18,1.19-.41,1.76-.47.49-.05,1,.09,1.7.17.82.63,1.11,1.78,1.36,2.88.35,1.56.5,3.16.71,4.75.18,1.36.33,2.73.49,4.1.97.32,1.81-.16,2.69-.22,1.22-.08,2.45-.21,3.67-.2.91,0,.97.15,1.56,1.58-.34,1.03-1.06,1.38-2.13,1.39-1.63.02-3.26.19-5.03.31.15,1,.23,1.91.43,2.8.56,2.54,1.13,5.09,1.79,7.61.19.74.09,1.29-.4,1.87-.79-.07-1.61-.22-2.33.38-.13-.16-.25-.32-.47-.59-.24.31-.44.57-.72.93-.12-.25-.23-.51-.37-.75-.12-.21-.23-.49-.42-.57-.62-.27-.79-.84-.82-1.36-.1-1.53-.47-3-.8-4.49-.32-1.45-.58-2.92-.86-4.39-.05-.25-.13-.49-.22-.83-1.14.08-2.25.15-3.36.23-.82.07-1.63.19-2.45.23-.53.03-.81.28-1,.74-1.29,2.99-2.26,6.07-2.81,9.28-.06.37-.07.74-.11,1.11-.11,1.25-.64,1.85-1.86,2.01-.55.07-1.1.07-1.8.1ZM223.39,23.18c-2.24,2.79-4.17,6.02-4.25,7.14,1.54-.25,3.06-.49,4.56-.74-.1-2.13-.2-4.18-.31-6.41Z"/> <path fill="currentColor" d="M253.42,26.56c.68-.03,1.28-.08,1.87-.09,1.23-.02,2.46-.08,3.69-.01.59.03,1.3.05,1.48.9.03.14.36.22.53.32-.07,1.16-.3,1.43-1.34,1.52-1.75.14-3.49.26-5.37.39,1.07,4.09,2.61,7.98,4.71,11.68-.19.26-.37.53-.58.82-.75-.29-1.37-1.02-2.28-.46.09.19.17.38.31.67-.59-.2-1.09-.43-1.61-.53-.86-.16-1.17-.81-1.48-1.49-1.22-2.68-2.2-5.46-3.08-8.28-.25-.81-.49-1.63-.76-2.52-2.06-.18-4.1-.4-6.14-.17-.01.09-.03.18-.04.26.3.09.6.17.93.27-1.31.39-1.33.38-1.98,1.76-1.16,2.47-2.17,4.99-2.64,7.69-.08.48-.1.96-.14,1.45-.04.43-.24.76-.67.76-.64,0-1.24.67-1.97.01-.23-.21-.91.08-1.29.13-.46-.61-.86-1.14-1.32-1.76.89-.34.99-1.19,1.13-1.86.32-1.54.83-3,1.45-4.43-.22-1.29.87-2.06,1.25-3.11.38-1.04.89-2.05,1.43-3.02,1.15-2.03,2.37-4.03,3.56-6.04.06-.1.11-.2.17-.29.35-.46.13-1.12.78-1.54.51-.33.76-1.07,1.12-1.64.22-.35.7-.63.36-1.15.67-.62.35-1.69,1.07-2.31.45.19.9.38,1.41.6.26-.18.55-.39.94-.67.1.28.18.49.24.65.36,0,.76-.11,1.01.03.27.15.41.54.63.86.13-.01.31-.02.64-.05.65,3.49,1.3,6.99,1.98,10.65ZM248.63,26.45c-.28-1.44-.55-2.83-.86-4.47-1.1,1.55-2.08,2.85-2.81,4.47h3.67Z"/> <path fill="currentColor" d="M300,31.44c-.66.72-.62,1.49-.64,2.26-.05,1.94-.12,3.88-.19,5.82,0,.1-.07.2-.11.31-.13.01-.24.05-.34.03q-1.4-.37-1.92.96c-.58-.03-1.24-.71-1.64.04-.71-.19-1.31-.35-2.1-.56-1.25-1.26-.41-3.08-.72-4.89-.51.32-.91.62-1.36.84-.31.16-.61.68-1.05.05-.16-.23-1.55.3-1.75.61-1,1.55-2.38,2.22-4.25,2.16-3.33-.1-5.92-1.43-7.52-4.38-.48-.89-.73-1.97-.83-2.99-.27-2.68-.45-5.38-.02-8.05.28-1.75.63-3.51,1.42-5.12.03-.07.06-.14.08-.21.75-2.82,2.65-4.88,4.57-6.93,1.05-1.12,2.14-2.2,3.26-3.24.54-.5,1.19-.89,1.82-1.29.16-.1.52-.13.6-.03.14.16.25.51.17.68-.31.63-.61,1.28-1.07,1.8-1.41,1.59-2.89,3.13-4.35,4.68-1.82,1.93-2.77,4.32-3.53,6.79-1.03,3.35-.98,6.78-.47,10.2.35,2.34,1.39,4.31,3.56,5.54,1,.57,2.07.66,3.14.54.37-.04.82-.4,1.04-.74.53-.83.96-1.74,1.42-2.62.07-.13.03-.35.12-.41,1.12-.78,1.45-2.05,1.96-3.2.71-1.6,1.33-3.24,1.98-4.87.1-.26.13-.56.22-.99-.71.3-1.27.55-1.85.77-1.7.66-3.32.61-4.88-.48-.7-.49-1.53-.78-2.27-1.21-.27-.15-.52-.41-.68-.67-.08-.13.05-.57.11-.57.55-.06.92-.52,1.42-.62.56-.11,1.07.04,1.57.39.64.45,1.4.71,2.05,1.15.76.51,1.47.44,2.22.06.76-.39,1.51-.81,2.27-1.22.8-.43,1.62-.77,2.56-.67,1.05.12,1.3.49.91,1.49-1.06,2.71-2.14,5.41-3.22,8.11-.08.21-.17.41-.3.73.33-.03.57-.02.8-.08,1.09-.26,2.17-.54,3.25-.8.14-.03.31-.05.44-.01.79.23,1.58.47,2.36.73.54.18,1.03.59,1.71.12Z"/> <path fill="currentColor" d="M204.96,32.21c-.44.31-.8.57-1.36.96.6.08.92.13,1.28.18,0,.44-.14.66-.64.64-1.27-.06-2.54-.05-3.81-.1-2.57-.11-5.14-.27-7.71-.37-1.57-.06-3.14-.02-4.71-.06-.59-.01-1.17-.14-1.76-.16-.99-.03-1.98,0-2.96,0,0,.07,0,.15,0,.22h2.53c-1.81-.04-3.57.81-5.41.26-.41-.12-1.05-.31-1.39.32-.66-.56-.97.44-1.56.36-.61-.09-1.25-.06-1.87-.04-.43.02-.85.12-1.39.19.22.19.32.28.53.46-.39,0-.67.06-.9-.01-1.01-.32-1.96-.05-2.92.23-.67.19-1.37.28-2.06.39-.8.13-1.61.29-2.41.34-.43.03-.78.05-1.09.39-.26.28-.57.26-.92.1-.33-.15-.7-.19-1.05-.31-.8-.27-1.61-.51-2.38-.86-.45-.2-.42-.56-.11-1.25,1.64-.12,3.24-.21,4.82-.35,1.71-.15,3.42-.31,5.11-.54.95-.13,1.87-.47,2.81-.64,1.72-.31,3.45-.62,5.18-.84,1.29-.17,2.64-.03,3.89-.33,1.91-.46,3.84-.4,5.77-.52,1-.06,2.02.07,3.02.06,2.31-.03,4.61-.09,6.92-.16,1.19-.03,2.38-.12,3.57-.13.22,0,.57.14.65.32.26.52,1.02.4,1.22,1.04.05.16.65.14,1.09.21ZM178.27,33.5c-.01-.09-.03-.19-.04-.28-.64.17-1.28.34-1.92.51.02.06.03.12.05.19.64-.14,1.28-.28,1.92-.41ZM181.1,32.94c0,.1,0,.2,0,.3.4-.07.8-.15,1.2-.22,0-.05-.02-.1-.02-.15-.39.02-.79.05-1.18.07ZM186.89,33.1s0,.07,0,.1h1.89c0-.06,0-.13,0-.19-.63.03-1.26.06-1.89.09ZM174.31,34.19c-.01-.07-.03-.14-.04-.2-.4.08-.79.15-1.19.23.01.07.03.15.04.22.4-.08.79-.17,1.19-.25ZM182.33,33.66s0-.06,0-.1h-.8s0,.06,0,.1h.8ZM190.62,33.19s-.03-.08-.04-.11c-.16.02-.32.04-.48.06,0,.02,0,.04,0,.05h.51Z"/> <path fill="currentColor" d="M41.65,62.39c-.44.36-.87.73-1.36,1.14.53-1.14,2.95-3.73,4.12-4.4,0,.2,0,.36,0,.53-.92.91-1.84,1.82-2.75,2.73Z"/> <path fill="currentColor" d="M22.42,4.57c1.06-.34,2.13-.67,3.19-1.01.03.1.06.2.09.3-1.07.32-2.14.64-3.21.95-.02-.08-.05-.16-.07-.24Z"/> <path fill="currentColor" d="M46.3,6.58c1.02.24,1.71.98,2.55,1.69-.83-.17-1.85-.87-2.55-1.69h0Z"/> <path fill="currentColor" d="M50.49,10.11c-.49-.45-.98-.89-1.5-1.37.71.12.95.32,1.5,1.37Z"/> <path fill="currentColor" d="M52.36,12.29c-.45-.5-.9-1-1.34-1.5.8.18,1.02.89,1.53,1.34-.06.06-.12.11-.19.17Z"/> </svg>