<svg width="100%" xmlns="http://www.w3.org/2000/svg" viewBox="0 0 291.39 300"> <path fill="currentColor" d="M86.72,4.64c.14-.1.83-.62,1.46-1.09.63,1.96,1.2,3.71,2.07,6.4,1.44-1.85,2.17-2.77,3.01-3.85,2.99.64,3.59,2.64,3.3,5.38-.85,7.95-1.65,15.91-2.37,23.87-.3,3.31-.28,6.66-.54,9.98-.5,6.61-1.1,13.22-1.64,19.83-.71,8.7-1.23,17.42-2.2,26.09-.32,2.82-1.87,5.49-2.74,8.27-.38,1.21-1.07,2.83-.6,3.71,2.28,4.28.16,8.19-.6,12.22-.6,3.13-.94,5.96,1.45,8.86,1.22,1.49,1.27,4.25,1.22,6.42-.19,7.82-.93,15.64-.91,23.46.02,7.61.77,15.21,1.11,22.82.07,1.6-.18,3.21-.34,4.82-.45,4.4-.09,8.49,4.17,11.38,4.09-2.97,5.69-7.44,7.35-11.7,4.39-11.3,8.5-22.7,12.73-34.06,2.66-7.14,5.34-14.28,8.17-21.86,3.16-.47,6.8-1.25,10.46-1.46,2.55-.15,5.1-.84,7.28,2.42,1.59,2.38,5.44,3.24,8.73,5.02.8-6.59,1.58-13,2.35-19.41.09-.74.08-1.49.15-2.23.61-6.18,2.45-7.46,8.42-5.48,2.11.7,3.81,1.21,4.98-2.05.2,1.95.34,3.33.49,4.81h4.32v5.89c1.8-.52,3.14-.9,4.79-1.37,0,6.03-.06,11.89.02,17.74.07,5.76.44,11.53.38,17.29-.06,5.7,1.1,11.39-.68,17.49,1.05-.58,1.53-.68,1.66-.94,5.41-10.8,10.61-21.72,16.3-32.37,1.6-2.98,4.57-5.28,7.12-7.66.66-.61,2.24-.71,3.22-.42,5.12,1.51,10.83.44,15.59,3.59.7.46,1.68.5,3.27.93-.6-3.79-1.13-7.04-1.62-10.3-.56-3.74,1.41-8.02,4.45-8.36,2.36-.26,5.04.31,7.24,1.27,3.5,1.53,5.5,3.53,7.75,6.78.77-1.72,1.41-3.14,2.05-4.56.44.12.87.23,1.31.35.84,5.78,1.85,11.54,2.46,17.34.9,8.52,1.11,17.13,2.45,25.58.53,3.35-2.08,5.77-.97,9.13,1.03,3.11.98,6.6,1.29,9.94.52,5.52,1.72,10.88.7,16.62-.89,5.01-.02,10.34.07,15.48,6.61.3,11.52-2.97,16.91-4.55,4.93-1.44,9.91-2.71,14.64-3.99,2.22,1.03,4.28,1.98,6.67,3.09-.42,1.19-.97,2.77-1.74,4.99,2.72-.3,4.81-.52,7.86-.86-1.93,2.05-3.34,3.55-4.75,5.05.19.33.37.66.56.99,1.25-.12,2.5-.23,4.41-.41-.78.87-1.04,1.42-1.42,1.52-7.31,2.03-14.68,3.84-21.91,6.1-2.4.75-4.53,2.53-6.65,4.04-3.33,2.38-6.54,4.93-9.77,7.38-.94,7.26-1.7,14.65-2.88,21.96-1.03,6.39-2.3,12.75-3.93,19.01-.83,3.18-2.62,6.12-4.04,9.14-2.19,4.67-4.97,8.98-6.46,14.08-1.25,4.28-8.86,6.76-13.28,5.48-1.76-.51-3.65-1.32-5.35-1.08-4.38.62-7.6-1.2-10.54-4.01-1.62-1.55-3.16-3.17-4.77-4.73-1.32-1.28-2.48-2.8-4.79-1.77-.62.28-1.83-.27-2.54-.76-1.89-1.32-4.65-10.33-3.64-12.51,4.82-10.49,9.67-20.97,14.76-31.34,2.04-4.16,4.72-8,7.44-12.55-5.36-5.22-10.8-10.54-13.52-17.79-2.65-7.05-5.24-14.12-8.01-21.6-2.21,5.2-4.35,10.08-6.37,15-1.9,4.62-2.82,5.16-7.55,4.05-.9-.21-1.83-.64-2.71-.58-4.82.32-8.75-1.26-11.81-5.77-.97,1.61-1.85,2.76-2.4,4.04-1.71,3.99-4.99,5.17-8.95,5.24-4.26.08-8.54-.09-12.77.28-4.12.36-7.72-1.07-11.32-2.54-1.06-.43-1.96-1.59-2.62-2.62-2.16-3.39-4.18-6.88-5.9-9.73-3.06,3.67-5.92,7.52-9.25,10.92-1.46,1.5-3.76,2.46-5.85,2.99-3.04.77-6.52,1.94-9.3,1.14-4.73-1.36-10.09-.09-14.29-3.5-.82-.67-1.94-.96-3.27-1.59-.5,1.21-1.36,2.23-1.22,3.1.92,5.59-1.87,10.09-3.99,14.81-1.2,2.67-2.25,5.42-3.55,8.57-2.81,1.3-6.01,2.29-9.76,1.34-2.48-.62-5.19-.66-7.76-.49-3.79.25-6.84-1.01-9.75-3.32-13.98-11.1-21.56-25.93-24.98-43.09-1.16-5.83-1.72-11.8-2.36-17.72-.27-2.51-.05-5.08-.05-8.29-1.09,1-1.71,1.84-2.54,2.28-1.48.78-3.32.74-3.59-1.14-.47-3.33-2.96-3.87-6.16-4.59,2.33-6.26,3.99-12.42,6.84-17.96,5.67-11.06,11.31-22.21,19.13-31.98,3.59-4.48,7.6-8.66,11.72-12.66,3.23-3.14,7.56-1.84,11.26-1.26,3.55.56,6.87,2.54,10.31,3.82,1.85.69,3.76,1.23,6.33,2.06.26-4.11.42-7.59.7-11.05,1.18-14.67,2.56-29.32,3.56-44,.94-13.74,1.6-27.51,2.16-41.27.23-5.59,2.94-7.42,8.21-4.9,1.96.94,3.82,2.07,6.49,3.53ZM48.72,218.78c1.44-3.63,2.81-6.3,3.55-9.13,2.03-7.75,3.89-15.55,5.64-23.37,1.18-5.26,2.32-10.5.54-15.97-.96-2.96-1.13-6.18-1.56-9.3-1.47-10.69-2.84-21.39-4.38-32.07-.27-1.9-1.14-3.71-1.98-6.33-1.02,1.51-1.57,2.06-1.8,2.72-3.49,10.02-7.2,19.98-10.28,30.13-1.89,6.21-3.96,12.73-3.9,19.1.11,13.23,2.04,26.33,9.78,37.74,1.31,1.93,2.62,3.87,4.39,6.49ZM218.08,283.26c7.12-9.47,13.22-30.65,11.7-39.27-4.16,4.43-15.89,24.4-16.68,29.35-.36,2.24.23,4.83,1.09,6.98.49,1.22,2.4,1.87,3.89,2.95ZM137.77,159.23c-2.66,5.86-3.24,28.51-1.52,33.98.31,1,1.6,2.34,2.45,2.35.84.01,2.22-1.34,2.46-2.31,1.24-5.05,2.27-10.16,3.22-15.28.45-2.43-.02-4.44-2.03-6.5-1.67-1.72-2.17-4.61-3.06-7.03-.62-1.7-1.03-3.47-1.53-5.21ZM211.99,165.01c-.51.12-1.02.24-1.53.37,0,5.32-.92,10.86.26,15.9,1.15,4.89.79,10.3,3.87,14.86,1.9-6.16,3.22-12.29,4.49-18.43.11-.51.07-1.19-.19-1.62-2.27-3.72-4.6-7.39-6.91-11.08ZM248.73,237.15c-.22.06-.44.13-.66.19-.48,3.39-.96,6.77-1.45,10.16.31.04.61.07.92.11.39-3.49.79-6.97,1.18-10.46ZM243.91,245.72c-.31-.07-.62-.15-.93-.22-.24,1.11-.48,2.22-.72,3.33.27.06.55.13.82.19.28-1.1.56-2.2.84-3.3ZM231.68,292.54c.54.13,1.08.26,1.62.39.26-1.37.52-2.75.78-4.12-.3-.08-.59-.16-.89-.25-.5,1.32-1.01,2.65-1.51,3.97Z"/> </svg>