<svg width="100%" xmlns="http://www.w3.org/2000/svg" viewBox="0 0 300 210.89"> <path fill="currentColor" d="M20.08,85.66c1.11-.76,1.87-1.28,2.71-1.85.07.7.12,1.24.17,1.79.13.04.26.07.39.11.21-.44.56-.87.62-1.33.78-5.42,1.53-10.85,2.27-16.28.11-.77.24-1.58.14-2.34-.86-6.81.2-13.46,1.43-20.13,1.19-6.45,1.94-12.98,4.19-19.2,1.34-3.68,2.67-7.36,4.05-11.02.19-.5.63-.97,1.08-1.29,3.61-2.65,7.62-4.42,11.99-5.35,1.92-.4,3.86-.65,5.79-1.02,4.37-.83,7.76.63,9.98,4.44,1.68,2.87,3.23,5.84,4.59,8.88.58,1.29.66,2.86.75,4.31.13,2.21.73,4.22,1.79,6.15,2.75,5,4.03,10.39,3.86,16.09-.14,4.61-.11,9.25-.73,13.8-1.05,7.68-4.44,14.29-9.89,19.91-4.91,5.05-10.5,8.85-17.38,10.45-3.9.9-7.94,1.59-11.91.26-2.81-.94-4.87.18-6.78,2.03-1.7,1.65-2.96,1.66-4.22-.22-.61-.91-.91-2.14-1-3.26-.14-1.59-.39-2.84-2.2-3.34-.59-.16-1.01-.95-1.68-1.61ZM31.26,85.77c3.59.59,6.75,1.09,9.91,1.64,5.67.99,10.96.28,15.5-3.56,1.49-1.26,2.84-2.7,4.18-4.12,3.65-3.85,6.22-8.21,7.23-13.54,1.34-7.1,1.49-14.25.77-21.37-.31-3.04-1.47-6.14-2.87-8.89-1.97-3.88-3.41-7.91-4.61-12.06-1.62-5.55-8.48-8.38-13.44-5.45-3.77,2.23-6.14,5.69-8.02,9.54-2.56,5.26-3.75,10.89-4.76,16.62-1.84,10.45-3.23,20.92-3.52,31.54-.05,1.96-.27,3.91-.35,5.86-.06,1.34-.01,2.68-.01,3.78ZM57.51,13.3c-1.24-1.55-2.72-1.4-3.96-1.17-4.05.76-8.04,1.82-11.32,4.54-.23.19-.32.56-.48.84,4.78-3.09,10.08-3.83,15.76-4.21Z"/> <path fill="currentColor" d="M0,209.35c.87-.32,1.71-.78,2.61-.95,9.93-1.78,19.84-3.74,29.82-5.19,7.85-1.14,15.78-2.05,23.7-2.32,11.17-.37,22.36-.04,33.54-.03,11.18,0,22.35.15,33.53-.07,15.79-.3,31.58-1.05,47.37-1.28,13.23-.2,26.48-.14,39.71.21,10.62.28,21.17-.48,31.73-1.2,4.89-.33,9.79-.59,14.69-.78,1.22-.05,2.46.31,3.83.5-.05,1.1-.09,1.89-.14,2.96-.5.13-1.22.44-1.96.49-2.93.2-5.88.29-8.81.48-5.67.37-11.34.84-17.02,1.15-11.37.61-22.75.2-34.13-.03-10-.2-20.01-.26-30.02-.09-13.23.23-26.47.49-39.69,1.19-17.78.94-35.51-.34-53.25-.6-10.7-.16-21.36.31-32.02,1.38-11.24,1.13-22.27,3.48-33.39,5.31-2.4.39-4.87.39-7.31.42-.91,0-1.82-.43-2.74-.66-.02-.29-.05-.58-.07-.88Z"/> <path fill="currentColor" d="M159.45,42.97c4.29,3.74,5.48,9.45,10.34,12.78.22-1.16.36-1.87.49-2.55,1.77-.33,6.01,5.72,6.8,9.72-.42.29-.88.64-1.37.93-2.76,1.69-2.84,1.7-5.4-.23-2.11-1.59-4.3-3.1-6.2-4.92-1.61-1.54-3.12-3.31-4.2-5.25-2.78-4.98-6.8-8.83-10.84-12.7-.26-.25-.66-.35-1.16-.6-.22.67-.45,1.18-.55,1.72-1.18,6.25-2.35,12.51-3.5,18.77-.37,2.02-.61,4.06-1,6.08-.14.74-.43,1.51-.86,2.13-.79,1.14-2.02,1.12-3.19.76-1.04-.32-1.59-1.14-1.55-2.25.03-.98.09-1.96.25-2.92.66-3.76,1.41-7.49,2.04-11.25.98-5.89,2.02-11.78,2.8-17.7.85-6.45,2.46-12.68,4.94-18.67.74-1.79,1.77-3.5,2.86-5.11,1.98-2.93,6.1-4.43,9.6-2.74,2.03.98,4.13,1.8,6.21,2.67,3.61,1.52,5.66,4.38,6.89,7.97,1.5,4.37,1.51,8.87,1.2,13.38-.05.77-.63,1.64-1.21,2.23-3.35,3.37-7.02,6.27-11.92,7.07-.36.06-.69.31-1.5.68ZM148.17,35.72c2.68-.81,4.85-.15,6.62,1.29,2.44,2,4.81,1.74,7.36.46.96-.49,1.97-.9,2.89-1.46,2.13-1.29,3.59-3,3.33-5.73-.11-1.17.04-2.36-.03-3.53-.37-6.57-3.02-11.45-9.77-13.45-2.48-.74-2.73-.83-4.11,1.25-.54.81-1,1.69-1.4,2.58-2.11,4.67-3.59,9.53-4.48,14.58-.22,1.22-.26,2.48-.4,4.01Z"/> <path fill="currentColor" d="M223.96,138.94c-.42.84-.9,1.65-1.25,2.51-2.21,5.58-11.69,11.34-19.24,9.41-2.92-.75-3.4-1.08-3.49-4.13-.05-1.65.07-3.36.46-4.96,1.24-5.02,2.64-10,4.04-15.21,1.71.39,3.17.73,4.97,1.14-.93,3.51-1.75,6.71-2.64,9.9-.88,3.16-2.05,6.27-1.47,9.95,5.82-.86,10.32-3.19,12.86-8.41,1.24-2.55,2.19-5.23,3.41-8.2,1.41.32,2.71.62,4.12.95,1.79-3.67,3.81-7.56,5.58-11.55.72-1.63,1.39-2.75,3.35-3.13,1.97-.38,3.81-1.42,5.74-2.1,3.96-1.39,7.96,2.01,9.1,5.12.66,1.82,1.41,3.63,2.25,5.38,2.28,4.73.78,12.16-2.61,15.02-1.72,1.45-3.31,3.06-5.07,4.47-2.56,2.05-5.73,2.54-8.84,2.9-2.51.29-5.09.22-7.62.04-2-.14-2.92-1.23-3.03-3.25-.11-1.91-.02-3.82-.02-5.74-.2-.03-.4-.06-.6-.1ZM230.82,143.05c.53.29.69.42.87.47.18.06.38.06.58.08,5.36.35,9.37-2.12,12.83-5.93,1.94-2.14,2.86-4.67,2.14-7.31-.88-3.24-2.37-6.31-3.65-9.43-.17-.41-.62-.85-1.04-.99-.59-.2-1.46-.4-1.87-.11-2.25,1.59-4.25,3.48-5.11,6.2-.7,2.22-1.2,4.49-1.82,6.74-.97,3.47-1.97,6.93-2.92,10.3Z"/> <path fill="currentColor" d="M98.94,22.69c.68-.05,1.55-.14,2.41-.16,2.25-.04,2.88.53,2.53,2.79-.71,4.55-1.48,9.1-2.43,13.6-1.73,8.21-2.59,16.48-1.94,24.85.24,3.03.66,6.05,1.24,9.03.85,4.39,6.05,6.65,9.87,4.31,1.23-.75,2.36-1.78,3.3-2.88,1.46-1.71,2.76-3.57,4.06-5.41,1.71-2.44,1.68-5.39,2.19-8.17.76-4.14,1.45-8.3,2.02-12.48.57-4.17.93-8.37,1.43-12.56.4-3.4.86-6.79,1.34-10.57,1.48-.37,3.01-.88,4.58-1.13,1.44-.23,2.64,1.08,2.01,2.36-1.12,2.29-1.02,4.76-1.41,7.14-1.21,7.55-2.28,15.11-3.41,22.67-.45,3-.72,6.05-1.43,8.99-.43,1.74-1.41,3.41-2.43,4.93-1.36,2.04-2.94,3.93-4.5,5.82-3.01,3.63-6.84,5.89-11.55,6.33-1.8.17-3.75-.02-5.48-.53-3.54-1.05-5.52-3.28-6.22-7.27-2.05-11.66-1.88-23.18.6-34.73,1.19-5.55,2.11-11.15,3.19-16.94Z"/> <path fill="currentColor" d="M153.87,115.63c-1.22.19-2.44.58-3.65.53-2.48-.11-4.28.95-5.96,2.63-5.12,5.11-7.31,11.41-8.04,18.47-.43,4.11.29,7.97,1.45,11.83.39,1.3,1.1,2.26,2.46,2.69.93.3,1.81.75,2.72,1.1,2.05.8,3.96.64,5.88-.57,4.99-3.14,8.49-7.23,9-13.35.08-.93-.07-1.88-.11-2.84-4.48-.44-7.89,3.25-12.51,2.18-.22-.71-.49-1.59-.84-2.73,3.46-1.6,6.89-2.64,10.39-3.46,1.14-.27,2.36-.3,3.46-.69,3.16-1.12,4.66,1.16,5.06,3.98.12.85-1.13,7.51-1.58,8.97-1.46,4.69-5,7.71-8.73,10.43-5.35,3.89-12.9,3.31-18.32-1.12-1.03-.84-1.47-2.48-2.01-3.81-.44-1.08-.37-2.4-.94-3.38-1.43-2.45-1.39-4.98-1.08-7.67,1.02-9.06,4.15-17.06,10.95-23.41,3.21-3,6.87-2.98,10.72-1.89.71.2,1.27.98,1.89,1.49-.07.21-.13.41-.2.62Z"/> <path fill="currentColor" d="M279.75,14.12c-.64,1.6-1.29,3.19-1.92,4.79-2.03,5.1-4.06,10.21-4.86,15.69-.31,2.13-.52,4.27-.69,6.42-.18,2.26-1.24,3.42-3.43,3.57-1.88.13-2.59-.37-2.52-2.3.1-2.64.3-5.29.74-7.89,1.13-6.81,3.48-13.24,6.15-19.58,1.63-3.88,3.19-7.8,4.77-11.71,1.15-2.86,1.76-3.28,4.76-3.08.67.04,1.33.27,2.01.42,2.23,5.39,1.16,11.18,2.52,16.79,2.09-5.21,4.19-10.42,6.43-16,1.76-.33,3.92-.57,6.31.6-.25.91-.39,1.85-.75,2.7-1.47,3.53-3.43,6.92-4.4,10.57-1.28,4.84-4.32,8.89-5.45,13.73-.44,1.9-.95,3.78-1.35,5.69-.52,2.47-3.97,4.03-5.99,2.52-.67-.5-1.18-1.61-1.22-2.47-.28-6.75-.43-13.51-.62-20.26-.16-.07-.32-.14-.48-.21Z"/> <path fill="currentColor" d="M227.65,13.58c.88-.21,1.81-.56,2.76-.65,5.94-.54,11.89-1.09,17.84-1.52,3.52-.26,7.05-.33,10.57-.44.97-.03,2.01-.11,2.89.2.58.2,1.19,1,1.3,1.62.08.43-.59,1.35-1.06,1.46-2.38.54-4.78,1.08-7.21,1.28-6.24.51-12.5.92-18.76,1.22-2.38.12-3.86.95-4.28,3.41-.18,1.04-.62,2.02-1.02,3.29,4.37.95,8.54,1.81,12.7,2.78,1.22.29,2.43.77,3.51,1.39.9.52,1.52,1.73.69,2.5-1.95,1.81-3.87,3.87-7.21,3.86.12-1.17.22-2.17.34-3.42-3.66-.88-7.34-1.76-11.4-2.73-1.09,4.58-2.15,8.99-3.3,13.8,6.41.61,12.52,1.25,18.64,1.75,2.59.21,3.44.61,3.38,2.16-.06,1.61-1.74,3.1-3.72,3-2.64-.14-5.27-.43-7.89-.79-3.01-.41-5.99-.99-8.99-1.46-.56-.09-1.14-.01-1.94-.01v5.98c-2.01,2.29-3.44,2.77-5.38,1.71-1-.55-1.73-1.28-1.49-2.57.7-3.74,1.43-7.48,2.1-11.23,1.59-8.98,3.79-17.8,6.91-26.57Z"/> <path fill="currentColor" d="M65.53,113.67c2.11-.35,3.56,2.27,4.84,4.82,1.09,2.18,1.84,4.53,2.69,6.82.2.54.39,1.17.29,1.71-.11.61-.41,1.45-.88,1.67-.43.2-1.42-.1-1.75-.51-1.11-1.35-2.09-2.81-3-4.3-.81-1.34-1.36-2.84-2.2-4.15-1.17-1.83-2.51-2.06-4.19-.78-2.17,1.64-3.02,4.04-3.47,6.6-.06.35.08.8.27,1.12,1.69,2.87,3.25,5.88,6.15,7.77,2.05,1.33,4.13,2.65,6.31,3.75,2.8,1.4,4.55,3.42,5.48,6.49,1.2,3.97,1.43,7.87.5,11.89-.44,1.88-1.23,3.4-2.75,4.69-1.16.98-2.13,2.29-2.89,3.63-1.49,2.64-3.6,4.39-6.54,5.04-2.84.63-5.66,1.6-8.59.23-2.14-1-2.9-1.95-2.42-3.36.41-1.17,2.61-2.07,4.28-1.68.66.16,1.27.52,1.92.74,2.83.99,4.64.32,6.37-2.05,1.32-1.8,2.78-3.52,4.32-5.13,1.28-1.33,2.14-2.77,2.38-4.6.41-3.13-.19-6.14-1.75-8.79-.73-1.24-2.23-2.11-3.52-2.94-2.05-1.32-4.28-2.37-6.31-3.72-3.55-2.36-5.5-6.07-7.53-9.64-.57-1.01-.76-2.56-.46-3.68.66-2.44,1.47-4.92,2.74-7.08,1.75-2.98,4.78-4.15,9.69-4.56Z"/> <path fill="currentColor" d="M183.77,19.04c1.81-.99,3.53-1.85,6.04-.85.5,2.92,1.11,6.08,1.57,9.25.81,5.63,1.52,11.27,2.32,16.9.19,1.33.56,2.63.99,4.6,1.67-2.24,3.1-3.91,4.26-5.76,2.44-3.9,5.61-7.03,9.32-9.68.88-.63,1.87-1.14,2.61-1.9,1.32-1.37,3-1.36,4.62-1.31.73.02,1.99.68,2.04,1.16.09.81-.57,1.71-.95,2.56-.06.14-.32.21-.51.28-5.29,1.9-8.44,6.24-11.66,10.42-2.93,3.8-5.69,7.73-8.41,11.68-1.18,1.7-2.87,1.64-4.46,1.48-1.62-.17-1.89-1.58-2.12-3.06-.77-4.84-1.85-9.64-2.58-14.48-.75-4.94-1.18-9.93-1.84-14.89-.28-2.11-.8-4.19-1.22-6.36Z"/> <path fill="currentColor" d="M184.41,127.74c2.18,0,4.04-.13,5.87.03,3.63.32,5.64,2.48,5.83,6.06.36,6.72-.95,13.03-4.48,18.84-1.32,2.18-3.25,3-5.66,3.02-4.43.03-8.23-1.7-11.53-4.47-2.24-1.88-2.51-4.72-2.23-7.32.58-5.4,2.37-10.5,4.94-15.28.48-.9,1.43-1.54,2.16-2.31,1.57,1.32,4.3-1.04,5.09,1.43ZM190.84,136.96c-.04-.91,0-1.8-.14-2.66-.18-1.2-.99-2.13-2.16-1.99-2.7.32-5.36.92-8.04,1.4-.7,1.57-1.45,3.12-2.08,4.72-.43,1.09-.75,2.23-1,3.37-.94,4.35.29,6.83,4.26,8.71.62.29,1.25.56,1.89.79,2.4.85,3.08.66,4.22-1.63,1.98-4,2.93-8.27,3.05-12.7Z"/> <path fill="currentColor" d="M23.76,178.95c-2.19.5-4.1-.28-5.87-1.34.35-5.67.71-11.22,1.03-16.77.4-6.85.67-13.7,1.19-20.53.26-3.41,1.15-6.77,1.38-10.18.28-4.29.2-8.61-1.54-12.69,1.98-1.96,5.39-2.16,7.38-.43.98.85,1.41,3.09.48,3.91-.94.83-.77,1.71-.8,2.65-.26,7.53-.84,15.02-2.06,22.48-.74,4.51-.68,9.16-.88,13.75-.17,3.91-.23,7.82-.3,11.73-.04,2.34,0,4.68,0,7.43Z"/> </svg>