<svg width="100%" xmlns="http://www.w3.org/2000/svg" viewBox="0 0 300 187.22"> <path fill="currentColor" d="M75.93,42.24c1.12,6.77-.7,12.89-3.97,18.74-3.19,5.69-6.35,11.41-9.36,17.19-.46.89-.45,2.45.03,3.3.94,1.65,2.27,3.12,3.64,4.46,2.43,2.38,4.61,4.84,5.08,9.29-1.89-2.62-3.34-4.65-4.79-6.67-.36.17-.71.33-1.07.5,6.2,11.54,6.08,24.65,10.42,37.08h2.51c.4,1.54.95,3.11,1.18,4.72.12.83,1.23,2.82-1.36,2.02.03.65.02,1.86.1,1.87,2.05.15,2.34,1.98,3.22,3.24,2.14,3.07,5.32,4.44,8.76,5.33,1.91.49,2.81-.91,3.58-2.22,2.15-3.68,4.19-7.42,6.31-11.12,3.63-6.35,7.07-12.82,11.03-18.96,1.58-2.46,4.02-4.77,6.62-6.04,2.23-1.09,5.27-1,7.88-.72,3.23.35,6.39,1.42,9.91,2.26,0-1.69,0-3.72,0-5.75,0-4.09,1.83-5.68,5.63-4.29,2.1.77,3.36-.17,4.87-1.29,1.79,4.12,2.49,8.14,2.4,12.29-.22,10.23-.25,20.46,1.39,30.57.65,3.98,2.19,7.81,3.54,12.43,1.34-1.36,2.43-2.16,3.11-3.22,3.44-5.4,6.77-10.86,10.14-16.3,1.58-2.56,2.07-5.28,1.79-8.31-.48-5.14-.54-10.32-1.01-15.46-.32-3.47-1.31-6.89-1.51-10.36-.2-3.48.22-6.99.38-10.49.03-.76.33-1.58.14-2.27-1.47-5.22.26-10.28,1-15.3,1.13-7.67,3.06-15.22,4.75-22.8.55-2.46,2.1-4.28,4.2-5.77,2.15-1.52,4.16-1.85,6.82-1.33,2.15.42,4.46-.31,6.3,1.6,2.27,2.36,3.83,4.94,4.39,8.3,2.47,14.87,2.73,29.65.05,44.58-1.96,10.88-5.55,21.19-9.02,31.58-.39,1.16-.71,2.35-1.2,3.46-.93,2.1-1.26,4.1.55,5.91,1.94,1.94,4.22,3.33,6.95,2.16,2.2-.94,3.64-.37,5.38.96,3.09,2.35,3.17,2.24,6.39.03q8.48-5.8,8.35-15.9c-.17-16.21.97-32.31,4.28-48.22.74-3.56.74-7.29,1.67-10.78,1.29-4.84,2.9-9.63,4.88-14.22.76-1.75,2.67-3.62,4.46-4.2,4.81-1.56,9.78-1.94,14.8-.28,8.89,2.94,14.75,9.36,18.39,17.4,1.54,3.4,1.04,8.17.26,12.09-1.17,5.94-3.34,11.7-5.18,17.51-1.56,4.94-3.23,9.84-4.89,14.74-.28.84-.72,1.63-1.15,2.41-3.51,6.43-7.75,12.25-13.25,17.2-2.91,2.62-5.23,5.91-7.78,8.93-.21.25-.1.78-.25,2.34,5.66-5.94,10.63-11.17,15.61-16.4-2.83,7.18-9.43,11.4-13.72,17.92,2.35,2.08,4.58,4.06,7.2,6.37.82-1.37,1.54-2.3,1.97-3.35,2.48-6.08,4.92-12.17,7.29-18.28.46-1.18,1.81-2.37-.23-3.77-.79-.54,2.15-5.15,3.72-6.01,3.77-2.07,6.23-5.03,7.17-9.4.82-3.86,2.08-7.65,3.42-11.37.41-1.13,1.55-2.37,2.66-2.83,6.88-2.84,15.33-.2,20.27,5.45,4.46,5.1,7.07,11.36,11.24,16.61.4.5.73,1.48.51,1.98-.98,2.27.24,3.46,1.59,5.13,1.65,2.05,2.49,4.75,3.65,7.09-2.74,2.66-4.39,5.66-4.99,9.16-.48,2.84-.75,5.71-1.09,8.57-.24,1.95-.35,3.92-.69,5.85-.76,4.28-1.99,8.24-6.58,10.14-2.51,1.04-4.87,2.44-7.64,3.85-4-.59-8.5-1.1-12.92-1.99-1.88-.38-4.05-1.14-5.32-2.47-3.08-3.22-7.1-5.89-7.71-11.62-2.41,2.02-2.46,4.58-3.6,6.67.77.5,1.47.95,2.7,1.74-1.58,1.09-2.79,2.29-4.25,2.84-1.95.73-4.08,1.03-6.15,1.33-.85.12-1.88-.03-2.63-.43-3.07-1.66-6.11-3.39-9.08-5.23-3.06-1.89-6.03-3.94-9.04-5.91-1.6-1.05-2.74-.16-4.08.78-3.35,2.34-6.81,4.53-10.3,6.65-1.14.69-2.51,1.35-3.79,1.4-2.23.09-1.71,3.51-4.18,3.12-.49-.08-1.07.4-1.73.68-.99-1.07-1.88-2.03-2.82-3.05-.66.88-1.16,1.54-1.65,2.21-.4-.28-.83-.44-.83-.6-.02-2.22-.82-3.41-3.2-4.18-3.61-1.17-6.46-3.82-9.21-6.44-1.29-1.23-2.63-2.4-4.06-3.69-2.7,3.98-5.06,7.64-7.6,11.16-1.41,1.95-2.99,3.82-4.75,5.46-1.06.99-2.78,2.23-3.9,1.98-2.39-.53-3.44,1.07-5.07,2.49-2.68-4.36-6.74-6.38-11.47-8.74.97,4.14.25,6.94-3.11,8.99-1.39.85-2,2.95-2.96,4.46-6.21.18-10.53-2.84-13.43-7.93-2.55-4.47-5.09-8.94-6.06-14.17-.78-4.26-2.16-8.41-3.42-13.18-3.49,4.61-5.06,9.3-6.59,14.02.86.53,1.46.9,2.39,1.47-1.98,1.62-3.59,3.68-5.68,4.49-4.48,1.75-9.34,1.52-13.92.37-6.19-1.56-12.36-3.45-16.93-8.41-.3-.32-.88-.83-1.09-.73-1.61.75-2.9.41-3.74-1.09-1.69-3.01-3.59-5.95-4.83-9.15-1.26-3.23-1.86-6.73-2.7-10.12-.33-1.32-.58-2.66-.8-4-1.28-7.82-2.53-15.64-3.81-23.46-.04-.25-.34-.45-.96-1.2-1.71,2.22-3.35,4.35-4.99,6.48-.14-.08-.29-.15-.43-.23.95-2.31,1.89-4.61,3.05-7.44-2.43,1.47-3.28,3.45-3.9,5.47-.8,2.62-1.19,5.36-2.04,7.96-.55,1.7.11,3.82-2.2,5.09-.71.39-.26,3.08-.16,4.7.09,1.48.71,2.96.62,4.42-.55,9.59-1.22,19.17-1.85,28.75-.01.15.01.33-.06.45-2.08,3.5-.99,7.13-.48,11.17.37-1.15.61-1.92.86-2.68.12.02.23.03.35.05,0,1.6.55,3.5-.11,4.76-1.54,2.92-.11,5.23.63,7.82.79,2.8,1.25,5.69,2.04,9.39-1.73-.94-2.53-1.37-3.4-1.84-.22,1.82-.4,3.41-.59,5-.23.06-.46.13-.69.19-.58-1.21-1.15-2.42-1.82-3.82-1.12.1-2.38,0-3.48.36-2.11.72-4.77,1.49-6.03-.14-1.63-2.11-3.49-4.31-3.56-7.57-.13-6.09-.99-12.16-1.41-18.24-.19-2.73-.25-5.49-.06-8.22,1.02-14.13,2.17-28.26,3.21-42.39.15-2.08.02-4.18.02-6.51-1.11.08-2.12-.12-2.83.26-5.3,2.8-9.6.65-13.7-2.6-1.55-1.23-3.11-2.48-4.49-3.9-1.34-1.39-2.5-2.96-3.63-4.54-.7-.98-1.03-2.25-1.8-3.16-1.87-2.19-2.11-4.63-1.52-7.52,1.58.71,3.1,1.31,4.55,2.06,1.19.62,2.08,1.42,3.73.59.78-.4,2.35.75,3.72,1.25.27-.35.67-.87,1.28-1.66,3.94,4.94,8.63,3.09,13.34,1.53,1.99-.66,2.98-1.88,3.15-3.98,1.17-14.3,3.81-28.38,6.17-42.5,1.64-9.84,4.45-19.42,8.82-28.28,3.05-6.18,8.74-9.69,15.9-7.67,2.94.83,6.42.89,8.5,3.92,3.18,4.64,7.18,8.94,7.38,14.94.23,6.84.12,13.7.05,20.55,0,.8-.69,1.59-1.05,2.38.4-7.08.31-14.14.01-21.21-.47.26-.74.51-.75.77-.24,5.93-.52,11.85-.61,17.78-.01.84.95,1.69,1.46,2.54ZM224.6,113.98c.38.12.76.24,1.14.36,3.7-3.2,6.53-7.15,8.69-11.49,5.09-10.23,9.19-20.87,11.88-31.99,1-4.14.55-8.09-2.32-11.62-1.29-1.59-2.96-2.03-4.38-1.36-1.96.92-3.76,2.4-5.29,3.97-3.38,3.47-3.9,8.19-4.75,12.62-1.54,8.04-2.93,16.12-4.02,24.23-.67,5.05-.66,10.18-.95,15.28ZM284.66,120.51c-1.11-2.78-1.77-4.98-2.82-6.98-2.94-5.6-6.77-6.03-10.95-1.25-.99,1.13-1.96,2.47-2.34,3.88-1.08,4.05-2.1,8.15-2.66,12.29-.66,4.96-.9,9.99-1.16,15-.17,3.29,2.15,6.93,4.63,7.71,2.79.88,6.69-.78,8.56-3.81.87-1.41,1.62-2.94,2.2-4.5,2.01-5.4,2.53-10.9,1.24-16.59-.56-2.47-.47-4.96,3.29-5.76ZM62.67,19c-1.12,0-1.53-.12-1.68.02-.54.52-1.09,1.06-1.46,1.7-4.28,7.45-6.48,15.65-8.44,23.91-.84,3.54-1.35,7.15-2.17,10.69-.7,3-.64,6-.79,9.02,12.59-12.7,13.81-28.79,14.54-45.34ZM131.3,156.84c.53-.81,1.01-1.24,1.11-1.75.98-4.91,1.97-9.82,2.78-14.75.39-2.35,1.03-4.99-2.72-5.54-.58-.08-1.08-1.36-1.44-2.16-1.1-2.5-2.05-5.06-3.18-7.54-.37-.81-1.13-1.45-2.16-2.74-.58,12.34-1.26,23.83,5.61,34.48ZM184.06,56.83c-.86,1.69-1.68,2.96-2.2,4.35-3.07,8.05-4.22,16.45-4.29,25.03,0,.6-.05,1.29.2,1.8,1.23,2.52.69,4.94.12,7.54-.52,2.36-.76,4.97.71,7.58.55-.68.99-.98,1.07-1.36,1.42-7.14,3.29-14.25,4.03-21.47.59-5.74.64-11.52,2.12-17.17.53-2.03.82-4.25-1.75-6.3Z"/> </svg>