<svg width="100%" xmlns="http://www.w3.org/2000/svg" viewBox="0 0 300 125.25"> <path fill="currentColor" d="M74.99,62.67c6.38-6.32,13.82-7.77,21.58-8.16,2.59-.13,5.22.47,7.83.61,5.26.29,8.3,3.51,9.58,8.1,1.2,4.28,2.09,8.79,2.11,13.21.04,8.07-1.5,15.97-4,23.7-2.43,7.54-7.18,12.26-15.21,12.86-3.86.29-7.93.31-11.66-.56-9.98-2.32-15.22-9.17-13.97-19.27.96-7.74,3.42-15.3,5.24-22.94.3-1.27.67-2.55,1.19-3.74.98-2.28-.65-2.9-2.7-3.81ZM89.21,61.37c-1.81,5.73-3.76,11.2-5.25,16.79-1.2,4.5-2.3,9.11-2.65,13.73-.61,7.97,3.14,12.54,11.01,14.48,5.63,1.38,7.56.43,9.5-4.82,3.29-8.92,4.57-18.09,3.29-27.57-1.66-12.34-5.89-13.73-15.89-12.6Z"/> <path fill="currentColor" d="M10.76,116.17c7.54.27,13.86-1.09,20.13-3,10.03-3.06,20.09-5.99,30.14-8.98.36-.11.7-.26,1.07-.35,4.55-1.07,6.02-.53,6.82,2.46.66,2.49-1.01,4.67-4.9,5.64-4.35,1.09-8.91,1.44-13.19,2.73-6.8,2.05-13.46,4.59-20.17,6.95-7.88,2.77-16.07,3.65-24.35,3.64-6.6,0-7.09-.96-5.63-7.28,2.99-12.95,5.84-25.93,8.65-38.92.55-2.55.53-5.22.97-7.79.56-3.26,2.83-4.36,6.92-3.57,2.46.47,3.49,1.84,2.88,5.02-1.58,8.26-3.4,16.48-5.17,24.71-1.29,6-2.66,11.98-4.17,18.75Z"/> <path fill="currentColor" d="M188.55,27.51c-6.1,6.09-8.15,6.09-12.76.11-1.82-2.36-3.81-4.06-6.82-4.4-.74-.08-1.72,0-2.16-.43-3.93-3.83-7.3-1.77-10.99.57-5.02,3.19-8.97,6.89-10.54,12.96-1.89,7.31-5.86,14.04-6.07,21.83-.14,5.23-.76,10.49-.41,15.68.67,10.08,1.93,20.13,5.78,29.6.96,2.37,2.47,4.67,4.23,6.52,4.64,4.86,9.33,6.03,13.27-1.91,4.61-9.27,8.11-19.27,9.3-29.79.35-3.08.65-6.17,1.05-9.91-5.89,1.89-10.72,1.07-15.4-2.04.77-2.36,2.48-2.89,4.38-3.02,7.05-.46,14.1-.87,21.15-1.3.73-.04,1.76-.35,2.14,0,3.19,3.01,2.02,1.9,5.68,3.06.87.28,1.76.47,2.75.74,1.76,4.25,5.84,24.22,5.83,26.99-.03,9.15-.23,18.3-.38,27.45,0,.16-.18.31-.74,1.23-3.35.03-1.77-.16-5.59.17-4.29.37-6.23-3.24-8.97-4.6-.61-8.07-1.19-15.83-1.77-23.6-.33-.11-.66-.22-.99-.33-1.17,2.76-2.37,5.5-3.5,8.27-.98,2.42-1.48,5.14-2.92,7.24-1.85,2.7-4,5.71-6.77,7.19-7.43,3.97-15.47,5.54-23.84,3.02-3.5-1.06-6.7-2.86-8.39-6.17-2.29-4.48-4.89-9-6.04-13.81-4.55-19.04-4.64-38.15.27-57.22,2.88-11.21,8.7-20.11,19.05-25.81,2.86-1.58,5.7-2.69,9.02-2.57,9.59.32,18.49,2.78,26.2,8.63,1.86,1.41,3.16,3.56,4.96,5.64Z"/> <path fill="currentColor" d="M224.1,14.83c.73,7.26,1.39,14.29,2.15,21.32.98,9.1,2.25,18.18,2.98,27.29.46,5.72-.04,11.52.26,17.27.26,5.02.41,10.18,1.72,14.98,1.75,6.39-2.66,8.8-5.56,11.97-2.35-1.69-4.57-2.75-6.03-4.46-1.63-1.92-3.04-4.28-3.73-6.69-3.53-12.3-5.3-24.91-5.16-37.7.14-12.9.76-25.8,1.2-38.7.17-4.92,1.02-5.71,6-5.67,1.65.01,3.3.2,6.17.39Z"/> <path fill="currentColor" d="M272.34,89.63c-7.02,3.59-10.98,2.31-16.31-3.56-2.37-2.61-4.76-5.2-7.27-7.66-3.24-3.19-4.59-6.94-3.7-11.38,3.94-19.62,13.47-35.56,30.7-46.37,2.38-1.49,4.86-2.82,7.3-4.2.48-.27,1.01-.45.61-.28l12.63-5.71c.69-.4,1.47-.85,2.26-1.31,1.06-.61,1.62-1.84,1.38-3.03-1.26-6.12-4.23-7.39-10.55-5-1.05.4-2.14.72-3.12,1.26-12.5,6.79-24.73,13.7-34.06,25.08-8.83,10.76-14.05,22.83-16.53,36.25-.9,4.87-.24,9.91,3.12,13.84,4.49,5.25,8.93,10.7,14.22,15.07,10.29,8.5,18.66,8.51,28.28,2.16,5.9-3.89,11.76-7.95,17.13-12.53.11-1.58.18-2.47.29-4.05l-1.89-2.21c-1.07-1.25-2.94-1.31-4.14-.19-5.92,5.49-12.83,9.98-20.36,13.83Z"/> </svg>