<svg width="100%" xmlns="http://www.w3.org/2000/svg" viewBox="0 0 300 113.28"> <path fill="currentColor" d="M159.63,8.12c2.82,1.76,5.59,2.03,8.79.71,2.2-.91,4.88-.73,7.35-.92,3.14-.24,4.48,2,5.15,4.45.33,1.2.03,3.15-.78,3.93-.77.74-3.07,1.01-3.83.4-1.65-1.31-3.27-2.08-5.05-1.09-2.48,1.38-4.98,2.91-7.02,4.86-1.62,1.55-2.31,3.69-5.45,2.76-1.12-.33-3.49,1.31-4.33,2.65-5.53,8.74-10.81,17.64-16.14,26.51-.64,1.06-1.16,2.21-1.57,3.38-3,8.73-.1,13.92,9.1,14.75,10.23.92,20.35-.45,29.91-4.47,5.26-2.22,7.44-5.49,8.48-11.94-6.05.46-11.98.85-17.89,1.38-2.47.22-5.01.46-7.33,1.23-3.93,1.3-6.29-.51-9.02-4.06,2.05-1.2,3.78-2.99,5.7-3.22,9.9-1.16,19.84-1.95,29.77-2.78,1.62-.14,3.28.19,4.77.29,4.11,7.43,1.89,17.16-5.32,22.06-3.19,2.17-6.9,3.88-10.62,4.93-8.76,2.47-17.65,4.65-26.9,3.64-2.67-.29-5.42-.56-7.93-1.43-9.31-3.22-13.14-10.12-10.48-19.54,2.03-7.18,5.14-13.88,9.73-20,4.08-5.44,7.09-11.68,10.61-17.54,2.6-4.32,5.88-8,10.31-10.93Z"/> <path fill="currentColor" d="M111.72,95.13c-1.34-3.14-1.95-5.79-3.43-7.8-3.54-4.82-5.53-5.24-11.24-3.37-.59.19-1.13.68-1.71.73-10.4.79-13.26,8.34-15.15,16.78-.22.98-.49,1.96-.87,3.45-1.77-.24-3.36-.31-4.87-.69-2.58-.65-3.14-2.51-2.32-4.82.62-1.75,1.41-3.46,2.2-5.14,1.38-2.95,3.14-5.5,1.09-9.23-1.46-2.66.13-3.94,6.11-5.8,1.57-8.73,3.32-17.81,4.77-26.94.41-2.6.41-5.24,3.76-5.3,1.21-.02,3.31.98,3.52,1.86,1.45,6.16,6.15,10.26,9.28,15.32,3.36,5.44,7.29,10.49,9.47,16.65.78,2.21,3.02,3.87,4.42,5.9,1.51,2.18,3.3,4.35,4.1,6.81,1.1,3.37-1.16,5.18-4.46,3.9-1.91-.75-3.71-1.81-4.68-2.29ZM93.31,62.37c-2.35,5.22-3.75,9.6-2.97,14.88,3.8-1.45,7.8-1.13,10.39-5.11-2.35-3.09-4.64-6.11-7.42-9.77Z"/> <path fill="currentColor" d="M55.99,85.98c-2.33-14.08-4.68-28.15-7.02-42.23-.54-3.26-.8-6.6-1.62-9.78-.58-2.25-1.86-3.63-3.7-4.37,0-.02,0-.04,0-.06-1.23-.41-1.97-.69-2.72-.91-3.25-.96-4.96-.08-5.4,3.2-.99,7.38-2.08,14.77-2.55,22.19-.54,8.52-1.36,16.98-3.27,25.31-.1.44-.4.83-.67,1.38-.35-.39-.61-.54-.63-.72-.64-6.08-1.14-12.18-1.91-18.24-.69-5.41-1.63-10.79-2.57-16.16-.99-5.63-2.19-11.22-3.18-16.85-.72-4.11-4.08-6.34-8.25-5.28-.65,1.58-1.56,3.11-1.89,4.76-1.52,7.56-2.88,15.14-4.29,22.72-2.42,12.96-4.56,25.95-5.25,39.15-.18,3.44-.61,6.86-.98,10.28-.32,2.97.31,4.8,2.01,5.6,3.6,1.68,6.73-.17,7.01-4.18.08-1.19-.03-2.4,0-3.6.08-4.13-.22-8.31.34-12.37,1.6-11.73,3.55-23.41,5.4-35.1.08-.48.6-.89,1.23-1.76.28,2.84.45,5.09.73,7.32.85,6.6,1.82,13.18,2.61,19.78.94,7.92,1.77,15.85,2.59,23.78.32,3.04.42,6.11.77,9.15.28,2.47,2.17,4.43,3.88,4.32,3.2-.22,5.49-1.91,5.56-4.51.26-10.1,3.43-19.62,5.5-29.37,1.21-5.72,2.21-11.5,2.85-17.31.54-4.91.79-9.85,1.22-14.76,1.53,10.64,3.06,21.27,4.57,31.91.34,2.43.46,4.89.74,7.33.34,2.88,4.34,6.05,7.24,5.42,4.02-.87,2.04-3.74,1.66-5.99Z"/> <path fill="currentColor" d="M216.15,44.11c1.18,11.33,2.21,21.2,3.23,31.06.22,2.09.58,4.36-2.24,4.94-2.51.52-5.62-1.7-5.81-4.21-.4-5.15-.54-10.32-.86-15.48-.59-9.49-1.18-18.99-1.9-28.48-.26-3.46-1.03-6.89-1.3-10.35-.09-1.22.27-2.86,1.07-3.66,1.28-1.3,2.86-1.11,4.26.46,1.62,1.81,3.72,3.03,3.63,6.08-.22,7.02-.07,14.05-.07,19.65Z"/> <path fill="currentColor" d="M279.79,65.34c-4.19,1.14-10.53,10.96-17.07,15.09-6.76,4.28-17.77-1.09-17.14-10.07.53-7.58,2.46-14.67,4.71-21.72,2.01-6.3,4.3-12.58,7.2-18.51,2.43-4.95,6.15-9.26,8.89-14.08,3.27-5.76,9.32-5.84,14.52-7.67.78-.28,2.04.28,2.89.78,5.97,3.55,10.73,7.92,9.94,15.77-.08.82-.01,1.66-.01,3.62.08,1.3-.3,1.81-.11,3.96.19,2.14,5.7,3.04,6.05,1.18.35-1.85.23-2.7.2-4.04,1.56-16.84-9.05-26.55-21.78-29.3-3.68-.79-6.86-.35-9.84,2.23-8.13,7.04-15.06,14.87-18.37,25.37-1.68,5.31-3.78,10.5-5.2,15.88-2.05,7.8-4.21,15.63-5.29,23.59-.96,7.03.81,13.96,7.25,18.1,6.48,4.16,13.65,5.28,20.52.73,6.63-4.39,12.82-9.24,17.5-15.5,1-1.33.42-3.26-1.1-3.94l-3.66-1.63s4.11-1.01-.08.14Z"/> </svg>