<svg width="100%" xmlns="http://www.w3.org/2000/svg" viewBox="0 0 300 215.3"> <path fill="currentColor" d="M124.33,215.3c-10.98-.58-21.98-1.06-32.95-1.79-8.25-.55-16.47-1.47-24.71-2.13-9.42-.76-18.85-1.34-28.26-2.13-9.62-.81-19.09-2.41-28.24-5.71-2.5-.9-4.92-2.24-7.8-2.19-.77.01-1.77-1.62-2.27-2.69-.38-.81.31-1.59,1.34-1.55.71.03,1.47.11,2.11.39,9.96,4.27,20.42,6.48,31.15,7.37,8.79.73,17.61,1.06,26.4,1.7,10.16.74,20.31,1.57,30.45,2.44,12.24,1.06,24.5,1.65,36.78,1.35,5.54-.13,11.09-.19,16.63-.49,2.61-.14,5.19-.81,7.8-1.13,5.14-.63,10.29-1.22,15.45-1.75,1.57-.16,3.48,1.99,3.3,3.53-.13,1.09-.8,1.55-1.85,1.6-1.18.06-2.36.18-3.53.25-4.26.26-8.46.69-12.67,1.64-3.85.87-7.94.85-11.93.95-5.73.14-11.46.04-17.19.04l-.02.29Z"/> <path fill="currentColor" d="M16.72,31.77c-.13,2.44-.29,4.87-.38,7.31-.12,2.91-.25,5.82-.26,8.73-.01,4.08-.06,8.17,1.28,12.14.43,1.27.85,2.83-.89,3.92-1.09-.15-2.33-.33-3.81-.54-.34-1.66-.85-3.32-.99-5.01-.78-8.99-.84-18,.36-26.94.53-3.92,1.93-7.73,3.03-11.57.3-1.03.8-2.08,1.48-2.9,4.52-5.46,10.11-8.84,17.44-8.32,1.23.09,2.59.86,3.54,1.72,1.96,1.76,2.99,4.17,3.19,6.76.19,2.34.17,4.75-.15,7.07-.74,5.32-4.91,9.01-10.3,9.42-.35.03-.7.04-1.4.09.47.58.71,1.02,1.08,1.3,3.63,2.71,7.23,5.49,10.95,8.07,2.54,1.75,5.24,3.28,7.92,4.8,1.1.62,1.69,1.36,1.39,2.61-.27,1.1-1.76,2.01-3.05,1.72-.96-.21-1.92-.59-2.77-1.09-1.96-1.15-3.79-2.51-5.77-3.6-6.36-3.49-11.55-8.48-17.12-12.99-1.32-1.07-2.75-2-4.12-3-.22.1-.43.2-.65.3ZM18.56,25.79c.32.18.68.45,1.09.6,2.54.95,5.24,1.62,7.62,2.87,3.67,1.94,8.14-1.88,8.07-5.1-.05-2.35-.1-4.72-.44-7.04-.18-1.19-.94-2.32-1.56-3.41-.82-1.44-2.12-1.59-3.55-1.04-6.03,2.34-10.55,5.99-11.22,13.12Z"/> <path fill="currentColor" d="M164.92,178.16c-.95-2.36-1.86-4.62-2.75-6.88-.1-.25-.07-.56-.21-.79-2.62-4.42-4.37-9.36-7.9-13.23-3.11-3.41-6.25-6.78-9.48-10.27-2.07,1.67-4.02,3.28-6,4.84-.92.73-1.85,1.52-2.9,2.01-1.18.55-1.59,1.43-1.64,2.58-.11,2.36-.29,4.73-.24,7.09.09,4.63.3,9.27.52,13.9.05,1.13.17,2.23-.92,2.92-.93.59-3.75.27-4.39-.55-.35-.45-.56-1.15-.56-1.73.1-8.71-.8-17.44.58-26.14.61-3.86.9-7.77,1.19-11.67.14-1.89-.06-3.8-.14-5.7-.06-1.44.45-1.99,1.87-1.97.45,0,.9.09,1.36.14,2.16.2,2.61.52,2.53,2.62-.13,3.72-.45,7.43-.69,11.15-.03.53-.09,1.05-.2,2.23,2.6-2.06,4.76-3.78,7.04-5.59-.45-.9-.85-1.69-1.25-2.47,1.04-1.79,1.75-2.46,3.64-1.61,2.96,1.33,5.24.1,7.7-.99.83-.37,1.72-.63,2.51-1.06,2.19-1.19,4.45-1.31,6.8-.66,0,2.53-.19,2.74-2.4,3.56-3.05,1.13-6.08,2.32-9.51,3.63.95,1.33,1.57,2.41,2.39,3.3,2.96,3.19,6.05,6.27,8.99,9.48,2.85,3.12,4.76,6.86,6.54,10.64,1.08,2.29,1.91,4.71,2.84,7.07.67,1.68.03,3.14-1.7,3.59-1.12.3-2.3.38-3.63.59Z"/> <path fill="currentColor" d="M148.4,103.26c4.8,3.92,9.23,7.46,14.82,9.75-.05.8-.1,1.76-.16,2.76-2.76,1.31-5.2,1.55-7.82-.52-4.84-3.83-9.88-7.4-14.84-11.07-.64-.47-1.32-.9-2.33-1.58-1.6,7.54-.82,14.11,5.43,19.65-1.94,1.03-3.39,1.8-4.66,2.48-4.79-3.39-6.22-8.12-6.55-13.08-.5-7.36,1.17-14.32,5.7-20.3,3.75-4.95,8.5-8.78,14.46-10.73,5.16-1.69,7.64-1.43,10.8,4.58.71,1.35,1.16,2.87,1.56,4.35.2.74.25,1.71-.07,2.36-1.67,3.36-3.5,6.54-7.47,7.82-2.84.91-5.55,2.2-8.85,3.54ZM139.75,97.76c5.39,2.33,6.78,2.39,11.75.59,1.02-.37,2.06-.72,3.07-1.11,3.76-1.47,5.23-4.81,3.68-8.57-.45-1.08-1.03-2.14-1.73-3.07-1.52-2.02-2.23-2.29-4.34-.96-2.52,1.59-4.95,3.38-7.17,5.37-2.35,2.12-4.18,4.71-5.27,7.75Z"/> <path fill="currentColor" d="M75.42,14.15c-.42,1.91-.72,3.3-1.06,4.89,6.96,1.47,13.87,1.6,20.63,2.2.6,2.93-.18,4-2.91,3.87-6.26-.3-12.51-.73-19.2-1.13-1.05,4.07-2.16,8.4-3.37,13.09,1.71.58,3.1,1.27,4.57,1.5,4.67.74,9.35,1.45,14.04,1.91,6.15.6,12.33.95,18.5,1.41.72.05,1.52-.02,2.14.27.56.27,1.24.93,1.28,1.46.04.52-.53,1.32-1.05,1.6-.76.41-1.71.63-2.58.64-2.18.01-4.37-.05-6.54-.25-8.15-.76-16.3-1.5-24.43-2.46-2.95-.35-5.86-1.2-8.74-2.01-2.45-.69-2.88-1.56-2.26-3.99,1.66-6.52,3.41-13.02,5.02-19.55.45-1.84.66-3.76.82-5.65.11-1.4.48-2.24,2.08-2.19,4.08.12,8.15.25,12.23.24,5.11,0,10.14.67,15.17,1.5,2.16.36,2.9.98,2.6,2.59-.27,1.39-2.02,2.55-3.52,2.25-2.48-.51-4.93-1.37-7.44-1.56-5.24-.39-10.5-.44-15.96-.64Z"/> <path fill="currentColor" d="M66.19,152.97c-.87.95-1.59,1.75-2.59,2.84.55,1.65,1.2,3.61,1.84,5.57.2.6.53,1.19.58,1.8.17,2.22-.64,3.01-2.88,2.78-.98-.1-1.95-.38-3.08-.62-.77-2.78-1.64-5.55-2.27-8.37-.42-1.92-1.51-2.62-3.34-2.89-4.39-.65-8.76-1.45-13.3-2.22-.51.79-1.07,1.5-1.46,2.28-2.44,4.86-5.18,9.6-6.06,15.09-.08.53-.37,1.02-.57,1.53-.83,2.07-1.56,2.54-3.71,2.33-.59-.06-1.18-.22-1.96-.38.04-.67-.05-1.3.12-1.85,2.28-7.51,5.55-14.62,9.31-21.45,3.32-6.04,7.27-11.71,12.4-16.45,1.32-1.22,2.46-2.38,4.47-1.69.56.19,1.23.03,2.17.03.54,1.47,1.15,2.96,1.63,4.49,1.41,4.51,2.83,9.01,4.11,13.56.5,1.76,1.19,2.98,3.22,2.95.32,0,.63.29,1.35.65ZM55.63,150.47c-1.26-4.58-2.41-8.77-3.64-13.26-3.51,3.37-6.22,6.75-8.51,10.99,4.27.8,8.12,1.52,12.15,2.28Z"/> <path fill="currentColor" d="M112.68,159.92c-1.39,3.55-1.39,3.58-4.83,2.72-1.41-.35-2.82-.76-4.16-1.3-.84-.34-1.57-.96-2.84-1.77,1.45-.43,2.25-.67,3.19-.95-.34-2-1.58-2.9-3.29-3.2-4.56-.81-9.14-1.58-13.72-2.25-.54-.08-1.48.39-1.74.88-2.31,4.26-4.27,8.66-4.56,13.6-.24,4.04-1.74,4.91-5.65,3.17-.06-5.65,1.54-10.89,3.96-15.94.6-1.25,1.6-2.4.95-4.06-.16-.4.67-1.63,1.23-1.78,1.06-.29,1.46-.97,1.89-1.77,1.39-2.56,2.72-5.15,4.19-7.66,1.42-2.43,2.91-4.82,4.48-7.16,1.05-1.57,4.46-2.05,5.88-.9.37.3.53.91.7,1.4.6,1.81,1.12,3.65,1.75,5.45,1.6,4.58,4.22,8.64,6.63,12.8.31.53.82.94,1.26,1.39.25.26.76.46.78.72.24,2.85,2.36,4.59,3.9,6.6ZM88.39,148.95c2.96,1.17,8.74,2.12,11.2,1.83-1.94-3.95-3.87-7.86-6-12.17-.94,2.09-1.62,3.77-2.43,5.38-.85,1.68-1.84,3.3-2.77,4.96Z"/> <path fill="currentColor" d="M276.52,29.95c-.13,3.73-1.09,4.36-5.22,4.06-.48-2.17-1.11-4.43-1.47-6.73-.49-3.05-.75-6.14-1.16-9.2-.34-2.52-.72-5.04-1.14-7.55-.37-2.21-.18-2.92,1.82-3.63,5.98-2.13,11.97-4.26,18.04-6.13,4-1.24,8.09-.93,12.22.5.36,1.08.81,2.36-.34,3.15-1.3.89-2.84,1.49-4.35,1.97-.27.09-.93-1.01-1.72-1.93-2-.69-4.54-.47-6.95.44-3.04,1.14-5.99,2.52-8.93,3.78.57,1.18,1.06,2.17,1.64,3.38,2.18-.22,4.51-.48,6.84-.69,2.63-.23,5.25-.42,7.88-.59.72-.05,1.45.05,2.17.08.97.04,1.68.62,1.58,1.5-.07.66-.62,1.46-1.19,1.83-.64.42-1.54.57-2.33.58-4.47.06-8.86.52-13.25,1.42-2.07.43-4.31.07-6.52.07v3.5c1.37-.1,2.62-.31,3.86-.23.59.04,1.58.56,1.62.94.06.57-.42,1.47-.93,1.77-.74.42-1.72.44-2.6.61-.35.07-.7.1-1.37.18.11.89.2,1.71.33,2.75,3.6-.43,6.76-1.51,9.96-2.46,2.69-.8,5.41-1.53,8.15-2.12,1.1-.24,2.3-.04,3.42-.04.3,2.65-.33,3.71-2.6,3.96-6.12.67-11.62,3.43-17.45,4.83Z"/> <path fill="currentColor" d="M156.73,45.47c-1.05.58-1.83,1.04-2.62,1.44-4.5,2.32-9.28,3.52-14.35,3.44-6.47-.1-12.93-.3-19.01-2.95-.42-.18-.86-.32-1.26-.53-2.12-1.11-2.57-1.68-2.08-4.09.63-3.11,1.48-6.18,2.4-9.22,1.87-6.18,3.93-12.3,5.76-18.49.67-2.25,1.02-4.61,1.33-6.94.16-1.2.42-2.11,1.8-2.51,1.33.92,2.71,1.87,4.32,2.99.02.24.19.81.07,1.29-.63,2.56-1.23,5.13-2.03,7.64-1.96,6.15-4.07,12.25-6.01,18.4-.73,2.32-1.37,4.7-1.72,7.11-.29,2.01,0,2.27,1.92,2.52,3.24.42,6.5.75,9.76.99,2.37.17,4.62-.53,6.92-1.12,2.84-.73,5.51-1.66,8.12-2.98,1.88-.95,3.76-.09,4.93,1.69.3.46.91.71,1.73,1.32Z"/> <path fill="currentColor" d="M66.62,87.47c.74.51,1.25.86,1.84,1.27-.2.89-.39,1.73-.55,2.46,2.6.59,5.11,1.31,7.67,1.73,5.04.81,7.08,5.07,7.76,9.63.76,5.13-.85,9.91-3.03,14.44-1.93,4.01-5.4,5.57-9.71,4.46-3.23-.83-6.42-1.89-9.54-3.09-2.78-1.07-4.2-3.44-4.53-6.3-.56-4.83-.41-9.61,2.02-14.04.44-.81.75-1.57.27-2.56-.17-.36.22-1.37.6-1.54,1.67-.74,2.61-2.14,3.75-3.43,1-1.13,2.27-2,3.44-3ZM61.09,108.05c-.19,4.74,1.64,7.68,6.68,8.75,1.51.32,2.99.78,4.5,1.09,1.93.41,2.73.14,3.47-1.7,1.01-2.52,1.99-5.11,2.5-7.76.6-3.11-.09-6.15-1.75-8.92-.82-1.38-1.91-2.43-3.5-2.84-1.76-.46-3.52-.89-5.28-1.36-1.31-.36-2.19.01-2.96,1.21-2.29,3.52-3.51,7.35-3.67,11.53Z"/> <path fill="currentColor" d="M11.23,133.17c-3.78-.88-7.33-1.7-10.81-2.51-.25-1.95.67-2.6,1.99-2.59,1.53.01,3.08.19,4.59.46,7.58,1.36,15.15,2.78,22.78,4.18.55,2.52-.11,3.52-2.71,3.38-1.96-.1-3.92-.54-5.86-.93-1.33-.26-2.62-.68-3.99-1.05-.26.37-.55.63-.65.95-1.9,6.27-3.52,12.6-3.97,19.17-.38,5.53-.86,11.05-1.22,16.58-.11,1.72,0,3.45.03,5.18.06,2.47-.52,3.09-2.99,2.99-.9-.04-1.79-.21-2.8-.34-.44-2.87-.8-5.71-.16-8.61.33-1.5.43-3.06.54-4.6.6-8.34,1.14-16.69,3.27-24.82.64-2.43,1.28-4.87,1.95-7.45Z"/> <path fill="currentColor" d="M101.1,95.84c.81-.39,1.61-.8,2.45-1.15,1.57-.65,2.73-.31,3.95.98.34.36.86.57,1.33.76,1.6.64,3.25,1.15,4.8,1.88,3.76,1.77,5.41,5.23,4.97,9.36-.54,5.07-2.22,9.7-4.73,14.08-2.68,4.67-6.74,6.06-11.8,4.18-3.29-1.23-6.25-2.8-8.46-5.67-1.79-2.33-2.44-4.79-1.74-7.64,1.21-4.91,2.88-9.54,6.86-13.03,1.02-.89,1.64-2.25,2.44-3.4-.02-.12-.05-.24-.07-.35ZM104.05,99.3c-3.22,3.67-5.28,7.58-6.76,11.93-1.26,3.7-.05,6.42,2.57,8.72,1.26,1.11,2.86,1.92,4.42,2.59,2.73,1.18,3.87.72,5.32-1.91,2.18-3.95,3.47-8.16,3.76-12.68.17-2.61-.76-4.7-3.05-5.93-1.97-1.06-4.1-1.81-6.25-2.73Z"/> <path fill="currentColor" d="M188.11,24.42c0,.48.21,1.16-.04,1.51-1.37,1.92-.37,3.62.33,5.36.37.93.77,1.85,1.14,2.78,1,2.55.24,3.86-2.41,4.04-.89.06-1.79-.08-2.84-.14-1.05-3.32-2.08-6.58-3.18-10.05-2.36-.18-4.69-.36-7.17-.55-1.76,3.42-2.63,6.87-2.72,10.56-.02,1.04-.39,2.09-.69,3.11-.27.92-1.04,1.15-1.92,1.22-1.51.13-1.96-.17-2.05-1.75-.18-3.47,0-6.9,1.24-10.22,1.96-5.27,3.86-10.55,4.5-16.21.36-3.16,4.05-4.21,6.54-2.13,2.45,2.04,3.95,4.72,5.25,7.55.3.66.6,1.32.87,2q.87,2.17,3.15,2.92ZM179.29,23.61c-.62-2.09-1.11-3.64-2.67-5.11-.33,1.8-.58,3.17-.86,4.73,1.19.13,2.15.23,3.53.39Z"/> <path fill="currentColor" d="M8.79,91.5c1.98,6.22,3.9,12.24,5.97,18.74.87-.96,1.56-1.61,2.12-2.35,5.09-6.81,11.28-12.55,17.58-18.18,1.37-1.23,3-1.27,4.6-1.12,1.48.14,1.97,1.77.86,2.85-1.03,1-2.29,1.78-3.43,2.67-6.36,4.95-11.54,11.02-16.55,17.26-1.48,1.84-3.03,3.62-4.52,5.45-.81,1-1.75,1.53-3.08,1.24-1.38-.3-1.94-1.29-2.1-2.53-.82-6.27-3.68-11.96-5.17-18.04-.19-.78-.65-1.49-.96-2.24-.77-1.84-.19-3.02,1.73-3.39.88-.17,1.78-.22,2.96-.36Z"/> <path fill="currentColor" d="M220.02,37.61c-.22-9.07,1.7-17.95,1.58-27.33-1.9-.08-3.58-.13-5.26-.22-.8-.04-1.7.04-2.36-.3-.51-.27-1.03-1.13-.99-1.69.04-.55.68-1.33,1.23-1.51,1.19-.39,2.49-.71,3.73-.63,4.71.28,9.4.81,14.11,1.09,2.71.16,5.43.03,8.08.03,1.05,2.83.68,3.69-1.91,4.21-1.05.21-2.16.1-3.25.05-2.61-.12-5.22-.29-7.99-.45-.29,3.28-.62,6.25-.8,9.22-.31,5.08-.57,10.15-.78,15.23-.09,2.26-1.03,3.2-3.23,2.91-.7-.09-1.36-.39-2.14-.62Z"/> <path fill="currentColor" d="M254.72,37.71c-.88-2.71-.43-5.17-.37-7.58.15-5.62.51-11.24.68-16.87.05-1.52-.18-3.06-.4-4.57-.27-1.89.13-2.48,2.06-2.61.89-.06,1.8-.01,3.08-.01.22,1.67.61,3.25.59,4.82-.11,5.99-.37,11.97-.53,17.95-.05,2.08.02,4.17.08,6.25.05,1.9-.42,2.5-2.25,2.6-.97.05-1.94,0-2.94,0Z"/> <path fill="currentColor" d="M261.97.48c-.23,3.45-1.62,4.72-4.42,4.27-.89-.14-1.84-.3-2-1.48-.15-1.12.27-1.98,1.28-2.47,1.62-.78,3.3-.77,5.15-.32Z"/> </svg>