<svg width="100%" xmlns="http://www.w3.org/2000/svg" viewBox="0 0 300 92.4"> <path fill="currentColor" d="M6.19,91.85c.57-.66.87-1.15,1.29-1.48,5.52-4.31,11.28-8.26,17.5-11.55,4.35-2.31,9.03-3.37,13.8-4.22,8.03-1.43,16.03-2.97,24.09-4.22,4.99-.77,10.04-1.14,15.07-1.6,8.07-.74,16.08-1.86,23.87-4.1,10.86-3.12,21.87-5.27,33.14-6.25,9.35-.81,18.66-2.01,28.01-2.84,6.11-.54,12.25-.77,18.38-1.07,7.5-.37,15-.7,22.5-1.02,3.39-.15,6.78-.3,10.18-.34,7.87-.11,15.74-.11,23.61-.25,3.75-.07,7.51-.23,11.25-.57,2.45-.22,4.06.94,5.72,2.52-.35.4-.64.7-.9,1.02-1.39,1.68-1.36,1.65-3.06.15-.39-.35-1.03-.5-1.58-.56-.93-.1-1.88-.08-2.81-.06-4.83.11-9.67.24-14.5.34-9.68.2-19.35.34-29.03.59-7.65.2-15.3.42-22.94.83-8.79.47-17.59.88-26.32,2.16-2.85.42-5.73.64-8.61.82-11.54.73-22.98,2.18-34.23,4.92-4.48,1.09-8.93,2.33-13.42,3.41-6.41,1.54-12.94,2.27-19.5,2.68-7.65.48-15.2,1.71-22.73,3.09-5.25.96-10.52,1.9-15.8,2.71-5.58.87-10.74,2.85-15.47,5.84-4.51,2.85-8.87,5.94-13.27,8.96-1.28.88-2.52.78-4.25.09Z"/> <path fill="currentColor" d="M202.32,18.9c1.2-.54,2.34-.89,3.4.46.3.38.98.46,1.8.8.15,3.26.25,6.7.47,10.13.17,2.56.51,5.11.77,7.7-.75.18-1.62.4-2.5.58-1.19.26-2.27-.56-2.39-1.8-.19-1.91-.38-3.81-.59-5.85-1.63,1.92-2.04,4.25-1.23,6.36-1.76,1.74-4.02,1.72-6.61.05-.18-3.52-.36-6.93-.54-10.33-1.76,3.45-1.48,7.15-1.49,11.09-1.67-.07-3.13-.14-4.69-.21-.62-9,2.72-16.84,5.52-24.6,2-1.37,3.16.61,4.77.72,1.07,3.69.48,7.51.54,11.43,1.35-1.32,2.33-3.71,2.75-6.55ZM207.42,36.84c.18-.05.36-.09.54-.14-.09-.93.08-1.93-1.08-2.61.18.92.35,1.83.53,2.75ZM207.09,30.75c-.19-.05-.26-.08-.32-.07-.05,0-.13.08-.13.12,0,.55,0,1.1,0,1.65l.45-.03v-1.65Z"/> <path fill="currentColor" d="M45.03,17.69c-.17-1.02-.66-1.48-1.79-1.28-1.7.31-3.42.54-5.14.72-1,.11-1.5.54-1.77,1.53-1.29,4.78-1.89,9.62-1.58,14.56.04.57.09,1.15.04,1.72-.08.99-.87,1.26-1.66,1.43-.86.19-1.41-.29-1.6-1.07-.27-1.12-.53-2.25-.64-3.39-.6-6.01.69-11.77,2.41-17.46,1.19-3.94,2.47-7.85,4.59-11.41,1.32-2.21,3.84-2.38,5.06-.18,1.25,2.26,2.22,4.67,3.22,7.06.61,1.46.96,3.1,3.01,2.79.74,1.17.2,2.02-.28,2.67,1.21,2.95,2.32,5.75,3.51,8.52.45,1.05,1.05,2.05,1.65,3.03.93,1.56.88,2.07-.39,2.86-1.48.91-2.32.77-3.21-.71-.59-.98-1.07-2.04-1.54-3.09-.39-.85-.73-1.73-1.04-2.61-.51-1.49-1.28-2.63-2.84-3.31-1.68-.74-1.61-1.34,0-2.39ZM37.7,13.84c2.06.37,3.73-.14,5.63-.64-.78-2.2-1.41-4.3-2.48-6.23-.16,0-.33.02-.49.03-.87,2.23-1.73,4.46-2.66,6.84Z"/> <path fill="currentColor" d="M164.43,43.24c.76-4.72,1.47-9.27,2.24-13.82.56-3.34,1.15-6.63,2.81-9.7,1.53-2.81,3.84-3.82,6.76-3.64.97.06,2.14.66,2.78,1.39,1.78,2,2.23,4.53,1.78,7.1-.3,1.71-1.67,2.81-3.02,3.81-.28.21-.61.35-1.21.7.79.55,1.38,1.01,2.02,1.39,1.98,1.18,3.97,2.35,5.98,3.48.68.39,1.19.82,1.09,1.68-.11.87-.6,1.44-1.42,1.73-1.34.48-2.62.75-3.76-.52-.47-.53-1.14-.88-1.72-1.3-2.1-1.52-4.21-3.03-6.32-4.53-.52-.37-1.06-.71-1.86-1.24-.37,1.73-.73,3.23-.99,4.76-.26,1.49-.42,3-.63,4.5-.44,3.14-1.08,3.76-4.52,4.21ZM171.05,26.83c.57,0,1.06,0,1.54,0,.5,0,1-.03,1.49,0,1.49.08,2.88-1.07,2.79-2.56-.12-2.05-.7-3.97-2.68-5.23-2.14,2.18-2.71,4.89-3.14,7.81Z"/> <path fill="currentColor" d="M35.17,58.54c-.16.42-.33.66-.35.92-.34,3.83-.51,7.64,1.14,11.26.46,1.02.29,1.84-.72,2.37-.72.38-1.49.68-2.23,1.01-2.12-4.34-2.52-8.71-1.97-13.11.43-3.42,1.32-6.79,2-10.18.2-.99.76-1.69,1.65-2.15,4.52-2.35,7.71-2.17,10.93,1.27,1.26,1.35,1.09,2.21-.41,3.34-1.2.9-2.31,1.92-3.62,3.02,1.2.84,2.25,1.53,3.25,2.28,2.14,1.59,4.27,3.18,6.37,4.81.89.69.9,1.73-.05,2.28-.79.45-1.73.64-2.62.89-1.11.32-1.48-.67-2.04-1.26-2.64-2.73-5.65-4.9-9.23-6.23-.65-.24-1.35-.35-2.09-.54ZM41.79,51.96c-.85-.63-1.52-1.28-2.32-1.69-1.39-.71-2.22-.44-2.75.97-.52,1.37-.81,2.84-1.25,4.46,3.05-.02,4.52-1.89,6.32-3.74Z"/> <path fill="currentColor" d="M90.62,41.53c.53-2.15,1.01-4.3,1.63-6.43.16-.54.65-1.2,1.15-1.38.91-.33,1.94-.35,2.87-.49.75,2.64,1.43,5.12,2.16,7.58.76,2.57.35,3.26-2.22,3.63-.35.05-.71.06-1.37.1-.34,1.39-.7,2.83-1.02,4.27-.22.98-.54,1.98-.49,2.96.06,1.14-.37,1.47-1.4,1.7-2.62.58-2.61.63-3.51-1.94-.4-1.16-.81-2.31-1.22-3.46-.04-.1-.19-.16-.39-.31-.64,1.3-.19,2.54.08,3.76.51,2.38.38,2.7-1.9,3.35-.45.13-.95.1-1.41.15-1.27-4.12-.64-8.1-.08-12.1.15-1.07.24-2.15.27-3.22.04-1.83.33-2.21,2.15-2.55.56-.1,1.12-.17,1.89-.29.8,1.6,1.58,3.18,2.37,4.77l.46-.09Z"/> <path fill="currentColor" d="M145.97,26.5c2.46-2.43,5.33-3,8.32-3.15,1-.05,2.01.18,3.02.24,2.03.11,3.2,1.35,3.69,3.12.46,1.65.8,3.39.81,5.09.02,3.11-.58,6.16-1.54,9.14-.94,2.91-2.77,4.73-5.86,4.96-1.49.11-3.05.12-4.5-.22-3.85-.89-5.87-3.53-5.38-7.43.37-2.98,1.32-5.9,2.02-8.84.12-.49.26-.98.46-1.44.38-.88-.25-1.12-1.04-1.47ZM151.45,26c-.7,2.21-1.45,4.32-2.03,6.47-.46,1.73-.89,3.51-1.02,5.29-.23,3.07,1.21,4.84,4.24,5.58,2.17.53,2.91.17,3.66-1.86,1.27-3.44,1.76-6.97,1.27-10.63-.64-4.76-2.27-5.29-6.13-4.86Z"/> <path fill="currentColor" d="M16.93,4.63c-1.07,6.63-2.25,12.85-3.03,19.13-.5,4.08-.1,8.2.9,12.23.22.9.36,1.82.55,2.83-.94.71-1.84,1.39-2.99,2.27-.34-1.06-.64-1.83-.85-2.63-2.03-7.93-1.62-15.85.05-23.78.65-3.09,1.09-6.23,1.69-9.69-1.06,0-1.89.03-2.72,0-1.15-.05-2.29-.17-3.44-.22-.77-.03-1.27-.34-1.23-1.16.04-.78.56-1.11,1.3-1.17.43-.03.86-.12,1.29-.13,5.64-.1,11.19-.92,16.69-2.17.07-.02.14-.03.21-.05,1.57-.26,2.28.03,2.41,1,.13.95-1.02,2.1-2.12,2.25-2.84.39-5.67.84-8.71,1.29Z"/> <path fill="currentColor" d="M69.59,4c.65,2.96,1.29,5.89,1.98,9.02.83,0,1.59.01,2.35,0,.96-.02,1.48.49,1.64,1.37.15.85-.29,1.35-1.09,1.6-.48.14-.94.34-1.53.56.16,1.93,1.14,3.52,2.03,5.12,1.77,3.21,1.72,3.42-1.87,4.46-.13.04-.28,0-.62,0-2.06-2.63-2.8-5.98-4.21-9.35-1.44.09-2.98.18-4.73.28-.65,2.56-1.24,4.99-1.9,7.41-.18.67-.38,1.56-.88,1.88-.57.37-1.55.46-2.22.25-.87-.27-.93-1.2-.7-2.03.49-1.81,1-3.61,1.5-5.41.22-.8.64-1.5-.01-2.42-.46-.65-.1-1.62.78-1.92.82-.28,1-.92,1.32-1.57,1.05-2.21,2.24-4.36,3.22-6.6.9-2.06,2.38-2.92,4.94-2.66ZM64.98,13.82c1.04-.2,1.67-.32,2.47-.47-.24-.98-.42-1.71-.6-2.45-.15,0-.31,0-.46,0-.41.85-.82,1.7-1.4,2.92Z"/> <path fill="currentColor" d="M258.78,39.42c.06-5.55,1.53-10.63,4.18-15.34,1.99-3.54,4.25-4.16,7.99-2.52.4.17.8.33,1.2.5,1.93.81,2.93,2.26,2.94,4.36,0,2.17-.99,3.71-2.99,4.58-.32.14-.66.23-1.21.42,1.49,2.45,2.64,4.97,5.44,6.2-2.43,1.8-5.4,1.43-6.94-.76-.95-1.35-1.82-2.77-2.76-4.13-.39-.57-.88-1.07-1.56-1.89-.7,2.42-1.39,4.44-1.33,6.63.05,2.05-.85,2.87-2.88,2.59-.69-.09-1.35-.41-2.06-.64ZM269.19,23.47c-1.77,1.3-2.4,3-3.04,4.83.4.21.7.39,1.02.53,1.41.61,1.87.48,2.63-.81.91-1.56.64-2.99-.61-4.54Z"/> <path fill="currentColor" d="M9.93,53.88c-3.62-.31-6.8-.39-9.93-2.22.51-.6.85-1.37,1.29-1.44,1.31-.2,2.52-.72,4.01-.29,2.12.62,4.39.83,6.61.98,2.43.16,4.89.04,7.32.04,1.27,2.04.88,3.17-1.33,3.47-1.09.15-2.24-.13-3.55-.22-.05.18-.2.49-.23.81-.56,5.95-1.18,11.9-1.61,17.87-.2,2.79-.08,5.61.04,8.4.08,1.8-.07,2.11-1.93,2.23-.65.04-1.29.08-1.94.11-.07,0-.14-.04-.25-.07-.76-9.89,1.61-19.68,1.5-29.67Z"/> <path fill="currentColor" d="M139.77,22.79c-.41,1.9-1.38,2.47-2.95,2.66-3.58.42-7.14.64-10.92-.06-.22,1.64-.42,3.08-.63,4.6h13.53c.75,1.81,0,3.02-1.99,3.01-2.73-.02-5.47-.13-8.2-.18-.86-.02-1.73,0-2.6,0-1.71,2.43-2.13,5.23-2.7,7.97-.29,1.4-.41,2.86-.41,4.29,0,2.38-.25,2.75-2.6,2.97-.42.04-.84,0-1.38,0-.46-2.77.05-5.45.57-8.12.11-.57.22-1.14.42-1.68.95-2.61,1.25-5.28,1.16-8.06-.06-1.91.36-3.83.52-5.76.08-.92.77-1.26,1.44-1.38,1.12-.2,2.3-.38,3.42-.25,4.04.5,8.05.38,12.08,0,.34-.03.69,0,1.23,0Z"/> <path fill="currentColor" d="M227.78,23.99c1.4.3,2.58.48,3.72.83.57.17,1.04.66,1.46.94-.1,1.17-.74,1.47-1.51,1.45-2.44-.04-4.89-.09-7.33-.24-1.14-.07-2.28-.34-3.46-.53-.95,1.52-.7,3.24-.87,4.85-.03.33.63.98,1.05,1.06,1.05.19,2.15.2,3.22.18,2.93-.07,5.87-.63,8.95.25-.13,1.27-1.1,1.66-2.06,1.7-5.39.25-10.81.94-16.19-1.07.33-2.37.67-4.77,1-7.17.17-1.22.38-2.43.43-3.65.03-.79-.2-1.58-.63-2.41.41-.82.83-1.63,1.33-2.63,1.3.07,2.64.15,3.98.22-.04.09-.09.18-.13.27.61.36,1.2.99,1.83,1.02,2.05.09,4.13.78,6.19-.15.45-.2,1.12.06,1.68.16.61.11,1.21.28,1.84.43.22,1.99-.42,2.72-2.64,2.65-1.73-.05-3.45-.26-5.18-.4-1.07-.09-2.15-.18-3.31-.28-.14.5-.28.89-.34,1.3-.05.35-.01.71-.01,1.32,2.41-.37,4.71,2.17,6.99-.12Z"/> <path fill="currentColor" d="M72.27,54.77c-1.41-.16-2.83-.33-4.35-.5-1.67,2.32-2.45,5.01-3.31,7.68-.81.19-1.57.44-2.34.55-1.39.21-1.89-.41-1.4-1.75.45-1.21,1.07-2.36,1.52-3.58.58-1.57,1.8-2.96,1.26-4.87-.11-.38.42-1.27.82-1.38,1.43-.42,1.91-1.67,2.68-2.67.44-.57.92-1.12,1.26-1.75.9-1.67,2.59-1.27,4.01-1.54.27-.05.77.4.96.73.68,1.18,1.25,2.43,1.9,3.63.45.83.35,2.02,1.59,2.4.23.07.46.82.35,1.15-.65,2.07.52,3.78,1.02,5.61.1.35.25.68.39,1.01,1.44,3.34.7,4.29-3.2,4.04-1.82-2.57-1.75-5.86-3.15-8.73ZM71.24,51.11c-.33-.64-.5-.96-.78-1.5-.24.5-.38.77-.52,1.05.32.11.65.22,1.29.44Z"/> <path fill="currentColor" d="M246.4,25.98c.37,1.22,1.17,1.21,1.84,1.3,1.64.21,3.3.4,4.95.49,1.46.08,2.67.71,4.17,1.38-1.75,1.66-3.63,1.31-5.43,1.17-1.86-.14-3.71-.43-5.84-.69-.42,2.27-.83,4.49-1.29,6.97,1.05.22,1.93.46,2.83.58,2.36.31,4.88-.17,7.04,1.66-.17.2-.35.6-.66.75-.44.22-.96.35-1.46.37-4.27.12-8.44-.54-12.72-1.62.06-.73.07-1.29.17-1.82.77-4.25,1.99-8.43,1.61-12.83-.13-1.47.76-2.11,2.25-1.57,2.96,1.08,5.98,1.17,8.96.44,2.11-.52,3.15.55,4.23,1.85-.17,1.07-.96,1.05-1.66,1.09-2.38.15-4.75.26-7.13.39-.55.03-1.11.07-1.85.12Z"/> <path fill="currentColor" d="M82.34,21.29c2.9.11,5.34-.42,7.76-1.16,3.86-1.18,7.74-2.31,11.62-3.46.14-.04.27-.1.41-.13,1.75-.41,2.32-.21,2.63.95.25.96-.39,1.8-1.89,2.17-1.68.42-3.43.56-5.08,1.05-2.62.79-5.19,1.77-7.77,2.68-3.04,1.07-6.19,1.41-9.38,1.4-2.54,0-2.73-.37-2.17-2.81,1.15-4.99,2.25-9.99,3.33-15,.21-.98.2-2.01.37-3,.22-1.26,1.09-1.68,2.67-1.38.95.18,1.34.71,1.11,1.93-.61,3.19-1.31,6.35-1.99,9.52-.5,2.31-1.02,4.62-1.61,7.23Z"/> <path fill="currentColor" d="M109.53,33.07c-.36.4-.43.44-.45.5-1.45,4.14-.98,5.03,3.18,6.08,2.74.69,4.46,3.65,3.47,6.31-.62,1.67-1.55,3.25-2.45,4.8-1.21,2.06-3.17,2.88-5.48,2.84-1.34-.02-2.68-.22-3.94-.33-.31-1.64.83-2.15,1.5-2.92.16,0,.33-.05.44,0,3.73,1.86,3.46.73,4.96-1.69.15-.24.25-.52.36-.79,1.3-3.15.5-5.09-2.62-6.39-.93-.39-1.88-.74-2.78-1.19-1.53-.77-1.87-1.43-1.61-3.13.18-1.14.38-2.28.73-3.37.91-2.78,5.08-4.65,7.86-3.59.66.25,1.65,2.12,1.54,2.9-.12.84-.98,1.58-2.06,1.59-1.1,0-2.31.11-2.62-1.62Z"/> <path fill="currentColor" d="M300,21.12c-1,1.22-2.13,1.29-3.3,1.31-2.74.04-5.48.08-8.22.14-.35,0-.7.1-1.19.18-1.05,3.28-2.37,6.47-2.31,10.03.04,2.51-1.25,3.44-3.69,2.78-.48-.13-.93-.36-1.44-.57.13-4.26.94-8.33,2.5-12.42-2.17-1.03-4.82.04-6.58-1.98.29-1.31,1.51-1.12,2.4-1.2,2.56-.24,5.12-.14,7.69,0,2.8.16,5.63.43,8.41.17,2.15-.2,3.83.35,5.73,1.55Z"/> </svg>