<svg width="100%" xmlns="http://www.w3.org/2000/svg" viewBox="0 0 300 262.87"> <path fill="currentColor" d="M65.73,161.97c-1.48-2.19-2.98-4.31-4.9-6.17l-.51-.5c-1.44-1.4-2.94-2.85-4.68-3.99-2.85-1.86-5.35-3.17-7.88-4.12-2.6-.98-5.29-1.32-8-1.04-4.1.44-7.76,2.41-10.88,5.86-2.31,2.56-4.26,5.53-5.96,9.06-2.46,5.11-4.15,10.3-5.47,14.69-1.33,4.41-2.21,8.86-3,13.03-1.08,5.71-1.68,11.39-2.11,16.2-.43,4.78-.6,9.86-.52,16,.09,7.04.59,13.29,1.51,19.09l.07.43c.59,3.72,1.2,7.56,2.41,11.27-1.85.23-2.42,1.88-2.61,2.45-.33.96-.19,1.93.37,2.64.56.7,1.44,1.05,2.42.95.88-.09,1.73.05,2.76.45,1.74.66,3.26,1.72,4.39,2.56,1.8,1.35,3.75,2.03,5.83,2.03,1.52,0,3.12-.36,4.77-1.09,3.17-1.4,5.83-3.85,8.11-7.49,2.95-4.7,4.65-9.8,5.07-15.16.43-5.61-.27-11.35-2.08-17.05-1.82-5.7-4.58-11.12-8.21-16.11,1.15-.2,2.26-.39,3.37-.57.51-.08,1.01-.17,1.52-.26,1.43-.25,2.79-.48,4.16-.58h.13c2.68-.2,5.46-.4,8.21-1.2.56-.16,1.19-.35,1.78-.7,3.17-1.89,5.99-4.24,8.36-6.96,2.93-3.36,4.73-6.26,5.84-9.4.97-2.73,1.39-4.9,1.37-7.06-.02-2.6-.43-5.17-1.24-7.88-1.07-3.56-2.5-6.64-4.38-9.4ZM28.83,256.83c-.98-.06-1.83-.63-2.81-1.29-.21-.14-.42-.28-.63-.42-1.32-.86-2.52-1.62-3.77-2.34-.2-.12-.4-.21-.61-.29.22-.92.04-1.72-.06-2.21-.17-.79-.35-1.58-.53-2.36-.64-2.84-1.3-5.77-1.75-8.67-.53-3.44-.95-7.23-1.3-11.92-.38-5.02-.38-10.44-.01-17.05.13-2.29.3-4.59.47-6.88l.11-1.53c2.69,1.33,5.51,2.11,7.95,2.7,1.61.39,2.82,1.46,4.03,2.63,2.31,2.22,4.26,4.99,6.34,8.97,1,1.93,1.82,3.66,2.51,5.31,1.49,3.59,2.46,7.39,2.86,11.3.27,2.61.22,5.26-.16,7.87-.44,3.01-1.41,5.9-2.99,8.83-.87,1.63-1.98,3.5-3.58,4.96-1.89,1.74-3.88,2.53-6.08,2.38ZM37.2,200.03c-1.46.35-3.13.34-5.26-.03-1.18-.21-2.22-.75-3.17-1.31-1.73-1.01-3.61-1.72-5.43-2.39l-.27-.1c-1.27-.47-2.58-.83-3.84-1.17l-.42-.11c.23-1.24.46-2.48.69-3.72.54-2.94,1.09-5.97,1.73-8.93,1.23-5.68,3.02-11.22,5.33-16.46,1.75-3.97,3.84-7.16,6.4-9.76,3.01-3.06,6.27-4.33,9.96-3.88,1.43.17,2.93.72,4.06,1.18,3.97,1.6,7.49,4.06,10.45,7.3,2.96,3.23,5.14,6.57,6.66,10.21,1.1,2.62,1.75,5.3,1.88,7.76.03,2.95-.74,5.68-2.44,8.59-1.59,2.74-3.49,5.17-5.66,7.23-.65.62-1.35,1.2-2.09,1.81l-.49.4c-1.54,1.27-3.47,1.52-5.65,1.68-3.78.29-8.18.69-12.44,1.7Z"/> <path fill="currentColor" d="M95.58,43.64c.15-.07.3-.14.45-.2.04,1.05.07,2.1.1,3.14.11,3.3.22,6.71.38,10.06.12,2.49.34,5,.55,7.43l.09.97c.22,2.5.46,4.99.7,7.48l.24,2.47c.03.33.07.74.2,1.16.31.96.92,1.36,1.36,1.53.45.17,1.16.26,2.03-.26.28-.17.55-.36.83-.57l1-.72-.22-1.82c-.09-.73-.18-1.46-.26-2.19-.19-1.81-.38-3.63-.55-5.44-.11-1.15-.23-2.29-.34-3.44-.28-2.77-.58-5.63-.72-8.43-.17-3.23-.22-6.54-.26-9.73-.02-1.32-.04-2.64-.06-3.97v-.25c-.01-.1-.03-.2-.02-.3.64-1.39.33-2.69.11-3.64-.06-.28-.09-.61-.09-1.02.02-1.66.04-3.31.06-4.97.03-2.21.06-4.43.08-6.64.01-1.67.01-3.35,0-5.02,0-1.45,0-2.91,0-4.36,0-1.54-.84-2.61-1.47-3.28-.5-.53-1.18-.77-1.84-.66-.65.11-1.19.55-1.49,1.2-.28.61-.66,1.45-.56,2.36.29,2.62.25,5.25.16,8.16-.12,4.39-.1,8.62-.06,13.68,0,.24-.03.32-.03.32,0,0-.06.06-.27.15-.71.29-1.41.61-2.11.92-.59.27-1.18.53-1.78.78-3.48,1.46-7.17,2.32-11.28,2.64-1.98.16-3.96.07-5.88-.25l-.17-.03c-2.91-.48-5.91-.98-8.81-1.64-1.56-.36-3.15-.83-4.68-1.29-.98-.29-1.95-.58-2.94-.85-.03,0-.05-.01-.08-.02,0-.01,0-.03,0-.04l.21-2.82c.18-2.42.35-4.83.54-7.25.17-2.23.36-4.46.54-6.68.15-1.83.3-3.66.45-5.49.08-.98.12-1.8.13-2.58.02-1.34-.82-2.34-2.13-2.53-.81-.12-1.5.03-2.02.45-.84.68-.91,1.79-.93,2.16-.12,1.95-.24,3.89-.36,5.84-.24,3.95-.48,7.9-.76,11.85-.18,2.63-.4,5.26-.61,7.89-.24,3.01-.49,6.03-.69,9.04-.2,2.99-.34,6.02-.47,8.95-.07,1.47-.13,2.95-.21,4.42-.27,5.45-.27,11.42.02,18.25.05,1.15.07,2.3.1,3.45.02,1.14.05,2.28.09,3.42v.12c.04.85.09,2.26,1.47,3.12l.5.31.57-.14c1.71-.42,2.78-1.12,2.82-3.34,0-.28.03-.57.05-.85.08-1.07.18-2.38-.51-3.67,0-.06,0-.12,0-.18-.05-1.21-.1-2.43-.16-3.64-.13-2.72-.26-5.53-.26-8.28.01-4.02.21-8.12.4-12.08l.06-1.21c.15-3.24.36-6.55.57-9.74l.16-2.6,1.87.54c2.6.75,5.19,1.5,7.77,2.29,3.28,1.01,6.96,1.52,11.57,1.63,1.74.04,3.46-.24,5.12-.52l.57-.09c2.43-.4,5.02-1.09,8.16-2.18,1.04-.36,2.03-.81,2.98-1.25Z"/> <path fill="currentColor" d="M112.34,127.09c-1.03.13-1.93.74-2.46,1.69-.18.32-.35.64-.52.97-.34.65-.66,1.27-1.05,1.79-3.68,4.92-6.82,10.09-9.34,15.37l-1.07,2.24c-.8,1.68-1.6,3.35-2.41,5.05-.23-.69-.46-1.38-.7-2.07-.68-2.01-1.39-4.09-1.87-6.16-.65-2.83-1.16-5.76-1.65-8.6-.22-1.28-.44-2.56-.67-3.83-.06-.31-.13-.62-.23-.92-.27-.79-.75-1.17-1.11-1.35-.36-.18-.96-.33-1.75-.06-.21.07-.43.12-.68.18l-1.58.4v1.09c0,.21,0,.42-.02.63-.02.56-.05,1.2.06,1.87.34,2.07.75,4.08,1.21,6.29l.3,1.46c.38,1.86.77,3.79,1.26,5.68.89,3.41,1.86,6.85,2.81,10.18l.49,1.7c.19.61.21.77.12.93-.34.65-.3,1.59.07,2.15,0,.06-.04.22-.06.35-.02.1-.05.21-.07.31-.17.91-.35,1.82-.52,2.73-.33,1.71-.65,3.41-.96,5.12l-.13.73c-.44,2.47-.9,5.03-1.26,7.57l-.24,1.68c-.44,3.04-.89,6.19-1.11,9.32-.28,4.11-.31,8.19-.32,12.71,0,2.53.14,4.93.43,7.16.57,4.4.65,8.91.25,13.41l-.07.79c-.56,6.25-1.15,12.7-1.32,19.11-.01.39-.05.78-.08,1.17l-.02.24c-.1,1.18.61,2.19,1.73,2.44.18.04.37.06.58.06.54,0,1.15-.15,1.61-.51,1.02-.8,1.59-1.95,1.62-3.24v-.68c.02-.84.03-1.67.08-2.51.19-3.4.39-6.8.62-10.21.1-1.49.21-2.97.33-4.46.19-2.46.38-5.01.51-7.53.14-2.82-.13-5.61-.4-8.31-.15-1.49-.3-3.03-.38-4.53-.04-.79-.1-1.57-.15-2.36-.07-1.03-.15-2.06-.18-3.1-.04-1.34.01-2.7.07-4.01,0-.01,0-.03,0-.04.67-.35,1.13-.93,1.5-1.4l.12-.15c.84-1.05.72-1.96.57-2.42-.14-.45-.57-1.25-1.82-1.63v-.07c.1-.84.19-1.65.29-2.46.12-.91.23-1.81.34-2.72.29-2.39.59-4.85.97-7.26.55-3.53,1.2-7.1,1.92-10.61.1-.48.18-.96.26-1.44.23-1.37.45-2.66,1.07-3.83.96-1.83,1.82-3.74,2.64-5.58.49-1.1.98-2.2,1.5-3.28,1.2-2.53,2.46-5.07,3.74-7.57l.19-.38c.74-1.44,1.51-2.94,2.4-4.25,1.63-2.39,3.36-4.79,5.03-7.11.71-.98,1.41-1.96,2.11-2.95l.11-.16c.16-.22.32-.44.46-.68.61-1.07.47-2.21-.4-3.13-.75-.79-1.77-1.17-2.8-1.04Z"/> <path fill="currentColor" d="M127.67,75.84c.17.02.33.03.49.03,1.33,0,1.95-.72,2.24-1.35.24-.53.5-1.17.62-1.86.09-.56.15-1.13.21-1.69.04-.43.09-.86.15-1.29.08-.52.15-1.04.23-1.57.22-1.57.45-3.19.79-4.74.71-3.29,1.56-6.59,2.29-9.39.99-3.79,2.33-7.69,3.97-11.64.03-.08.06-.15.09-.21.1,0,.21,0,.3,0l.96-.02c1.18-.03,2.37-.06,3.55-.1.54-.02,1.09-.06,1.63-.09.92-.06,1.79-.12,2.65-.1,2.48.05,5.12.21,7.7,1.02.38,1.11.76,2.23,1.14,3.34.97,2.85,1.97,5.8,3,8.68.74,2.05,1.81,4.11,3.39,6.47,1.08,1.63,2.32,1.35,2.8,1.16.84-.35,1.9-.98,2.14-2.01.21-.92.39-2.3-.51-3.7-1.02-1.58-1.99-3.12-2.67-4.75-.91-2.19-1.71-4.49-2.49-6.72-.11-.33-.23-.65-.34-.98l.49.14.55-.41c1.97-1.46,2.11-1.93,2.15-4.49v-.98s-.91-.35-.91-.35c-.14-.05-.28-.11-.42-.17-.39-.16-.82-.34-1.31-.46-.79-.2-1.65-.39-2.56-.46-.11,0-.19-.02-.25-.02-.04-.12-.09-.31-.17-.65-.1-.45-.2-.9-.3-1.36-.13-.6-.26-1.21-.4-1.81-.24-1.02-.49-2.04-.74-3.07-.42-1.72-.83-3.44-1.22-5.16-.27-1.22-.52-2.45-.77-3.68-.63-3.11-1.28-6.33-2.35-9.45-.19-.55-.46-1.03-.72-1.5-.11-.2-.23-.42-.35-.65l-.72-1.42-1.64,1.11c-.19.12-.29.2-.4.28-1.02.81-1.53,1.86-1.99,2.78l-.23.46c-1.81,3.54-3.63,7.09-5.46,10.62-.33.65-.66,1.3-.99,1.95-.78,1.57-1.59,3.19-2.5,4.68-2.53,4.15-4.32,8.65-5.9,12.62-1.58,3.96-2.71,7.53-3.45,10.92-.34,1.53-.71,3.05-1.08,4.57-.35,1.43-.7,2.85-1.02,4.29-.54,2.42-1.03,4.88-1.5,7.26l-.19.95c-.03.13-.06.26-.08.39-.18.77-.39,1.73.01,2.82.15.4.59,1.6,2.07,1.77ZM152.9,35.73l-.28-.03c-1.04-.1-2.12-.21-3.21-.21-.04,0-.08,0-.13,0-.86,0-1.72.05-2.58.1-.91.05-1.77.1-2.63.1-.66-.03-1.36-.04-2.07-.1l8.13-15.69c.54,2.27,1.02,4.54,1.49,6.76.64,3,1.29,6.09,2.09,9.15-.27-.04-.53-.07-.8-.09Z"/> <path fill="currentColor" d="M201.88,15.54c-.19-.09-.38-.18-.56-.27l-.9-.43-2.38,1.34-.11.66c-.17,1-.35,1.99-.52,2.98-.39,2.24-.8,4.55-1.16,6.83-.45,2.87-.77,5.4-1,7.75,0,.04,0,.09-.01.13-.68-3.82-1.18-7.14-1.54-10.24-.3-2.54-.72-5.09-1.12-7.56l-.29-1.76c-.11-.69-.32-1.41-.66-2.31-.36-.95-.93-1.53-1.69-1.72-.77-.19-1.56.07-2.35.77-1.06.94-1.4,2.14-1.59,3.09-.16.85-.33,1.7-.51,2.54-.2.94-.41,1.87-.61,2.8-.61,2.73-1.23,5.55-1.65,8.41-.61,4.17-.95,7.61-1.06,10.9-.18,5.18-.36,10.54.16,15.84.12,1.17.27,2.35.43,3.52.11.82.22,1.63.31,2.45.17,1.51,1.2,2.01,1.8,2.17l.57.16.51-.29c1.75-1.01,2.48-1.8,2.46-4.08,0-.57-.08-1.1-.15-1.62-.03-.21-.06-.42-.08-.63-.08-.76-.18-1.52-.27-2.27-.21-1.7-.42-3.31-.47-4.93-.07-2.13,0-4.33.07-6.45.03-.86.06-1.72.08-2.58,0-.34.01-.68.02-1.02.01-1,.02-1.94.12-2.86.28-2.59.58-5.33.94-8.06.14.96.29,1.92.44,2.88l.22,1.42c.07.46.13.91.2,1.37.15,1.07.3,2.18.54,3.27.85,3.98,1.89,8.68,3.23,13.43.49,1.72.76,3.48,1.05,5.35.08.53.16,1.06.25,1.59.24,1.44,1.08,1.97,1.74,2.15,1.5.43,2.38-.2,2.85-.81.66-.85,1.27-1.82,1.25-3.13,0-.6,0-1.2,0-1.8.01-1.28.03-2.59-.09-3.91-.4-4.79-.36-9.69.13-14.59.36-3.55.96-7.15,1.54-10.64l.23-1.36c.03-.19.06-.38.08-.58.11-.79.19-1.29.53-1.61.57-.52.56-1.23.56-1.6v-.1c0-.26,0-.52,0-.79,0-.34,0-.67.02-1.01.13-1.77-.93-2.52-1.58-2.81Z"/> <path fill="currentColor" d="M242.16,60.48c-.07-1.55-1.17-2.66-2.67-2.7-.41-.01-.78.04-1.13.09-1.93-2.12-3.73-4.66-5.61-7.92-2.28-3.95-4.3-8.33-6-13.03-1.04-2.88-1.96-5.88-2.85-8.78-.47-1.54-.94-3.07-1.43-4.6-.02-.07-.04-.14.12-.43l.87-1.56c1.06-1.91,2.15-3.89,3.27-5.81,1.13-1.92,2.19-3.42,3.73-4.46.47-.32.73-.78.87-1.12.13-.31.24-.62.35-.94.07-.2.14-.4.22-.59.59-1.54.12-2.66-1.38-3.35-1.21-.55-2.38-.38-3.29.5-.12.11-.24.23-.37.34-.4.36-.85.77-1.21,1.31-1.43,2.11-3.08,4.57-4.6,7.04-.73,1.18-1.39,2.41-2.03,3.6-.14.26-.28.53-.42.79-.17,0-.33,0-.5,0h-.05c-1.42,0-2.17.54-2.58,1.85-.16.5-.63,2.04.51,3.43.04.05.06.08.06.08,0,.02-.01.11-.12.3-.29.52-.51,1.05-.71,1.56l-1.1,2.6.19-5.44-1.74-.93c-.13-.07-.25-.14-.38-.19-.79-.33-1.64-.3-2.34.09-.67.38-1.13,1.06-1.26,1.87-.14.91-.22,1.85-.24,2.8-.02,1-.02,2-.01,3,0,1.35,0,2.74-.04,4.09-.04,1.25-.12,2.5-.2,3.75-.09,1.47-.19,2.99-.22,4.5-.09,3.91.17,7.72.77,11.33.05.29.07.57.1.86.04.38.07.76.14,1.13.16.88.75,1.64,1.55,1.97.7.29,1.48.22,2.12-.22.62-.43,1.57-1.09,1.85-2.38.22-1.03.08-1.96-.05-2.78-.03-.21-.06-.41-.09-.62-.23-1.87-.39-3.79-.54-5.65-.07-.84-.14-1.67-.22-2.51-.05-.52.11-1.03.53-1.7.52-.82.98-1.69,1.39-2.58.86-1.91,1.72-3.82,2.57-5.73.3-.68.6-1.35.9-2.03.02.06.04.12.06.18.3.9.58,1.8.87,2.7.64,2.01,1.31,4.09,2.05,6.11.62,1.68,1.36,3.33,2.07,4.92.3.68.61,1.35.9,2.03,2.5,5.78,5.82,11.08,9.87,15.75.6.69,1.21,1.32,1.86,1.99.29.3.59.61.89.92l.76.8.95-.54c1.82-1.04,2.47-2.58,2.91-4.08.15-.54.13-1.05.11-1.46v-.12Z"/> <path fill="currentColor" d="M13.75,101.9l-.12-2.16c-.11-2.06-.23-4.12-.32-6.18l-.04-.96c-.15-3.24-.31-6.59-.41-9.88l-.06-1.86c-.15-4.62-.3-9.4-.35-14.1-.07-6.61-.07-13.5,0-20.47.07-7.09.23-14.2.39-20.84.1-4.23.27-8.54.44-12.71l.05-1.37c.02-.47.07-.96.14-1.47.32.02.63.05.95.07.95.07,1.94.15,2.94.17,1.01.01,2.02-.03,3-.08.39-.02.79-.04,1.18-.05.59-.02,1.19-.04,1.78-.06,1.43-.05,2.9-.09,4.37-.19.52-.04,1.04-.09,1.56-.15,1.2-.13,2.34-.25,3.44-.09.86.12,1.71-.13,2.34-.69.66-.59,1.02-1.46.99-2.38,0-.31-.02-.62-.05-.93-.15-2.04-1.47-2.52-2.54-2.57-.94-.04-1.85.02-2.78.08-.81.06-1.62.12-2.42.19-1.4.12-2.84.24-4.25.28-2.21.08-4.61.09-7.53.02-.97-.02-1.96-.17-3-.32l-.36-.05c-.83-1.03-2.02-1.23-3.12-.52-.1.07-.23.11-.81-.04-1.77-.45-3.42-1.25-5.09-2.1-.49-.25-1.52-.78-2.52-.3C.52.67.28,1.81.17,2.37l-.03.13c-.04.15-.07.3-.09.45-.22,1.61.34,2.64,1.8,3.34.16.08.31.16.47.24.31.16.62.32.94.45l.84.35c1.1.45,2.23.92,3.39,1.32.37.13.68.22.93.29,0,.02,0,.04,0,.06,0,.21-.02.46-.02.75-.04,1.96-.14,3.96-.23,5.9-.07,1.52-.14,3.04-.19,4.56-.07,2.24-.11,4.47-.14,6.71l-.04,2.54c-.09,5.21-.17,10.43-.24,15.64-.04,2.85-.07,5.9-.07,8.9v1.87c.01,5.08.02,10.33.09,15.51.04,2.87.15,5.77.27,8.58l.1,2.69c.08,2.03.16,4.06.24,6.09.07,1.76.14,3.51.21,5.27.01.26.04.52.06.79.04.38.09.91.01,1.1-.56,1.38-.45,2.66-.35,3.79.02.21.04.41.05.62.07,1.11.33,2.15.58,3.17l.04.14c.17.68.59,1.21,1.19,1.5.3.15.64.22.98.22s.71-.08,1.05-.23c.85-.39,1.85-1.27,1.75-3.21Z"/> <path fill="currentColor" d="M299.98,31.24c-.07-1.75-.35-3.14-.87-4.38-.46-1.09-1.14-1.86-2.1-2.35-1.95-1-4.1-1.54-6.99-1.77l-.95-.07c-.99-.07-1.99-.14-2.98-.25-1.55-.17-2.5.35-3.18,1.74-.17.34-.39.69-.6,1.02-.22.34-.46.67-.7,1-.53.74-1.08,1.51-1.5,2.39-2.41,5.14-3.09,9.5-2.16,13.72.57,2.6,1.85,4.66,3.8,6.12,1.53,1.15,3.28,1.49,4.82,1.79l.3.06c.45.09.9.15,1.36.2.74.09,1.43.18,2.05.42,1.55.62,2.2,1.55,2.24,3.21.03,1.16-.23,2.3-.51,3.52l-.13.57c-.22,1.01-.95,1.71-2.15,2.07-1.28.38-2.64.6-4.08.83-.21.03-.42.07-.63.1-.05-.22-.09-.43-.14-.65-.26-1.31-1.1-1.7-1.74-1.8-.08-.02-.16-.06-.27-.11-.13-.06-.29-.12-.46-.19l-1.43-.54-.42,1.47c-.44,1.57-.48,3.07-.52,4.52-.01.55-.03,1.11-.07,1.65-.08,1.05.89,1.95,1.62,2.2.44.15.92.22,1.39.22.27,0,.54-.03.8-.08,1.84-.39,3.81-.85,6.22-1.44,3.08-.76,5.36-2.72,6.6-5.68,1.2-2.85,1.65-5.96,1.34-9.24-.17-1.88-.94-3.43-2.2-4.47-1.81-1.49-3.85-2.41-6.07-2.75-1.22-.19-2.43-.32-3.57-.41-.51-.04-.94-.27-1.33-.7-.89-1-1.4-2.03-1.57-3.15-.31-2.03-.05-4.16.81-6.7.31-.92.7-1.78,1.19-2.62.3.13.61.19.93.16.63-.05,1.19-.4,1.66-1.04.16-.22.3-.47.41-.74.01-.03.02-.06.03-.08.43.13.92.14,1.37,0,.88-.25,1.81.07,2.87.44l.16.06c1.31.46,1.74.9,1.71,2.65,0,.33-.03.66-.05,1-.03.47-.06.94-.06,1.41,0,.73.08,1.36.23,1.94.22.85.83,1.5,1.62,1.74.82.25,1.72.04,2.41-.56.97-.85,1.48-2.02,1.48-3.38v-.88c.01-.73.02-1.45-.01-2.18Z"/> <path fill="currentColor" d="M181.59,219.17l-.43-.39c-.34-.32-.68-.63-1-.94l-.02-.02c-.41-.4-1.51-1.44-7.27.96l-10.26,1.86c-10.29,1.87-20.92,3.8-31.55,5.69-.89.16-1.82.12-2.89.06-.3-.01-.59-.03-.89-.03-3.56-8.13-2.08-27.99.7-37.67.35.05.69.1,1.04.15,1.24.19,2.52.38,3.8.43l.54.03c1.43.08,3.59.21,4.29-1.8.36-1.05.88-1.15,1.92-1.25,1.64-.17,3.19-.27,4.69-.36.86-.05,1.71-.1,2.57-.17l.41-.03c1.67-.12,3.4-.24,4.88-1.29l.72-.51-.15-.87c-.44-2.57-.98-3.34-3.56-3.29-2.2.02-4.43.18-6.57.33l-.31.02c-1.02.07-2.03.14-3.05.2-2.4.13-4.79.24-7.32.36l-2.71.13,4.43-19.22s.04-.02.06-.03c.06-.03.16-.09.16-.09l3.03-.15c6.25-.31,13.34-.65,20.22-.94.37-.02.75-.04,1.14-.07,1.38-.1,2.68-.2,3.64.25,2.22,1.04,4.01.58,5.81-.03l.8-.27.13-.84c.31-1.94.16-3.18-.49-4.01-.82-1.04-2.34-1.25-3.57-1.31-.9-.05-1.75,0-2.65.06l-7.32.37c-5.71.29-11.61.59-17.45.8-1.09.04-2.42-.25-3.93-.9-2.08-.88-3.12-1-3.99-.56-1.02.5-1.51,1.72-1.94,3.4-.2.8-.34,1.59-.48,2.41-.07.44-.15.88-.24,1.32-.25,1.23-.48,2.47-.71,3.75-.55,2.94-1.11,5.99-1.9,8.92-.23.84-.4,1.69-.56,2.53-.49,2.46-.96,4.78-2.69,6.65l-.12.15c-.45.66-.49,2.03-.08,2.72l.11.16c.72.89.6,1.74.32,3.03-.05.23-.1.45-.14.68-2.06,11.21-2.74,19.87-2.19,28.07.31,4.6.86,9.55,2.81,14.66l.4,1.04,1.1-.15c1.66-.23,3.31-.45,5.03-.67,4.06-.53,8.26-1.09,12.36-1.76,4.76-.78,9.53-1.69,14.14-2.56l.52-.1c1.73-.33,3.46-.66,5.19-.98l5.04-.93c4.3-.79,8.74-1.6,13.1-2.49,2.67-.54,3.52-.97,3.39-3.93l-.03-.58Z"/> </svg>