<svg width="100%" xmlns="http://www.w3.org/2000/svg" viewBox="0 0 300 81.32"> <path fill="currentColor" d="M95.5,43.24c-.54.15-.99.18-1.33.38-1.93,1.14-3.95,1.08-6.09.79-1.69-.23-2.84-1.22-3.96-2.28-.77-.72-.6-1.31.59-2.98.71.3,1.57.47,2.2.95,2.25,1.71,4.38.95,6.54-.13.43-.21.8-.54,1.22-.75.59-.3.87-.71.91-1.4.5-7.53,2.43-14.74,4.96-21.81.46-1.28,1.04-2.55,1.77-3.7.41-.65,1.18-1.27,1.91-1.47,1.4-.39,2.78-1.26,4.33-.64,2.59,1.03,4.85,2.37,5.16,5.55.33,3.34.11,6.54-1.66,9.55-1.86,3.15-3.77,6.25-6.23,8.98-.19.21-.26.51-.44.86.41.24.73.49,1.1.63,2.92,1.15,3.98,3.21,3.12,6.26-.32,1.15-.79,2.26-1.19,3.38-.14.38-.27.77-.48,1.36,2.09.96,4.02,2.1,5.28,4.44.41-.62.71-.96.86-1.35.3-.78.43-1.63.78-2.38,1.37-2.97,1.59-6.09,1.5-9.3-.03-1.15.34-2.31.55-3.59.87,0,1.54-.15,2.12.03,1.06.33,1.68,1.02,1.69,2.3.03,3.35.2,6.71-.35,10.04-.1.58-.08,1.18-.13,2.1.6-.25,1.1-.31,1.34-.6.53-.63,1.02-1.33,1.35-2.08,1.83-4.17,3.75-8.29,6.37-12.04,1.2-1.71,1.6-1.77,3.59-1.18,1.38.41,2.52,1.01,3.26,2.51.56-.74.99-1.35,1.45-1.93,1.75-2.16,4.24-1.97,5.74.43,1.14,1.82,1.54,3.88,1.8,5.96.28,2.2.5,4.4.7,6.61.14,1.53,1.03,2.44,2.32,3.23,1.25-1.55,1.79-3.34,2.49-5.04,1.86-4.54,3.67-9.1,5.61-13.61,1.15-2.68,3.22-3.27,5.83-1.84.67.37,1.25.88,2,1.42.14-.36.34-.7.41-1.06.93-4.63,1.86-9.25,2.75-13.88.36-1.88.62-3.77.93-5.66.03-.18,0-.36.03-.54.42-1.98,2.04-2.68,3.71-1.56.28.19.47.7.47,1.06-.01.77-.2,1.54-.28,2.31-.62,5.95-1.28,11.89-1.85,17.84-.45,4.78-1.11,9.51-2.44,14.13-.53,1.83-.6,3.64-.03,5.48.38,1.2.67,2.42,1.04,3.63.13.43.37.84.69,1.55.61-.8,1.11-1.36,1.5-1.99,2.13-3.47,4.26-6.94,6.33-10.45.92-1.55,2.1-2.23,3.94-1.61.81,1.04.59,2.19-.19,3.07-2.62,2.94-4.26,6.5-6.35,9.76-.65,1.01-1.21,2.08-1.97,3-.59.72-1.35,1.39-2.16,1.84-1.71.94-3.23.43-4.22-1.29-.36-.62-.64-1.28-.94-1.93-.27-.6-.5-1.21-.84-2.05-1.94,1.99-4.28,2.5-6.75,1.68-2.46-.81-3.63-2.96-4.58-5.4-.76,1.32-1.34,2.47-2.06,3.55-1.37,2.06-4.56,2.35-6.24.58-.95-.99-1.91-2-2.66-3.15-.42-.65-.6-1.58-.58-2.37.07-3.38-.48-6.67-1.08-9.97-.02-.1-.15-.17-.32-.35-.16.11-.39.2-.48.36-1.35,2.36-2.27,4.82-2.43,7.6-.17,2.98-.64,5.94-.97,8.92-.08.74-.46,1.21-1.2,1.37-.58.13-1.16.26-1.79.4-1.23-1.43-1.18-3.06-.95-4.75.34-2.54.75-5.08.96-7.63.15-1.9-.51-3.73-.8-5.6l-.42-.12c-.39.55-.87,1.07-1.16,1.67-1.47,3.01-2.98,6-4.31,9.07-1.13,2.62-3.11,4-5.79,4.5-1.17.22-2.38.2-3.54.41-.61.11-1.22.43-1.74.8-1.97,1.38-3.54,1.35-5.29-.17-1.12-.97-2.25-1.94-3.36-2.93-.83-.73-1.75-.89-2.83-.73-2,.3-3.62.74-3.52,3.37.1,2.62-.16,5.25-.25,7.87-.02.53,0,1.05,0,1.65-1.21.36-2.31.69-3.45,1.04-.59-1.17-.73-2.18-.75-3.28-.05-2.81-.27-5.62-.36-8.43-.1-2.87-.13-5.75-.19-8.62,0-.17-.09-.34-.2-.69ZM99.74,34.49c.13.05.26.11.39.16,1.69-1.48,3.2-3.12,4.4-5.04,1.04-1.67,2.02-3.38,3.09-5.03,1.66-2.55,2.38-5.29,2.08-8.34-.15-1.48-1.06-2.57-3.03-1.82-.57.22-1.13.68-1.48,1.18-.47.67-.84,1.46-1.09,2.24-1.24,3.93-2.48,7.85-3.59,11.82-.44,1.56-.53,3.22-.78,4.83ZM159.98,33.02c-1.96,4.46-2.43,8.72-2.9,12.99-.18,1.67.36,3.03,1.56,4.19,1.13,1.09,2.08,1.13,3-.07,1.04-1.37,1.67-2.88,1.2-4.68-.13-.51-.25-1.08-.16-1.58.6-3.15-.73-5.99-1.41-8.93-.14-.61-.74-1.11-1.3-1.91ZM101.9,46.19c1.59.28,2.22-.56,2.68-1.46.54-1.05.92-2.19,1.3-3.31.12-.37.13-.86-.01-1.21-.14-.34-.53-.73-.86-.79-.3-.05-.83.23-.99.51-1.08,1.91-1.71,3.97-2.12,6.25Z"/> <path fill="currentColor" d="M285.08,40.38c-.13-2.14.32-3.03,1.85-3.7.4-.17.95-.26,1.34-.12,3.83,1.3,7.18-2.13,7.48-5.44.33-3.59.19-7.17-.4-10.72-.09-.56-.37-1.09-.68-1.98-.65.8-1.02,1.38-1.51,1.84-2.78,2.68-4.28,6.17-6.06,9.48-.28.52-.55,1.08-.92,1.53-2.61,3.15-4.53,6.75-6.75,10.16-1.83,2.81-4.56,4.49-7.8,5.29-1.89.47-3.84.7-5.7,1.26-1.54.46-2.43.05-3.2-1.68-.28-.64-.5-1.31-.83-2.17-.67.93-1.28,1.6-1.67,2.38-.98,1.94-2.73,2.65-4.62,2.45-2.4-.26-3.94.54-5.5,2.32-1.89,2.15-4.57,2.07-6.68.14-.73-.67-1.48-1.45-1.87-2.34-1.17-2.68-2.12-3.59-5.08-4.29-.11.38-.29.76-.33,1.16-.32,3.21-.97,6.39-.81,9.65.08,1.53-1.22,2.67-2.68,2.72-.75.03-1.14-.24-1.22-.96-.07-.59-.16-1.2-.13-1.79.15-3.47.33-6.94.51-10.41.13-2.45.27-4.9.41-7.35.06-1.06.14-2.12.23-3.5-1.23.49-2.24.91-3.26,1.3-.78.3-1.56.62-2.36.83-.93.24-1.68-.1-1.92-.81-.33-.95-.27-2.11.79-2.43.51-.16.98-.49,1.49-.59,1.95-.39,3.43-1.65,5.04-2.67.37-.23.61-.89.67-1.38.95-7.73,3.49-15.03,5.92-22.36.08-.23.14-.46.24-.68.82-1.81,1.79-3.53,4.14-3.34,2.31.18,4.28,1.04,5.36,3.31.87,1.83,1.09,3.79,1.07,5.77-.02,2.09-.34,4.19-.26,6.28.1,2.75-1.35,4.62-3.12,6.38-1.1,1.09-2.26,2.1-3.51,3.25,1.86,1.05,2.22,2.64,2.01,4.48-.06.53-.09,1.08-.04,1.62.31,3.43-1.08,6.13-3.49,8.42-.16.16-.25.39-.42.65.24.22.43.45.66.6,1.51.93,2.75,2.06,3.44,3.77.32.8.99,1.46,1.58,2.3,1.96-1.2,2.98-2.78,3.25-4.94.34-2.61.78-5.21,1.25-7.79.12-.66.5-1.28.8-2.01.62.28,1.05.48,1.48.66,1.71.74,1.72.74,1.64,2.62-.08,1.97-.2,3.94-.26,5.91-.01.46.12.92.19,1.38.86.3,1.4-.03,1.78-.62,1.48-2.33,2.9-4.72,3.51-7.43.44-1.97.7-4.01.76-6.03.09-3.05,1.03-5.75,2.72-8.23.3-.45.6-.9.89-1.35,1.12-1.74,2.11-2.09,3.83-1.04.91.56,1.68.54,2.68.4,1.11-.15,1.36-.72,1.53-1.61.52-2.76,1.02-5.52,1.6-8.26.67-3.16,1.41-6.3,2.15-9.44.09-.38.33-.73.55-1.19,1.02.55,1.95,1.05,3.04,1.64-.23,1.49-.35,3.04-.71,4.53-.88,3.57-.93,7.23-1.38,10.85-.08.65-.19,1.3-.3,1.95-.38,2.18-.62,4.31,0,6.55.52,1.87.53,3.9.69,5.87.09,1.18.02,2.36.02,3.99.47-.64.7-.93.91-1.23.88-1.29,1.8-2.54,2.6-3.87,1.63-2.71,3.18-5.47,4.79-8.2.67-1.13,1.37-2.25,2.14-3.31,1.06-1.45,2.19-2.85,3.32-4.24,1.07-1.31,1.95-1.33,3.43-.56,2.21,1.16,3.36,2.98,3.76,5.36.22,1.29.45,2.59.55,3.89.16,1.9.2,3.82.3,5.72.12,2.32-.32,4.61-1.49,6.53-1.17,1.92-2.8,3.58-4.93,4.56-.37.17-.8.31-1.2.32-2.38.03-4.77.01-7.28.01ZM237.37,26.76c2.41-2.26,4.98-4.09,6.88-6.65.31-.42.56-.94.68-1.44.67-2.99,1.07-6,.88-9.08-.1-1.62-.67-3-1.94-4.06-1.98,1.99-6.96,18-6.49,21.23ZM266.11,44.18c1.92-1.93,3.05-3.93,3.47-6.27.42-2.35.7-4.72,1.03-7.09.14-1,.33-2.02.28-3.02-.03-.51-.44-1.16-.87-1.42-.29-.17-1.01.12-1.39.4-.57.42-1.16.93-1.47,1.54-.71,1.37-1.34,2.79-1.85,4.24-1.35,3.86-.93,7.62.81,11.62ZM236.81,39.98c3.37-2.11,4.68-5.79,3.45-9.3-2.87,2.52-3.29,5.85-3.45,9.3ZM273.87,38.17c-.28,1.07-.51,1.94-.78,2.99q1.68-.77.78-2.99Z"/> <path fill="currentColor" d="M31.45,44.38c2.03-.84,3.65-.4,5.21.21.89.35,1.63.95,1.97,1.96.91,2.67,1.62,5.39,1.79,8.22.14,2.32.16,4.66.25,6.98.02.45.11.91.19,1.48,1.7-.41,3.24-.72,4.61-1.67.77-.53.93-1.06.73-1.96-.41-1.86-.73-3.75-.96-5.64-.2-1.66-.3-3.34-.32-5.02-.01-1.06.19-2.12.34-3.17.36-2.48.82-4.95,1.08-7.44.15-1.47.52-2.81,1.22-4.08.48-.87,1.01-.97,1.93-.63,3,1.12,4.64,3.4,5.53,6.35.14.46.32.9.5,1.35,1.83,4.59,1.67,9.08-.67,13.47-.9,1.68-1.77,3.38-2.65,5.07-.11.21-.14.45-.19.65,1.83,1.85,3.59,2.23,5.84,1.23,1.04-.46,2.06-.96,3.08-1.44,1.18-.56,2.37-.69,3.6-.17.77,2,.62,2.56-1.18,3.38-1.78.82-3.57,1.66-5.42,2.27-2.33.77-4.6.32-6.72-.89-.47-.27-.85-.71-1.34-.89-.45-.16-1.15-.3-1.47-.07-2.54,1.79-5.38,2.81-8.38,3.47-.46.1-.94.23-1.4.19-.75-.07-1.43-.32-1.45-1.27-.03-1.24-.08-2.48-.07-3.72,0-.77.23-1.55.15-2.31-.3-2.91-.65-5.82-1.05-8.71-.12-.88-.41-1.75-.73-2.58-.43-1.1-1.27-1.53-2.29-1.02-1.46.73-2.19.95-1.59,2.82.57,1.78-.14,3.55-.36,5.3-.33,2.58-1.53,4.88-2.72,7.16-.54,1.04-1.15,2.05-1.07,3.36.04.74-.66,1.51-.68,2.27-.07,2.81-.11,5.63.07,8.42.21,3.22.32,3.21-2.8,3.97-.05.01-.12-.01-.37-.05-1.25-2.27-.9-4.89-1.18-7.65-.39.37-.66.61-.91.87-1.38,1.35-3.24,1.5-4.96,1.8-1.93.33-3.93.26-5.89.43-1.02.09-1.79-.3-2.32-1.07-.61-.88-1.22-1.8-1.58-2.8-2.03-5.58-3.52-11.3-4.06-17.25-.16-1.78-.39-3.56-.58-5.29-.09-.08-.13-.14-.18-.15-1.91-.33-2.48-1.51-1.59-3.26.08-.16.17-.33.29-.45,1.41-1.4,1.37-3.16,1.4-4.98.09-5.27.36-10.54.45-15.8.02-1.28.75-1.75,1.67-2.28,1.33.64,2.03,1.65,1.99,3.12-.1,3.65-.24,7.3-.32,10.95-.04,1.96,0,3.92,0,6.11.76,0,1.33.04,1.9,0,2.14-.18,4.27-.53,6.41-.53.92,0,2.08.46,2.69,1.11.92.98-.05,2.74-1.51,2.87-1.43.12-2.87.01-4.31.07-1.67.07-3.33.22-5,.34,0,1.78-.14,3.45.03,5.09.52,5.06,1.21,10.1,2.88,14.95.41,1.19.65,2.43,1.08,3.6.57,1.54,1.1,1.82,2.71,1.72.36-.02.72-.04,1.08-.06,1.23-.07,2.59.13,3.09-1.47,1.87-1.31,2.73-3.29,3.45-5.33.23-.66.39-1.4.36-2.09-.24-4.36-.5-8.72-.83-13.07-.53-7.16-1.45-14.29-1.24-21.5.24-8.47,1.38-16.81,3.32-25.04.4-1.71,1.16-2.19,2.71-1.44,1.22.59,2.49,1.33,3.35,2.33,2.16,2.54,3.61,5.46,3.95,8.87.17,1.72.74,3.4.81,5.12.12,2.74-.05,5.5-.06,8.25,0,1.25.11,2.51.15,3.76.13,3.68-.67,7.25-1.2,10.86-.1.69-.15,1.4-.25,2.41ZM23.57,47.5c1.04-1.78,1.87-3.64,3.9-4.49.26-.11.47-.53.53-.85.59-3.05,1.12-6.1,1.08-9.22-.03-2.09-.11-4.2.06-6.28.3-3.6.27-7.17-.39-10.72-.47-2.53-1.05-5.04-2.53-7.22-.2-.29-.52-.5-.93-.88-3.29,13.28-3.6,26.41-1.72,39.65ZM49.4,56.66c.13.04.26.08.39.12.42-.84.8-1.71,1.27-2.52,1.9-3.25,2.47-6.66,1.31-10.3-.48-1.49-.77-3.06-1.94-4.72-1.93,6-1.88,11.68-1.03,17.42Z"/> <path fill="currentColor" d="M251.81,32.62c-.08-1.47-.26-2.95-.2-4.41.05-1.2.65-1.57,1.95-1.55,1.28.02,1.76.43,1.98,1.58.25,1.34.1,2.46-1.27,3.2-.69.37-1.27.95-1.89,1.44-.19-.09-.38-.17-.56-.26Z"/> <path fill="currentColor" d="M117.74,28.38c.04-1.19.95-2.23,1.87-2.13,1.32.13,2.39,1.25,2.37,2.46-.03,1.27-.98,2.07-2.39,2.01-1.21-.05-1.9-.92-1.85-2.33Z"/> </svg>