<svg width="100%" xmlns="http://www.w3.org/2000/svg" viewBox="0 0 300 107.24"> <path fill="currentColor" d="M288.1,90.73c.92.21,3.58,2.61,3.05,5-1.13,1.6-2.1,3.15-2.91,4.09-.9,1.05-1.8,1.9-2.45,2.21-3.3,1.61-6.02,1.9-8.07.77-2.07-1.15-3.98-2.64-5.94-4.01-.75-.52-.57-1.21,1.23-4.88.6-1.21,14.04-3.43,15.09-3.18Z"/> <path fill="currentColor" d="M0,19.09c4.36-.58,8.09-1.07,11.35-1.5,3.26,3.68,3.61,7.11,3.39,11.14-.59,10.84-.81,21.65,1.99,32.43,1.34,5.17.38,10.94.49,16.44.03,1.66.19,3.31.33,5.69,1.22-.81,2.08-1.15,2.62-1.77,9.91-11.54,19.71-23.17,29.68-34.65,3.36-3.86,7.69-1.71,11.55-.89,3.08.65,4.61,2.69,4.69,6.28.18,7.96.88,15.91,1.52,23.85.28,3.54.93,7.04,1.6,11.98,1.98-2.31,3.12-3.38,3.95-4.65,5.94-9.12,11.81-18.27,17.69-27.43.65-1.01,1.88-2.21,1.7-3.08-1.17-5.41,2.9-7.6,5.87-10.7,3.33-3.48,7.16-7.01,9.01-11.28,3.07-7.1,8.3-7.94,14.62-7.52,3.92,3.62,2.1,7.07-.29,10.28-2.59,3.48-5.52,6.72-8.19,10.15-1.03,1.32-2.8,3.23-2.44,4.24,1.94,5.54-2.72,7.61-5.18,10.74-10.36,13.17-18.96,27.45-26.72,42.24-3.73,7.1-10.57,8.16-16.31,2.48-6.06-5.99-8.08-13.6-9.06-21.62-.64-5.25-.92-10.55-1.42-16.67-5.12,3.98-8.53,8.75-12.24,13.21-6.33,7.62-12.57,15.33-18.72,23.1-2.19,2.77-4.87,3.63-8.23,3.53-6.8-.21-8.01-1.04-8.6-7.79-.78-8.91-.59-17.95-1.98-26.76C.19,55.03.24,39.42,0,23.78c-.02-1.19,0-2.38,0-4.69Z"/> <path fill="currentColor" d="M182.82,64.67c7.58-.3,14.29-.48,20.99-.87,3.79-.22,7.41-.45,11.03-2.63,2.58-1.55,6.48-.91,9.53-1.22,4.15,7.06,2.74,11.13-4.52,12.45-12.59,2.29-25.26,4.65-37.95,1.42q-3.18,5.46-3.78,17.94c2.14-.15,4.28,0,6.27-.49,10.8-2.59,21.6-5.19,32.3-8.13,2.19-.6,3.99-2.67,5.96-4.06-.17-.55-.34-1.1-.51-1.65,3.52.2,7.15-.03,10.52.77,1.76.42,4.28,2.64,4.32,4.11.05,1.99-1.77,4.17-3.16,5.98-.63.82-2.14,1-3.29,1.37-18.38,5.97-36.86,11.59-56.06,14.37-2.1.3-4.39.35-6.41-.16-3.89-1-5.08-3.03-4.43-6.97,1.53-9.28,3.17-18.54,4.76-27.81.12-.71.46-1.49.3-2.14-1.92-7.49,2.15-13.52,4.59-20.01,1.3-3.45,3.36-5.01,6.86-5.26,2.88-.2,5.74-.65,8.61-.89,12.98-1.11,25.98-2.03,38.94-3.39,3.02-.32,5.75-1.64,6.94,2.43.84,2.88-1.08,7.21-3.96,8.56-1.28.6-2.77.92-4.19,1.06-10.57,1.07-21.13,2.32-31.72,3.01-7.95.52-7.97.18-10.47,7.91-.44,1.35-.92,2.69-1.48,4.31Z"/> <path fill="currentColor" d="M259.64,16.64c2.51-1.29,4.9-1.84,6.21-3.34,2.87-3.28,6-2.58,9.23-1.39,9.54,3.51,14.42,14.28,11,23.8-1.19,3.31-3.6,5.17-6.75,6.01-3.26.87-6.64,1.27-9.96,1.89-12.51,2.33-17.82,11.93-12.97,23.75,2.78,6.77,5.89,13.31,13.41,16.31,4.76,1.89,9.49-6.73,8.14-9.91-1.35-3.18-10.82-9.93-10.35-14.95.22-2.35,1.13-4.18,3.75-4.65,2.38-.43,4.78-.78,7.11-1.39,3.95-1.04,7.99-1.92,11.74-3.47,6.21-2.56,9.13-7.78,9.63-14.24.84-10.85-1.2-21.08-10.35-27.91-8.88-6.62-19.22-8.92-30.16-5.76-4.19,1.21-5.12,3.88-3.44,7.93.91,2.2,2.18,4.26,3.77,7.31Z"/> <path fill="currentColor" d="M139,19.15c2.4-.17,4.05-.41,5.69-.38,5.75.08,7.58,1.55,7.14,7.31-.8,10.57-2.17,21.11-3.34,31.65-1.3,11.7-3.53,23.29-1.47,35.21.66,3.82-.63,7.99-1.03,11.96-2.01.42-3.39.83-4.8.98-7.84.82-9.47-1.07-9.69-9.11-.62-23.07,3.89-45.63,6.45-68.38.32-2.85.65-5.69,1.05-9.24Z"/> </svg>