<svg width="100%" xmlns="http://www.w3.org/2000/svg" version="1.1" viewBox="0 0 270.3 300"> <path fill="currentColor" d="M99.5,73.7c.5,0,1,.3,1.5-.2-.6-.5-1.1,0-1.5.2M69.7,156.1c.4,1.2.9,1.6,1.6,1.2.2-.1.4-.5.5-.7,0-.1-.3-.4-.6-.5-.5,0-1,0-1.5,0M97.9,72c2.2-.4,2.4-1,1-3.2,0,1,0,2-1,2.5,0,0,0,.4,0,.7M166.8,204.1c0,.1-.1.3-.2.4.7.6,1.4,1.2,2.2,1.7.2.1.7,0,.9,0,.5-.4.9-1,1.6-1.8-1.8-.1-3.2-.2-4.6-.3M63,138.9c-.7.1-1.3.2-1.8.3-.5,0-1,.1-1.5.2-.7,0-.9.6-.8,1.2,0,.3.2.7.4,1.2.7-.9,1.5-.9,2.4-.8,1.2,0,1.3,0,1.3-1.2,0-.3,0-.6,0-.8M75.7,96.1c0,0-.2,0-.3-.1-1.5,1.5-3.1,2.9-4.9,4.6,1.7,0,3,0,4.4-.1.3-1.6.5-3,.7-4.4M115.1,211.7c.6-1.1.5-2.1.5-3.1-2.6-.4-5.2-.8-7.7-1.2,0,0,0,.1-.1.2,2.4,1.3,4.9,2.7,7.3,4.1M59.6,143.8c.5,1.7.9,3.4,1.4,4.9.6,1.5.8,3.2,1.8,4.5.1-3.2,0-6.3-.4-9.4h-2.9ZM64.6,119.7c-.1-1.5-.3-2.9-.4-4.4-1.6-.1-3-.3-4.5-.4-.4,1.7-.7,3.3-1.1,4.8h6ZM73.3,116.2c-2.1-.2-4.1-.3-6.2-.5.3,1.4.5,2.8.8,4.2,1.7.2,3.5.3,5.4.5v-4.3ZM58.4,134.2c-.6,1-.4,2,.6,3,.8-.8,1.8-.8,2.8-.6.7.2,1.3,0,1.4-.8.2-1.2.3-2.5.4-3.9-2.1,0-4-.6-6.1-.2.3.8.6,1.6.9,2.4M160.3,203.9c.2,2.9.4,5.6,1.7,8.2,1.8-1,3.4-2.1,4.9-3.6-.8-.5-1.4-1-2-1.4-1.5-1.1-1.5-1.1-1.1-2.9,0,0,0-.2,0-.3h-3.5ZM127.3,72.2c-4-2.1-21.3-1.6-24.5.6,0,.9.7.8,1.3.7,2.8-.2,5.6-.3,8.4-.6,2.8-.3,5.7-.6,8.5-.4,2.1,0,4.2.2,6.3-.2M130.3,169.7c3.2.4,6.2.4,7.2-.1,0-1.7.1-3.4.2-5-2.5-.2-4.7-.5-7-.7-.7,2-.7,3.9-.4,5.9M95.6,179.5c2.4-.2,4.5-.4,6.7-.5.1-1.1.2-2.1.4-3,.1-.9.4-1.8,0-2.8-2.2-.1-4.2-.7-6.5-.5-.2,2.2-.4,4.4-.6,6.8M140.8,131.4c-2.3-.2-4.4-.5-6.5-.5-.2,2.3-.3,4.4-.5,6.7,2.1.2,4.1.4,6.1.6.3-2.3.6-4.5.8-6.8M58.1,122.4c0,2.1-.6,4.3-.3,6.6,2.1,0,4.1.3,6,.2.3-2.4.9-4.5.3-6.8h-6ZM73,123c-2,0-3.9-.6-5.9-.5,0,1.2-.1,2.3-.3,3.4-.1,1.1-.3,2.2-.5,3.3,1.2.5,5.1.8,6.4.6.5-2.2.2-4.4.3-6.7M144.4,90.9c-2,.3-4,.2-5.9.7,0,2.4-.7,4.5-.4,6.9h5.7c.3-2.5.9-5,.6-7.7M126.6,92.6c-2.9.1-5.7.2-8.5.3-.3,1.7-.7,3.3-.5,5.1,2.8-.2,5.5.5,8.2.1.3-1.9.6-3.7.9-5.6M128,98.3h7.4c.4-2.2.4-4.4.5-6.7-2.2.2-4.3.4-6.3.6-.5,0-.8.4-.8.8-.2,1.7-.5,3.4-.8,5.3M100.3,116.4c-1.5-.6-7.4-.6-8.7,0-.2,1.6-.8,3.3-.7,5,2.9.2,5.7.4,8.6.6.3-1.9.6-3.6.9-5.5M94.6,94.6c0,1.8-.6,3.5-.5,5.4,3.1-.4,6-.8,9-1.2.4-1.9.7-3.8,1.1-5.8-1.5,0-2.8,0-4.1,0-1.2,0-2.5-.1-3.9-.2,2,1.5,4,2.7,5.3,4.7-2.2-1-4.2-2.7-6.9-2.8M115.7,93h-9.1c-.6,1.8-1,3.6-1.1,5.5,3.2-.2,6.3-.4,9.4-.6.3-1.7.6-3.3.8-5M132.5,147.6c2.3.5,4.4.3,6.6.3.2-2.5.4-4.8.6-7.3-2.2-.2-4.1-.5-6.2-.7-.3,2.7-.7,5.1-1,7.7M118.5,208.7c-.1,1.3-.2,2.4-.3,3.4,0,.6.1,1.1.8,1.3,2.3.8,4.5,1.7,6.8,2.6.4.2.9.1,1.4.2v-6.8c-2.9-.6-5.7-.7-8.7-.7M135.4,119.6c-.3,2.7-.6,5.3-.9,7.8,0,.7.4.9,1,1,1.1.1,2.2.2,3.3.3.7,0,1.4,0,2.2,0,.3-2.8.6-5.4.9-8.2-2.2-.3-4.1-.6-6.3-.9M97.8,154.4h7.6c.3-2.1.7-4.3,1.1-6.6-2.7-.2-5.1-1.2-7.8-1.2-.3,2.6-.8,5.1-.8,7.8M95.7,182.4c-.6,3-.3,6-1.2,8.8,0,0,.2,0,.4,0,2,0,3.9,0,5.9.1.6,0,.6-.4.7-.9.1-2.3.2-4.6.4-6.8,0-.5,0-1.1,0-1.6-1.2,0-2.2,0-3.1,0-1,0-2,.2-2.9.4M101.8,122.1c2.4.7,7.6,1.6,8.7,1.4.4-2.1.8-4.2,1.1-6.3-2.2-.5-8.3-1-9.2-.7-.2,1.8-.9,3.6-.7,5.6M72.6,132.6c-2.4,0-4.6-.8-6.9-.3-.3,2.8-.9,5.5-.8,8.3h7.3c.5-2.6.2-5.2.3-8M99.7,136.4c-.3,2.6-.5,5-.7,7.5,2.7.5,5.1,1.1,7.7,1.2.4-2.5.8-4.9,1.2-7.3-2.8-.5-5.4-.9-8.3-1.4M126.9,199.3c-2.9-.6-5.6-1.1-8.6-1.7.3,2.7-.1,5.3.3,7.9,2.8.2,5.5.3,8.2.5v-6.7ZM89.3,116.3h-13.3c.2,1.6.4,3.1.7,4.8,4,.5,7.9.2,11.9.2.4-1.8.9-3.3.7-5M129.6,199.8c0,2.1,0,4,0,5.9,0,.5.3.8.8,1,1.6.4,3.1.9,4.6,1.4,1,.3,2.1.5,3.3.7,0-2.5,0-4.9-.2-7.2,0-.2-.4-.5-.7-.6-2.6-.4-5.1-.8-7.9-1.2M131.8,130.4c-2.8-.5-5.6-.9-8.5-1.4-.2,2.7-1,5.1-.9,7.8,3,0,5.9.6,8.8.4.3-2.3.6-4.5.6-6.8M118.9,170c3.1,0,5.9-.2,8.8-.2.2-2.2.3-4.2.5-6.3-2.8-.7-5.6-1.4-8.5-2.2-.6,2.8-.3,5.7-.8,8.7M82.7,185.6c.2.4.3.7.5.9,1.2,1.3,2.5,2.6,3.8,3.9,1,1.1,2.2,1.2,3.7.8-.5-1.5.3-2.2,1.6-2.5.2-2.1.3-4.1.4-6-2.8-.5-5.5-.9-8.2-1.4.4,1.8.8,3.6-1.8,4.2M123,118.2c-3.2-.3-6.1-.5-9-.7-.4,2.4-.8,4.5-1.1,6.8,3,.9,5.9,1.1,8.7,1.7.5-2.7.9-5.1,1.4-7.8M71.7,153.1c.2-3.2.7-6.2.4-9.4-2.4-.2-4.7-.7-7.2-.1,0,3.2.1,6.3.5,9.5.7,0,1.2-.2,1.7-.2.4,0,.8-.1,1.1,0,1.1.5,2.2.4,3.5.2M104.9,178.8c3.7.3,7.3.6,11,.9-.1-2.4.6-4.5.5-6.7-.3,0-.4,0-.6,0-3.2.1-6.4.2-9.6.3-.1,0-.3,0-.4,0-.2.2-.6.4-.6.7-.1,1.6-.2,3.2-.3,4.9M124.9,118.5c-.4,2.7-.7,5.2-1.1,7.8,2.8.8,5.5,1.2,8.4,1.6.3-3,.6-5.7.9-8.6-2.8-.6-5.5-.7-8.2-.9M83.7,171c0,.8,0,1.5,0,2.2,0,1.3,0,2.6,0,3.8,0,1.1.2,1.3,1.2,1.5,1.3.2,2.5.5,3.8.7,1.4.3,2.8.4,4.3.3.3-2.4.6-4.7.8-7.1-3.4-.6-6.7-1-10.2-1.3M121,146.8c3.1.6,6,.5,9.1.8.3-2.7.6-5.2.9-7.8-2.9-.6-5.6-.6-8.2-.7-.6,0-.9.3-1,.9-.2,2.2-.5,4.3-.8,6.8M119.7,139c-2-.2-3.7-.3-5.4-.5-1-.1-2.1-.2-3.1-.4-.7-.1-1.1.1-1.1.9-.2,1.6-.4,3.1-.6,4.7,0,.6-.1,1.2-.2,1.7,2.5.7,8.2,1.3,9.5,1,.3-2.4.6-4.8,1-7.4M107.8,154.8c3.3.9,6.5,1.7,9.8,2.6.3-2.8.5-5.4.8-8-1.3-.5-8.8-1.2-9.7-.9-.2,2.1-.9,4.2-.9,6.4M97.6,136.1c-1.5-.6-8.3-1.7-9.3-1.5-.5,2.5-.9,5.1-1.4,7.8,3.4.3,6.5.9,9.9,1,.3-2.5.5-4.9.8-7.3M127.2,181.9c.1-3.3.3-6.3.4-9.3-1.3-.3-7.2-.2-8.1.1-.3,0-.6.4-.6.6-.2,2-.4,4.1-.5,6.1,0,.7.3,1,1,1.1,2,.3,3.9.7,5.9,1.1.6.1,1.2.2,2,.2M138,161.9c.3-4,.5-7.7.8-11.5-2.3,0-4.3-.3-6.5,0-.3,2.4-.7,4.6-1,6.9-.1,1-.2,2.1-.3,3.1,0,.7.3,1.1,1,1.1.9,0,1.7.2,2.6.3,1.1,0,2.3.1,3.5.2M121.2,128.6c-3.1-.6-6-1.2-9.1-1.5-.5,2.9-.9,5.7-1.4,8.6,3.2,0,6.1.9,9.3.8.4-2.6.7-5.2,1.1-7.9M88.8,131.9c3.1.6,6.1,1.2,9.2,1.6.2-3.1.9-6,1.1-8.9-3-.6-5.9-.7-8.8-.6-.5,2.6-1,5.2-1.5,7.9M110.1,126.3c-2.7-.5-5.2-1-7.7-1.5-.9-.2-1.1.1-1.2,1.1-.3,1.8-.5,3.7-.8,5.5-.1.8-.2,1.6-.3,2.5,2.8.5,5.4,1,8.3,1.5.6-3.1,1.1-6,1.7-9.1M137.4,183.4c.1-.7.3-1.1.3-1.6,0-3.1-.2-6.2-.3-9.4h-7.3c-.3,3.3-.6,6.4-.5,9.7,2.7.4,5.2.8,7.8,1.2M86.7,131.5c.5-1.3,1.3-6.7,1.1-7.7h-12.4v6.5c3.8.4,7.5.8,11.3,1.1M95.5,154.3c.3-2.8.6-5.4.9-8.2-3.1-.4-6-.7-8.9-1.1-.7,0-1,.3-1.1.9-.3,2-.6,3.9-.9,5.9,0,.6-.1,1.3-.2,2.1,3.5.1,6.8.2,10.3.3M97.6,157.4c-.3,4.2-.6,8.3-.9,12.5,2.2.2,4.2.6,6.3.5.6-4.4,1.2-8.7,1.8-12.9-1.5-.4-5.5-.5-7.3,0M84.3,144.9c-.3-.1-.5-.2-.7-.2-2.3-.2-4.5-.5-6.8-.7-2.3-.2-2.3-.2-2.4,2.1,0,1.2,0,2.5,0,3.7,0,1.3-.1,2.5-.2,3.7,1.8.6,7.4.7,8.8.2.5-2.9,1-5.9,1.4-8.8M86.3,134c-1.9-.2-3.8-.5-5.6-.6-1.9,0-3.7-.7-5.6-.5-.1,2.8-.2,5.4-.3,8.2,3.5.3,6.7.9,10.3,1,.4-2.8.9-5.3,1.3-8.2M119.8,158.2c2.8,1.2,5.6,2,8.7,2.5.4-3.7.9-7.1,1.3-10.7-3.2-.1-6.2-.6-9.2-.5-.3,3-.5,5.8-.8,8.8M63.9,112.5c.1-.4.2-.8.2-1.1,0-.8,0-1.6,0-2.4,0-.8.3-1.3.9-1.6.7-.3,1.2-.3,1.8.3.8.7.9.7.3,1.6-.2.3-.4.7-.4,1,0,.9,0,1.8,0,2.7,2.4.4,4.7.6,6.9.6.3-3.5.6-6.8,1-10.3-.6,0-1.1,0-1.6,0-1.7.1-3.3.3-5,.4-1,0-1.8.4-2.5,1.1-1.1,1.2-2.2,2.3-3.2,3.5-.8,1-1.2,2.2-1.6,3.5q1.7-.6,3.1.8M137.5,186.3c-2.7-.2-5.2-.9-7.9-1.1,0,.6,0,1.1,0,1.6,0,3,0,6-.2,9,0,.8.4,1,1,1.1,1.5.3,3,.6,4.5.8,1,.2,1.9.2,3.1.3-.2-3.9.3-7.7-.5-11.7M126.9,196.2c0-3.7.1-7.2.2-10.6,0-.6-.4-.8-.9-.9-.7-.1-1.5-.3-2.2-.4-1.9-.3-3.7-.6-5.7-.9,0,.7,0,1.2,0,1.7,0,.9,0,1.7,0,2.6,0,2,0,4,0,6,0,.6.3.9.9,1.1,1.4.3,2.9.6,4.3.9,1,.2,2,.4,3.3.7M137.6,101.1c0,.3,0,.6-.1.8-.2,2.1-.4,4.3-.6,6.4-.2,2.2-.6,4.4-.8,6.7-.2,2.1-.2,2.1,1.8,2.4.2,0,.4.1.6.1,1.1.1,2.1.3,3.4.4.6-5.6,1.1-11.1,1.7-16.8h-5.9ZM100.7,113.5c.4-4.2,1.3-8.1,1.8-12.2-3.1.4-5.9.5-8.8,1.2-.6,3.7-1.1,7.3-1.7,11h8.7ZM190.5,144.5c0,0,.1.1.2.2.2,0,.4-.1.5-.2,3.3-1.9,6.7-3.8,10-5.8,3.1-1.9,6.1-4.2,8.3-7.1,1-1.3,1.8-2.8,2.2-4.5-.3,0-.6-.1-.8,0-1.1.4-2.2.7-3.2,1.1-2.9,1.1-5.3,3-7.6,5-3.2,3-6.3,6.1-8.8,9.8-.3.5-.6,1.1-.9,1.6M94.9,76.5c-.9,0-1.6,0-2.1.2-2,1.4-4.4,2.5-5.5,4.9-.2.4-.5.7-.8,1-1.9,1.5-3.2,3.4-4.5,5.3-.3.5-.5,1.1-.8,1.8,4.1.1,8,.2,11.8.3.8-2.3.7-4.5.9-6.7.2-2.2.7-4.4,1.1-6.9M77.7,100.2c1.9.3,13.3.2,14.3-.2.3-2,.6-4.1.8-6.2-1.5-.6-2.9-1.1-4.3-1.1-2.1,0-4.3-.2-6.4-.2-.6,0-1.2.1-1.8.2-.5,0-.8.4-1,.9-.4,1.4-.9,2.7-1.2,4.1-.2.9-.3,1.7-.4,2.6M138.7,212.2c-1-.2-1.8-.5-2.7-.7-.4,0-.8-.1-1.2-.2-1.3-.4-2.5-.8-3.8-1.2-.3,0-.6,0-1,0,.1,2.3.2,4.4.3,6.5,0,.6.5.9,1,.7.7-.3,1.3-.1,1.9.3.3.2.6.3.9.3,2.6.1,5.1.3,7.7.4,5.4,0,10.5-1.3,15.4-3.3.3-.1.5-.3.8-.5,0,0,0-.2,0-.3-.6,0-1.3,0-1.9,0-1.9,0-3.7,0-5.6,0-1.4,0-2.9-.2-4.3-.1-1.4,0-2.7,0-4.1-.5,0,0-.2,0-.3.1,0,1.2-1,1.3-1.8,1.6-.7.2-1.1,0-1.2-.8,0-.6,0-1.2,0-2.1M115.6,193.8c0-.3.2-.4.2-.5,0-3.2,0-6.5,0-9.7,0-.7-.3-.9-1-1-1.5-.2-2.9-.4-4.4-.6-1.6-.1-3.1-.2-4.7-.2-1.3,0-1.4.1-1.5,1.4,0,1.1-.2,2.3-.2,3.4,0,1.6,0,3.2,0,4.8,3.9.8,7.7,1.6,11.5,2.4M159.1,163.5c-.5,0-.9,0-1.3,0-2.6.2-5.2.3-7.8.5-2.9.2-5.9.3-8.8.4-.6,0-1.2,0-1.2.8,0,1.5,0,3,0,4.7,3,.2,6,.2,8.9.6,3,.3,5.9.9,8.9,1.3.5-2.8.9-5.4,1.4-8.2M127.6,100.8c-1,4.8-2.2,13.6-2,15.1,2.6.3,5.1.6,7.9.9.6-5.4,1.2-10.6,1.8-16h-7.7ZM116.5,170.2c.1-.4.3-.8.3-1.2.2-2.6.3-5.1.4-7.7,0-.8-.3-1.1-1-1.3-1.7-.5-3.4-1.1-5.2-1.6-1.2-.3-2.5-.7-3.8-.3-.1.9-.3,1.7-.4,2.6-.2,1.6-.3,3.1-.7,4.6-.5,1.7-.2,3.4-.3,5.3,3.7.2,7.2,0,10.8-.4M114.7,115c2.9.2,5.7.5,8.6.7.7-5.1,1.3-10,1.9-14.9-.1,0-.3-.1-.4-.1-2.3,0-4.7-.2-7-.2-.8,0-1,.4-1.1,1.1-.5,3.9-1,7.8-2,11.6-.1.5,0,1,0,1.8M84.7,157.2c0,.2,0,.4-.1.7-.2,2.9-.4,5.8-.7,8.7-.1,1.5-.1,1.6,1.4,1.8,2.3.4,4.5.7,6.8,1.1.7.1,1.4,0,2.2.1.4-4.2,1.1-8.2.9-12.3-2.4-.4-9.2-.5-10.5,0M112.2,114.6c.8-4.8,1.7-9.3,2.2-14.1-3.2,0-6.3.3-9.4.6-.7,4.2-1.6,8.3-2.1,12.6,3.1.3,6.2.6,9.3.9M163.2,144.4c-1.2-.2-2.3-.3-3.4-.5-2.7-.3-5.4-.6-8-1.2-2.5-.6-5.1-1.1-7.7-1.5-.7-.1-1.4,0-2,0-.5,2.3-.9,4.5-.7,6.9,7,.5,13.9,1,21,1.1.3-1.7.6-3.2.8-4.8M104.4,90.4c.1-.5.3-.8.4-1.2.6-2.8,1.2-5.7,1.8-8.5.4-1.6.2-3.3,1.5-4.8-1.4.2-2.6-.1-3.6.4-.2.8.7,1.4,0,2.3-.5-.6-.9-1.2-1.4-1.7-.2-.2-.6-.5-.9-.5-1.7,0-3.3.2-4.9.3-1,3.2-2.1,11.8-1.7,13.6,2.9.3,5.9.1,8.8.2M176.2,162.7c-.8,0-1.4,0-2,0-1.8.2-3.6.6-5.4.7-1.9.1-3.9,0-5.9,0-1.4,0-1.6.1-1.8,1.6-.2,1.2-.5,2.4-.6,3.7-.1,1.1-.6,2.2-.2,3.4,5,1.1,9.8,1,14.8-.2.4-3.1.7-6,1.1-9.2M141.3,209.8c.6.2,1.1.5,1.6.5,2.3.2,4.5.5,6.8.6,2.4.1,4.9,0,7.3,0,.4,0,.7,0,1.3-.1-.1-1.8-.2-3.5-.4-5.1-.4-2.5,0-2.4-2.5-2.5,0,0,0,0-.1,0-4.2-.6-8.4-1.2-12.6-1.7-.5,0-1.1,0-1.8,0,.2,2.8.4,5.5.5,8.4M91.5,194.3c0,.1,0,.2,0,.3,3.1,3.2,6.6,5.8,10.1,8.6.7-.6,1.3-.9,2.2-.6.3,0,.8-.1,1-.3.6-.4,1.1-.9,1.6-1.5.5-.7,1.2-.7,1.8-.5.7.3.6,1,.5,1.6-.2.6-.4,1.3-.7,2,2.6.7,5.2,1.4,7.9,1.2v-8.1c-2-.8-10.6-2.5-11.7-2.3,0,1.2,0,2.4.2,3.7.1,1.2,0,1.5-1,2.1-1.1.6-1.6.4-1.8-.8-.1-.7-.2-1.4-.2-2.1,0-.7,0-1.4,0-2.1,0-.6-.3-.7-.9-.5-.2,0-.4.2-.6.4-.7-1.2-1.7-1.2-2.8-1.1-1.1.2-2.2,0-3.3,0-.7,0-1.4,0-2.1,0M77.2,103c-.5,3.6-.7,7.1-.5,10.6.2,0,.3.2.5.2,4,0,7.9,0,11.9,0,.7,0,1-.4,1.1-1.1.5-3,1-6,1.4-9,0-.3,0-.6,0-1-4.9.1-9.6,0-14.4.3M129.3,89.6c2.5-.3,4.7-.5,7.1-.7.1-1.9.2-3.7.3-5.4,0-1,0-1.9,0-2.9,0-.5.2-1,.8-1.2,1.3-.3,2.2.5,2.1,1.8-.2,1.8-.4,3.6-.6,5.4,0,.7,0,1.5,0,2.3,1.9-.2,3.5-.4,5.2-.6.3,0,.6-.4.7-.7.2-.5.2-1,.2-1.6.1-1.4.1-2.9.3-4.3.3-2.2.8-2-1.7-3.4-2.8-1.6-5.8-2.9-8.8-4-1.1-.4-1.8-.1-2.6.5.4,1.1-.5,1.8-.6,2.6-.2,1.7-.8,3.3-1.2,4.9-.2.9-.3,1.9-.5,2.8-.2,1.3-.5,2.7-.7,4.4M144,121.1c0,0-.1.2-.1.3-.3,2.1-.5,4.1-.8,6.2-.2,1.2,0,1.3,1.2,1.4,5,.4,10.1.9,15.1,1.3,1.6.1,3.2.3,5,.4v-7.9c-6.7-.6-13.6-1.1-20.4-1.7M163.3,141.8c.6-1.8,1-7,.7-8.5-7-.8-14-1.4-21.1-1.9-.3,2.5-.5,4.7-.8,7,7.2,1.1,14,3.2,21.2,3.4M139.8,183.4c.3.2.5.3.6.3,2.6.3,5.2.6,7.8.7,1.5,0,3,0,4.3-.6.8-.4,1.6-.3,2.3,0,.5.2,1.1.4,1.7.5.3-3.1.5-6.1.7-9,0-.7-.2-1.1-.9-1.1-.8,0-1.5-.2-2.3-.3-4.3-.9-8.7-1.2-13-1.4-.4,0-.8,0-1.3,0-.5,3.6.5,7.2,0,10.8M82.4,156.8h-7.9c-.2,2.1.6,4.3,0,6.5-.4,0-.7.2-1,.3-1.4.4-1.6.2-1.6-1.2,0-1.2,0-2.3,0-3.7-.7.2-1.2.3-1.6.5-1.3.4-2.5,0-3.1-1.3-.3-.5-.4-1.1-.7-1.6-.1-.2-.4-.3-.7-.5,0,1.2.3,2,.8,2.9.3.6.3,1.1-.4,1.4-.2,0-.3.2-.5.5,4.3,7.9,8.8,15.7,14.8,22.6.2-.9.4-1.5.6-2.3-.9-.3-1.9-.7-3-1.1-.2-.7-.3-1.4.3-2.1.9-1.1,2-.2,3.1-.2v-6.9c-1.7-.4-3.3-.9-5-1.2-1.7-.3-3.4-.4-5.1-.7,0-2.3,1-2.8,3-2.8.4,0,.8,0,1.1.1,1.3.3,2.6.6,3.9.9.8.2,1.5.4,2.4.6.3-3.6.5-7.1.8-10.7M140.5,198.2c5.7.7,11.1,1.4,16.7,2.2-.2-4.3-.4-8.4-.5-12.6-.5,0-.9-.2-1.3-.2-4.2,0-8.5-.1-12.7-.2-.3,0-.6,0-.8-.2-.5-.7-1.1-.5-1.9-.4.2,3.8.4,7.6.6,11.4M161.8,151.5c-.9,0-1.6,0-2.2,0-2.2,0-4.5-.1-6.7-.2-3.6-.2-7.2-.4-10.8-.7-1.3,0-1.3,0-1.4,1.3-.1,1.9-.3,3.9-.4,5.8,0,1.3,0,2.6,0,4.1,6.6-.2,13-.6,19.5-1.2.7-3,1.3-5.9,2.1-9.1M107,90.3h9c.1-.4.3-.8.3-1.2.4-2.6.8-5.2,1.2-7.8,0-.6.2-1.2.5-1.8.3-.6,1.3-.7,2-.4.7.3.6.9.4,1.5-.2.8-.4,1.7-.6,2.5-.4,1.8-.7,3.5-1,5.3-.1.5-.2,1.1-.3,1.8,2.9.1,5.6,0,8.3-.4.3-2.1.6-4.2.9-6.3.2-1.4.3-2.8.5-4.1.3-1.5.7-2.9,1.1-4.6-6.6.5-13.1-.4-19.5,1,.4,1.1.4,1.1,0,2.2-.3.6-.5,1.2-.7,1.9-.5,1.9-.9,3.8-1.3,5.7-.3,1.5-.6,3-.9,4.6M174.8,174.9c-.3,0-.4,0-.5,0-4.5.7-8.9.8-13.4.1-.4,0-.8,0-1.4,0-.1,3.3-.2,6.4-.3,9.7.9,0,1.5-.1,2.2-.1.7,0,1.4-.3,1.8.7,0,.2.5.4.7.4,2.1.3,4.1.8,6.2,0,.3-.1.8-.2,1.1,0,.2,0,.5.5.5.7,0,1.4-.9,2.2-2.3,2.5-2.6.4-5.1,0-7.7-.3-.8,0-1.7-.3-2.6,0,0,1.3.2,2.5.2,3.7.1,2.2.2,4.4.4,6.6,0,.4.1.8.2,1.1,0,.5.4.8.8.8,2.1.1,4.3.3,6.4.4,1.8,0,3.6,0,5.4,0,0,0,.2-.2.2-.3.2-2.3.4-4.6.6-6.8.1-2,0-3.9.1-5.9.3-3.7.8-7.4,1.3-11.1,0-.7.1-1.4.2-2.2M176,198.1c0,0,.2,0,.2,0,.4-.5.8-1,1-1.5,2.2-4.1,4.4-8.2,5.8-12.7.8-2.6,1.6-5.2,2.2-7.8.6-2.6.9-5.3,1.1-7.9.2-2.6.4-5.1.3-7.7,0-3.6-.4-7.1-.5-10.7,0-.6,0-1.3-.6-1.8-.2-.1-.3-.6-.2-.8.4-1,0-1.9-.1-2.8-.4-3.8-1.2-7.5-2.2-11.2,0-.2-.2-.5-.4-.9,0,.4-.1.5-.1.6-.3,3.3-.6,6.5-1,9.8-.2,2.3-.6,4.5-.9,6.8-.3,1.9-.7,3.8-1,5.8-.2,1.3-.6,2.6-.3,4,.4,0,.9,0,1.1.2.4.3.9.8,1,1.3,0,.2-.5.7-.9.9-.4.2-.9.2-1.3.4-.3.1-.7.5-.7.7-.4,2.6-.7,5.2-.9,7.8,0,1,.1,1.2,1.1,1.2.8,0,1.6-.1,2.4,0,.5,0,1.1.3,1.5.6.6.5.4,1.1-.2,1.5-.7.4-1.3.7-2.2.6-.6,0-1.2,0-1.9,0-1.1,0-1.1,0-1.2,1.1-.1,1.2-.2,2.5-.4,3.7-.8,5.4-1.3,10.8-1,16.2,0,.8,0,1.7,0,2.5M176.4,159.8c.1-.4.3-.8.3-1.2.3-2.2.7-4.4.9-6.7.4-2.9.8-5.9,1.1-8.8.3-2.7.7-5.5.8-8.2,0-2.7-.2-5.4-.2-8.1,0-.6,0-1.4.4-1.9.6-.8.5-1.3.1-2.1-.5-1-.9-2.1-1.3-3.2-.2-.6-.4-1.2-.7-1.7-1.5-2.9-2.9-5.9-4.5-8.8-1.3-2.4-2.8-4.8-4.2-7.2-.1-.2-.4-.4-.9-.8-.2,1.9-.3,3.5-.5,5.1-.6,4.3-.6,8.5-.8,12.8,0,1.1.1,1.3,1.2,1.3,1.9,0,3.8,0,5.7,0,.4,0,.8,0,1.1,0,.6,0,1.1.2,1.3.9.2.7-.1,1.2-.7,1.4-.6.2-1.3.5-1.9.5-1.6,0-3.1,0-4.7,0-.7,0-1.3,0-2.1,0v8c.5.1,1,.2,1.6.3,2.5.5,5.1.5,7.7.5.5,0,1.1,0,1.3.6.3.7-.2,1.1-.6,1.4-.3.2-.8.4-1.2.4-2.3,0-4.6-.2-6.8-.3-.7,0-1.4,0-2.2-.1-.3,2.8-.6,5.5-.9,8.3,1.7.1,3.3.3,4.9.4.5,0,1,.1,1.4.3.7.3.8,1.4.1,1.8-1.1.6-2.3,1.1-3.6.4-.9-.5-2-.5-3.1-.4-.3,1.5-.6,3-.9,4.7h1.7c2.3,0,4.7,0,7,0,.8,0,1.7,0,2.4.6,0,1.7-.1,1.8-1.6,2-.4,0-.8,0-1.1,0-1.2,0-2.4-.2-3.6-.3-1.8,0-3.5,0-5.4,0-.6,3-1.3,5.9-1.9,8.8,4.9.8,9.5-.2,14.2-.8M164.8,120.2c0-.8,0-1.3,0-1.8,0-4.2.2-8.4.8-12.6.3-2.1.4-4.2.7-6.3.1-1.1,0-2-.8-2.9-1.9-2-3.6-4.2-5.6-6.1-3.1-3.2-6.6-5.9-10.2-8.5-.4-.3-.9-.5-1.5-.9-.6,2.2-1,4.3-.9,6.5,1.4.1,2.6-.3,3.9-.5.9-.1,1.9-.3,2.8-.3.8,0,1,.3.9,1.1,0,.6-.2,1-.8,1.2-.6.2-1.2.3-1.8.4-1.8.3-3.6.6-5.5.9,0,2.8-.8,5.4-.7,8.2,1.1,0,2.1,0,3.1.2,3,.2,6.1.4,9.1.6.7,0,1.3-.1,2-.2.6,0,1,.3,1.2.8.3.5.1,1.1-.3,1.4-.4.4-.9.7-1.4.9-.3,0-.8-.2-1.2-.3-.2,0-.5,0-.7-.1-3.6-.3-7.1-.5-10.7-.8-.5,0-1.1.1-1.7.2-.5,5.7-1,11.2-1.5,16.9,6.8,1.4,13.6,1.6,20.6,2M187.3,143.9c.1,0,.2,0,.3,0,.3-.4.6-.7.8-1.1,3.2-4.8,7.2-8.9,11.6-12.5,2.2-1.9,4.7-3.4,7.5-4.4,1.2-.4,2.4-.8,3.7-1.1.8-.2,1.1-.6,1-1.4-.2-1.4-.2-2.9-.6-4.2-1-3.9-2.9-7.3-5.4-10.5-1.3-1.7-2.8-3.1-4.5-4.3-1.4-1-3-1-4.5-.6-4,1.2-7.3,3.4-10,6.5-2.4,2.7-4.7,5.4-7.1,8.2,3.1,8.2,5.9,16.6,7.1,25.5M178.9,115.4c1.5-1.7,2.9-3.1,4.3-4.6,1.1-1.2,2.4-2.2,3.3-3.5,2.8-3.6,5.3-7.3,7.4-11.4,2.3-4.5,4.2-9.2,5.4-14.1,1.2-4.8,2.1-9.7,2-14.7,0-2.3-.4-4.5-1.1-6.6-.8-2.2-2.2-3.9-4.5-4.7-.5-.2-1.1-.4-1.6-.6-2.1-.7-4.3-1-6.5-1-1.7,0-3.5.5-5.1,1.1-3.9,1.4-7.3,3.5-10,6.7-1.7,2-3.6,3.8-5.3,5.8-1.5,1.7-3,3.4-4.5,5.2-.8,1-1.5,2.2-2.3,3.2-1.5,1.9-3,3.8-4.6,5.7-.4.5-.9.8-1.5,1.3,4.5,3.4,8.4,7.5,12,11.7,1.8-1,3.1-.5,3.8,1.4-1.2.7-1.4,1.4-.6,2.6.4.6.8,1.2,1.2,1.8,1.9,3.2,3.8,6.3,5.6,9.5.9,1.6,1.7,3.3,2.6,5.1M215,126.3c-.2.6-.5,1.2-.6,1.8-.3,1.6-1.2,3.1-2.1,4.3-1.6,2.2-3.6,4.1-5.9,5.6-3.1,2.1-6.3,4.1-9.6,6-2.4,1.5-4.9,2.9-7.6,3.9-1.1.4-1.2.6-1.1,1.7.2,2,.5,4,.5,6,0,3.6.3,7.3,0,10.9-.4,5-1.2,10-2.7,14.9-.1.4-.2.7-.2,1.2.9.3,1.8.4,2.6.8,1.9,1,4,1.6,6,2.2,1.3.4,2.6.6,3.9.7,2.7.2,5.4-.1,8.1-.7,2.8-.6,5.5-1.3,8.1-2.3,3.7-1.4,7.3-3.2,10.5-5.5,3-2.2,5.6-4.7,7.6-7.8.4-.6.8-1.3,1.3-1.9,3.5-4.3,5-9.2,4.8-14.6-.1-4.7-.9-9.3-2.5-13.7-.9-2.4-2.3-4.5-3.9-6.4-2.3-2.6-5.2-4.3-8.4-5.6-2.8-1.2-5.7-1.7-8.9-1.3M122.9,64.6c-.5-.1-1-.2-1.5-.3-1.1-.3-1.5-1-1.3-2.1.3-1.3.6-2.6.9-3.9.4-2.1.9-4.3,1.2-6.4.2-1.4.5-2.8.6-4.2.1-3.2.1-6.4,0-9.6,0-1.4-.2-2.8-.5-4.1-.9-3.5-1.9-7-2.9-10.5-.7-2.2-1.4-4.4-2.4-6.4-1.7-3.5-3.5-7-5.3-10.4-1-1.8-2.4-3.2-4.3-4-1.5-.6-2.9-.6-4.2.5-.8.7-1.5,1.5-2,2.4-1.4,2.2-2.4,4.7-3.1,7.2-.8,2.7-1.7,5.4-2.2,8.1-.9,4.2-1.3,8.6-1.5,12.9-.2,2.9-.1,5.8,1,8.6.6,1.5,1,3.2,1.3,4.8.7,3.6,1.1,7.2,1.8,10.7.7,4,1.5,8,2.9,11.8.5,1.4.5,1.4,1.9,1.1,3.4-.9,6.8-1.3,10.3-1.4,4.7-.1,9.4.3,14.1,1.3,3.5.8,7,1.6,10.2,3.1,2.4,1.1,4.7,2.3,7.1,3.4.7.4,1.3.7,2.3.4,1.2-.3,2.3.6,2.6,1.9,0,.3.1.6.3.8.7.6,1.5,1.1,2.4,1.7.2-.7.4-1.1.6-1.6.6-1.7.6-3.7,2.3-4.9.2-.1.2-.4.4-.6,1.4-2.3,2.7-4.6,4.3-6.7,1.7-2.3,3-4.7,4.1-7.3,1.8-4.1,3.2-8.3,4.5-12.6,1.5-5.1,2.7-10.3,3.1-15.7.3-4,.7-8-.3-12-.8-3.4-2.4-6.2-5.5-8-1.5-.8-3.1-1.5-4.8-1-2.6.7-5,1.8-7.2,3.3-1.5,1.1-2.9,2.2-4.3,3.5-2.7,2.4-5.1,5-7.2,8-2.2,3.1-4.2,6.2-6,9.5-2,3.6-3.7,7.4-5.3,11.2-1.3,3-2.3,6.2-3.2,9.3-.7,2.2-1,4.6-1.4,6.8-.3,1.7-.7,3.4-1,5.2,0,0,0,0-.1,0-.5.1-.9.2-1.4.3-1,.2-1.2,0-1.2-1,0-.9.2-1.8.3-2.9M170.7,207.4c.4.3.6.5.8.7,1.1.7,2.3,1.4,3.4,2.2,4.8,3.4,9.6,6.7,14,10.6,3.5,3.1,7,6,10.6,9,1.9,1.6,3.8,3.3,5.9,4.8,2.8,2,5.5,4.1,8.5,5.8,2.4,1.3,4.6,2.9,7,4.2,1.7.9,3.4,1.7,5.3,2.2,2.1.6,4.2.8,6.3,1,3.1.3,6.2,1,9.4.8,2.3-.1,4.7-.1,7-.3,1.7-.1,3.3-.6,4.9-.8,4-.4,7.7-1.7,11.1-3.9,1.5-1,2.6-2.3,3-4,.5-2,.6-4,.2-6-.6-3.1-1.7-6-3.1-8.9-1.7-3.4-4-6.5-6.5-9.4-1.9-2.2-4.2-4.2-6.6-5.9-3.1-2.2-6.3-4.4-9.5-6.3-2.4-1.4-4.9-2.5-7.4-3.6-4.3-2-8.6-3.7-13.2-4.9-2.9-.8-5.9-1.7-8.9-2-2.8-.3-5.7-.8-8.5-1.1-2.6-.3-5.1-.5-7.7-.5-2,0-4-.9-5.9.5-1.1-1.6-.6-3.1,1-3.5.2,0,.4-.2,1-.4-2.9-.8-5.4-1.6-8-2.4-.2.4-.4.7-.5,1-1.9,5-4.2,9.8-7.5,14.1-1,1.3-1.5,2.7-1.4,4.3,0,1,0,2.1,0,3.1-.8.1-1.5.4-2.2.3-1,0-.6-1.2-1.2-1.8-.4.4-.8.7-1.3,1.2M130.5,218.9c-.7.1-1.2.3-1.7.4-.7.2-1.3.1-1.7-.6-.2-.3-.5-.6-.8-.7-2.5-.4-4.8-1.5-7.1-2.4-2.5-1-5-1.9-7.1-3.6-.4-.3-.8-.6-1.3-.6-1.1,0-1.8-.7-2.7-1.2-1-.7-2.1-1.3-3.1-2.1-.5-.4-1-.3-1.4,0-.9.6-1.9,1.3-2.8,1.9-2.7,1.7-5.1,3.8-7.3,6.1-2.7,2.7-5.2,5.6-7.8,8.3-2,2.1-3.8,4.2-5.4,6.6-2.2,3.3-3.7,6.9-4.7,10.7-.6,2.4-.9,4.9-1.2,7.3-.5,4.3-.3,8.7.2,13,.3,2.5.5,5,.7,7.5.3,4.3.8,8.5,2.4,12.6,1.2,3.1,2.8,6,5.3,8.2,1.1,1,2.4,1.8,3.6,2.6,3.9,2.7,8.2,4,12.9,4.1,3.3,0,6.4-.8,9.4-2.3,3.9-2,7.6-4.5,10.7-7.6,1.7-1.7,3.2-3.5,4.7-5.3,1.9-2.2,3.4-4.6,4.8-7.1,1.6-2.8,2.7-5.9,3.7-9,1.4-4.3,2.4-8.6,2.5-13.1,0-3.3,0-6.7,0-10,0-4.3-.6-8.7-1.4-12.9-.4-2-.7-4-1.8-5.8-.5-.8-.6-1.9-.8-2.8-.2-.6-.3-1.3-.5-2.2M133.5,219.5c.6,2.3.9,4.5,2,6.4,1.7,3,3.5,5.9,5.4,8.8,1.9,2.9,3.9,5.7,5.7,8.5,2.8,4.5,5.3,9.1,8.4,13.4,2.4,3.3,4.7,6.6,7.6,9.4,2.8,2.6,5.6,5.2,8.4,7.7,2.6,2.2,5.2,4.4,8,6.5,2.4,1.8,5,3.3,7.5,4.9,4.2,2.7,8.5,5.1,13.2,6.7,2.2.8,4.4,1.7,6.7,1.9,4,.5,8,.3,11.9-.5,2.5-.5,5-1,7.2-2.2,1.1-.6,2.4-1.1,3.3-2,4-3.5,4.9-8.1,3.6-12.9-1-3.9-2.8-7.5-5.1-10.8-.6-.9-1.1-1.8-1.7-2.6-1.4-2-2.9-4-4.4-6-2.7-3.4-5.3-6.7-8.1-10-1.6-1.9-3.3-3.7-5-5.5-1.5-1.6-2.9-3.2-4.6-4.7-2.7-2.3-5.5-4.5-8.3-6.7-2.4-1.9-4.8-3.8-7.2-5.7-2.2-1.7-4.4-3.5-6.6-5.2-2.4-1.8-4.9-3.6-7.3-5.4-2-1.4-4-2.8-6-4.2-.4.3-.7.4-1,.7-1.5,1.3-3.1,2.5-4.9,3.4-.4.2-.8.5-1,.8-.4.9-1.1,1-2,1.2-.6.1-1.2.2-1.8.5-3.2,1.5-6.5,2.4-9.9,3.1-3.5.7-7.1.9-10.7.7-1.2,0-2.3-.2-3.7-.4M56.1,139.6c-.3,0-.4-.1-.6-.1-3.2,0-6.4,0-9.5,1-.7.2-1.4.3-2.1,0-.7-.3-1.4-.5-2.2-.7-3.1-.7-6.3-1.3-9.3-2.1-3-.8-6.1-.7-9.1-.2-3.6.7-6.9,2.3-9.7,4.6-4.1,3.3-6.5,7.6-7.1,12.8,0,.7.1,1.5,0,2.3-.3,1.9,0,3.8.4,5.7.7,3.8,1.6,7.6,2.4,11.5,1,5,2.1,9.9,3.9,14.6.7,1.7,1.3,3.4,2.4,4.9,3.3,4.4,6.8,8.6,11.2,11.9,2.8,2.1,5.8,3.9,8.8,5.9.9.6,1.9,1.3,2.9,1.8,2.2,1.1,4.6,1.9,6.8,3,3.2,1.6,6.4,2.9,9.8,3.8,2.9.7,5.8.9,8.8.5,2.4-.3,4.7-.9,7-1.9,3.2-1.4,6.5-2.6,9.7-4.1,5.2-2.4,10.4-5,15.6-7.5,1.3-.6,2.6-1.2,3.8-2.2-1.4-1.2-2.7-2.3-4.1-3.3-2.1-1.7-4.3-3.3-6-5.4-.4-.4-.7-.9-1.1-1.2-.3-.2-.6-.4-1-.5-.9-.2-1.9-.4-2.8-.6-1.3-.3-1.6-1.1-.9-2.2.2-.3.3-.5.5-.8-1.2-1.1-2.5-1.9-3-3.4,0-.2-.3-.3-.5-.4-1.1-.6-1.7-1.5-2-2.8-1-.2-1.8-.8-2.1-1.7-.3-1-1.2-1.5-1.7-2.3-.3-.5-.9-.9-1.2-1.4-1.3-1.8-2.5-3.7-3.7-5.6-1.1-1.8-2.2-3.5-3.2-5.3-.5-.9-.7-2-1.3-2.7-1.2-1.4-1.7-3.1-2.5-4.6-.6-1.1-.9-2.3-1.4-3.4-.6-1.4-1.3-2.8-1.8-4.2-.8-2.1-1.4-4.2-2.1-6.4-.3-1-.5-2.1-.8-3.2-.2-.9-.6-1.7-.8-2.6-.1-.5-.2-.9-.4-1.4M95.2,73.4c.2-1.5.5-3,.7-4.5,0-.4-.1-.8-.3-1.2-.2-.6-.4-1.3-.7-1.9-.8-2.2-1-4.6-1.4-6.9-.5-3.1-1-6.1-1.3-9.2-.4-3.8-.5-7.6-.8-11.4,0-.6-.2-1.2-.5-1.8-3.4-6-7.6-11.3-13.4-15.2-2.3-1.6-4.9-2.4-7.7-2.3-.7,0-1.4.2-2.1.5-2.9,1.3-5.1,3.5-6.3,6.5-.7,1.7-1.2,3.6-1.5,5.5-.4,2.9-.3,5.9.6,8.8,1.9,5.9,5.5,10.6,9.9,14.8.8.7,1.6,1.4,2.4,2.1,2,1.7,4,3.4,6.2,4.8,3.2,1.9,6.3,3.8,9.3,5.9,1.2.9,1.3,1.9,1.4,3.1-1.1.6-1.8.3-2.4-.5-.8-1.1-2-1.8-3.3-2.5-1.5-.8-3-1.6-4.5-2.5-1.3-.9-2.4-2-3.8-2.8-2.7-1.7-5.5-3.3-8.3-4.8-2.1-1.1-4.3-1.8-6.5-2.7-4.9-1.9-10-3.1-15.3-3.4-5.9-.4-11.8.2-17.5,1.9-5.3,1.6-10.2,3.7-14.5,7.1-2.4,1.9-4.6,4.2-6.2,6.9-2.2,3.8-3.8,7.8-4.7,12.1-1,5.2-1.2,10.4,0,15.6,1,4.7,3.1,8.9,6.1,12.6,2.8,3.5,6.4,6.1,10.1,8.5,2.3,1.5,4.6,2.9,6.8,4.5,4.8,3.7,9.4,7.6,14.2,11.3,1.3,1,2.8,1.8,4.4,2.3,3.4,1.3,7.1,1.3,10.7,1.5,0,0,.2,0,.3-.2,0-1.4,0-2.8-.9-4.2-1.1-1.6-1.6-3.3-1.8-5.2-.2-1.7.1-3.3.6-4.9,1.3-4.8,3.1-9.4,5.9-13.6.7-1,1.5-2,2.1-3,1.5-2.5,3.3-4.8,5.3-6.9,2.1-2.3,4.7-3.9,7.4-5.3,1.2-.6,2.1-1.7,2.4-2.9.2-1.2.8-1.8,1.8-2.3.3-.1.5-.3.7-.5,1.3-1.3,2.5-2.6,3.7-3.9,1.6-1.7,3.3-3.3,5-5,1-1,2.2-1.8,3.3-2.7-.3-.2-.5-.4-.8-.5-.6-.3-.8-.7-.7-1.4.1-.7.5-1.1,1.2-1.2.7-.1,1.3-.1,1.9.4.7.6,1.5.8,2.7.6M161.6,70c1-.9,2-1.8,3-2.8,2.2-2.3,4.3-4.6,6.4-6.9,3.3-3.4,7.1-5.8,11.7-7.1,2.8-.8,5.6-.7,8.5-.5,2.7.2,5.2,1.1,7.5,2.4,2,1.1,3.1,2.9,3.8,5,.8,2.2,1.3,4.5,1.3,6.9,0,4.6-.5,9.2-1.8,13.7-1,3.2-1.8,6.4-2.9,9.6-.8,2.1-1.8,4.2-2.9,6.2-1.1,2.1-2.4,4.1-3.5,6.2,0,.1,0,.3-.2.5.4-.2.7-.3,1-.4,1.6-.8,3.4-1.2,5.2-1.5,1.7-.3,3.1.3,4.5,1.2,2.2,1.4,3.9,3.3,5.6,5.3,2.5,3.1,4.3,6.6,5.5,10.4.5,1.4.6,3,.7,4.5.2,1.3.2,1.4,1.4,1.5,2.3,0,4.5.3,6.6,1,3.4,1.1,6.6,2.7,9.4,5.1,4.1,3.5,6.3,8,7.6,13.1,1,4.3,1.6,8.7,1.2,13.2-.4,4.2-1.8,7.9-4.1,11.4-2.4,3.6-5.2,6.9-8.4,9.9-3,2.7-6.6,4.5-10.2,6.2-3.5,1.7-7.3,2.8-11.1,3.7-1.5.3-3.1.5-4.6,1,1,0,2.1.2,3.1.3,6.2.5,12.2,2,18.1,3.8,2.4.7,4.6,1.8,6.9,2.7,1.7.6,3.5,1.4,5.1,2.1,2.1,1,4.1,2,6.1,3.1,2.2,1.2,4.3,2.4,6.4,3.7,1.9,1.2,3.8,2.6,5.6,4,2.8,2.2,5.5,4.6,7.7,7.4,4.1,5.2,7.1,11,8.2,17.6.6,3.7,0,7.3-2.2,10.5-1.3,1.9-3.3,3-5.3,4-3,1.4-6.2,2.3-9.6,2.6-.9,0-1.9.3-2.8.5-3.6.8-7.2.8-10.8.4-2.3-.3-4.6-.3-6.8-.6-1.6-.2-3.1-.4-4.6-.8-4.7-1.2-9.1-3.3-13.2-5.9-.5-.3-1-.5-1.6-.7,1,1.1,1.9,2.2,2.9,3.4,2.3,2.8,4.5,5.7,6.9,8.4,2.8,3.2,5.2,6.7,7.4,10.4,2.2,3.7,4,7.4,4.7,11.7.9,5.4-.6,10-4.5,13.8-1.5,1.5-3.3,2.6-5.3,3.3-2.9,1-5.8,1.9-8.8,2.3-4.4.7-8.8.5-13.2-.7-3.1-.8-6-2-8.9-3.5-2.6-1.4-5.2-2.7-7.8-4.2-3.8-2.3-7.7-4.6-11.1-7.5-3.3-2.8-6.6-5.8-10-8.5-2.8-2.3-5.2-4.9-7.5-7.6-1.5-1.7-3.1-3.4-4.1-5.5-.6-1.3-1.6-2.3-2.4-3.6-1.7-2.8-3.3-5.7-5.1-8.4-1.7-2.7-3.5-5.3-5.3-8-.9-1.4-1.8-2.8-2.8-4.1-.5-.7-1-1.4-1.7-2.4,0,.5-.1.7-.1.9.3,3.6.7,7.2.8,10.8.1,2.6,0,5.2-.2,7.9,0,1.7-.2,3.3-.4,5-.5,5-2.1,9.7-3.8,14.3-1.7,4.5-4.2,8.5-7.1,12.3-3.1,4.1-6.8,7.6-10.9,10.6-3.1,2.2-6.4,4-10.1,5-3.1.8-6.2.9-9.4.5-3.2-.5-6.2-1.7-8.9-3.6-1.7-1.2-3.6-2.2-5.1-3.6-1.7-1.6-3.2-3.4-4.2-5.5-1.6-3.3-2.8-6.8-3.3-10.4-.4-2.5-.5-5.1-.7-7.7-.2-2.1-.4-4.2-.6-6.3-.3-4-.5-8-.3-12,.1-2.4.4-4.8.8-7.2.6-3.1,1.7-5.9,2.8-8.8,1.3-3.5,3.5-6.5,6-9.3,2.5-2.8,4.9-5.6,7.5-8.2,1.9-2,3.9-3.7,5.9-5.6.3-.3.7-.6,1-1.1-.3,0-.6.1-.8.3-2.2,1-4.4,2.1-6.6,3.1-2.4,1.1-4.9,2.1-7.3,3.2-2.2,1-4.4,2-6.6,3-2.7,1.2-5.3,2.4-8.2,3-4.2.9-8.3.8-12.4-.4-5.1-1.4-9.7-4.1-14.5-6.4-4.6-2.2-9-4.9-13.1-8-1.9-1.4-3.5-3.2-5.2-4.9-1.9-1.9-3.7-4-5.5-6-.7-.9-1.4-1.8-1.9-2.8-.9-1.7-2.1-3.4-2.5-5.4-.2-.9-.7-1.8-1-2.7-.3-.8-.4-1.7-.6-2.5,0-.3,0-.7-.2-1-1.1-1.9-.8-4.1-1.7-6-.2-.4-.1-.9-.2-1.4-.2-1.1-.3-2.2-.5-3.2-.5-2.3-.9-4.6-1.4-6.8-.4-1.8-.9-3.5-1.1-5.3-.2-2.2-.4-4.5,0-6.7.7-4.8,2.8-9.1,6.5-12.3,3.8-3.3,8.3-5.5,13.3-6.1,3.4-.4,6.8,0,10.2.8,3.3.8,6.6,1.4,9.9,2,.2,0,.5,0,1,0-.4-.3-.5-.4-.7-.5-2.9-.8-5.3-2.5-7.6-4.3-2.2-1.8-4.5-3.6-6.7-5.4-1.2-1-2.4-2.1-3.6-3.1-3.1-2.6-6.7-4.7-10.1-7-4.3-3-8.3-6.3-11.2-10.9-1.9-3-3.5-6-4.4-9.4-1.4-5.1-1.6-10.3-.9-15.6.7-5.3,2.5-10.2,5.1-14.9,1.9-3.4,4.5-6,7.5-8.3,5.7-4.4,12.2-6.6,19.1-8,2.7-.6,5.5-.9,8.4-.9,4.3,0,8.6.3,12.8,1.2,2.8.6,5.6,1.3,8.3,2.4,1.8.8,3.7,1.4,5.8,2.2-.3-.5-.5-.8-.7-1-2.3-2.7-4.4-5.5-6.1-8.6-2.3-4.3-3.2-8.9-2.8-13.8.2-2.2.6-4.4,1.5-6.4,1.7-4,4.4-7.2,8.8-8.6,1.7-.5,3.5-.4,5.2.1,2.6.8,5,2.1,7.1,3.9,3.8,3.1,7.1,6.8,9.9,10.9.4.5.7,1.1,1.2,2,.1-1,.3-1.7.3-2.3,0-2.7.6-5.4,1-8.1.7-4.3,1.8-8.5,3.3-12.6.8-2.3,1.9-4.5,3.1-6.6,1-1.7,2.3-3.2,4.4-3.7,3.3-.8,6.3,0,8.5,2.6,1.3,1.5,2.3,3.3,3.3,5,2.9,5.2,5.1,10.6,7,16.3,1.3,3.9,2.2,7.8,2.8,11.8.5,3.9.4,7.8-.1,11.7-.5,3.4-1.1,6.8-1.7,10.3-.2,1.2-.4,2.3-.6,3.5,0,.5,0,1,.7,1.3.1-.4.3-.7.4-1,.6-2.4,1.1-4.7,1.8-7.1.8-2.5,1.7-4.9,2.7-7.4,2.4-6.3,5.8-12.2,9.4-17.9,1.8-2.9,3.7-5.8,6-8.3,2-2.2,4.2-4.2,6.5-6.3,2.1-1.9,4.6-3.2,7.2-4.4,6.7-3.2,13.4,1.3,15.5,6.2.9,2.1,1.4,4.3,1.6,6.5.3,5.5.1,11.1-1.1,16.5-1,4.4-2.2,8.9-3.6,13.2-1.5,4.9-3.5,9.6-6,14-.5.9-1.2,1.7-1.8,2.5-.1.2-.2.4-.2.6-.3.4-.6.8-.9,1.2-.4.5-.9,1-1.3,1.5,0,0,.2.1.3.2.3-.6.7-1.2,1-1.7.6-.1.8-.6.9-1.2"/> </svg>