<svg width="100%" xmlns="http://www.w3.org/2000/svg" version="1.1" viewBox="0 0 168.6 300"> <path fill="currentColor" d="M106.8,224.2c2.5-12,5.6-23.9,8.6-35.8,2.8-11.1,5.8-22.1,8.8-33.1,2.3-8.7,4.8-17.3,7.1-26,4.3-16.5,10.3-32.6,7.4-50.3-2.1-12.3-5.5-23.3-17.3-29.9-3.9-2.2-7.2-2.5-10.8.3-16.9,13.4-24.8,30.5-11.6,52.9,3.4,5.8,1.6,12.3-4.2,15.8-6.9,4.1-14.3,4.1-21.9,2.9-1.6-.3-3.8-1.6-4.2-2.8-2.3-8.1-7.9-15.4-4.9-24.9,1.7-5.4,1.7-11.9.7-17.6-1.2-6.7-4.2-13.2-6.6-19.6-3.3-8.7-6.5-17.5-10.5-25.8-4.1-8.5-11.5-8.7-16.7-1.1-9.4,13.9-9.9,19.6-3.1,34.8.2.5.5,1.1.7,1.7,5.3,16,11.4,31.7,15.8,47.9,5.5,20.6,9.6,41.5,14.4,62.3,7.4,32,25.5,58.1,46.3,82.5.5.5,1.6.5,3,1-.4-5.4-1.8-30.4-.9-35M.4,43.4c1.8-15.7,10.1-27.3,13.9-30.2,4-3.1,7.7-6.5,11.6-9.8C30.5-.4,36.4-.5,41.4.7c7.1,1.7,14.2,3.8,20.4,8.6,8.2,6.2,12.2,14.5,15.1,23.8,1.2,3.7,2.6,7.3,4.3,11.9,5.4-4.1,10.2-8,15.3-11.4,8.4-5.7,17.3-7.8,27.9-6.7,18.5,1.8,28.2,13.6,37.4,27.4,7.7,11.6,7,24.1,6.7,37-.3,13.6-5.7,25.7-9.5,38.2-4.1,13.5-7.8,27.1-11.6,40.7-3,10.6-6.3,21.2-8.6,32-2,9.8-3.9,20-3.9,30,0,17.4,1.3,34.8,2.3,52.1.3,5.5-1.6,9.3-6.6,11.4-3.3,1.4-6.6,3.1-10,3.9-3.9.9-7.1,0-10-3.9-5.4-6.8-11.9-12.7-17.9-19-15.5-16.4-30.9-32.9-41.7-52.9-7.7-14.3-13.4-29.4-17.3-45.3-5-20.1-10.5-40-15.8-60-2.6-9.6-5.3-19.1-8.1-28.6-.8-2.9-1.9-5.7-3.1-8.5C4.1,75.7-1.5,59.1.4,43.4"/> </svg>