<svg width="100%" xmlns="http://www.w3.org/2000/svg" version="1.1" viewBox="0 0 300 251.1"> <path fill="currentColor" d="M256.5,157.2c0-2.5.4-4.8,0-7-2.4-10.1-4.9-20.1-7.7-30.1-2.6-8.8-6.1-17.4-8.5-26.2-3-11.2-8.6-20.9-15-30.3-2.3-3.5-5.8-5.3-9.7-6-9.8-1.6-19.7-3.2-29.6-4.4-7.6-.9-15.1.3-22.7,1.9-22.6,4.8-40.1,17.3-53.8,35.3-7.3,9.6-13.9,19.9-20.1,30.3-10.8,18.2-19.6,37.4-26.5,57.5-2.8,8.3-6.1,16.5-6.6,25.5-.2,3.9-5.7,8.7-9.4,8.3-1.5-.2-3.3-1.5-4-2.8-.9-1.6-1-3.7-.9-5.6.3-3.1.8-6.2,1.5-9.2,4-17.2,11.2-33.4,18.1-49.5,8.7-20.2,19.7-39.1,32.6-56.9,14.9-20.3,32.5-36.9,57.8-43.7,12.2-3.3,24.3-5.9,37-3.4,8.8,1.8,17.6,3.8,26.5,5,14.2,1.9,24.4,8.7,30,22.1,1.1,2.7,3,5,4.4,7.6,1.3,2.4,2.7,4.8,3.5,7.4,3.6,11.3,7,22.7,10.5,34.1,1.5,5.1,3,10.2,4.5,15.3,2.3-10.1,4.4-20,5.4-30.1.7-7.1.9-14.6-3-21.2-4.5-7.6-9.3-14.9-13.9-22.4-7.1-11.6-17.3-20.2-28.2-27.8-10.7-7.5-22.9-11.8-36-13.1-3.1-.3-6.3-.5-9.3-1.3-16.7-4.2-33-2.2-49.1,3.1-9.3,3.1-18.1,7.1-25.6,13.9-7.7,6.9-15.9,13.3-24,19.7-10.1,7.9-19.4,16.3-25.3,28-2.5,5-6.1,9.5-9.1,14.4-3.1,5-6.2,9.9-8.9,15.1-7.2,13.9-14.2,27.9-21.4,41.8-2.9,5.6-5.4,11.2-5,17.8.5,10.6.7,21.1,1.3,31.7,0,1.7,1.1,3.6,2.2,5.1,2.2,2.9,2.9,6.1,2,9.3-2.2,7.4,0,13.9,3.5,20.1,1.8,3.4,4.8,4.1,7.9,1.9,2.5-1.8,4.6-4.2,6.3-6.8,2.1-3.3,3.7-6.9,5.3-10.5,1.1-2.5,2.7-3.5,5.5-3.3,4.4.3,7.8,2,9.8,4.5.3,5.6.5,10.2.7,14.5,4.4,3.1,8.3,3.3,12.4.6,4-2.7,7.1-5.7,8.4-10.7.8-3.4,2.9-6.7,7-6.9,4.1-.2,8.1-.2,10.9,4,2.2,3.3,5.2,6.2,9.3,8.7,2-3.9,4-7.2,5.3-10.8,1.2-3.2,3-4.9,6.4-4.7,1.4,0,2.8,0,4.1-.2,2.7-.5,4.4.4,5.8,2.8,1.1,1.9,2.7,3.6,4.3,5.8,3-4.6,2.7-8.8,2.2-13-1-7.8-1.7-15.5-2.8-23.3-.3-2.4-1.2-4.7-2-7.5-5.1,2-9,.4-12.7-1.6-1.5-3.4.1-5.4,2.2-7.4,2.4-2.3,5.1-4.4,7-7,12.8-18.1,28.2-34,42.9-50.5,4.6-5.1,10.2-8.7,16.7-10.4,13.3-3.5,22,1.4,26.4,11.3.6,1.4,1.2,2.9,1.8,4.3,3.3,8.8,6.7,17.5,9.9,26.3.3.9.3,1.9.4,2.8.5,4.2-2.6,6.2-5.5,8.4,1.2,5.2-1.8,8.2-5.8,10.4-2.6,1.5-3.8,3.5-3.1,6.3.7,3,1.4,6.2,3.1,8.7,2.1,3.2,5.2,5.8,7.7,8.5,3.1-.3,5.8-.9,8.5-.8,6.2.3,8.6,4.1,6.1,9.7-.2.4-.4.7-.5,1.1-.6,2-2,4.5.6,5.7,1.3.5,3.7-.5,5-1.6,1.8-1.4,3.3-3.3,4.7-5.2,4.2-5.5,6.5-6.4,12.9-4.6,2.5.7,4.2,1.9,4.4,4.7.1,1.1.7,2.2,1.6,4.4,1-1.9,1.8-2.7,1.8-3.5,0-2.7-.3-5.4-.7-8-.8-5.5.2-7,5.2-8.6,1.9-.6,3.9-1.7,5.3-3.1,1.9-1.9,3.4-4.3,4.7-6.7,3.6-6.6,1.4-17.7-4.2-22.8-7.2.7-13.2,5.7-21.1,5.2M282.3,138.4c8.9,5.1,13.4,13,16.5,22.3,3.5,10.6-.7,18.6-6.7,26.5-.5.6-1.1,1.2-1.7,1.6-5.3,3.4-7.5,8.4-8.3,14.5-1.1,8.1-7.6,13-15.7,11.8-4-.6-7.8-2.3-11.7-3.4-3.4,2-7,4-10.4,6.2-5.5,3.5-10.5,2-15.2-1.4-2.4-1.7-4.9-3.6-6.3-6.1-4.3-7.5-11.6-12-17.4-17.9-5.9-5.9-9.1-12.6-8.5-21,.2-3.5.9-7,1.4-10.4.4-2.7-3.5-11.3-6.1-11.9-1.9-.5-4.3-.1-6.1.7-5,2.5-8.5,6.8-11.6,11.4-2.8,4.1-5.5,5.3-10,3.7-2.2-.7-3.8-2.8-5.8-4.3,4.9-11.5,13.1-19,23.5-23.4,6.4-2.7,13.9-1.3,20.4,1.9.6.3,1.3.6,2.8,1.4-1.8-8-4.6-14.8-7.7-21.5-1.1-2.4-3.1-2.9-5.3-1.6-3.9,2.5-8.5,4.5-11.5,7.8-12.6,13.7-24.7,27.8-36.9,41.8-1.4,1.6-2.4,3.4-3.9,5.7,7,1.3,8.6,5.4,8.8,11.5.2,8.5,2.1,17,2.3,25.6.3,7.8-.8,15.7-5.2,22.5-2.7,4.1-7.1,6.2-12.1,5.5-3.8-.6-7.5-1.9-11.8-3.1-1.1,1.5-2.5,3.2-3.5,5-2.9,5.1-7.2,6.6-12.9,6-6.1-.6-10.4-4.1-15-8.4-12.5,14.4-27.2,17.4-44.3,7.9-6.2,6.9-14.3,6.1-22.3,5.4-4.5-.4-8.5-2.2-11-5.9-4.1-5.9-8.1-12.2-7.1-19.9.5-3.6-1.7-6-3.6-8.4-3-3.7-3-7.2-1.3-11.4.8-2,.4-4.4.5-6.7,0-.4-.3-.8-.2-1.1,2.6-10.1-.7-20.2-.4-30.4.1-4.2.8-8.1,2.7-11.8,5.2-9.6,10.3-19.3,15.4-29,2-3.8,4.1-7.6,5.5-11.7,4.5-12.7,12.1-23.6,19.5-34.6,4.3-6.5,8.3-13.2,12.7-19.7,1.4-2.1,3.1-4.1,5-5.6,7.5-5.9,15.3-11.5,22.7-17.5,6.4-5.1,12.3-10.9,18.8-15.9,4.1-3.2,8.8-5.8,13.5-8,7-3.4,14.1-6.6,21.4-9.1,12.8-4.4,26-4.9,39.4-2.2,5.2,1.1,10.4,2,15.6,2.8,13.2,2.3,25.8,6.2,37.7,12.3,15.8,8.1,28.4,19.9,38.5,34.3,5.4,7.7,10.1,15.8,15.3,23.6,6.1,9.1,6.3,19.3,4.5,29.4-1.8,10.6-4.6,21-7,31.4-.2.7-.1,1.5-.2,2.8"/> <path fill="currentColor" d="M81.5,194.5c-3.3,3.6-7.6,2.3-11.5,2.1-3.3-.2-4.6-4.8-3-9.2,1.6-4.4,3.8-8.6,5-13.1,4.1-14.5,13.7-25.3,23.1-36.3,5.3-6.2,10.7-12.5,16.6-18.2,5-4.9,10.8-9,16.4-13.2,5.3-4,11-7.4,16.3-11.4,2.1-1.6,3.4-4.1,5.3-5.9,1.6-1.5,3.5-3.7,5.4-3.8,3.1-.2,5-1.9,7.2-3.5,1.1-.8,2.2-1.7,3.3-2.5,4.7-3.4,9.5-5.6,15.8-4.7,6.5.9,13.3.1,19.9.9,9.5,1,18.8,3.5,24.8,11.6,3.8,5.1,6.7,11,8.9,17,4,11,7.3,22.3,8.7,34,.3,2.5,1.3,4.9,2.2,7.3,1.6,4.6.1,7.5-4.6,8.8-.8.2-1.5.3-2.3.5-5.4.9-6.5.6-8.5-4.6-1.6-4.2-2.7-8.6-3.5-13-2.4-13.3-6.1-26.3-11.8-38.5-3.3-7.1-9.3-10.3-17-10.1-4.7,0-9.4.5-14.1.3-4.4-.2-8.1,1.1-11.4,3.7-6.9,5.4-13.9,10.7-20.5,16.6-9,8.1-17.5,16.8-26.3,25-2.8,2.6-6,5.2-9.4,6.9-5.6,2.7-9.1,7.2-12.3,12.2-4.2,6.6-8.6,13-12.9,19.5-.1.2-.2.4-.3.5-5.5.6-5.4,5.4-6.6,9.1-1.2,3.8-1.8,7.9-2.7,11.8,0,.2-.2.4-.2.5"/> </svg>