<svg width="100%" xmlns="http://www.w3.org/2000/svg" version="1.1" viewBox="0 0 300 170.7"> <path fill="currentColor" d="M56.1,154.3c1.1.6,2,1.2,2.9,1.7,0,0,.1,0,.2-.1-.2-1.4-.5-2.8-1.1-4.2-.7.9-1.3,1.7-2,2.6M44.8,153c.3-.3.5-.7.7-1,.7-1.3,1.5-2.5,2.2-3.8,0-.2.2-.3.3-.5.1-.5.4-.8.8-1.2.7-.7,1.3-.6,1.7.3.5,1.1.9,2.1,1.4,3.2.3.9.9,1.6,1.6,2.3.5.4.6.4.9,0,.6-.7,1.1-1.5,1.6-2.3.2-.3.5-.7.6-1.1,0-.3.1-.6,0-.9-.3-1-.8-1.9-1.4-2.8-.7-.9-.5-2.7.4-3.4,0,0,.1-.1.2-.1.5,0,.7-.5,1-.9.9-1.3,1.6-2.6,2.2-4.1,0-.2.2-.4.3-.7-1.8.7-3.4,1.4-5.1,2.1-1.1.5-2.5-.5-2.3-1.7.2-1,.2-1.9.1-2.9,0-1.5-.1-2.9-.2-4.4,0-.6-.2-1.1-.6-1.7-.1.2-.2.3-.3.4-.9,1.2-1.8,2.4-2.8,3.6-.5.6-1.2,1.1-1.6,1.7-.6.9-1.1,1.9-1.4,3-.4,1-.8,1.9-1.4,2.7-.4.5-.7,1.1-1.1,1.6-.4.6-1.1,1.1-1.3,1.8,0,.4-.3.8-.4,1.1-.7,1.4-.8,2.7-.3,4.2.7,2.4,2.1,4.2,4.3,5.5M9.6,160.4c.2,0,.3,0,.3-.1.7-.8,1.4-1.5,2-2.4,1-1.5,1.9-3.1,2.8-4.6.3-.4.6-.9,1-1.3.2-.2.5-.3.8-.1.9.4,1.5,1.5,1.2,2.5-.1.4-.3.9-.4,1.3-.2.5-.3,1.1-.5,1.6,0,0,.1,0,.2,0,.9-1.1,1.8-2.3,2.7-3.4,0,0,0,0,0-.2.9-2,2.1-3.8,3.6-5.4,1-1,2-2,3.3-2.7,1.3-.7,2.6-1.4,4.1-1.8,1.6-.5,3.3-1.1,5-.9.5,0,.9.2,1.2.5.2.2.4.4.7.6.2-.6.4-1.1.6-1.5.4-1.1,1-2.1,1.2-3.3,0-.4.2-.7,0-1-1-.1-1-.1-1.9-.8-.2-.1-.5-.2-.7-.3-1.1-.2-2.2-.4-3.2-.5-1.8-.2-3.6-.5-5.4-.7-1,0-2,0-3,0-2,.3-3.8.9-5.5,2-1.5.9-3,1.9-4.4,2.9-1.1.8-2.1,1.7-3.1,2.7-1,.9-1.9,2-2.9,3-1.6,1.5-2.7,3.2-3.8,5-.7,1.2-1.3,2.5-1.9,3.8-.4.9-.7,2-.7,3,.5.2.7-.1.9-.4,1.1-1,2.1-2.1,3.2-3.1.7-.6,1.4-1.3,2.1-1.9.3-.3.7-.5,1.1-.3.8.3,1.5,1.7,1.2,2.4-.4,1.1-.7,2.3-1,3.4-.2.6-.3,1.1-.5,1.7M61.4,131.3c.3.4.8.8,1.1,1.2.4.5.4,1.1.2,1.6-.2.7-.5,1.3-.8,2-.9,2.2-1.9,4.3-3.2,6.2-1.1,1.6-1.1,1.3-.2,3.2.2.4.4.7.6,1.1.1.2.3.5.3.8,0,1.4.6,2.6,1.1,3.9.5,1.4.9,2.7,1.1,4.1.1.7.3,1.5.5,2.2.1.4,0,.7,0,1.1-.1.2-.2.5-.3.7-.2.7-.9,1-1.6.6-1.4-.8-2.8-1.6-4.1-2.4-.1,0-.3-.1-.4-.2-.5-.6-1.2-.8-2-.6-.4.1-.7,0-.9-.4-.5-.8-1.1-1.6-1.7-2.3-.6-.8-1.3-1.5-2-2.1-.3-.3-.6-.3-.8.2-.5,1.1-1.1,2.2-1.5,3.4-.3.9-1.2,1.4-2.1.9-1.4-.9-2.7-1.9-3.8-3.2-.3-.3-.6-.6-.9-.9-.7-.8-1.1-1.8-1.4-2.8-.2-.4-.3-.8-.9-.7-.5,0-.7-.4-.9-.8-.4-.6-.8-1.1-1.5-1.4-.7-.4-1.3-.4-1.9-.2-2.2.5-4.3,1.4-6.3,2.6-1.4.8-2.3,2.1-3.3,3.3-.9,1.1-1.5,2.4-2.2,3.6-.2.5-.6.9-.9,1.3-1.1,1.2-2.2,2.4-3.2,3.7-1.3,1.6-2.5,3.3-3.3,5.2-.3.7-1,.9-1.6,1,0,0,0,0,0,0-.3,0-1.2-1.1-1.2-1.4,0-.6,0-1.2.3-1.8.2-.5.3-1,.3-1.5-.1.1-.3.2-.4.3-.8,1-1.6,2-2.4,2.9-.3.3-.7.6-1,.7-.3,0-.7,0-.9-.2-.5-.4-.8-.9-.8-1.6-.1-1.9.5-3.7.9-5.5,0-.2.1-.4.2-.6,0,0,0-.1,0-.2-.3,0-.5.3-.7.5-.8.8-1.5,1.7-2.3,2.5-1,1-1.4,1-2.4,0,0,0,0,0-.1,0-.4,0-.8.1-1.1.2-.7-.9-.7-1.8-.6-2.8.4-2.9,1.4-5.5,2.7-8,1.2-2.1,2.6-4,4.2-5.8,1.5-1.7,3-3.3,4.8-4.6,1.1-.8,2.2-1.8,3.3-2.6,2-1.4,4-2.6,6.3-3.5,2.8-1.1,5.7-1.3,8.7-.8.6,0,1.2,0,1.8.2,2.5.5,4.9.9,7.4,1.4.8.2,1.3.8,1.6,1.5.1.2.1.6.6.6.5-1,1.1-2.1,1.6-3.2.3-.7.5-1.4.8-2,0-.2.3-.4.5-.6,2.4-1.9,4.1-4.3,5.5-7,.2-.4.4-.8.5-1.2,1.3-.1,2,.4,2.3,1.6.1.5.3.9.5,1.3.5,1,.7,2.1.8,3.2,0,1.7.1,3.4.2,5.1,0,.2,0,.3.1.5,1.3-.3,2.4-1,3.5-1.6,1.1-.6,2.2-1.2,3.4-1.9"/> <path fill="currentColor" d="M217.5,108c-.1.2-.2.2-.2.3.2,1.4-.2,2.9.5,4.2,0,0,0,.2,0,.2-.2.8.4,1.1,1,1.3,0-.3-.2-.7-.4-1-.4-.8-.5-2.3-.1-3.1,0-.1,0-.3,0-.5-.2-.5-.5-.9-.8-1.5M209.7,94.6c-.5,1.6-1,3.1-1.5,4.7h6.6c-.1-.3-.1-.5-.3-.7-.6-.6-1.1-1.2-1.8-1.8-.8-.7-1.6-1.2-2.4-1.8-.2-.1-.4-.3-.7-.5M220.9,108.8c.4-.3.7-.5,1-.7,1-.9,1.9-1.8,2.9-2.7.3-.3.6-.6.9-.9-2.6-.9-5.1-1.2-7.9-.9,1.1,1.8,2,3.5,3.1,5.3M219.7,115.7c-.2.8-.5,1.5-.6,2.1-.4,2.1-.8,4.2-1.2,6.2-.5,2.5-.9,5-2,7.3-.1.2-.1.5-.2.8.9.2,1.5-.4,2.2-.6-.2-.5-.3-1-.4-1.4-.2-.7,0-1.1.8-1.3,1.5-.3,2.9-1,4-2.1.8-.8,1.6-1.6,2.3-2.5.4-.4.4-.7,0-1.1-.3-.4-.6-.7-.8-1.1-.6-.8-1.2-1.5-1.7-2.3-.6-1-1.2-2-1.8-3.1-.2-.3-.4-.6-.7-1.1M203.5,116.6c-.7-1.2-1.2-2.2-1.8-3.2-.5-.7-.5-1.4-.4-2.2.3-1.4.6-2.9.9-4.3,0-.2,0-.4,0-.6-2.6.4-5.2.9-7.8,1.3-.8.1-1.6.2-2.3.4-.2,0-.4.2-.8.3.5.6.9,1.1,1.3,1.5,1,1.1,2.1,2.2,3.3,3.1,1.2,1,2.4,1.9,3.7,2.6.5.3,1.1.6,1.6.9.5.4,1,.7,1.6.3,0,0,.3,0,.6,0M205.4,120.4c0,.1-.1.2-.1.2,0,1.6-.2,3.2-.3,4.8-.1,1.9-.4,3.8-.4,5.7,0,3,0,6,0,9.1,0,.4,0,.8,0,1.3.3-.2.5-.3.7-.4.8-.5,1.3-1.2,1.8-2,.9-1.3,2.1-2.3,3.4-3.2.7-.5,1.4-.9,2.1-1.4.4-.3.8-.6,1.1-1.1-.6-.5-.7-1.1-.7-1.8,0-.4-.1-.5-.4-.7-.7-.5-1.4-1.1-2-1.7-1.9-2-3.2-4.5-4.4-7-.3-.6-.6-1.3-1-2M216.8,115.6c0,0-.1,0-.2,0-.2-.3-.6-.6-.7-1-.2-.5-.4-1.1-.4-1.6,0-.9-.1-1.9-.1-2.8,0-2-.2-3.9-1.2-5.6-.2-.3-.2-.6-.3-.9-.2-.8-.2-.8-.9-.8-1.5,0-3,0-4.5-.1-.6,0-1.2,0-1.8.2-.5,0-.8.3-.9.9,0,.7-.2,1.3-.8,1.7,0,0-.1.2-.2.4-.3,1.5-.7,3-1,4.5-.2,1,.3,1.9.7,2.7,1.3,2.7,2.7,5.4,4,8.1,1,2.2,2.3,4.1,3.9,5.9.4.5,1,.9,1.7,1.1,1.4-4.2,1.6-8.5,2.5-12.7M229.6,104.8c-.6.6-1.2,1.1-1.7,1.7-1.5,1.5-3,3.1-4.5,4.6-.2.2-.5.3-.7.5.5.9.9,1.9,1.4,2.7.4.7.6,1.4.5,2.1,0,.5.1.9.5,1.3.8.8,1.5,1.7,2.3,2.5.4.5.6,1.1.4,1.7-.3,1.1-.2,2.2,0,3.3.2,1.7-.2,3.3-.9,4.9-.3.6-.7,1.1-1.2,1.5-1.1,1-2.5,1.5-3.9,2.1-.5.2-.9.4-1.4.6-.9.4-1.9.8-2.8,1.2-.6.3-1.1.6-1.7,1-1.6,1.1-3.3,2.2-4.9,3.3-1,.7-1.7,1.8-2.4,2.7-.6.9-1.3,1.6-2.2,2.1-.4.2-.8.6-1.1.9-.6.5-.8.5-1.3,0-.2-.2-.5-.3-.8-.5-.7-1.6-.6-3.6-.6-5.4,0-3.6,0-7.2,0-10.9,0-1.1.1-2.2.2-3.3.1-1.2.3-2.4.4-3.5,0-.2,0-.4,0-.6,0-.5-.2-.8-.7-1.1-.9-.4-1.7-.9-2.6-1.3-2-1-3.7-2.4-5.4-3.7-1.9-1.5-3.3-3.3-5-5.1-.6-.6-.8-1.3-1-2-.3-1,.1-1.7.9-2.2,1.3-.8,2.8-1.1,4.4-1.4,2.4-.3,4.8-.7,7.2-1.1.9-.1,1.8-.3,2.4-1,.2-.2.4-.4.5-.7.3-.8.8-1.5,1.3-2.3,1.1-1.5,1.8-3.1,2.3-4.9.3-1.2.5-2.4.8-3.6.7-.3,1.1-.3,1.6.3,1.1,1.3,2.5,2.3,3.9,3.2,1.4.9,2.3,2.3,3.1,3.8.2.5.4.9.6,1.4.3.7.3.7,1,.7,1.7.1,3.4.2,5,.4,1.1.1,2.2.4,3.2.9.4.2.9.4,1.3.5,1,.1,1.3.8,1.5,1.6.1.4.2.9.2,1.3"/> <path fill="currentColor" d="M90.6,38.9c.6.3,1.1.7,1.7.9.9.3,1.2,1,1.3,1.8,0,.4.2.7.7.8.9-2.4,1.4-4.9,1.9-7.5-2,1.2-3.9,2.3-5.6,4M83.5,73.5c1.2-1.1,2.3-2.2,3.5-3.1,1.2-.9,2.6-1.6,4-2.5-.3-.1-.6-.3-.9-.4-1.4-.4-2.8-.8-4.2-1.3-.9-.3-1.8-.7-2.6-1.2-.7-.4-1.2-.9-1.9-1.4-.1-.1-.3-.1-.6-.2,0,.2,0,.3,0,.4.5,2,.8,4,1.6,5.9.1.3.2.6.3.9.2.9.5,1.8.7,2.8M69.3,49.5c1,.6,1.8,1.3,2.8,1.7,0,0,.2,0,.3,0,.8,0,1.3.5,1.7,1.1.2.4.4.9.7,1.2,1.1,1.4,2.3,2.7,3.5,4,.2.2.5.4.7.7.2-.4,0-.7,0-1-.3-1-.6-2-.9-3.1-.3-1.3-.4-2.6-.8-3.9-.4-1.6-1-3.2-1.5-4.8,0-.1-.2-.3-.3-.5-1.6,2.1-3.9,3.1-6.2,4.4M78.8,29.6c-.6,1.6-1.1,3-1.6,4.4-.2.5-.3,1-.3,1.5,0,1.8,0,3.6,0,5.4,0,.5.2.6.6.6.4,0,.8,0,1.2-.2.6-.2,1.2-.4,1.8-.5,1.2-.3,2.4-.5,3.6-.7.9-.2,1.8-.6,2.6-1.1.8-.5,1-.9.6-1.8-.2-.6-.5-1.2-.9-1.7-1.1-1.3-2.1-2.6-3.3-3.8-1.1-1.2-2.7-1.6-4.4-2.2M92.7,67.2c.2,0,.4,0,.5-.1.4-.3.9-.4,1.3,0,.1.1.4.1.5.1,1.5-.3,3-.6,4.4-.9,1-.2,2.1-.5,3.1-.7,1.8-.4,3.6-.6,5.3-1.4,1.5-.7,1.8-1.8.9-3.1-.8-1.2-2-2.1-3.1-3-3-2.4-6.4-4.2-9.8-5.9-.3-.1-.5-.2-.9-.4.3,1.5-.3,2.6-.7,3.8,0,.1-.1.3-.2.4-.7,1.6-1.3,3.2-1.5,4.9-.2,1.7-.1,3.4.4,5,0,.2,0,.5,0,.7,0,.2-.1.3-.2.6M92.5,43.9c-.4-.2-.8-.3-1-.5-.9-1.3-2.3-1.4-3.6-1.1-1.9.4-3.8,1-5.7,1.5-1.2.3-2.4.7-3.6,1.1-.4.1-.7.3-1.1.4.4,1.2.8,2.4,1.1,3.6.2.8.4,1.7.6,2.5.1.8.1,1.6.3,2.3.4,1.7,1,3.4,1.4,5.1,0,.3.2.5.3.8.3.5.6.9,1.1,1.1.5.2.9.6,1.2,1,.6.6,1.1,1.2,1.9,1.4,1.3.4,2.5.8,3.8,1.2.2,0,.4,0,.8.1,0-.5,0-1,0-1.4,0-1.3-.1-2.5.2-3.8.4-1.5.9-3,1.4-4.4.3-.8.7-1.7.8-2.6.1-1.1,0-2.3,0-3.5,0-.1,0-.3-.1-.4-.6-.7-.5-1.5-.3-2.2.3-.8.2-1.6.3-2.4M98.1,29.7c.5.3,1,.9,1.2,1.5.2.6.3,1.3.1,2-.7,2.8-1.4,5.5-2,8.3-.5,2-1.3,3.8-2.1,5.6,0,.2-.2.4-.2.6-.1.6,0,.9.6,1.1,2.2,1,4.3,2.2,6.5,3.5,1.7,1,3.3,2.1,4.8,3.4,1.1,1,2.2,2,3.2,3.1.9.9,1.3,2,1.3,3.3,0,.8,0,1.5,0,2.3-.1,1-.6,1.7-1.4,2.3-.8.6-1.8,1-2.8,1.2-1.1.3-2.1.5-3.2.7-2.5.5-4.9.9-7.4,1.4-.8.2-1.6.6-2.5.9-.3,0-.6.3-.8.2-.8-.3-1.5.1-2.2.4-2.9,1.3-5.2,3.3-7.1,5.9,0,0-.1.1-.1.2,0,.4-.2.6-.7.6-.4,0-.7-.2-1-.6-.4-.5-.4-1.2-.5-1.8-.1-1.6-.6-3.2-1-4.8-.6-2.2-1.1-4.5-1.6-6.8-.1-.6-.2-1.2-.7-1.7,0,0-.1-.1-.1-.2,0-1-.8-1.5-1.3-2.2-1.4-1.6-2.8-3.3-4.3-4.9-.5-.6-1.2-1-1.9-1.4-1.2-.7-2.4-1.4-3.6-2.1-.3-.2-.5-.3-.8-.4-.5-.2-.7-.5-.7-1,0-.6,0-1.3,0-1.9,0-.2.2-.5.4-.6.3-.2.7-.5,1-.6,1-.2,1.7-.9,2.5-1.3.7-.3,1.3-.7,1.9-1.2.6-.4,1.2-.9,1.7-1.4.3-.3.4-.6.6-1,.2-.4.4-.8.6-1.3.1-.3.2-.6.2-1,0-1.4,0-2.8,0-4.2,0-1.9.3-3.7,1-5.4.4-1,.7-2,1-3,0-.2,0-.4.2-.6.3-.9.8-1.1,1.6-.8.8.3,1.5.6,2.3.9.4.1.7.3,1.1.5,1.6.7,2.8,1.9,3.9,3.2.8.9,1.6,1.9,2.3,2.9.4.5.7,1.1,1,1.7.3.6.4.6,1,.3.2-.1.4-.3.5-.4.8-.6,1.6-1.1,2.4-1.7,1.2-.8,2.4-1.4,3.5-2.3.6-.4,1-1,1.5-1.6"/> <path fill="currentColor" d="M29.4,81.2c1.5.9,2.8,1.8,4.3,2.7,1.1-2.1,2.3-4.2,3.2-6.7-.4.2-.6.2-.9.4-1.1.5-2.1,1.1-3.2,1.5-1.2.5-2.3,1.2-3.5,2.1M21.5,104.4c0,.6,0,1,0,1.4,0,1.5.4,3,.9,4.4.2.5.4.9.8,1.2,1.2-2.3,2.5-4.5,3.7-6.8-.9,0-1.8.2-2.7.1-.9,0-1.8-.2-2.8-.3M9.3,97.6c0,0,0,.1,0,.2,1,.2,2,.5,3,.7,2,.3,4,.7,5.9,1.3.4.1.9,0,1.4.1-.1-1.5-.2-2.9-.4-4.3-1,.4-1.9.5-2.8.3,0,0-.1,0-.2,0-2,.5-4.1.8-6.1,1.5-.3,0-.6.2-.8.2M20.4,87.1c0,0,.2.1.2.2,0-.1,0-.3.2-.4,1.1-1.2,2.1-2.3,3.2-3.4.3-.3.6-.6,1-.9.3-.3.3-.5,0-.8-.4-.4-.4-.9-.3-1.4.1-.8,0-1.5-.3-2.2-.4-.8-.9-1.6-1.5-2.4-.3-.4-.5-1-1.1-1.2,0,0-.2,0-.2.2-.9,1.6-1.5,3.2-1.2,5,0,.6.2,1.1.2,1.7.2,2,0,3.9-.4,5.8M32.9,101c3.1,0,6.2,0,9.3.5.2,0,.5,0,.8,0,0,0,0,0,.1,0-.7-1.9-6.8-9.6-8.3-10.4-.3,1.3-.8,2.5-1,3.8,0,.7-.1,1.3-.2,2-.2,1.2-.4,2.4-.7,3.6,0,.2,0,.3,0,.6M29.8,84.7c-.3-.2-.6-.4-.8-.6-.1,0-.2-.2-.4-.2-.6-.4-.9-.3-1.4.2-.7.7-1.4,1.3-2,2-1.4,1.4-2.8,2.9-4,4.4-.6.7-.7,1.5-.4,2.3.5,1.2.7,2.4.8,3.7.1,1.3.3,2.5.5,3.8.2,1.2.4,1.3,1.6,1.5.1,0,.3,0,.4,0,1.4,0,2.8-.1,4.2-.3.7,0,1.4-.3,1.7-1.1.4-1.3.8-2.6,1-4,.2-1.2.3-2.5.6-3.7.3-1.3.6-2.5.9-3.7-.7-.8-1.4-1.6-2.1-2.4-.6-.6-.6-1.2-.6-2M19.2,103.4c-2.3-.5-4.6-1-6.9-1.5-1-.2-2-.5-2.9-.7-.9-.2-1.8-.3-2.7-.5-1.1-.2-2.2-.5-3.3-.8-.3,0-.6-.3-.7-.6-.2-.6-.4-1.3-.4-1.9,0-.4.3-.9.7-1.1.9-.4,1.8-.8,2.7-1.1.7-.3,1.5-.4,2.2-.7,2.1-.8,4.3-1.2,6.4-1.7.4,0,.9-.2,1.3-.2.7,0,1.2-.6,1.3-1.3.3-2.2.9-4.4,1.3-6.5.2-1.3,0-2.8,0-4.1,0-1.2-.2-2.4-.2-3.6,0-.5.1-1.1.3-1.6.6-1.4,1.2-2.8,1.8-4.2.3-.6.6-.7,1.2-.4.9.4,1.7,1.1,2.3,2,.9,1.3,1.7,2.6,2.5,3.9.3.5.5,1.1.8,1.7,0,.1.1.2.2.4.3-.2.5-.3.7-.4,1.6-1.2,3.4-1.9,5.2-2.8.7-.3,1.4-.7,2.1-.9,1-.4,2.1-.7,3.1-.9.8-.2.9,0,1.4.7,0,0,0,.1,0,.2,1,.7.6,1.7.3,2.5-1.2,2.7-2.4,5.4-3.8,8-.5,1-.6,2.1-.8,3.1,0,.2.2.5.4.7,1.3,1.5,2.6,2.9,3.8,4.3,1.3,1.6,2.5,3.3,3.8,4.9.9,1.1,1.9,2.2,2.8,3.3.2.3.5.6.6,1,0,.7,0,1.4-.1,2,0,.4-.5.7-.9.7-.8,0-1.6.1-2.4,0-2.3-.2-4.5-.5-6.8-.7-1.6-.1-3.3-.2-5,.1-.7.1-1.3.4-1.8,1-1.1,1.3-2.1,2.7-2.8,4.2-.5,1.1-1.2,2.1-1.7,3.1-.4.6-.7,1.3-.7,2.1,0,.5-.3.7-.6.9-.4.2-.7-.1-1-.3-.2-.2-.4-.3-.5-.6-.8-1.3-1.6-2.6-2.1-4.1-.3-1-.6-2.1-.7-3.1-.1-1.4-.3-2.7-.5-4.1"/> <path fill="currentColor" d="M178.9,159c0,0,0-.2,0-.2-.2-.1-.3-.3-.5-.4-.9-.6-1.8-1.3-2.7-1.9-.5-.3-.7-.8-.6-1.4,0-.3,0-.7,0-1-.2-2-.3-3.9,0-5.9,0-1,.1-1.9.1-2.9,0-.2,0-.4,0-.6-2.3,1-4.2,2.3-5.9,3.9-.6.6-1.1,1.4-2,1.4,0,.5,0,1.1-.2,1.5-.9,1.6-1.2,3.3-1.4,5,0,.3-.1.6-.3.8-.9,1.1-1.8,2.2-2.7,3.4-.5.6-.8,1.2-.7,2,0,.9.1,1.9.2,2.8,0,.2.1.4.2.5.7-.2,1.3-.5,1.9-1.1.9-1,1.8-1.9,2.4-3.1,0-.2.3-.3.4-.3.4.3.8.6,1.2.9.5.3.9.6.7,1.3,0,.2,0,.4.1.7.6-1.4,1.4-2.7,1-4.3.3-.3.5-.6.7-.8.4-.5,1.1-.6,1.6-.2.5.4,1.1.5,1.7.5.7,0,1.4,0,2.1,0,.9,0,1.9-.2,2.8-.4M160.5,158.6c.2,0,.3-.1.4-.2,1-1,1.9-2,2.3-3.5.2-.7.3-1.4.6-2.1.4-1,.4-2.1.4-3.2,0-.3-.1-.7-.3-.9-1.2-1.7-2.5-3.2-4.3-4.2-.6-.3-1.2-.8-1.9-1.2-1-.6-1.9-1.2-3.1-1.5-.7-.2-1.3-.7-1.4-1.4,0-.3-.2-.4-.4-.6-.4-.2-.8-.3-1.3-.3-.4,0-.9,0-1.2-.2-2.1-.9-4.2-1.5-6.5-1.8-3.2-.5-6.4-.4-9.6-.2-1.3,0-2.6.1-3.9.2-.1,0-.2,0-.4.1.1.1.1.2.2.2.5.2.9.3,1.4.5,3,1,6,1.8,8.8,3.3.6.4,1,.7,1.2,1.5.3,1.3.1,1.3-.9,1.8-.7.3-1.5.5-2.1.8-1.5.7-2.9,1.5-4.3,2.3,0,0-.1.2-.2.3.6.2,1.1.1,1.6.1,1,0,1.9,0,2.8.4.9.4,1.9.8,2.8,1.1.7.2,1.5.4,2.2.3,1.5-.3,2.9-.8,4.4-1.3,1.2-.4,2.4-.3,3.6.4.4.3.8.5,1.2.8,1.1.6,2,1.5,2.7,2.5.2.3.5.6.9.6.4,0,.8.3,1,.5.6.9,1.1,1.9,1.7,2.9.4.7.8,1.3,1.6,1.8M123.5,152.1c0-.2,0-.4.1-.6,0-.7.6-1.3,1.2-1.4,1.1-.2,2-.6,3-1.1,2.8-1.5,5.5-3,8.1-4.8.4-.3.7-.5,1.2-.8-.3-.1-.4-.3-.6-.3-1.4-.5-2.9-.9-4.3-1.4-1-.4-2-.8-3-1.2-.5-.2-.9-.5-1.3-.7-.6-.4-1.3-.7-1.5-1.5,0,0,0-.2-.1-.2-.9-.6-.4-1.3-.3-2,0-.2.3-.3.5-.4,1.4-.5,2.8-.8,4.3-.9,1,0,1.9,0,2.9-.2,3.4-.3,6.8-.3,10.2,0,2.1.2,4.2.9,6.3,1.5,2,.6,3.9,1.5,5.9,2.2.9.3,1.6,1,2,1.9.2.4.4.6.7.8.7.4,1.3.8,1.9,1.2,1.3.7,2.3,1.7,3.3,2.8.8.9,1.6,1.8,2.5,2.8.2-.2.5-.4.7-.6.6-.6,1.1-1.2,1.7-1.8.2-.2.4-.3.6-.5.8-.5,1.6-1.1,2.5-1.6.8-.5,1.7-.9,2.5-1.3.2-.1.4-.2.5-.4.2-.7.7-.7,1.3-.7.7,0,1.2.4,1.4,1.2.3,1.4.5,2.7.4,4.1-.1,1-.3,2.1-.4,3.1,0,1.2,0,2.5-.1,3.7,0,1,.5,1.7,1.2,2.2,1.4,1,2.8,2,4.2,2.9.5.4.9.8,1.2,1.4.3.6.2.9-.4,1.3-.8.6-1.9.6-2.8.8-.7.2-1.5.2-2.2.4-1.6.3-3.2.3-4.8.1-.7,0-.7,0-1,.6-.5,1.3-1.1,2.7-1.6,4-.3.9-.7,1.8-.8,2.8,0,.8-.5,1.2-1.3,1.1-.3,0-.6,0-.8-.1-.3-.1-.6-.3-.6-.7,0-.5,0-1-.2-1.5-.1-.8-.3-1.6-.5-2.6-.8.8-1.5,1.5-2.3,2.2-.8.6-1.6,1.2-2.6,1.8-.2,0-.6,0-.9-.1-.7-.2-1-.9-1.1-1.6-.2-1.3-.3-2.6-.5-3.9,0-.9-.1-1.8-.2-2.7,0-.2-.1-.4-.2-.5-.3-.4-.7-.8-1-1.2-.4-.6-.8-1.1-1.2-1.7-.3-.4-.6-.8-.9-1.2-.1-.1-.3-.3-.5-.3-.9,0-1.2-.6-1.4-1.2-.4-.9-1-1.5-1.7-2-.7-.5-1.4-.9-2.1-1.2-.6-.3-1.3-.1-1.9,0-1.6.5-3.1,1-4.6,1.5-.2,0-.3.1-.5.2-.4.3-.8.2-1.2,0-1.2-.6-2.4-1.1-3.6-1.7-1.4-.7-3-.6-4.5-.5-1.4.2-2.8.4-4.2.6-1.4.3-2.8.7-4.2,1-.6.1-.8,0-1.1-.4-.2-.3-.4-.6-.7-.9,0,0,0,0-.1.1"/> <path fill="currentColor" d="M296,52.6c.2-.2.4-.4.6-.6.4-.5.4-.6,0-1.1-.3-.4-.7-.8-1.1-1.1-1.2-1-2.3-2-3.4-3.1-1-1-.6-2.1-.4-3.1.3-1.1.4-2.1.1-3.1-.2-.8-.8-1.1-1.6-.7-.9.5-1.9,1.1-2.8,1.6-.3.2-.4.4-.3.8.2.9.4,1.9.4,2.8.2,1.6.2,3.2.4,4.8.2,1.4.3,2.9.2,4.3,0,.6-.2,1.2-.4,1.7-.3.7-.8,1.4-1.3,2.1-.5.8-1,1.7-1.5,2.5-.2.4-.2.8,0,1.2.4.8.8,1.6,1.1,2.4.4,1,.9,2,1.6,2.8.5.7,1.1,1.3,1.9,1.8.3-.6.6-1.2.6-1.9.1-2.1.3-4.2.4-6.3.1-1.4.4-2.8,0-4.2-.2-.8.2-1.2,1-1.2.4,0,.8.1,1.3.2,0-.5,0-1-.2-1.4,0-.3-.1-.6-.3-.9-.4-.7-.3-1.1.3-1.6.6-.4,1.3-.4,1.8,0,.5.4.9.7,1.4,1.2M259.2,41.8c.2,0,.3.2.5.3,1.6,1,3.1,2.1,4.7,3.1,1,.6,1.4,1.4,1.2,2.5,0,.4-.4.9-.7,1.2-.1.1-.6,0-.8-.1-1.2-.6-2.5-.8-3.8-.8-.3,0-.6,0-1,.2.3.3.5.4.6.5,1.3.7,2.6,1.5,3.9,2.2,1.1.5,1.8,1.2,1.5,2.5,0,.1,0,.2,0,.3,0,.5-.5,1.1-.9,1.1-1.4.3-2.8.6-4.2.9,0,0-.2.1-.3.2,1.5,1.1,8.4,3.2,9.8,3,.3-.6,0-1.5.7-1.9.6.5,1.1.9,1.5,1.4.9.9,1.9,1.6,3,2,.9.3,1.9.6,2.8.9,1.4.4,2.7.3,4-.4.3-.2.5-.4.6-.8.4-1.6,1.2-2.9,2.2-4.1,1-1.2,1.5-2.6,1.4-4.2,0-.8-.2-1.7-.3-2.5-.2-1.7-.3-3.3-.5-5,0-.7-.2-.8-.9-.9-.4,0-.7-.1-1.1-.1-1.3,0-2.4-.6-3.5-1-.8-.3-1.6-.6-2.4-.6-1.1,0-2.2.2-3.3.3-.4,0-.8,0-1.1-.2-.4-.2-.8-.3-1.3-.4-.6-.1-1.2-.2-1.7-.4-.9-.3-1.8-.6-2.8-.5-1.7.1-3.4.2-5,.4-.9,0-1.8.4-2.8,1M260,52.1c-.7-.5-1.2-.8-1.8-1.2-1.2-.8-2.3-1.8-3.3-2.9-.6-.6-.7-2.2-.3-2.9.2-.4.6-.4,1-.4.7,0,1.4,0,2.1,0,.1-.5-.2-.6-.3-.8-1.1-1.1-1.2-2.5-1-3.9,0-.3.1-.5.2-.7,0-.3.2-.4.4-.6,1.7-.8,3.4-1.5,5.3-1.5.8,0,1.6,0,2.4-.1,2-.3,4,0,5.9.6.2,0,.4.2.6.2,1.6.1,3.1.6,4.7.4.2,0,.3,0,.5,0,1.2-.2,2.4,0,3.5.7,1.4.8,2.8,1.1,4.4,1,.3,0,.6-.1.8-.2,1.4-.9,2.8-1.8,4.3-2.7.8-.5,1.7-.5,2.5,0,.6.4,1.3.6,1.6,1.4.5,1.2,1,2.4.9,3.8,0,.9,0,1.9.2,2.8,0,0,0,.1,0,.2-.2,1.3.6,1.9,1.4,2.7,1.1,1,2.3,2,3.3,3.1.8.7.7,1.5,0,2.4-.6.7-1.1,1.4-1.6,2.2-.1.2-.3.4-.4.6-.6.5-1.2,0-1.9,0,.1,1.9.2,3.7.9,5.4.7,1.6.5,3.3,0,5.1-.4,0-.9.2-1.2,0-.6-.3-1.3-.6-1.5-1.4-.2-.7-.3-1.3-.5-2,0-.1-.1-.3-.2-.6,0,.4-.2.5-.2.7,0,1.2,0,2.3,0,3.5,0,1.4-.2,2.7-1,3.9-.3.5-.6,1-.9,1.6-.3.5-.7.5-1.1.4-.3,0-.6-.2-.8-.4-1.6-1.5-3.3-2.9-4.4-4.8-.5-.9-.9-1.8-1.3-2.7-.1-.3-.2-.5-.4-.8-.3,0-.6.1-.9.2-.5.1-1,.3-1.5.4-1.3.4-2.6,0-3.8-.2-1.4-.4-2.7-.9-4-1.2-1.2-.3-2.5-.7-3.8-.9-2.1-.3-4.1-.9-6-1.6-1.3-.5-2.5-1-3.8-1.5-1-.4-2-.6-3-.9-.2,0-.3-.1-.5,0-.5,0-1,0-1.3-.6-.3-.4-.6-.8-.5-1.4,0,0,0-.1,0-.2,0-.4-.1-1,0-1.3.3-.4.9-.6,1.5-.8,1.4-.5,2.8-.9,4.4-1.5"/> <path fill="currentColor" d="M248.6,102c.8,1.7,1.8,3.1,2.7,4.5,1.6-.8,3.1-1.5,4.6-2.2,0,0,0-.1.1-.2-2.4-.7-4.8-1.4-7.4-2.1M264.6,120.7c-.1,0-.3,0-.3.1-.8.9-1.6,1.7-2.4,2.6-.4.4-.3.9,0,1.4.6,1.1,1.4,1.9,2.2,2.7.5.5,1,1.1,1.8,1.3.2-2.8-.7-5.5-1.2-8.2M274.6,113.8c-1.8-2.3-4.4-4.8-5.3-5,0,.8,0,1.6,0,2.3,0,.8-.1,1.6-.2,2.4,0,.8-.5,1.5-.4,2.3,2-.7,3.9-1.3,5.8-2M265.8,94.6c-.7.8-.7.8-.8,1.7,0,.1-.1.3-.2.3-.6,0-.7.5-.9.9-.6,1.4-1.2,2.8-1.8,4.2,0,.2,0,.4,0,.6,2.1.3,4.1.7,6.2,1-.8-2.9-1.2-5.9-2.5-8.7M251.5,111.4c0,0-.1,0-.2,0,0,.2,0,.4,0,.6.4,2.1.3,4.2.4,6.3,0,1.9,0,3.9.6,5.8.5,1.9,1.3,3.7,2,5.5,0,0,.1.1.2.3.1-.4.2-.7.3-1,.6-2.1,1.2-4.2,1.7-6.4,0-.3.1-.8,0-1.1-1-2.2-1.4-4.7-2.7-6.8-.2-.3-.2-.6-.4-.8-.6-.8-1.3-1.6-1.9-2.4M259.9,121.5c0,0,.2,0,.3,0,.2-.2.4-.4.6-.6,1-1.1,1.9-2.3,2.9-3.4.5-.7,1-1.4,1.6-2.1.1-.2.2-.4.3-.5,1.2-.8,1.7-2,1.6-3.4,0-1.3-.1-2.5-.2-3.8,0-.7-.3-1-.9-1.2-.2,0-.4-.1-.6-.2-1.4-.3-2.8-.5-4.1-.7-1.1-.1-2.1,0-3.1.7-.9.6-1.9,1-2.8,1.5-.7.4-1.4.7-2.1,1.1.3.6.7,1,1.1,1.4.5.5,1,1,1.8,1.2.3,0,.6.4.8.7.5.8.7,1.6.6,2.6,0,.9.4,1.7.7,2.5.5-.2.8-.5,1.2-.5.4,0,.7,0,1.1.1.2,1.6-.3,3-.5,4.4M267,119.5c.2.9.4,1.8.5,2.7.2,1.4.5,2.9.7,4.3.1.9.1,1.8.1,2.7,0,.9,0,1.8-.1,2.6,0,.5-.4,1-.7,1.3-.4.5-1.1.4-1.6,0-.6-.4-1.2-.7-1.8-1.2-1.2-.9-2.4-1.9-3.2-3.3-.8-1.2-1.7-2.3-2.6-3.6-.4.6-.5,1.2-.6,1.8-.6,1.9-1.1,3.7-1.7,5.6-.1.4-.4.8.1,1.3-.3,0-.4-.1-.5-.1-.4.3-.8.6-1.2.8-.6.3-.8,0-1-.5-.6-1.4-1.2-2.8-1.9-4.3-.8-1.7-1.4-3.4-1.7-5.2-.3-1.7-.4-3.5-.4-5.2,0-2.4-.2-4.7-.5-7,0-.6-.3-1.2-.4-1.7,0-.4-.1-.8.2-1.2.3-.3.3-.7.5-1.1-.4-.6-.9-1.3-1.3-1.9-.4-.6-.7-1.3-1.1-2-.6-1-1.3-1.9-2-2.8-.3-.4-.8-.8-.8-1.4,0-.8.3-1.6.8-2.2,0-.1.3-.2.5-.2.5,0,1,0,1.5.2,1.9.6,3.7,1.2,5.6,1.7,1.2.4,2.5.6,3.8.9.8.2,1.6.4,2.5.4.7,0,1-.2,1.3-.8.6-1.5,1.3-3,2-4.5.7-1.5,1.5-2.9,2.5-4.1.3-.3.4-.7.7-1,.3-.3.6-.6,1-.8.5-.3,1,0,1.2.5.2.4.4.7.2,1.1,0,.2,0,.4,0,.7.4,1.2.8,2.5,1.1,3.7.4,1.5.8,3.1,1.2,4.6.3,1,.5,2.1.7,3.1,0,.1,0,.3,0,.4,0,1.2.6,2.1,1.4,2.8,1.1,1.1,2.3,2.1,3.3,3.2.6.7,1.3,1.2,2,1.8.5.4,1,1,1.4,1.6.2.4.2,1,0,1.5-.2.7-.5,1.2-1.3,1.5-1.2.5-2.3.8-3.5,1-1.1.2-2.2.6-3.3,1.1-1.2.5-2.4,1.1-3.7,1,0,0,0,0-.2.1"/> <path fill="currentColor" d="M85.7,116.5c.3-1,0-4.9-.4-6-1.2.4-2.2,1.2-3.3,1.7-1.1.5-2.3,1-3.4,1.5,0,0,0,.1,0,.2.5.3,1,.6,1.5.7,1.8.6,3.7,1.3,5.6,1.8M85.2,94.7c0,0-.2,0-.2,0-.1,0-.3.2-.4.3-.6.6-1.2,1-2,1.3-.6.2-1.2.5-1.9.8-.6.3-.6.5-.3,1,1.4,1.8,2.8,3.6,4.4,5.3,0,0,.2.1.5.3,0-3.1,0-6-.1-8.9M87.9,92.3c1.9,2,3.7,3.5,5.2,5.5,1-3.1,2.2-6.1,2.9-9.3-2.6,1.2-5.1,2.4-7.6,3.6-.1,0-.3.1-.5.2M93.2,119.8c-.4.5-.9.5-1.4.3,0,0-.2,0-.3,0-.9,0-1.9,0-2.8,0-1.1,0-1.3.3-1.2,1.3.1,1.4.5,2.7,1.1,3.9.6,1.5,1.4,2.9,2.1,4.3.3.5.5,1.1.9,1.7.2-.3.3-.5.3-.7.9-3.5,1.3-7.1,1.3-10.8M95.2,104.4c-.6,5-1.2,10-1.8,15,.6-.3.2-.9.6-1.3,1.8-.4,3.8-.8,5.8-1.1,2-.2,4.1-.3,6.2-.4-2.9-4.7-6.3-8.9-10.8-12.3M93.2,104c.2-.7-.3-1.2-.5-1.8-.2-.7-.6-1.4-1.1-2-1.1-1.3-2.3-2.7-3.4-4-.3-.3-.5-.7-1-.5-.4.2-.3.6-.3,1,0,2.9,0,5.9.1,8.8,0,.3,0,.7.3,1,.7,1,.7,2,.1,3.1-.3.5-.4,1-.4,1.6.2,1.7.3,3.5.5,5.2,0,.4.2.6.7.6.7,0,1.4-.2,2.1-.1.9,0,1.2-.6,1.4-1.3,0-.1,0-.3,0-.4.2-1.1.3-2.2.5-3.3.3-2.6.6-5.2.9-7.8M106.3,120.4c-.5,0-1,0-1.4-.1-2.9-.2-5.7,0-8.5.8-.6.2-.9.5-1,1.1,0,.8-.2,1.6-.3,2.4-.3,3-.9,6-1.8,9,0,.2-.1.3-.1.5-.1.6-.3,1.2-.6,1.8-.4.6-1,.8-1.5.2-.3-.3-.5-.6-.6-1-.8-1.5-1.5-3.1-2.2-4.6-1.3-2.5-2.3-5.2-2.6-8,0-.5-.2-1-.2-1.4,0-.7-.3-1.1-.9-1.3-1.2-.4-2.4-.8-3.6-1.2-1.6-.6-3.1-1.2-4.7-1.8-.3-.1-.5-.2-.8-.3-.8,0-1.3-.6-1.5-1.3-.3-.8,0-1.5.5-2,.4-.4.8-.7,1.3-.9,1.4-.6,2.6-1.4,4-1.9,1-.4,1.9-1.1,2.8-1.6.5-.2,1-.5,1.4-.7.6-.3.8-.8.3-1.4-.7-.8-1.3-1.8-2.2-2.5-1.6-1.3-2.6-3-3.8-4.6-.2-.2-.3-.4-.5-.6-.7-.6-.8-1.3-.6-2.2.1-.7.3-1.2.9-1.6.1-.1.3-.2.5-.2.3,0,.5-.2.8-.3.7-.3,1.5-.4,2.1-.8.8-.5,1.6-.9,2.1-1.7.2-.3.4-.7.7-1,.4-.6.9-.9,1.6-1,.4,0,.8-.3,1.2-.5,2.2-1,4.4-2,6.6-3,1.1-.5,2-1.1,2.6-2.1.5-.8,1.1-.9,1.6-.7.9.4,1.4,1.4,1.3,2.4-.2,1-.4,2-.7,3-.8,2.8-1.6,5.6-2.4,8.5-.2.8-.2,1.6-.3,2.4,0,.4.1.8.4,1.1.1.1.2.3.3.4,1.3,1.2,2.5,2.3,3.8,3.5.2.2.5.5.7.7,2.5,2.6,4.5,5.5,6.5,8.4.6.8,1.2,1.6,1.8,2.4.4.5.6,1.1.7,1.7.1.6-.3,1.1-.6,1.6-.3.4-.6.7-1.2.7-.6,0-1.3,0-1.9.1,0,0,0,0,0,0"/> <path fill="currentColor" d="M170.7,98.3c.2-1.3.3-2.5,0-3.9-.5.8-.8,1.7-1.6,2.1-.4,0-.8-.2-1.3,0,.9.8,1.9,1.3,3,1.7M157.4,69.7c-.2-1.3-.5-2.3-1.1-3.3-.6-1-1.2-1.9-1.8-2.9-.3-.4-.6-.8-.9-1.3-.1.2-.2.3-.2.4,0,1,.2,1.9.3,2.9,0,1.3.1,2.6.2,3.9,0,.5.1.6.6.5.4,0,.8,0,1.3-.1.5,0,1,0,1.6-.1M164.3,77.7c.5-1.8,1.1-3.4,2-4.8.1-.2,0-.4.1-.6-.5,0-.9,0-1.3-.1-.9-.3-1.8-.7-2.6-1.1-.5-.3-1-.2-1.7-.3,1.2,2.4,2.3,4.6,3.5,7M151.2,74.3c-.6.1-1.1.2-1.5.3-.3,0-.6.2-1,.3-1.6.3-3.1.6-4.7.9-.3,0-.6.2-.9.3.7,1.4,5.6,4.6,7.1,4.6.3-2.1.6-4.2.9-6.5M150.6,96.3c.2,0,.3,0,.5,0,1.3-.6,2.7-1,3.9-1.9,1.4-1,2.7-2.2,3.1-4.1-.3-.2-.6-.5-.9-.8-.3-.3-.6-.7-.9-1-.1.2-.2.3-.3.5-.1-.1-.2-.2-.3-.3-.2-.3-.4-.5-.6-.8-.5-.8-1.6-1.7-2.7-2,0,.1-.1.2-.2.4-.4,2.6-.9,5.2-1.3,7.7-.1.8-.2,1.6-.3,2.5M165.4,84.4c-1.2.6-2.3,1.3-3.2,2.1-.4.3-.6.7-.5,1.3,0,.4,0,.7-.1,1.1,0,.4,0,.6.2.9.4.4.7.9,1.1,1.4.4.6.8,1.2,1.3,1.8.7-.5,1.5-.6,2.2-.2.1,0,.3.1.5.2,1.1.3,1.6,0,2.1-.9,0,0,0-.2.1-.2.4-.5.4-1.1,0-1.6-.2-.3-.5-.7-.6-1,0-1-.7-1.7-1.2-2.4-.6-.8-1.2-1.6-1.9-2.5M158.8,71.7c-.2.1-.3.2-.4.3-.4.4-.9.6-1.5.6-.9.1-1.9.3-2.7.4-.2.4-.3.8-.5,1-.3.3-.4.6-.5,1-.4,2.3-.8,4.5-1.3,6.8.8.5,1.6,1.1,2.5,1.6,1,.6,1.6,1.4,2,2.5.5-.5.9-1,1.4-1.5.6-.7.9-.7,1.6,0,0,0,.1,0,.3,0,.4-.4.8-.7,1.2-1.2.6-.7,1-1.6,1.5-2.3.3-.4.3-.8,0-1.2-.3-.5-.6-1-.8-1.5-.7-1.5-1.4-3-2-4.5-.3-.6-.6-1.3-.9-2M151.6,70.8c.3-.7.2-1.4.2-2.1-.1-1.9-.3-3.8-.5-5.7-.1-1.8-.1-3.5.2-5.3,0-.2,0-.3,0-.5,1.1-.7,1.4-.6,2,.4,0,0,0,.1,0,.1.7,1.1,1.3,2.1,2,3.2.7,1.1,1.4,2.2,2.2,3.3.3,0,.6,0,.9-.2.6.6.9,1.5,1,2.3,0,.4.2.6.6.7,1.4.4,2.8.8,4.2,1.3,1.1.4,2.2.5,3.4.5.3,0,.5,0,.8,0,.7,0,1.1.4,1.2,1,.2,1-.1,2-.7,2.9-1.1,1.8-2.2,3.7-2.8,5.8,0,.2,0,.4-.2.7.2,0,.3.1.5.2.6.4.7.9.6,1.6-.1.7.1,1.3.5,1.8,1.4,2,2.9,4.1,4.3,6.1.5.7.6,1.5.4,2.4,0,.3,0,.6,0,.8.6,2.7.5,5.5.1,8.2-.1.7-.4,1.2-.8,1.9-.3-.1-.5-.3-.7-.4-.6-.4-1.2-.8-1.8-1.1-2.9-1.5-5.2-3.6-7.1-6.3-.5-.8-1.1-1.5-1.8-2.3-.2.2-.4.3-.4.4-.4,1.2-1.3,2-2.1,2.8-1.2,1.3-2.7,2.2-4.3,3-1,.5-2.1.8-3.1,1.2-.2,0-.4.2-.5.3-.5.3-.6.4-.9-.1-.3-.5-.5-1-.5-1.6,0-2.3.3-4.6.8-6.8.3-1.4.4-2.8.7-4.3.1-.8.4-1.5.6-2.3,0-.1,0-.2,0-.4-.2-.2-.5-.4-.8-.5-2.1-.9-4-2-5.9-3.3-1.7-1.1-3-2.6-3.7-4.5-.4-.9,0-1.8,0-2.7,0-.2.4-.4.7-.5,1.2-.4,2.5-.7,3.7-1,1.7-.4,3.3-.7,5-1.1.6-.1,1.2-.2,1.9-.3"/> <path fill="currentColor" d="M35.9,5.3c0,0,.1,0,.2,0,0-.2,0-.3,0-.5-.2,0-.2,0-.3.2,0,.1,0,.2,0,.3M26,28.1c-1.5.8-3,1.5-4.5,2.3-.2.1-.5.1-.5.5,1.8.6,3.5,1.3,5.4,2,0-1.7.5-3.3-.5-4.8M28.5,36.4c.3,1.4,3.5,6.4,5.6,9,.1-.2.3-.3.3-.5,0-.4.2-.9.2-1.3,0-.9,0-1.9,0-2.8,0-1.4,0-2.8,0-4.1,0-.6,0-.7-.6-.7-1.5,0-2.9,0-4.4.1-.4,0-.8.2-1.3.3M28.5,11c-.2,0-.4.1-.6.2-1.3.6-2.6,1.1-3.9,1.7-1.1.5-2.1.9-3.2,1.3-.6.3-.6.4-.2.9,1,1.2,2,2.3,2.9,3.5.4.5.8,1,1.1,1.6.6.8,1.1,1.7,1.6,2.5,0,.1.2.2.4.4.4-1,.7-1.9,1.1-2.9,0,0,0,0,0,0,.1-.7.2-1.3.3-2,0-.3.2-.7,0-1-.5-.9-.3-1.7,0-2.6.3-1.1.6-2.2.2-3.5M46.5,30.8c-.1-.3-.1-.4-.2-.6-1.3-1.7-2.5-3.4-3.9-5-1.7-1.9-3.5-3.6-5.3-5.4,0,0-.1,0-.3,0,0,.2-.2.4-.2.6-.3,1.9-.4,3.8-.3,5.7,0,1.3.2,2.6.3,4,0,.5,0,1,.1,1.5.4,0,.7,0,1,0,1.3-.1,2.5-.3,3.8-.3,1.4,0,2.8-.1,4.1-.2.3,0,.6-.1.9-.2M35.4,9c-.4,0-.7-.2-1.1-.3-.8-.1-1,0-1.3.7-.4.9-.9,1.8-1.3,2.7-.2.6-.5,1.2-.6,1.8-.1.8,0,1.6-.2,2.3-.2,1.2-.5,2.4-.7,3.6-.2.7-.2,1.4,0,2.2.2,1.5.2,2.1-1.1,2.6-.4.2-.5.4-.3.8.2.5.3,1.1.5,1.6.1.3,0,.6,0,1-.2.4-.4.9-.5,1.4,0,1,0,2.1-.1,3.1,0,.6,0,.7.6.7,1.3,0,2.7,0,4,0,.5,0,.7-.2.8-.7,0-.4,0-.8,0-1.3,0-1.8-.1-3.6-.2-5.4-.1-2.1-.1-4.3.3-6.4.3-1.6.6-3.2.7-4.8.2-1.9.4-3.7.6-5.7M25.2,25.1c-.7-.9-1.3-1.9-2.1-2.8-1.5-1.9-3.1-3.8-4.7-5.7-.1-.2-.2-.3-.4-.4-.7-.4-.9-1.1-.8-1.9,0-.2,0-.3,0-.5,0-1,.3-1.5,1.3-1.9,2.5-.9,5-2.1,7.4-3.1.8-.4,1.6-.7,2-1.7.1-.3.6-.5.9-.6.6-.2,1.3-.3,2-.5.4,0,.6-.2.8-.6.2-.4.5-.7.7-1.1.4-.6.9-1,1.4-1.4,1.1-.9,2.2-1.8,3.3-2.7.4-.4.6-.4,1.1,0,.3.3.7.6,1,.9.2.2.3.5.3.8,0,.4,0,.8-.2,1.2-1,3.3-1.6,6.6-2,10,0,.5,0,1.1-.1,1.6,0,.9.3,1.6.9,2.2.7.8,1.4,1.7,2.2,2.4,1.4,1.3,2.7,2.7,3.9,4.2.8.9,1.6,1.8,2.3,2.8.8,1.1,1.5,2.3,2.3,3.5,0,.1.1.3.2.3.8.5.6,1.3.7,1.9,0,1.3-.3,1.7-1.6,1.9-1.7.3-3.3.4-5,.3-1.5,0-2.9,0-4.4.1-1.2,0-1.8.6-1.9,1.8-.2,1.6-.2,3.1-.1,4.7.1,1.8.1,3.6-.3,5.3-.2.9-.5,1.7-.9,2.5-.2.4-.6.7-.9.9-.5.3-.9.2-1.1-.3-.2-.3-.3-.6-.4-.9-.7-1.5-1.7-2.8-2.7-4.2-.5-.6-.9-1.3-1.3-2-.9-1.7-1.9-3.4-2.7-5.1-.5-1-1.1-1.7-2.2-2.1-1.8-.8-3.6-1.6-5.4-2.4-.2,0-.4-.1-.6-.2-.6-.2-1-.7-1-1.3,0-.3,0-.5,0-.8,0-.6.2-1.1.8-1.4,1.8-1.1,3.8-2,5.7-2.8.6-.3,1.3-.5,1.6-1.2"/> <path fill="currentColor" d="M238.4,31.8c0,0,0,.1,0,.2,1.5.2,2.9.3,4.5.5-.2-1.2-.6-2.3-1-3.5-1.3,1-2.4,1.9-3.6,2.9M244.7,46.6c.3-.3.4-.6.7-.7,1.4-1.1,2.9-2.1,4.4-3.1.2-.1.4-.3.5-.5-.1-.2-.2-.3-.3-.4-1.5-1.5-3.1-3-4.6-4.4-.2-.2-.4-.3-.8-.5-.5,3.3,0,6.5.1,9.7M231.2,41c1.3-1.8,2.4-3.7,3.2-5.7.3-.7.6-1.5.3-2.3-.1-.3,0-.8,0-1.1,0-.2-.1-.5-.3-.6-1.1-.7-2.1-1.5-3.2-2.1-.6-.4-1.3-.8-2.1-.9.3,4.4,1.3,8.6,2.1,12.9M224.2,50.4c2.3,1.9,4.7,3.5,7.7,4.1,0-.4,0-.7,0-1-.1-1.1-.3-2.1-.4-3.2,0-1.1,0-2.1,0-3.2,0-1,0-2-.7-2.9-.9.5-6,5.2-6.6,6.2M236.2,56.8c.5,1.4,1.3,2.6,2.6,3.1,1.9.8,4,1.5,6.1,1.7.4,0,.6,0,.8-.4.5-1.2.8-2.5,1-3.8.1-.8.2-1.5,0-2.2-.3-1.3-.6-2.5-1.1-3.8-.1,0-.2,0-.3.2-1.4,1.2-3.1,2-4.8,2.8-1.1.6-2.2,1.1-3.3,1.7-.3.2-.6.4-.9.7M243.6,49.2c0-.2-.1-.3-.2-.4-.8-1.1-1.2-2.3-1.2-3.6,0-1,0-2,0-3,0-1.6.1-3.3.2-4.9,0-.5,0-.9,0-1.4,0-.3-.1-.5-.4-.5-1.4-.1-2.8-.3-4.1-.4-.2.4-.4.7-.5,1-.9,2.1-1.8,4.2-3.2,6.1-.6.9-.9,1.8-.6,2.9.2.7.2,1.5.2,2.3,0,1.2,0,2.4,0,3.6,0,1.1.2,2.1.4,3.2,1-.2,8.7-4,9.6-4.7M225.9,25c.4-.3.9-.7,1.3-1,.3-.2.6-.2.9,0,1.8.8,3.5,1.6,5.1,2.7.3.2.6.4,1,.5.6.1,1,.4,1.4.9.3.3.6.6.9,1,.7-.5,1.4-1,2-1.5.5-.4,1-.7,1.4-1.1.5-.4.9-.9,1.3-1.4.5-.5,1.1-.7,1.6-.3.2.1.4.4.5.6.4,1.3.8,2.6,1.2,3.9.4,1.2.7,2.5,1.2,3.6.4,1,.9,2,1.7,2.8,1.7,1.6,3.4,3.3,5.1,5,.8.8.9,1.6.5,2.8-.2.7-.7,1.1-1.3,1.4-1.3.9-2.7,1.6-4,2.7-.6.5-.7,1.1-.6,1.7,0,.4.2.8.3,1.2.4,1.5.9,3,1.1,4.5.2,1.3.3,2.7.2,4-.1,1-.6,2.1-1,3-.3.7-.5,1.4-.6,2.1-.1.7-.5,1-1.1,1.2-.1,0-.4,0-.5,0-1.1-.7-2.4-.7-3.6-1-1.9-.5-3.8-1.1-5.6-1.9-.4-.2-.8-.6-1.1-1-.8-1.1-1.5-2.2-2.3-3.3-.1-.2-.4-.3-.6-.3-1.1-.2-2.1-.5-3.2-.8-2.3-.8-4.5-1.8-6.2-3.6-.4-.4-.8-.8-1.5-.7-.2,0-.3,0-.5-.1-.6-.4-1.1-1.8-.8-2.5.2-.5.4-.8.7-1.2,1.6-1.9,3.6-3.6,5.5-5.2.5-.4,1-1,1.4-1.5.4-.5.6-1,.5-1.6-.3-1.6-.6-3.2-.9-4.8-.2-1.4-.5-2.9-.7-4.3-.2-1.5-.2-3-.9-4.5-.2-.5-.2-1.2-.3-1.8"/> <path fill="currentColor" d="M182.9,36.6c-.4.8-.7,1.4-1,2-.4.6-.7,1.2-1.2,1.7-.4.5-1,.9-1.5,1.3,0,0,0,.2,0,.2,1.9.1,3.7.3,5.7.1-.7-1.8-1.4-3.5-2.1-5.4M182.4,26.3c0,1.6.1,3.1.2,4.7,0,.3.1.6.2.9.7-.1,1.2-.5,1.7-1,1.3-1.2,2.5-2.4,3.8-3.6.1-.1.3-.3.4-.5-1.6-1.4-3.5-2-5.4-3,0,1,.3,2-.8,2.5M174.7,19.8c1.7.7,3.4,1.4,5.3,2.1,0-.2.2-.3.2-.5,0-1.1.1-2.2-.2-3.4-.2-1-.4-2-.5-3.1-.1-.6-.2-1.3-.3-2-.2.2-.4.4-.6.5-.9,1-1.8,2-2.8,3.1-.3.4-.6.7-.9,1.1-.1.2-.2.5-.2.7,0,.4,0,.9,0,1.5M168.8,48.8c.6,0,.9-.2,1.2-.5.4-.4.8-.8,1.3-1.2,1.1-.8,2-1.9,2.8-3,.5-.6.5-.7,0-1.3-.3-.3-.6-.6-.9-1-.6-.6-1.1-1.2-1.6-1.8-.4-.5-.7-1-1.1-1.5-.2-.2-.4-.4-.6-.6-1.3,3.6-1.5,7.2-1,10.9M171,20c-2.3.5-4.5.9-6.7,1.4,1.4,3.2,3,6.1,5.2,8.7,0,0,.2-.1.2-.2.4-1,.8-1.9,1.2-2.9.3-.8.6-1.7.5-2.6,0-1-.2-2-.3-3,0-.4-.1-.8-.2-1.4M174.5,22.9c-.2.9-.4,1.8-.5,2.7-.2,1.6-.7,3.2-1.4,4.7-.5,1.1-.9,2.2-1.4,3.3-.2.4-.3.9,0,1.4,1,1.7,2,3.4,3.4,4.8.5.4.9.9,1.5,1.4.2-.3.4-.5.6-.8.6-.6,1.3-1.2,1.9-1.8,1.1-1.1,1.7-2.6,2.3-4,.1-.4,0-.7,0-1.1-.3-1-.6-2-.7-3-.1-1.6-.1-3.2-.1-4.7,0-.6-.2-1-.7-1.2-1.5-.6-3-1.2-4.5-1.8,0,0-.2,0-.4,0M187.4,45.1c-.6,0-1.1,0-1.6,0-2.4,0-4.8-.1-7.2-.3-.6,0-1.1.2-1.5.5-.3.2-.5.4-.7.6-1.1,1.6-2.6,2.9-4.1,4.3-.6.5-1.2,1-1.8,1.5-.6.4-1.4.5-2.1.5-.7,0-1.2-.6-1.5-1.2-.6-1.3-.7-2.7-.8-4,0-1.3-.1-2.7,0-4,.1-2.2.5-4.4,1.2-6.5.2-.7.3-1.4.4-2.1,0-.3.2-.6.3-.9.2-.4.1-.7-.1-1-.5-.7-1-1.3-1.4-2-.8-1.3-1.6-2.6-2.4-3.9-.6-1-1-2.2-1.8-3.1-.4-.4-.7-.7-1.3-.9-1-.3-1.3-1.1-1.1-2.1,0-.2,0-.5.1-.7.1-.7.4-.9,1-1,2.1-.4,4.3-.8,6.4-1.3,1.1-.2,2.3-.4,3.4-.7.3,0,.6-.2.9-.4,2.1-1.5,3.6-3.5,5.4-5.3.6-.6,1.1-1.4,1.6-2.2.3-.4.6-.6,1.1-.5.5,0,.9.3,1.1.8.2.6.3,1.2.4,1.9.2,1.6.5,3.2.8,4.8,0,.6.1,1.1.3,1.7.2.9.5,1.7.8,2.6.1.3.4.5.7.6,1.3.8,2.7,1.4,4.1,2.3,1.3.8,2.5,1.7,3.7,2.6.5.3.5.8.5,1.3,0,.7-.3,1.3-.9,1.7-.1,0-.2.1-.3.2-1.1,1.1-2.2,2.3-3.3,3.4-.7.7-1.4,1.3-2.1,2-.3.3-.5.5-.4.9.1.7.2,1.5.4,2.1.6,1.8,1.3,3.6,2.2,5.3.2.5.3.9.1,1.4-.2.4-.3.8-.5,1.3"/> </svg>