<svg width="100%" xmlns="http://www.w3.org/2000/svg" version="1.1" viewBox="0 0 300 161.2"> <path fill="currentColor" d="M12,16.4c.1-1,.4-1.9.4-2.9,0-3.4,0-6.8.2-10.1,0-1.2.6-3.2,1.1-3.3,1.6-.2,3.4.1,4.9.8,1.8.8,2.5,2.3,2.3,4.6-.3,3.4.2,6.9.2,10.4,0,.9-.3,2-.8,2.7-1.9,2.9-1.4,6.6,1.4,8.8,5.4,4.2,10.5,8.8,16.1,12.8,10.2,7.4,18.3,16.9,26.7,26.1,5.3,5.8,11.1,11.2,16.7,16.7,5.5,5.3,11.2,10.4,16.7,15.6,1.3,1.2,2.3,1.5,4,.4,9.3-6.1,18.7-12.1,28.1-18.1,1.2-.8,2.6-1.1,4.2-1.7.4-.5.8-1.5,1.6-2,14.1-9,28-18.6,42.5-26.8,11.2-6.4,23.3-11.3,35.1-16.7,6.4-2.9,12.8-6,19.5-8.1,7.1-2.2,14.4-3.8,21.7-4.7,7.3-.9,14.1,1.8,20.2,5.9,7.5,5.1,13.5,11.6,18.4,19.1,2,3.1,2.6,7.1,4.4,10.3,2.7,5,2.4,10.4,2.5,15.7.2,7.5-2.6,14.2-5.8,20.8-5.4,11-12.6,20.6-20.9,29.6-4.9,5.4-9.8,10.9-15.2,15.9-3.9,3.6-8.5,6.7-13.1,9.3-5.9,3.4-12.1,6.2-18.3,9-1.5.7-3.5.3-5.3.4-.4,0-.9,0-1.2.2-5.9,4.9-13.1,3.7-19.9,4-6.6.2-13.2-.5-19.8-1.2-9.3-1-17.5-4.8-24.9-10.4-6.2-4.8-12.3-9.7-18.7-14.4-8.8-6.5-17.9-12.8-26.7-19.3-2.9-2.2-5.6-4.8-8.2-7.3-1.3-1.3-2.3-1.6-4-.7-4.8,2.9-9.6,5.7-14.5,8.4-6.4,3.5-12.9,6.6-19.2,10.2-9.8,5.6-19.5,11.6-27.5,19.7-2.1,2.2-4,4.6-5.7,7.2-1.1,1.7-2.2,2.2-4.1,1.5-2.9-1.2-4.9-2.4-5.5-6.3-2.1-12.4-5.2-24.6-7.8-36.8-2.8-13.2-3.5-26.5-3.5-39.9,0-10.7,0-21.3.2-32,0-3.9.5-7.8.5-11.7,0-1.6-.6-3.4-1.6-4.6-2.6-3.5-5.6-6.8-8.4-10.1-1.4-1.6-1.4-2.9,0-4.5,1.6-1.8,3.2-1,4.2.1,1.9,2,3.4,4.3,5.1,6.5.3.4.6.8.8,1.2.3,0,.5,0,.8-.1ZM158.4,67.1c.2.8.3,2.3.8,2.4,2.8.8,2.1,2.7,1.9,4.7-.2,2.2-.2,4.5,0,6.8.9,8.4,1.7,16.9,3.1,25.3,1.7,10.2,4,20.2,6.1,30.3.2.9.9,2.1,1.7,2.3,2.6.6,3.3,2.6,2.4,4.4-.7,1.4-2.7,2.5-4.4,3.1-1.3.5-3,.2-4.5,0-1.4-.2-2.8-.9-4.2-1.3.4-.2.8-.5,1.2-.7,0-3,.4-6,0-8.9-.4-3.4-1.8-6.7-2.3-10.1-2.1-13.4-4-26.9-5.9-40.4-.5-3.3-.6-6.7-.9-10.1-.1-1.4-.5-3.1-2.4-1.8-4.4,3-8.8,6.2-13,9.5-.7.5-1,1.9-1,2.9.2,3.8.8,7.5,1.1,11.2.8,9.7,2.8,19.2,1.9,29-.4,4.3,1.3,8.2,5.8,10.8,5.2,3.1,9.8,7.3,14.8,10.8,5.5,3.9,11.6,7,18.4,7.5,8.8.7,17.6.7,26.4,1,2.7,0,5.6.6,8.1-.3,5.2-1.7,10-4.5,15.2-6.3,7.5-2.6,13.8-7,20.1-11.5,9.5-6.7,16.5-15.8,24-24.5,7.7-8.9,14-18.6,18.4-29.5,4-10,3.5-20,0-29.9-3.2-8.9-9.4-15.7-16.5-21.7-6-5.1-12.9-7.2-20.8-6.4-13.1,1.3-25.2,5.8-37.1,11.2-3.1,1.4-6.2,2.8-9.4,3.9-1.6.5-3.4.4-5.1.5,0,.2,0,.3,0,.5.4.2.8.3,1.7.7-1.8.4-3.1.5-4.1,1-2,1.1-3.9,2.5-5.9,3.6-1.5.8-3.2,1.4-5.6,2.4-.6,1.8-4.4,4-8.4,4.2-1.3,1.3-2.1,2.4-3.2,3.1-5,3.1-10,6.2-15.1,9.2-.8.5-1.9.4-3.2.7ZM95.9,102.9c-3.3-3.1-6.2-5.9-9.1-8.6-5.8-5.4-11.8-10.6-17.5-16.2-5.8-5.8-11-12.1-16.8-17.9-5.9-5.8-12-11.4-18.2-16.9-4.1-3.6-8.6-6.9-13-10.2-.7-.5-1.5-.8-2.2-1.1-.2.8-.7,1.6-.7,2.4-.3,8.4-.6,16.8-.6,25.2,0,11.1-.1,22.1.5,33.2.4,6.6,1.9,13.1,3.1,19.6,1.1,6,2.4,12,3.7,18,1,4.3,2.1,8.6,3.2,13.2,0,0,.5.3.7.1,20.1-16.8,44-27.2,67-40.7ZM130.3,125.7c.5-.1.9-.3,1.4-.4.3-3.6,1.1-7.2.8-10.8-.7-7.9-2-15.8-3.1-23.7-.3-2.2-1.6-1.7-2.9-.9-6.6,4.1-13.1,8.3-19.7,12.5-2.7,1.8-2.8,2.2-.2,4.3,7.9,6.3,15.8,12.6,23.7,18.9Z"/> <path fill="currentColor" d="M209.3,60.9c.6-4.9,1.1-9.7,1.8-14.6.3-2.4,2.1-3.3,4.6-2.5,1.9.6,3.7,1.3,3.1,4.3-.9,4.1-1.7,8.4-1.6,12.7.3,11.4.7,22.9,3.5,34,2.3,9.1,4.4,18.2,6.9,27.2,1,3.7,2.9,7.1,4.1,10.7.4,1,.2,2.4-.2,3.5-.1.4-1.6.3-2.4.4-5.4.4-5.9-4.2-6.7-7.5-6-22.4-13.5-44.5-13-68.3Z"/> <path fill="currentColor" d="M177.8,63.9c3.8,0,4.7.7,4.7,4.6.3,16.2,4.2,31.7,9.3,47,1.6,4.9,3.1,9.9,4.5,15,.4,1.5,1.1,3.5-1.4,4.2-3.8,1-5.7.4-6.4-2.1-3.5-12.4-7.3-24.7-10.3-37.3-1.8-7.4-2.1-15.2-3.1-22.8-.2-1.6-.4-3.2-.7-4.9-.4-3.2.2-3.8,3.4-3.8Z"/> <path fill="currentColor" d="M238.2,81.8c-1.3-1.3-2.4-2.3-3.5-3.3-3.8-3.1-5.1-7-4.3-11.7.4-2.3,1.9-3.2,4-3.5,1-.2,2.2-.6,2.9-1.3,4.4-4.6,8.3-3.9,13.5.3,3.7,3,4.9,7.3,3,11.6-1.6,3.8-4.8,6.5-9.3,7.2-2.1.3-4.3.5-6.3.7Z"/> <path fill="currentColor" d="M282.9,96.7c-.5,2.8-1.9,4.4-4.5,5.5-1.1.5-1.9,1.9-2.6,3-.6.9-.6,2.4-1.3,3-3.5,2.5-7.2,4.9-11,7.1-3.2,1.9-6.5,3.5-9.8,5-6.7,3.1-14,.8-17.6-5.3-.5-.8-.4-2.3,0-3.1.3-.6,1.8-1.1,2.5-.8,2,.9,4.1,2,5.8,3.5,1.4,1.2,2.6,2.3,4.5,1.3,8.4-4.2,16.5-8.8,21.5-17.1.2-.3.4-.4.6-.7,3.2-5.7,5.6-6.1,10.7-2.1.4.3.8.6,1.2.8Z"/> </svg>