<svg width="100%" xmlns="http://www.w3.org/2000/svg" version="1.1" viewBox="0 0 300 252"> <path fill="currentColor" d="M49.1,147.4c3.2,2.2,5.9,4.4,8.9,6.1,15.5,8.7,31.5,16.7,46.7,26,22.4,13.7,44,28.8,66.6,42.1,19.4,11.3,38.5,8.5,56.9-5.7,2.4-1.9,4.2-4.5,6.9-7.5-5.4-4.2-9.6-8.3-14.5-11.1-7.5-4.4-15.4-8.3-23.4-11.9-20.9-9.4-38.5-23.9-57.6-35.9-2.4-1.5-4.7-3.5-6.6-5.7-3.9-4.3-3.4-8.1,1.6-11.2,5.9-3.7,12.5-5.8,19.5-4,13.2,3.4,26.2,7.1,39.3,10.7,13.1,3.6,25.9,8.9,39.8,8,1.9-.1,3.7-1.3,7.8-2.9-7.1-3.8-12-7.2-17.3-9.2-17.4-6.5-33.3-16-48.8-26-10.9-7-21.2-14.9-31.3-22.9-5.1-4-4.5-7.8.5-12,4.4-3.7,9.4-5.7,15.2-5.6,7.4.1,14.8.5,22.2.3,6.5-.2,12.9-1.1,19.4-1.7-1.1-2.4-2.1-3-3.3-3.4-20.7-6-41.1-12.6-60.5-22.3-14.1-7.1-29.4-11.2-45.4-14.8-1.3,3.1-2.7,5.7-3.5,8.4-3.2,10.5-6.3,21.1-9.4,31.7-3.3,11.5-5.8,23.3-10,34.5-4,10.9-9.7,21.2-14.4,31.8-2,4.4-3.4,9-5.4,14.2M293.5,149.2c.3,7.4-4.6,10.1-9.6,12.6-15,7.5-30.6,12.2-48.5,13,3.3,2.6,6.2,5.8,9.8,7.7,10.6,5.5,19.2,13.2,26.3,22.7,5,6.8,5.1,10,.2,16.5-12.5,16.3-29.6,23.8-49.3,28-25.8,5.5-50,.2-72.9-10.4-16.3-7.6-31.2-18.5-46.4-28.4-22.5-14.7-44.7-29.9-69.5-40.5-7.4-3.2-14.6-7.1-21.3-11.6-4.4-2.9-7.6-7.5-12.4-12.3,4.3-4.2,7.8-7.4,11-10.8,2.4-2.5,5.5-4.9,6.7-8,7.4-18.6,15-37.2,21.4-56.2,5.7-16.9,10.4-34.1,14.8-51.4C58.6,1.5,62.1-1.3,81.7.4c14.7,1.3,28.6,5.4,42.3,10.9,26.2,10.4,52.4,20.9,78.8,30.8,12.7,4.8,26,8,39,12.2,6.2,2,12,4.9,18.2,6.8,8,2.5,16.2,4.3,24.3,6.5,2.2.6,4.4,1.1,6.6,1.8,6.5,2.2,9.4,5.3,9.2,9.7-.2,4-4.3,8.5-10,9.2-12.8,1.6-25.7,2.9-38.6,3.6-14.8.9-29.6,1-45.3,1.5,1.2,5.2,4.9,7.2,8.4,8.9,10.4,5.2,21.1,9.8,31.4,15.3,13.3,7.1,27.2,13.4,39,23.1,3.2,2.7,5.9,5.9,8.6,8.6"/> </svg>