<svg width="100%" xmlns="http://www.w3.org/2000/svg" version="1.1" viewBox="0 0 300 300"> <path fill="currentColor" d="M222.7,261.5c.1-.6.2-1.2.3-1.7.5-2.8,1-5.6,1.1-8.4-.1,2.8-.6,5.6-1.1,8.4-.1.6-.2,1.2-.3,1.7Z"/> <path fill="currentColor" d="M204.1,226c-.2,0-.5,0-.7,0,.3,0,.5.1.7,0Z"/> <path fill="currentColor" d="M167.7,109.4c0,1.1,0,2.2-.1,3.5,0-1.2,0-2.4.1-3.5,2.7-.8,4.8-1.3,6.9-2.1,1.4-.5,2.7-1.2,4-1.8-1.3.6-2.7,1.3-4,1.8-2.1.8-4.2,1.3-6.9,2.1Z"/> <path fill="currentColor" d="M212.9,272.4c-3.2-.8-6.4-1.9-9.6-2.9-1.9-.6-3.5-1.8-4.7-3.3,1.2,1.5,2.8,2.6,4.7,3.3,3.2,1,6.3,2.1,9.6,2.9,1.4.4,2.7.3,3.8-.2-1.1.5-2.3.6-3.8.2Z"/> <path fill="currentColor" d="M225.8,181.1c-.9-3.9-1.8-7.8-2.4-11.7-.2-1-.4-2-.6-3.1.2,1,.4,2,.6,3.1.6,3.9,1.5,7.8,2.4,11.7Z"/> <path fill="currentColor" d="M244.5,207.2c3.4,4.5,5.5,9.4,5.5,15.1,0,.3,0,.6,0,.9,0-.3,0-.6,0-.9,0-5.7-2-10.6-5.5-15.1-.4-.6-.9-1.1-1.4-1.6.5.5,1,1,1.4,1.6Z"/> <path fill="currentColor" d="M194.6,229.4c0,2-.4,3.9-.6,5.9,0,.7-.2,1.4-.3,2,.1-.7.2-1.3.3-2,.2-2,.5-3.9.6-5.9Z"/> <path fill="currentColor" d="M245.2,241.1c.3-.3.5-.6.8-1,.5-.7,1-1.5,1.5-2.2-.5.8-1,1.5-1.5,2.2-.2.4-.5.7-.8,1Z"/> <path fill="currentColor" d="M223.4,205.6c0,.4,0,.9,0,1.3,0-.5,0-.9,0-1.3Z"/> <path fill="currentColor" d="M194.5,205c0,3.7,0,7.4,0,11.1,0-3.7,0-7.4,0-11.1Z"/> <path fill="currentColor" d="M227.3,220.2s0,0,0,0c.3,1,.6,1.8.9,2.6,1.1,3.9,2.3,7.8,3.3,11.8-1.1-3.9-2.2-7.8-3.3-11.8-.2-.8-.5-1.6-.9-2.6Z"/> <path fill="currentColor" d="M225.4,220.5s0,0,0,0,0,0,0,0c0,0,0,0,0,0,0,0,0,0,0,0Z"/> <path fill="currentColor" d="M232.2,237.2c.6,1.6,1.6,2.7,2.9,3.6-1.2-.9-2.2-2-2.9-3.6Z"/> <path fill="currentColor" d="M184.5,114.4c0,1-.6,1.6-1.4,2.1.8-.4,1.4-1.1,1.4-2.1Z"/> <path fill="currentColor" d="M179.9,129.7c-1,.5-2,.7-3,.7,1,0,2-.2,3-.6,2.4-1.1,4.8-2.3,6.9-3.3,0,0,0,0,0,0-2.1,1-4.5,2.2-6.9,3.3Z"/> <path fill="currentColor" d="M202.4,195.9c0,6,0,11.9,0,17.9,0-6,0-11.9,0-17.9,0-3,.2-6,.4-9,.2-5.4.6-10.9.8-16.3-.2,5.4-.6,10.9-.8,16.3-.1,3-.4,6-.4,9Z"/> <path fill="currentColor" d="M183.5,103.9c.3,2.8.5,5.4.8,7.9-.3-2.5-.5-5.1-.8-7.9,0,0,0,0,0,0Z"/> <path fill="currentColor" d="M234.1,202c1.9.1,3.6.5,5.2,1.2-1.6-.7-3.3-1.1-5.2-1.2-1.1,0-2.2-.1-3.4-.2-.2-1-.5-2-.7-2.9.2.9.5,1.9.7,2.9,1.2,0,2.3.1,3.4.2Z"/> <path fill="currentColor" d="M194.5,258.5c.7,2.1,1.7,4,2.8,5.9.2.3.4.6.5.8-.2-.3-.4-.6-.5-.8-1.1-1.9-2.2-3.9-2.8-5.9Z"/> <path fill="currentColor" d="M194.1,242.8c0-.1-.1-.3-.2-.4,0,.1.1.3.2.4.2.5.2,1,.2,1.6,0-.6,0-1.1-.2-1.6Z"/> <path fill="currentColor" d="M204.7,133.6c.2.7.4,1.3.6,1.9-.2-.6-.4-1.3-.6-1.9,0,0,0,0,0,0Z"/> <path fill="currentColor" d="M229.6,197.3c0-.4-.2-.8-.3-1.2-.3-1.1-.5-2.2-.8-3.3.3,1.1.5,2.2.8,3.3,0,.4.2.8.3,1.2Z"/> <path fill="currentColor" d="M248.4,39.9c-.8-.8-1.4-1.6-2.1-2.3.7.7,1.3,1.5,2.1,2.3,0,0,0,0,0,0Z"/> <path fill="currentColor" d="M209.7,49.5c0,.1,0,.3,0,.4,0-.1,0-.3,0-.4Z"/> <path fill="currentColor" d="M213.2,9.6s0,0,0,0c0,0,0,0,0,0Z"/> <path fill="currentColor" d="M280.4,68.4c.2-1.9,0-3.8-1.1-5.8-.1-.3-.3-.5-.4-.8.1.2.3.5.4.8,1.1,2,1.3,3.9,1.1,5.8Z"/> <path fill="currentColor" d="M189.7,24.9s0,0,0,0c0,0,0,0,0,0Z"/> <path fill="currentColor" d="M248.8,39.5c.2-.2.5-.4.7-.6-.2.2-.5.4-.7.6Z"/> <path fill="currentColor" d="M214.4,40.6c.2-.5.5-1,.7-1.5.3-.7.6-1.5.9-2.2-.3.7-.6,1.5-.9,2.2-.2.5-.5,1-.7,1.5Z"/> <path fill="currentColor" d="M157.4,0c.1,0,.3,0,.4.1-.1,0-.3,0-.4-.1Z"/> <path fill="currentColor" d="M157.9.2c.2,0,.3.1.5.2-.2,0-.3-.1-.5-.2Z"/> <path fill="currentColor" d="M158.5.4c.2,0,.3.2.5.3-.2-.1-.3-.2-.5-.3Z"/> <path fill="currentColor" d="M160.3,2.1c0,.1.2.3.3.4,0-.1-.2-.3-.3-.4Z"/> <path fill="currentColor" d="M160,1.7c0,0,0,0,.1.2,0,0,0,0-.1-.2Z"/> <path fill="currentColor" d="M217.1,146.5c-.3-.8-.6-1.7-.9-2.5-.2-.5-.4-1-.5-1.5.2.5.4,1,.5,1.5.3.8.6,1.7.9,2.5Z"/> <path fill="currentColor" d="M216.6,69.4c0-.2,0-.4,0-.6,0-.2,0-.4,0-.6,0,.2,0,.4,0,.6,0,.2,0,.4,0,.6Z"/> <path fill="currentColor" d="M211.6,54.5c-.4-.7-.7-1.4-1.1-2.1-.3-.6-.6-1.1-.7-1.6.1.5.4,1,.7,1.6.4.7.7,1.4,1.1,2.1Z"/> <path fill="currentColor" d="M221.9,68.8c-.7,2.1-2.3,3.3-4.8,4.1,0-.3,0-.5,0-.7,0,.2,0,.5,0,.7,2.6-.7,4.1-1.9,4.8-4.1Z"/> <path fill="currentColor" d="M209.7,49.2c.1-.5.3-1,.7-1.6.3-.4.5-.8.8-1.3-.3.4-.5.9-.8,1.3-.4.6-.6,1.1-.7,1.6Z"/> <path fill="currentColor" d="M209.7,50.2c0,0,0-.2,0-.2,0,0,0,.2,0,.2Z"/> <path fill="currentColor" d="M271.8,54.3c-.6-.3-1.3-.6-2.1-.9,0-.2,0-.4.1-.5,0,.2,0,.3-.1.5.7.2,1.4.5,2.1.9Z"/> <path fill="currentColor" d="M260.6,32.7c-1.7-.7-3.4-.7-5,0,1.5-.8,3.2-.8,5,0Z"/> <path fill="currentColor" d="M156.9,0c.2,0,.3,0,.5,0-.2,0-.3,0-.5,0Z"/> <path fill="currentColor" d="M227.1,45.9c-.4,1.6-.6,3.3-.6,5.1,0,.4,0,.8,0,1.2,0-.4,0-.8,0-1.2,0-1.8.2-3.5.6-5.1Z"/> <path fill="currentColor" d="M241.2,33.1c-1.9-.9-3.6-.8-5.6.5,2-1.3,3.7-1.4,5.6-.5Z"/> <path fill="currentColor" d="M226.2,56.7c-.1.5-.3,1-.6,1.4-.7,1.3-1.4,2.6-1.9,3.9.5-1.3,1.1-2.6,1.9-3.9.3-.4.4-.9.6-1.4Z"/> <path fill="currentColor" d="M282.7,77.4c.2.1.3.3.5.4-.2-.1-.3-.3-.5-.4-1.3-.9-2.9-1.3-4.7-2,.3-.7.6-1.3.8-2-.3.7-.5,1.3-.8,2,1.7.7,3.4,1.1,4.7,2Z"/> <path fill="currentColor" d="M175.3,119.6c1-.4,2.1-.8,3.1-1.2-1,.4-2.1.8-3.1,1.2Z"/> <path fill="currentColor" d="M159.2,195.4c0,2,0,4.1,0,6.1,0-2,0-4.1,0-6.1Z"/> <path fill="currentColor" d="M177,130.3s0,0,0,0c0,0,0,0,0,0Z"/> <path fill="currentColor" d="M162,220.7c0-.8,0-1.6.1-2.4,0,.8,0,1.6-.1,2.4Z"/> <path fill="currentColor" d="M145.9,284.5s0,0,0,0c0,0,0,0,0,0Z"/> <path fill="currentColor" d="M203.4,151.3c0,1.6.1,3.1.2,4.7,0-1.6-.1-3.1-.2-4.7Z"/> <path fill="currentColor" d="M222.1,199.1c-.7-3.2-1.4-6.4-2.1-9.5.7,3.2,1.4,6.4,2.1,9.5Z"/> <path fill="currentColor" d="M203.8,136.7c-.3,1.2-.5,2.4-.6,3.6,0-1.2.3-2.3.6-3.6Z"/> <path fill="currentColor" d="M221.6,265.6c0,.2-.2.4-.2.7,0-.2.2-.4.2-.7Z"/> <path fill="currentColor" d="M147.2,176.5c-.6,1.6-1,3.2-1.4,4.8.4-1.6.8-3.2,1.4-4.8Z"/> <path fill="currentColor" d="M198.5,266.1c-.1-.2-.3-.3-.4-.5.1.2.2.3.4.5Z"/> <path fill="currentColor" d="M154.9.5c0,0,.2,0,.3-.1,0,0-.2,0-.3.1Z"/> <path fill="currentColor" d="M155.2.3c.1,0,.2,0,.4-.1-.1,0-.2,0-.4.1Z"/> <path fill="currentColor" d="M154.5.7c0,0,.2,0,.2-.1,0,0-.2,0-.2.1Z"/> <path fill="currentColor" d="M142.1,236.4c.2,1.3.6,2.5,1.1,3.7-.5-1.2-.9-2.4-1.1-3.7Z"/> <path fill="currentColor" d="M155.7.2c0,0,.2,0,.3,0,0,0-.2,0-.3,0Z"/> <path fill="currentColor" d="M156.1,0c0,0,.2,0,.3,0,0,0-.2,0-.3,0Z"/> <path fill="currentColor" d="M156.5,0c0,0,.2,0,.3,0,0,0-.2,0-.3,0Z"/> <path fill="currentColor" d="M124.6,195.6c0-.3,0-.5,0-.8,0,.3,0,.5,0,.8Z"/> <path fill="currentColor" d="M124.1,87.4c.7-.1,1.5-.3,2.2-.4-.7.1-1.5.3-2.2.4Z"/> <path fill="currentColor" d="M153.7,1.2c.1,0,.2-.1.3-.2-.1,0-.2.1-.3.2Z"/> <path fill="currentColor" d="M154.1.9c0,0,.2,0,.2-.1,0,0-.2,0-.2.1Z"/> <path fill="currentColor" d="M151.2,2.9c.6-.5,1.3-1,2-1.5-.7.5-1.4.9-2,1.5Z"/> <path fill="currentColor" d="M139,264.7c1.3-2.2,2.8-4.3,4.4-6.3.3-.3.5-.7.7-1.1-.2.4-.4.8-.7,1.1-1.6,2.1-3.1,4.1-4.4,6.3Z"/> <path fill="currentColor" d="M150.2,290.6c-.7-.6-1.4-1.3-1.9-2,.6.7,1.2,1.4,1.9,2,1.6,1.3,3.1,2.7,4.8,4.2l6.5,3.1-6.5-3.1c-1.7-1.5-3.2-2.9-4.8-4.2Z"/> <path fill="currentColor" d="M149.7,232.4c0,1.5,0,3,.3,4.5-.3-1.5-.3-3-.3-4.5Z"/> <path fill="currentColor" d="M148.4,261.7c.2,0,.3-.2.5-.3-.2.1-.3.2-.5.3-2.5.8-3.5,2.6-4,4.8.6-2.1,1.5-3.9,4-4.8Z"/> <path fill="currentColor" d="M145.3,283.1c0,.1,0,.2.1.3.1.3.2.5.3.8-.1-.3-.2-.5-.3-.8,0-.1,0-.2-.1-.3Z"/> <path fill="currentColor" d="M149.5,170.1c.2,1.8.4,3.5.4,5.2,0,6.1,0,12.2,0,18.3,0-6.1,0-12.2,0-18.3,0-1.7-.2-3.4-.4-5.2Z"/> <path fill="currentColor" d="M150.9,241c.3,1.8.4,3.7.4,5.6,0,3.6-.4,7.2-.9,10.8.4-3.6.8-7.2.9-10.8,0-1.8,0-3.7-.4-5.6Z"/> <path fill="currentColor" d="M130.9,282.1c.5-1,.9-2.1,1.3-3.1.2-.5.4-1,.6-1.4-.2.5-.4.9-.6,1.4-.4,1.1-.8,2.1-1.3,3.1Z"/> <path fill="currentColor" d="M167.6,124.2c0-2.3,0-4.7,0-7,0-.3,0-.7,0-1,0,.3,0,.7,0,1,.1,2.4.1,4.7,0,7Z"/> <path fill="currentColor" d="M147.9,171.5c.2.3.3.7.3,1,0-.3-.2-.7-.3-1-.2-.5-.3-.9-.2-1.3,0,.4,0,.8.2,1.3Z"/> <path fill="currentColor" d="M109.5,288.7c2.4,1.5,4.9,2.5,7.1,2.6,0,0,0,0,0,0,0,0,0,0,0,0-2.2,0-4.7-1-7.1-2.6Z"/> <path fill="currentColor" d="M143.8,199.1c0-1.2.1-2.3.2-3.5,0-1.1.2-2.1.3-3.2,0,1.1-.2,2.1-.3,3.2,0,1.2-.2,2.3-.2,3.5Z"/> <path fill="currentColor" d="M146.3,248.8c0,0,0-.1,0-.2-.5-1.6-1-3.2-1.5-4.8.5,1.6,1,3.2,1.5,4.8,0,0,0,.1,0,.2Z"/> <path fill="currentColor" d="M169.1,164c-.2-1-.7-1.9-1.2-2.8-.2-.3-.4-.6-.6-.8.2.3.4.5.6.8.5.8.9,1.8,1.2,2.8Z"/> <path fill="currentColor" d="M162.1,182.9c-.1-6.5-.9-12.9-1.3-19.4,0-1,0-1.8.1-2.5-.1.7-.2,1.6-.1,2.5.4,6.5,1.1,12.9,1.3,19.4.1,7.4.1,14.8.1,22.2,0-7.4,0-14.8-.1-22.2Z"/> <path fill="currentColor" d="M163.1,158.3c1.2-.2,2.1.2,2.9.7-.8-.6-1.7-.9-2.9-.7-.6,0-1.1.4-1.5.9.4-.5.9-.9,1.5-.9Z"/> <path fill="currentColor" d="M155.9,163.3c.6.7,1.1,1.4,1.5,2.1-.4-.7-.9-1.4-1.5-2.1,1.9-3.2,3.9-5.9,5.2-8.9,1.5-3.5,2.7-7,3.6-10.6-1,3.6-2.2,7.1-3.6,10.6-1.3,3-3.3,5.7-5.2,8.9Z"/> <path fill="currentColor" d="M160.9,225.9c-.2-.7-.3-1.3-.4-2,.1.7.3,1.3.4,2,0,0,0,0,0,0Z"/> <path fill="currentColor" d="M171,205.4c0,2.1,0,4.2,0,6.4,0,.1,0,.3,0,.4,0-.1,0-.3,0-.4,0-2.1,0-4.2,0-6.4,0-5.9,0-11.8-.2-17.7-.2-5.3-.6-10.5-.9-15.7.4,5.2.7,10.5.9,15.7.2,5.9.1,11.8.2,17.7Z"/> <path fill="currentColor" d="M199.3,270.1c-2.4-3.3-6.4-6.3-9.8-6.5-2,0-4-.1-6.1-.2,2,0,4,0,6.1.2,3.4.1,7.3,3.2,9.8,6.5Z"/> <path fill="currentColor" d="M177.5,263.3s0,0,0,0c0,0,0,0,0,0,0,0,0,0,0,0,0,0,0,0,0,0Z"/> <path fill="currentColor" d="M173.9,263.2s0,0,0,0c0-1.1,0-1.9,0-2.7,0,.8,0,1.7,0,2.7,0,0,0,0,0,0Z"/> <path fill="currentColor" d="M201.5,291c-.7,1.5-1.3,3.1-2.2,5l-8.5,2.3h0l8.5-2.3c.8-1.9,1.5-3.4,2.2-5,.7-1.7,1.3-3.6,0-5.1-.4-.5-.7-.9-.9-1.4.2.4.5.9.9,1.4,1.3,1.4.8,3.4,0,5.1Z"/> <path fill="currentColor" d="M173.8,250.1c0,1.9,0,3.9,0,5.8,0-1.9,0-3.9,0-5.8-.2-8.9-.4-17.8-.6-26.7,0-.3,0-.7,0-1,0,.3,0,.7,0,1,.2,8.9.4,17.8.6,26.7Z"/> <path fill="currentColor" d="M160.6,8.7c.3-.8.5-1.6.6-2.3,0-.2,0-.4,0-.7,0,.2,0,.4,0,.7,0,.8-.3,1.5-.6,2.3Z"/> <path fill="currentColor" d="M164.5,10.5c-.6-.1-1.3-.2-2-.2,0,0,0,0,0,0,0,0,0,0,0,0,.7,0,1.4,0,2,.2Z"/> <path fill="currentColor" d="M169.6,13.6c.7.8,1.4,1.7,2.1,2.6-.6-.9-1.3-1.8-2.1-2.6-1.3-1.5-3-2.6-5-3,2,.4,3.7,1.5,5,3Z"/> <path fill="currentColor" d="M216.8,14.6c-.1-.3-.3-.5-.5-.8-.4-.7-.9-1.3-1.3-1.9.5.6.9,1.3,1.3,1.9.2.3.3.5.5.8Z"/> <path fill="currentColor" d="M134,64c.2.5.3.9.5,1.4,0,0,0,0,0,0-.2-.5-.3-.9-.5-1.4Z"/> <path fill="currentColor" d="M132.7,36.4c-.9,4.1-1.4,8.2-1.5,12.4,0,2.1.1,4.1.4,6.1-.3-2-.5-4-.4-6.1,0-4.2.6-8.4,1.5-12.4Z"/> <path fill="currentColor" d="M177.4,34c0,1.6-.4,3.2-.8,4.7.5-1.5.8-3.1.8-4.7,0-1,0-2,0-2.9,0,1,0,1.9,0,2.9Z"/> <path fill="currentColor" d="M213.1,9.5c-.4-.4-.7-.9-1.1-1.3-.2-.2-.4-.4-.6-.6.2.2.4.4.6.6.4.4.7.8,1.1,1.3Z"/> <path fill="currentColor" d="M203.7,6.4c-4,1.2-7,3.7-9,7.3-1.2,2.2-2.3,4.4-3.3,6.7.9-2.2,2-4.5,3.3-6.7,2-3.6,5-6.1,9-7.3Z"/> <path fill="currentColor" d="M187.3,66.6c-1.1-.5-2.1-1-3.1-1.5,1,.5,2,1,3.1,1.5,0,0,0,0,0,0Z"/> <path fill="currentColor" d="M190.1,51c-3.1-8.9-2.9-17.4-.4-25.6-2.5,8.2-2.6,16.7.4,25.6.2.7.4,1.4.4,2.2,0-.7-.2-1.5-.4-2.2Z"/> <path fill="currentColor" d="M166.2,62c2.8.3,5.4.7,8,1,0,0,0,0,0,0,0,0,0,0,0,0-2.6-.3-5.2-.6-8-1,.2-.9.2-1.5.5-1.9.3-.7.7-1.3,1-2-.3.7-.7,1.3-1,2-.2.5-.2,1-.5,1.9Z"/> <path fill="currentColor" d="M124.6,97.2c.8.2,2.1-.4,3.2-.6-1.1.2-2.3.7-3.2.6Z"/> <path fill="currentColor" d="M127.9,96.6s0,0,0,0c0,.3,0,.6,0,1.1,0-.4,0-.8,0-1.1Z"/> <path fill="currentColor" d="M125.1,114.2c-1.3,9.2-1.9,18.5-1.5,27.8.2,5.4.7,10.9,2.2,16.1-1.5-5.2-2-10.7-2.2-16.1-.4-9.3.2-18.6,1.5-27.8Z"/> <path fill="currentColor" d="M128.1,167.4c0,1-.2,2-.4,3-1.6,6.8-2.8,13.6-3,20.5.2-6.9,1.4-13.7,3-20.5.2-1,.4-2,.4-3Z"/> <path fill="currentColor" d="M131.4,68.1c.6-.7,1.3-1.3,2.1-1.9-.8.6-1.5,1.2-2.1,1.9-1.6,1.8-1.3,3.2.7,4.7.7.5,1.5,1,2.3,1.5-.8-.5-1.5-1-2.3-1.5-2-1.4-2.3-2.9-.7-4.7Z"/> <path fill="currentColor" d="M122.4,217.5c-.4,4-.7,7.9-1.2,11.9,0,.5-.1.9-.2,1.4,0-.5.2-.9.2-1.4.5-4,.9-7.9,1.2-11.9Z"/> <path fill="currentColor" d="M118.5,236.4c-.3.2-.5.5-.8.6-2.1,1.4-4.1,2.8-6.3,4,2.1-1.2,4.2-2.6,6.3-4,.3-.2.5-.4.8-.6Z"/> <path fill="currentColor" d="M132.4,84.3c-.5.7-1.1,1.2-1.8,1.7.7-.4,1.3-1,1.8-1.7Z"/> <path fill="currentColor" d="M136.7,75.7c0,.2-.2.3-.3.5,0-.2.2-.3.3-.5,0,0,0,0,0,0Z"/> <path fill="currentColor" d="M98.3,257.9c-.2.8-.4,1.5-.6,2.3-.3,1.3-.4,2.7-.4,4.1,0-1.4.1-2.7.4-4.1.2-.8.4-1.5.6-2.3Z"/> <path fill="currentColor" d="M128.6,86.6c0,0,0,0-.2,0-.2,0-.5,0-.7.1.2,0,.5,0,.7-.1,0,0,.1,0,.2,0Z"/> <path fill="currentColor" d="M202.9,225.8s0,0,0,0c0-.3,0-.5-.1-.7,0,.2,0,.5.1.7,0,0,0,0,.1,0Z"/> <path fill="currentColor" d="M204.9,17.3c0,0,0-.1,0-.2,0,0,0,.1,0,.2,0,.2.4.5.8.6-.3-.1-.7-.4-.8-.6Z"/> <path fill="currentColor" d="M205.9,15.5c-.2.1-.4.3-.6.4,0,0,0,0-.1.1,0,0,0,0,.1-.1.2-.1.4-.3.6-.4Z"/> <path fill="currentColor" d="M210.5,27.1s0,0,0,0c-.3,1.3-.6,2.6-1,4,.3-1.3.6-2.6,1-4Z"/> <path fill="currentColor" d="M198.6,44.4s0,0,0,0c0,0,0,0,0,0Z"/> <path fill="currentColor" d="M201.1,22.7s0,0,0,0c-2,3.3-2.6,4.8-1.5,6.5-1.1-1.8-.5-3.2,1.5-6.5Z"/> <path fill="currentColor" d="M209.1,15.1c.3.8.6,1.4.8,2-.2-.6-.5-1.3-.8-2Z"/> <path fill="currentColor" d="M240.6,217.5c-.3-.9-.6-1.8-1-2.7-.4-1-.8-1.7-1.3-2.3.5.6.9,1.3,1.3,2.3.4.9.7,1.8,1,2.7Z"/> <path fill="currentColor" d="M238.2,230.3c0,.3.2.5.3.8-.1-.3-.2-.5-.3-.8-1-4-1.9-8-2.9-12-.6-2.3-1.2-4.5-1.8-7,.6-.1,1.2-.2,1.7-.2-.5,0-1.1,0-1.7.2.7,2.5,1.3,4.7,1.8,7,1,4,1.9,8,2.9,12Z"/> <path fill="currentColor" d="M135.5,161.6c-.1-.2-.2-.4-.3-.7.1.2.2.5.3.7Z"/> <path fill="currentColor" d="M204.1,41.9c-.1.7-.3,1.3-.6,1.7.3-.4.5-1,.6-1.7-3.2-.4-5.1-2.4-7.2-4.7,2.1,2.3,4,4.3,7.2,4.7Z"/> <path fill="currentColor" d="M208.7,14.1c-.2.1-.4.2-.6.3.2,0,.4-.2.6-.3,0,0,0,0,0,0Z"/> <path fill="currentColor" d="M195.6,123.1s0,0,0,0c0,0,0,0-.1,0,0,0,0,0,0,0Z"/> <path fill="currentColor" d="M196.6,121.2c-.2,0-.4.1-.6.2.2,0,.4-.1.6-.2h0Z"/> <path fill="currentColor" d="M195.1,122.9c0,0-.2,0-.2-.2,0,0,.2.1.2.2Z"/> <path fill="currentColor" d="M196.8,121.8s0,0,0,0c0,0,0,0,0,0Z"/> <path fill="currentColor" d="M195.2,121.6c.2,0,.4-.1.6-.2-.2,0-.4.1-.6.2-.3.1-.4.4-.8.7.1.1.2.3.4.4-.1-.1-.2-.2-.4-.4.3-.3.5-.6.8-.7Z"/> <polygon fill="currentColor" points="195.7 36 195.7 36 195.7 44.5 195.7 44.5 195.7 36"/> <path fill="currentColor" d="M195.4,123c0,0-.1,0-.2,0,0,0,.1,0,.2,0Z"/> <path fill="currentColor" d="M215.6,255.9c-.4,2.1-.8,4.2-1.3,6.4.4-2.2.8-4.4,1.3-6.4Z"/> <path fill="currentColor" d="M239,232.4c.2.4.4.8.6,1.3,1.5-1.6,2.4-3.1,2.7-4.7-.3,1.6-1.2,3.1-2.7,4.7-.2-.5-.4-.9-.6-1.3Z"/> <path fill="currentColor" d="M196.3,122.7s0,0-.1.1c0,0,0,0,.1-.1Z"/> <path fill="currentColor" d="M196,122.9s0,0-.1,0c0,0,0,0,.1,0Z"/> <path fill="currentColor" d="M196.5,122.4s0,0,0,.1c0,0,0,0,0-.1Z"/> <path fill="currentColor" d="M160.2,97.2c0-.6,0-1.2-.1-1.8,0,.6.1,1.2.1,1.8,0,4.5,0,8.9,0,12.3.3,4.3.3,8.5.1,12.6.2-4.1.2-8.3-.1-12.6,0-3.4,0-7.8,0-12.3Z"/> <path fill="currentColor" d="M179.7,87c-.1,0-.2,0-.4,0,.1,0,.2,0,.4,0Z"/> <path fill="currentColor" d="M182.1,86.5c-.1,0-.2,0-.4,0,.1,0,.2,0,.4,0Z"/> <path fill="currentColor" d="M133.9,157.2c0,.2.1.4.2.6,0,.4.2.7.3,1-.1-.3-.2-.7-.3-1,0-.2-.1-.4-.2-.6Z"/> <path fill="currentColor" d="M180.9,86.8c-.1,0-.3,0-.4,0,.1,0,.3,0,.4,0Z"/> <path fill="currentColor" d="M166.8,94.2c.2,0,.4,0,.6,0-.2,0-.4,0-.6,0,0,1.6.2,3.1.3,4.7,1.9-.4,3.6-.9,5.4-1.7-1.7.8-3.5,1.4-5.4,1.7,0-1.7-.2-3.1-.3-4.7Z"/> <path fill="currentColor" d="M135.1,160.9c-.1-.2-.2-.5-.3-.8.1.3.2.5.3.8Z"/> <path fill="currentColor" d="M136.3,98.7c2.4-7.5,2.4-7.5,10.1-9.1.6-.1,1.2-.2,1.9-.3-.6,0-1.2.2-1.9.3-7.7,1.6-7.7,1.6-10.1,9.1-.3.8-.6,1.7-.8,2.6-2.3,10-3.8,20.1-4.1,30.3.3-10.2,1.8-20.3,4.1-30.3.2-.9.5-1.7.8-2.5Z"/> <path fill="currentColor" d="M134.7,159.9c-.1-.3-.2-.6-.3-.9,0,.3.2.6.3.9Z"/> <path fill="currentColor" d="M159.9,80.4c1.9,2.5,4.1,4.1,7.3,4.7.4,0,.8.2,1.3.3-.4,0-.8-.2-1.3-.3-3.2-.6-5.5-2.2-7.3-4.7Z"/> <path fill="currentColor" d="M159,91.3c-.2-.2-.5-.4-.9-.6-2.3-1.3-4.7-1.7-7.2-1.7,2.4,0,4.8.4,7.2,1.7.3.2.6.4.9.6Z"/> <path fill="currentColor" d="M170.5,85.9c-.1,0-.2,0-.4,0,.1,0,.2,0,.4,0Z"/> <path fill="currentColor" d="M169.8,85.7c-.3,0-.6-.2-1-.2.3,0,.6.2,1,.2Z"/> <path fill="currentColor" d="M178.1,87.1s0,0,0,0c0,0,0,0,0,0,0,0,0,0,0,0Z"/> <path fill="currentColor" d="M163.8,70.6c.1,0,.3,0,.4,0-.1,0-.3,0-.4,0Z"/> <path fill="currentColor" d="M171.4,86.1c0,0-.1,0-.2,0,0,0,.1,0,.2,0Z"/> <path fill="currentColor" d="M153.1,72.8c1.6-1.1,4.6-1.8,8.2-2.1-3.6.3-6.6,1-8.2,2.1.6.7,1.3,1.3,1.9,1.9-.6-.6-1.3-1.3-1.9-1.9Z"/> <path fill="currentColor" d="M175.6,86.9c-.1,0-.2,0-.3,0,.1,0,.2,0,.3,0Z"/> <path fill="currentColor" d="M176.9,87.1c-.1,0-.2,0-.4,0,.1,0,.2,0,.4,0Z"/> <path fill="currentColor" d="M172.8,86.4c-.1,0-.2,0-.4,0,.1,0,.2,0,.4,0Z"/> <path fill="currentColor" d="M174,86.7c0,0-.2,0-.2,0,0,0,.2,0,.2,0Z"/> <path fill="currentColor" d="M210.5,18.6h0c-1.7-.2-3-.4-4.4-.6,1.3.2,2.7.4,4.4.6Z"/> <path fill="currentColor" d="M250.4,54.2c0-.4.2-.8.5-1.2-.2.4-.4.8-.5,1.2-.3,2.1-1.6,3.3-3.3,4.6,0,0,0,0,0,0,1.7-1.3,3.1-2.5,3.3-4.6Z"/> <path fill="currentColor" d="M268.4,85.5c-2.7-.2-4.7-1.9-6.6-3.6-.6-.5-1-1.2-1.1-2,.2.8.6,1.5,1.1,2,2,1.8,4,3.5,6.6,3.6Z"/> <path fill="currentColor" d="M233.7,73.5c1.3,2.4,0,4.7-3,5.1-.4,0-.7.1-1,.2.3,0,.7-.1,1-.2,2.9-.4,4.2-2.7,3-5.1Z"/> <path fill="currentColor" d="M235.3,56.6c0,1.4,0,2.7-.2,4.1-.2,1.4-.5,2.8-1,4.1.4-1.3.7-2.8,1-4.1.2-1.3.3-2.7.2-4.1Z"/> <path fill="currentColor" d="M232.5,68.8c-.4,1.3-.2,2.3.5,3.5-.7-1.2-.9-2.3-.5-3.5Z"/> <path fill="currentColor" d="M240,43.8c.2,0,.4.2.6.3-.2,0-.4-.2-.6-.3-.8.7-1.9,1.4-2.5,2.3-.6.9-1.1,1.9-1.5,2.9.4-1,.8-2,1.5-2.9.6-.9,1.6-1.5,2.5-2.3Z"/> <path fill="currentColor" d="M260.9,76.2c.3-.7.8-1.3,1.3-1.8-.6.4-1,1.1-1.3,1.8Z"/> <path fill="currentColor" d="M261.2,65.3c2.7-.8,5.5-1.1,8.4-1.3-2.9.2-5.7.5-8.4,1.3-1.4.4-2.5.3-3.5-.5,1,.8,2.1.9,3.5.5Z"/> <path fill="currentColor" d="M254.5,61.5c0,0-.1-.2-.2-.3,0,0,.1.2.2.3,0,0,0,0,0,0Z"/> <path fill="currentColor" d="M254.1,60.8c-.7-1.7-.3-3.9.9-5.2-1.2,1.3-1.7,3.5-.9,5.2Z"/> <path fill="currentColor" d="M214.1,263.6h0c-.1,0-.2,0-.3,0,.1,0,.2,0,.3,0Z"/> <path fill="currentColor" d="M259.8,43.1c0,0-.2.1-.2.2-1.8,1.9-3.5,3.8-5.2,5.7,1.7-1.9,3.4-3.8,5.2-5.7,0,0,.1-.1.2-.2Z"/> <path fill="currentColor" d="M276.2,85.3c-.7,1.1-1.5,1.9-2.3,2.7.8-.8,1.6-1.6,2.3-2.7,0,0-.1,0-.2,0,0,0,.1,0,.2,0Z"/> <path fill="currentColor" d="M263.3,91.3c.4,0,.8,0,1.1,0-.4,0-.8,0-1.1,0h0Z"/> <path fill="currentColor" d="M219.8,85.4c-.1.5-.1,1.1,0,1.8,0,.7,0,1.5.1,2.2,0-.7,0-1.5-.1-2.2,0-.7,0-1.2,0-1.8Z"/> <path fill="currentColor" d="M281.2,98.9c-.9-1.3-.6-2.4.2-3.7,1.7-2.6,3.2-5.4,4.9-8,1.5-2.3,1.3-4.4-.4-6.4-.5-.6-1-1.2-1.5-1.8-.4-.4-.8-.8-1.2-1.2-.2-.1-.3-.3-.5-.4-1.3-.9-2.9-1.3-4.7-2,.3-.7.6-1.3.8-2,.7-1.7,1.3-3.4,1.5-5.1.2-1.9,0-3.8-1.1-5.8-.1-.3-.3-.5-.4-.8-1.8-3.2-3.9-5.8-7-7.5-.6-.3-1.3-.6-2.1-.9,0-.2,0-.4.1-.5.2-.7.4-1.3.5-1.9,2.3-8.2-2.4-15.1-9.3-18.1-.2,0-.3-.1-.5-.2-1.8-.7-3.4-.7-5,0-.5.3-1.1.7-1.6,1.2-1.5,1.5-2.8,3.1-4.3,4.7,0,0-.2.2-.2.2-.2.2-.5.4-.7.6-.2.1-.3.3-.4.4h0c-.8-.8-1.4-1.6-2.1-2.3-.5-.6-1.1-1.2-1.6-1.7-1.3-1.3-2.4-2.1-3.5-2.7-1.9-.9-3.6-.8-5.6.5-.7.5-1.5,1.1-2.4,1.8-.7.6-1.3,1.2-1.8,1.9-1.9,2.7-3.4,5.5-4.2,8.5-.4,1.6-.6,3.3-.6,5.1,0,.4,0,.8,0,1.2,0,1.5,0,3.1-.4,4.5-.1.5-.3,1-.6,1.4-.7,1.3-1.4,2.6-1.9,3.9-.7,1.7-1.2,3.5-1.5,5.4,0,.5-.2,1-.4,1.4-.7,2.1-2.3,3.3-4.8,4.1,0-.3,0-.5,0-.7-.1-1-.2-1.9-.3-2.8,0-.2,0-.4,0-.6,0-.2,0-.4,0-.6-.1-1.5-.2-3-.7-4.3-1.3-3.2-2.7-6.3-4.2-9.4-.4-.7-.7-1.4-1.1-2.1-.3-.6-.6-1.1-.7-1.6,0-.2,0-.3-.1-.5,0,0,0-.2,0-.2,0,0,0,0,0-.1,0-.1,0-.3,0-.4,0,0,0-.1,0-.2.1-.5.3-1,.7-1.6.3-.4.5-.8.8-1.3,1.2-1.8,2.2-3.8,3.1-5.7.2-.5.5-1,.7-1.5.3-.7.6-1.5.9-2.2,1.9-5.2,2.1-10.6,2.1-16.1,0-2.2-.3-4.3-1.3-6.2-.1-.3-.3-.5-.5-.8-.4-.7-.9-1.3-1.3-1.9-.6-.8-1.1-1.5-1.7-2.3,0,0,0,0,0,0,0,0,0,0,0,0-.4-.4-.7-.9-1.1-1.3-.2-.2-.4-.4-.6-.6-1.6-1.5-3.6-2.1-6.1-1.6-.6.1-1.2.3-1.8.4-4,1.2-7,3.7-9,7.3-1.2,2.2-2.3,4.4-3.3,6.7-.6,1.5-1.1,2.9-1.6,4.4,0,0,0,0,0,0,0,.2,0,.3-.1.5-2.5,8.2-2.6,16.7.4,25.6.2.7.4,1.4.4,2.2,0,.1,0,.3,0,.4-.3,4.6-1,9-3.2,13,0,0,0,0,0,0,0,0,0,0,0,0-1.1-.5-2.1-1-3.1-1.5-1-.5-2-.9-3-1.2-2.2-.6-4.6-.6-6.8-.9,0,0,0,0,0,0-2.6-.3-5.2-.6-8-1,.2-.9.2-1.5.5-1.9.3-.7.7-1.3,1-2,2.1-4,4.2-7.9,6-12,1-2.4,2.1-4.8,2.9-7.3.5-1.5.8-3.1.8-4.7,0-1,0-2,0-2.9-.3-5.6-2.5-10.5-5.7-14.9-.6-.9-1.3-1.8-2.1-2.6-1.3-1.5-3-2.6-5-3,0,0,0,0,0,0-.6-.1-1.3-.2-2-.2,0,0,0,0,0,0-.7,0-1.4-.2-2.3-.3.1-.5.3-.9.4-1.4.3-.8.5-1.6.6-2.3,0-.2,0-.4,0-.7,0-1.1-.2-2.2-.7-3.2,0-.1-.2-.3-.3-.4,0,0-.1-.2-.2-.3,0,0,0,0-.1-.2-.3-.4-.6-.7-1-1,0,0,0,0,0,0-.2-.1-.3-.2-.5-.3,0,0,0,0-.1,0-.2,0-.3-.1-.5-.2,0,0,0,0,0,0-.1,0-.3,0-.4-.1,0,0,0,0,0,0-.2,0-.3,0-.5,0,0,0,0,0-.1,0,0,0-.2,0-.3,0,0,0,0,0-.1,0,0,0-.2,0-.3,0,0,0,0,0-.1,0,0,0-.2,0-.3,0,0,0,0,0,0,0-.1,0-.2,0-.4.1,0,0,0,0,0,0,0,0-.2,0-.3.1,0,0,0,0-.1,0,0,0-.2,0-.2.1,0,0,0,0-.1,0,0,0-.2,0-.2.1,0,0,0,0-.1,0-.1,0-.2.1-.3.2,0,0,0,0,0,0-.1,0-.3.2-.4.3-.7.5-1.4.9-2,1.5-.4.4-.9.7-1.3,1.1-7,7.1-12.1,15.3-15.2,24.8-.8,2.5-1.5,5-2.1,7.6-.9,4.1-1.4,8.2-1.5,12.4,0,2.1.1,4.1.4,6.1.5,3.1,1.3,6.1,2.3,9.1.2.5.3.9.5,1.4,0,0,0,0,0,0,0,0,0,0,0,0-.3.3-.6.5-.9.8-.8.6-1.5,1.2-2.1,1.9-1.6,1.8-1.3,3.2.7,4.7.7.5,1.5,1,2.3,1.5.8.5,1.6,1,2.3,1.5h0s0,0,0,0c0,.2-.2.3-.3.5-.6,1-1.1,2-1.6,3-.6,1.2-1.1,2.4-1.6,3.7-.2.5-.5,1-.8,1.4-.5.7-1.1,1.2-1.8,1.7-.6.3-1.2.6-2,.7,0,0,0,0-.2,0-.2,0-.5,0-.7.1-.5,0-1,.2-1.5.3-.7.1-1.5.3-2.2.4-.3,0-.6.1-.9.2-2.9.5-5.2,3.2-4,5.3,1.1,1.8,3.1,3.1,5,4.2.1,0,.2,0,.3.1.8.2,2.1-.4,3.2-.6,0,0,.1,0,.2,0h0s0,0,0,0c0,.3,0,.6,0,1.1,0,.3,0,.6,0,.9-.6,3.4-1.4,6.7-2,10.1-.3,1.8-.6,3.7-.8,5.5-1.3,9.2-1.9,18.5-1.5,27.8.2,5.4.7,10.9,2.2,16.1.4,1.4.9,2.8,1.4,4.2.7,1.7,1,3.4.9,5.1,0,1-.2,2-.4,3-1.6,6.8-2.8,13.6-3,20.5,0,1,0,2,0,3,0,.3,0,.6,0,.9,0,.3,0,.5,0,.8,0,.3,0,.7,0,1-.6,6.2-1.3,12.4-1.9,18.6,0,.8-.2,1.6-.2,2.4-.4,4-.7,7.9-1.2,11.9,0,.5-.1.9-.2,1.4-.3,1.4-.8,2.8-1.3,4.1-.2.5-.6,1-1.1,1.5-.3.2-.5.5-.8.6-2.1,1.4-4.1,2.8-6.3,4-.7.4-1.3.7-2,1-3.7,1.8-6.3,4.6-7.9,8.2-1.1,2.5-2.3,5-3.2,7.6-.2.8-.4,1.5-.6,2.3-.3,1.3-.4,2.7-.4,4.1,0,3.3.5,6.6,1.1,9.9.9,5,5.8,11.1,11.1,14.5,2.4,1.5,4.9,2.5,7.1,2.6,0,0,0,0,0,0,4.7,0,8.3-1.1,11.2-4.5,1.3-1.4,2.2-3,3-4.7.5-1,.9-2.1,1.3-3.1.2-.5.4-1,.6-1.4,1.4-3.3,3.3-6.4,4.7-9.7.5-1.1,1-2.1,1.6-3.2,1.3-2.2,2.8-4.3,4.4-6.3.3-.3.5-.7.7-1.1,1.1-2.1,1.5-4.9,2.3-7.3.1-.3,0-.7-.1-1.1,0,0,0-.1,0-.2-.5-1.6-1-3.2-1.5-4.8-.4-1.1-.8-2.3-1.3-3.4,0-.1,0-.2-.1-.3-.5-1.2-.9-2.4-1.1-3.7,0-.7-.1-1.4-.1-2.1.2-5.7.6-11.3.8-17,.3-6.1.5-12.2.9-18.2,0-1.2.1-2.3.2-3.5,0-1.1.2-2.1.3-3.2.3-3.7.7-7.4,1.5-11.1.4-1.6.8-3.2,1.4-4.8.2-.4.3-.8.5-1.2.4-.9.7-1.9.5-2.8,0-.3-.2-.7-.3-1-.2-.5-.3-.9-.2-1.3.1-.5.7-.9,1.8-1,0,.3,0,.6,0,.9.2,1.8.4,3.5.4,5.2,0,6.1,0,12.2,0,18.3,0,11.3,0,22.6-.1,33.9,0,1.7-.1,3.3-.2,5,0,1.5,0,3,.3,4.5,0,.5.2.9.3,1.4.2.9.4,1.8.6,2.7.3,1.8.4,3.7.4,5.6,0,3.6-.4,7.2-.9,10.8,0,.6-.1,1.2-.2,1.8,0,.8-.7,1.7-1.3,2.3-.2.1-.3.2-.5.3-2.5.8-3.5,2.6-4,4.8,0,.3-.2.7-.2,1.1-.3,1.5-1.1,3-1.3,4.5-.2,1.7-.2,3.5.2,5.2.5,2,1.5,4,2.3,5.9,0,.1,0,.2.1.3.1.3.2.5.3.8,0,0,0,.1,0,.2,0,0,0,0,0,0,.7,1.5,1.4,2.9,2.4,4.1.6.7,1.2,1.4,1.9,2,1.6,1.3,3.1,2.7,4.8,4.2l6.5,3.1,11.8,2.2h15.9l10.2-4.1c.8-1.9,1.5-3.4,2.2-5,.7-1.7,1.3-3.6,0-5.1-.4-.5-.7-.9-.9-1.4-.6-1.4-.2-2.7.3-4.2.7-1.9,1.1-3.8.7-5.9-.3-1.4-1.1-2.9-2.2-4.4-2.4-3.3-6.4-6.3-9.8-6.5-2,0-4-.1-6.1-.2-2,0-3.9,0-5.9,0,0,0,0,0,0,0,0,0,0,0,0,0-1.1,0-2.3,0-3.6-.1,0,0,0,0,0,0,0-1.1,0-1.9,0-2.7,0-.3,0-.7,0-1,0-1.2,0-2.3,0-3.5,0-1.9,0-3.9,0-5.8-.2-8.9-.4-17.8-.6-26.7,0-.3,0-.7,0-1,0-3,0-6-1.7-8.7-.2-.4-.3-1-.4-1.5,0-.1,0-.3,0-.4,0-2.1,0-4.2,0-6.4,0-5.9,0-11.8-.2-17.7-.2-5.3-.6-10.5-.9-15.7-.2-2.2-.3-4.4-.5-6.6,0-.4-.1-.8-.2-1.2-.2-1-.7-1.9-1.2-2.8-.2-.3-.4-.6-.6-.8-.4-.5-.9-1-1.4-1.4-.8-.6-1.7-.9-2.9-.7-.6,0-1.1.4-1.5.9-.3.5-.5,1.1-.7,1.8-.1.7-.2,1.6-.1,2.5.4,6.5,1.1,12.9,1.3,19.4.1,7.4.1,14.8.1,22.2,0,4,0,8,0,11.9,0,.4,0,.8,0,1.2,0,.8,0,1.6-.1,2.4,0,1.1-.2,2.3-.3,3.4,0,.6-.5,1.2-.8,1.8,0,0,0,0,0,0,0,0,0,0,0,0-.2-.7-.3-1.3-.4-2-.6-3.1-.9-6.1-1-9.1,0-4.4-.1-8.9-.2-13.3,0-2,0-4.1,0-6.1,0-5.1-.1-10.2-.4-15.3-.2-5,1-10.4-1.5-14.7-.4-.7-.9-1.4-1.5-2.1,1.9-3.2,3.9-5.9,5.2-8.9,1.5-3.5,2.7-7,3.6-10.6,1.7-6.4,2.7-12.9,2.9-19.6,0-2.3,0-4.7,0-7,0-.3,0-.7,0-1,0-1.1,0-2.2,0-3.2,0-1.2,0-2.4.1-3.5,2.7-.8,4.8-1.3,6.9-2.1,1.4-.5,2.7-1.2,4-1.8.8-.4,1.6-.7,2.4-1.1.7-.3,1.6-.4,2.5-.6h0s0,0,0,0c.3,2.8.5,5.4.8,7.9,0,.7.1,1.4.2,2,0,.2,0,.4,0,.5,0,1-.6,1.6-1.4,2.1s-.3.1-.4.2c-1.4.6-2.8,1.1-4.2,1.7-1,.4-2.1.8-3.1,1.2-.7.3-1.3.5-2,.7-2.3.8-3.4,2.5-2.8,4.9.8,3.1,3.5,5.1,6.4,5.2,0,0,0,0,0,0,0,0,0,0,0,0,1,0,2-.2,3-.7,2.4-1.1,4.8-2.3,6.9-3.3,0,0,0,0,0,0t0,0c3.2,2,6.2,3.8,9.3,5.7,0,.6,0,1.3-.1,1.9-1.3,4.3-.9,8.8-.7,13.2.5-.2.9-.4,1.4-.7-.5,1.1-.9,2-1.3,2.7.2,8,.4,16.1.2,24.1-.1,8.4-.9,16.7-1,25.1,0,2.1,0,4.3,0,6.5,0,3.7,0,7.4,0,11.1,0,4.2,0,8.4,0,12.5,0,.2,0,.5,0,.7,0,2-.4,3.9-.6,5.9,0,.7-.2,1.4-.3,2-.3,1.7-.5,3.4.2,5.1,0,.1.1.3.2.4.2.5.2,1,.2,1.6,0,.5-.1.9-.1,1.4,0,2.5,0,4.9-.3,7.4-.2,1.9.1,3.7.6,5.4.7,2.1,1.7,4,2.8,5.9.2.3.4.6.5.8,0,.1.1.2.2.3.1.2.2.3.4.5,0,0,.1.1.2.2,1.2,1.5,2.8,2.6,4.7,3.3,3.2,1,6.3,2.1,9.6,2.9,1.4.4,2.7.3,3.8-.2,1.2-.5,2.2-1.6,3.2-3,.6-.9,1.1-1.9,1.5-2.9,0-.2.2-.4.2-.7.5-1.3.8-2.7,1-4.1.1-.6.2-1.2.3-1.7.5-2.8,1-5.6,1.1-8.4,0-1.1,0-2.1,0-3.2-.5-4.9-2.2-9.6-4.8-13.8-3.4-5.4-7.9-9.5-15.1-8.5,0,0,0,0,0,0-.2,0-.5,0-.7,0-.2,0-.3,0-.5-.1,0,0,0,0-.1,0,0-.3,0-.5-.1-.7,0-.4-.1-.9-.1-1.3,0-3.3,0-6.6,0-9.9,0-6,0-11.9,0-17.9,0-3,.2-6,.4-9,.2-5.4.6-10.9.8-16.3,0-2.2.2-4.5.2-6.7,0-2.6,0-5.2-.1-7.9,0-1.6-.1-3.1-.2-4.7-.1-2.7-.2-5.5-.3-8.2,0-.9,0-1.9,0-2.8,0-1.2.3-2.3.6-3.6.2-1,.5-2,.9-3.1,0,0,0,0,0,0,0,0,0,0,0,0,.2.7.4,1.3.6,1.9.5,1.8,1,3.4,1.5,4.9,1.5,4.3,3.5,8.5,4.7,12.9,2.2,8.5,4.1,17.1,6,25.6.8,3.5,1.6,7.1,2.4,10.6.7,3.2,1.4,6.4,2.1,9.5.4,1.9.8,3.7,1.2,5.6,0,.3.1.6.1.9,0,.4,0,.9,0,1.3,0,.8-.1,1.6-.2,2.3-.2,3-.5,6-.5,9,0,2.1.6,2.4,2.7,2.3,0,0,0,0,0,0,0,0,0,0,0,0,.5,0,1-.2,1.8-.3,0,0,0,0,0,0,0,0,0,0,0,0,.3,1,.6,1.8.9,2.6,1.1,3.9,2.3,7.8,3.3,11.8.2.6.3,1.2.5,1.7,0,.3.2.6.3.9.6,1.6,1.6,2.7,2.9,3.6.9.6,1.9,1.1,3,1.6,2.8,1.1,5.3.7,7.2-1.3.3-.3.5-.6.8-1,.5-.7,1-1.5,1.5-2.2,2.6-4.1,4.4-8.4,2.7-13.6-.1-.4-.2-.7-.2-1.1,0-.3,0-.6,0-.9,0-5.7-2-10.6-5.5-15.1-.4-.6-.9-1.1-1.4-1.6-1.1-1.1-2.3-1.9-3.7-2.5-1.6-.7-3.3-1.1-5.2-1.2-1.1,0-2.2-.1-3.4-.2-.2-1-.5-2-.7-2.9-.1-.5-.3-1.1-.4-1.6,0-.4-.2-.8-.3-1.2-.3-1.1-.5-2.2-.8-3.3-.9-3.9-1.9-7.8-2.8-11.7-.9-3.9-1.8-7.8-2.4-11.7-.2-1-.4-2-.6-3.1-1.3-6.8-3.4-13.3-5.7-19.8-.3-.8-.6-1.7-.9-2.5-.2-.5-.4-1-.5-1.5-1.1-3.1-2.1-6.2-2.9-9.3-.2-.9-.4-1.8-.6-2.7-.3-1.7-.6-3.5-.9-5.3,2.2-3,4.5-6.3,5.5-10.3.2-1,.9-1.6,1.7-2,.2-.1.5-.3.8-.4,5.1-2.1,10.3-4.2,15.3-6.5,1-.5,2-.9,3.1-1.4,1.7-.8,3-1,4.4-.4.4.2.9.5,1.4.9,1.2,1.1,2.7,2,4.1,2.9,5.4,3.8,11,6.5,17.8,6.7,0,0,0,0,0,0,3.6,0,7-.4,10.1-2.3.8-.5,1.5-1.1,2.2-1.7,1.4-1.4,2.5-3,3.6-4.7.4-.7.7-1.4.9-2.1.5-1.7.3-3.4-.8-5.1ZM138.7,48.8c.3-3.3.7-6.6,1.6-9.9.5-1.9,1.2-3.8,2-5.7,1.6-.6,2.9-.7,4.1,0,.5.3,1,.7,1.5,1.3.2.3.5.5.7.7.6.5,1.3.9,2,1.3.3.1.5.3.8.4.1,0,.2.1.4.2,0,0,0,0,.1,0,0,0,.2,0,.2,0,0,0,0,0,.1,0,0,0,.1,0,.2,0,0,0,0,0,.1,0,0,0,.1,0,.2,0,0,0,0,0,0,0,.1,0,.2,0,.3,0,0,0,0,0,0,0,.1,0,.2,0,.4-.1,0,0,0,0,0,0,0,0,.2-.1.3-.2,0,0,0,0,0,0,0,0,.2-.2.3-.3,0,0,0,0,0,0,0,0,.1-.2.2-.3,0,0,0,0,0,0,0-.1.1-.3.2-.4,0,0,0,0,0,0,0-.1,0-.3,0-.4,0,0,0,0,0-.1,0-.2,0-.3,0-.5,0-2.8-1.2-5.1-3.2-6.9.3-.7.6-1.5,1-2.1,1.1-2,2.7-3.6,4.5-4.7.3-.2.6-.3.9-.5,1.6-.8,3.3-1.1,5.1-1.1.7,0,1.4.1,2.2.3,1.1.3,2.3,1.4,2.9,2.4.2.4.4.8.6,1.2,1.9,3.6,2.2,7.4.8,11.3-.7,1.9-1.4,3.7-2.2,5.7-.5,1.2-1,2.4-1.5,3.7-1.2-1.5-2.3-1.9-3.5-1.7-.5,0-1.1.3-1.7.6-1.7.9-3.7,1.4-5.6,2-2.3.7-4.4.2-6.1-1.7-.3-.3-.6-.6-.9-.9-.4-.3-.7-.7-1.1-1-.1-.1-.3-.3-.4-.4-.8-1-1.9-1.6-2.9-1.5-.4,0-.8.2-1.1.5-.2.2-.4.4-.6.7-.2.4-.4.8-.6,1.3-.2.7-.4,1.5-.5,2.2,0,.4,0,.9.3,1.3,0,0,0,0,0,0,0,0,0,0,0,0,.2.5.5.9.8,1.3,2.4,3.2,5.3,5.9,8.9,7.3.6.2,1.2.4,1.9.6,1.6.4,3.4.5,5.4.9,0,0,0,0,0,0,0,0,0,0,0,0-1.4,1.5-2.7,2.8-4.2,4.1-1.6,1.4-3.3,2.6-5.2,3.4-1.3.6-2.8,1.1-4.3,1.4-.5,0-.9.1-1.2.2-.3,0-.7,0-.9,0,0,0,0,0-.1,0-.2,0-.4-.1-.5-.3-.1,0-.2-.2-.3-.3,0,0,0,0,0,0,0,0,0,0,0,0-.4-.4-.7-1.1-1.1-2-.5-1.3-.8-2.6-1.1-3.9-.7-3-.9-6.2-.6-9.3ZM146.3,80.6c.5-.6.9-.9,1.3-1.1.7-.4,1.3-.3,1.9-.2.3,0,.5.2.8.2,0,0,0,.2,0,.3,0,.2,0,.4,0,.6,0,0,0,0,0,0-.7,0-1.5,0-2.4.1-.5,0-1.1,0-1.7,0,0,0,0,0,0,0,0,0,0,0,0,0ZM136.3,252.4c-.1.3-.3.6-.5.9-5.3,5.8-7.1,13.5-10.9,20.1-.4.7-.8,1.5-1.1,2.3-.6,1.3-1.1,2.7-1.8,3.9-.8,1.2-2.2,2.1-3.4,3.1-.8.6-1.6.9-2.5.9-.6,0-1.1-.2-1.6-.5-.3-.1-.5-.3-.8-.5-3.8-2.8-6.3-6.5-7.2-11.2,0-.3,0-.5-.1-.8,0-.5-.1-.9-.2-1.4,0-.7-.1-1.4-.2-2.2-.2-4.8,1.1-9.2,3.7-13.1.1-.2.2-.3.3-.5,0,0,0,0,0,0,0,0,0,0,0,0,.2-.2.3-.4.5-.7.1-.2.3-.4.4-.6,0,0,.2-.2.2-.3.6-.7,1.3-1.3,2-1.9.2-.2.5-.4.8-.6.2-.1.3-.2.5-.3,1.7-1.2,3.5-2.1,5.4-3,.4-.2,1-.2,1.5,0,0,0,.2,0,.3,0,0,0,0,0,.1,0,.2,0,.4.1.6.2,0,0,0,0,0,0,.3.1.6.2.9.3,0,0,.2,0,.3,0,.2,0,.4.1.6.2,0,0,.2,0,.3,0,.2,0,.3,0,.5,0,0,0,.2,0,.3,0,.2,0,.3,0,.5,0,0,0,.1,0,.2,0,.2,0,.4,0,.7,0,0,0,0,0,.1,0,.2,0,.3,0,.5-.1,0,0,.1,0,.2,0,.2,0,.3-.2.5-.3,0,0,0,0,0,0,.2-.1.3-.3.4-.4,0,0,0,0,.1-.1.1-.1.2-.3.3-.4,0,0,0,0,0-.1.1-.2.2-.4.3-.6,0,0,0-.1,0-.2,0-.2.2-.4.2-.6,0,0,0-.1,0-.2,0-.3.2-.5.3-.8,0,0,0,0,0,0h0c.5-1.6,1.8-1.9,3.4-1.1,3.7,1.8,5.2,6.2,3.3,10.2ZM138.6,173.3c-2.8,7.6-3.1,15.7-3.7,23.6-.3,3.6-.5,7.2-.7,10.8-.4,7.2-.8,14.4-1.2,21.6,0,.5,0,.9,0,1.4,0,1,0,1.9,0,2.9-1.2.3-2.2.5-3.4.7,0,0,0,0,0,0,0,0,0,0,0,0,.3-4.2.3-8.3,1-12.2,1.6-8.2,1.6-16.4,1.8-24.6.1-4.5.6-9,1.4-13.5.1-.7.2-1.3.3-2,.5-2.8,1.1-5.5,1.8-8.3.2-.9.7-1.8,1.1-2.6.3,0,.6.1.8.2.9.3,1.3.9.9,1.9ZM158.7,267.2c.4-.3.7-.5,1-.7.6-.5,1.1-.9,1.2-1.4,0,0,0-.2,0-.3.1-.7-.1-1.5-.7-2.8-.4-.9-.6-1.8-.7-2.6-.2-1.7,0-3.5.1-5.3,0,0,.1,0,.2,0,.5,0,1-.2,1.4-.2,1.8-.2,3-1.4,3.1-2.9,0-.8,0-1.6-.6-2.4-.3-.6-.7-1.2-1.3-1.5-.4-.2-.7-.5-.9-.7-.4-.4-.7-.9-.9-1.5-.3-1-.3-2.1-.2-3.3.3-3.7.7-7.3,2.3-10.6,0,0,0,0,0,0,0,0,0,0,0,0,.3,0,.6-.1.9-.2h0s0,0,0,0c.1.4.3.9.4,1.3.2.7.4,1.3.4,2,.3,9.2.5,18.5.7,27.7,0,1,0,2.1.2,3.1,0,.3,0,.6,0,.9,0,.6.3,1.6.7,1.8.6.3,1.2.7,1.8,1.2,2,1.4,4,2.9,6.7,2.8,2.8-.1,5.6-.2,8.4-.2h0c.9,0,1.8,0,2.6,0,.7,0,1.4,0,2.1.1.4,0,.9,0,1.3.1,2,.2,3.3,1.2,3.8,2.8.2.7.2,1.5,0,2.4-.5,2.3-1.4,4.4-2.9,6.2-.2.3-.5.5-.7.8-.5.6-1.1,1.1-1.8,1.5-.6.4-1,.8-1.3,1.3-.9,1.5-.7,3.3.8,4.7.3.2.5.5.8.7.3.2.7.5,1,.7.1,0,.2.2.3.2,0,.3-.2.5-.3.6,0,0,0,0,0,.1-.5.6-1.2.6-2,.6,0,0,0,0,0,0-.7,0-1.3,0-2,0-.3,0-.6,0-.9,0-.5,0-1,0-1.5,0-.5,0-.9,0-1.4,0-.2,0-.5,0-.7,0-.6,0-1.2,0-1.7,0,0,0-.2,0-.2,0s0,0,0,0c-.8,0-1.5,0-2.3,0-.2,0-.4,0-.5,0-.8,0-1.6,0-2.3-.1h0c-1.6-.1-3.2-.8-4.7-1.4-.9-.4-1.9-.8-2.8-1.2-.9-.3-1.7-.9-2.6-1.2,0,0,0,0-.1,0-6.8-2.2-9.3-7.9-11.1-14-.8-2.9.4-5.2,3-6.7,1.3-.7,2.5-1.4,3.7-2.2ZM160.3,122.1c-.5,9-2.2,17.4-5.4,25.6h0s0,0,0,0c-1.4,3.5-3.2,6.7-5.6,9.4-1.5,1.7-3.2,3.1-5.2,4.3,0,0,0,0,0,0-.3.2-.7.4-1,.6-.1,0-.2.1-.3.2-.2.1-.4.2-.7.3-.1,0-.2.1-.3.2-.2.1-.4.2-.6.3,0,0-.2,0-.2.1-.3.1-.5.2-.8.3,0,0,0,0-.1,0-.2,0-.4.1-.6.2,0,0-.2,0-.2,0-.2,0-.3,0-.5,0,0,0-.1,0-.2,0,0,0,0,0-.1,0-.2,0-.3,0-.4,0,0,0,0,0,0,0-.2,0-.3,0-.5-.1,0,0,0,0,0,0-.2,0-.3-.1-.5-.2,0,0,0,0,0,0-.2,0-.3-.2-.4-.3,0,0,0,0,0,0-.1-.1-.3-.3-.4-.4,0,0,0,0,0,0-.1-.2-.3-.4-.4-.6,0,0,0,0,0-.1-.1-.2-.2-.4-.3-.7,0,0,0,0,0,0-.1-.2-.2-.5-.3-.8,0,0,0-.1,0-.2-.1-.3-.2-.6-.3-.9,0,0,0-.1,0-.2-.1-.3-.2-.7-.3-1,0-.2-.1-.4-.2-.6-.8-3-1.5-6.1-1.9-9.2-.6-5.5-.8-11-.6-16.5.3-10.2,1.8-20.3,4.1-30.3.2-.9.5-1.7.8-2.6,2.4-7.5,2.4-7.5,10.1-9.1.6-.1,1.3-.2,1.9-.3.9-.1,1.7-.2,2.6-.2,2.4,0,4.8.4,7.2,1.7.3.2.6.4.9.6.5.4.8.9.8,1.6,0,.8.2,1.7.3,2.5,0,.6.1,1.2.1,1.8,0,4.5,0,8.9,0,12.3.3,4.3.3,8.5.1,12.6ZM172.5,97.2c-1.7.8-3.5,1.4-5.4,1.7,0-1.7-.2-3.1-.3-4.7.2,0,.4,0,.6,0,2.7-.3,5,.8,7.8,1.6-.9.6-1.8,1.1-2.7,1.5ZM183.4,86.1c-.4.2-.8.3-1.2.4-.1,0-.2,0-.4,0-.3,0-.6.1-.9.2-.1,0-.3,0-.4,0-.3,0-.6,0-.8.1-.1,0-.2,0-.4,0-.4,0-.8,0-1.2,0,0,0,0,0,0,0,0,0,0,0,0,0-.4,0-.8,0-1.2,0-.1,0-.2,0-.4,0-.3,0-.6,0-1-.1-.1,0-.2,0-.3,0-.4,0-.8-.1-1.2-.2,0,0-.2,0-.2,0-.3,0-.7-.1-1-.2-.1,0-.2,0-.4,0-.3,0-.7-.2-1-.2,0,0-.1,0-.2,0-.2,0-.5-.1-.7-.2-.1,0-.2,0-.4,0-.1,0-.2,0-.4,0-.3,0-.6-.2-1-.2-.1,0-.3,0-.4,0-.4,0-.8-.2-1.3-.3-3.2-.6-5.5-2.2-7.3-4.7-.2-.2-.4-.5-.5-.8-1.2-1.8-2.7-3.3-4.3-4.8-.6-.6-1.3-1.3-1.9-1.9,1.6-1.1,4.6-1.8,8.2-2.1.8,0,1.7-.1,2.5-.2.1,0,.3,0,.4,0,7.1-.2,15.6.8,21.1,3-.7,4.1-1.3,8.3-2,12.6ZM235.1,211.2c1.4,0,2.4.4,3.1,1.3.5.6.9,1.3,1.3,2.3.4.9.7,1.8,1,2.7,1.1,3.2,1.8,6.5,1.9,9.8,0,.6,0,1.1-.1,1.7-.3,1.6-1.2,3.1-2.7,4.7-.2-.5-.4-.9-.6-1.3-.2-.4-.4-.9-.6-1.3-.1-.3-.2-.5-.3-.8-1-4-1.9-8-2.9-12-.6-2.3-1.2-4.5-1.8-7,.6-.1,1.2-.2,1.7-.2ZM205.2,16s0,0,.1-.1c.2-.1.4-.3.6-.4.7-.4,1.4-.8,2.3-1.2.2,0,.4-.2.6-.3,0,0,0,0,0,0,0,0,0,0,0,0,.1.4.3.7.4,1,.3.8.6,1.4.8,2,.2.5.4,1,.6,1.5h0s0,0,0,0c-1.7-.2-3-.4-4.4-.6,0,0-.2,0-.2,0,0,0-.1,0-.2,0-.3-.1-.7-.4-.8-.6,0,0,0-.1,0-.2,0-.4,0-.9.3-1.1ZM201.1,22.7s0,0,0,0c0,0,0,0,0,0,2.9,1.4,5.9,2.7,9.4,4.3,0,0,0,0,0,0,0,0,0,0,0,0-.3,1.3-.6,2.6-1,4-.1.4-.2.9-.3,1.3q-2.7-2.5-7-.3c-1.2-1.1-2.1-2-2.6-2.8-1.1-1.8-.5-3.2,1.5-6.5ZM195.7,36s0,0,0,0h0c.4.4.8.9,1.2,1.3,2.1,2.3,4,4.3,7.2,4.7-.1.7-.3,1.3-.6,1.7-.4.6-1.1.9-2.2.9-.9,0-1.7,0-2.7,0,0,0,0,0,0,0-.9,0-1.9,0-2.9,0h0v-8.5ZM196.8,121.9c0,.2-.2.3-.2.4,0,0,0,0,0,.1,0,0-.1.2-.2.2,0,0,0,0-.1.1,0,0-.1,0-.2.1,0,0,0,0-.1,0,0,0-.1,0-.2,0,0,0,0,0,0,0s0,0,0,0c0,0,0,0-.1,0,0,0-.1,0-.2,0,0,0,0,0-.1,0,0,0-.2,0-.2-.2,0,0,0,0-.1,0-.1-.1-.2-.2-.4-.4.3-.3.5-.6.8-.7.2,0,.4-.1.6-.2,0,0,.1,0,.2,0,.2,0,.4-.1.6-.2h0s0,0,0,0c0,.3.2.5.2.6,0,0,0,0,0,0,0,0,0,0,0,0ZM202.6,237.5c0-.1,0-.3,0-.4,0-.3.2-.6.3-.8.1-.3.3-.6.6-.8,1.6-1.5,4.2-1.8,6.2-.9.9.4,1.7,1,2.3,1.9,3.5,5.4,5.4,11.2,4,17.7-.1.6-.2,1.2-.4,1.8-.4,2.1-.8,4.2-1.3,6.4,0,.4-.2.8-.2,1.2h0c-.1,0-.2,0-.3,0-1.7-.2-2.9-.3-4-.5-3.3-.6-5.5-2-6.7-4.2-.7-1.3-1.1-3-1.1-5,0-1.2,0-2.3,0-3.5,0-1.9.1-3.8.2-5.7.1-2.4.3-4.8.4-7.1ZM213.3,95c-4.4,40.6-19,23.5-20.9,16.2,0,0,0,0,0,0h0s0,0,0,0c-.4-.9-.7-2-.9-3.2-.2-1.3-.3-2.7-.3-4.2-.7-5.3-.4-11.3.4-17.2.4-4.2,1.3-8.3,2.3-12.2.8-3.2,1.6-6,2.3-8.2.3-1,.9-1.8,1.1-2.8.3-1.2.7-2.3,1.2-3.2,1.1-2.3,3.2-3.9,6.2-4.6,0,0,0,0,0,.1.1,0,.3,0,.4-.1,2.2,2.7,3.4,6,4.2,9.4,1.2,5.1,1.7,10.4,2.6,15.6.2,1.1,1.4,7.6,1.6,11.5,0,0,0,0,0,0,0,.1,0,.2,0,.4,0,1.4,0,2.3-.3,2.5ZM273.9,88c-2,1.9-4.1,2.9-6.6,3.3-.9.1-1.9.1-2.9,0-.4,0-.8,0-1.1,0-1.7,0-3.1.8-3.7,2,0,.1,0,.2-.1.3,0,0,0,0,0,.1-.2.6-.3,1.2,0,1.9,0,.3.2.6.3,1,.5,1,1.1,2,1.8,2.8,1,1.2,2.4,2.1,4.4,2,.2,0,.4,0,.7,0,.2,0,.3,0,.5,0,.4,0,.8,0,1.3,0,.7,0,1.5.3,2.3.3-.3,1.2-.9,1.9-1.6,2.3,0,0,0,0,0,0-.7.4-1.6.5-2.5.4-6.9-.5-13.9-.6-19.2-5.7,0-.8,0-1.6,0-2.5,0-1.1,0-2.3-.1-3.4-.4-2.4-1.2-3.1-3-2.8-.4,0-.9.2-1.4.4-6.1,2.2-12,5-17.8,7.8-1.2.6-2.5,1.2-3.7,1.8-.4.2-.8.1-1.6.3h0s0,0,0,0c0-.9.1-1.8.2-2.6,0-.5,0-1,0-1.5,0-1.4,0-2.7,0-4.1,0-1,0-2,0-3,0-.7,0-1.5-.1-2.2,0-.7,0-1.2,0-1.8.2-1,.7-1.8,1.7-2.6,2.5-1.9,5.1-3.4,8.2-4.1.3,0,.7-.1,1-.2,2.9-.4,4.2-2.7,3-5.1,0-.2-.2-.4-.3-.5-.2-.2-.3-.5-.4-.7-.7-1.2-.9-2.2-.5-3.5.1-.4.3-.8.5-1.2.5-.9.9-1.8,1.2-2.8.4-1.3.7-2.8,1-4.1.2-1.3.3-2.7.2-4.1,0-.7,0-1.5,0-2.2,0-1.9.1-3.7.7-5.3.4-1,.8-2,1.5-2.9.6-.9,1.6-1.5,2.5-2.3.2,0,.4.2.6.3,0,0,0,0,.1,0,0,1.7.2,3.5,0,5.2,0,.5,0,1,0,1.5,0,1.3.3,2.4.8,3.4.6,1,1.6,1.9,2.9,2.6.4.2.8.5,1.2.7.3.2.7.5,1,.8.2.1.4.3.6.4,1.7-1.3,3.1-2.5,3.3-4.6,0-.4.2-.8.5-1.2.1-.2.3-.4.4-.6,1-1.2,2.1-2.3,3.1-3.5,1.7-1.9,3.4-3.8,5.2-5.7,0,0,.1-.1.2-.2.3-.2.8-.4,1.2-.5.1,0,.3,0,.4,0,.2,0,.3,0,.4,0,.1.1.2.3.3.4.3.5.5,1.1.6,1.7,0,.2,0,.3,0,.5-.1.6-.3,1.2-.5,1.8,0,0,0,0,0,.1,0,0,0,0,0,0-.3.6-.6,1.2-1,1.7-.7.9-1.5,1.7-2.2,2.6-1.2,1.4-2.5,2.7-3.8,4.1,0,0,0,0,0,0-1.2,1.3-1.7,3.5-.9,5.2,0,.1.2.3.2.4,0,0,.1.2.2.3,0,.1.2.2.3.4.3.4.7.8,1,1.2.5.5.9.9,1.4,1.4.1.1.3.3.4.4,1,.8,2.1.9,3.5.5,2.7-.8,5.5-1.1,8.4-1.3.8,0,1.6,0,2.4-.1.3,2.8-.7,4.5-2.2,5.9-1.9,1.7-3.7,3.4-6.4,4.1-.4.1-.8.3-1.1.6-.6.4-1,1.1-1.3,1.8,0,0,0,0,0,0,0,.1,0,.2-.1.3,0,0,0,.2,0,.2,0,.2,0,.4-.1.5,0,0,0,0,0,0,0,.1,0,.3,0,.4,0,0,0,.1,0,.2,0,0,0,.1,0,.2,0,.4,0,.7,0,1.1,0,0,0,.1,0,.2,0,.1,0,.3,0,.4.2.8.6,1.5,1.1,2,2,1.8,4,3.5,6.6,3.6,0,0,.1,0,.2,0,.6,0,1.3,0,2-.2,0,0,.1,0,.2,0,1.5-.3,3.1,0,5.3,0,0,0,.1,0,.2,0-.7,1.1-1.5,1.9-2.3,2.7Z"/> <path fill="currentColor" d="M286.3,87.3c1.5-2.3,1.3-4.4-.4-6.4-.5-.6-1-1.2-1.5-1.8.5.6,1,1.2,1.5,1.8,1.7,2,1.9,4.1.4,6.4-1.7,2.6-3.2,5.4-4.9,8-.8,1.3-1.1,2.3-.2,3.7,1.1,1.7,1.3,3.4.8,5.1.5-1.7.3-3.4-.8-5.1-.9-1.3-.6-2.4.2-3.7,1.7-2.6,3.2-5.4,4.9-8Z"/> <path fill="currentColor" d="M259.4,95.7c-.2-.7-.1-1.3,0-1.9-.2.6-.3,1.2,0,1.9Z"/> <path fill="currentColor" d="M219.6,100.6h0c.8-.1,1.2,0,1.6-.3,1.2-.6,2.5-1.2,3.7-1.8-1.2.6-2.5,1.2-3.7,1.8-.4.2-.8.1-1.6.3Z"/> <path fill="currentColor" d="M219.9,92.5c0,1.4,0,2.7,0,4.1,0,.5,0,1,0,1.5,0-.5,0-1,0-1.5,0-1.4,0-2.7,0-4.1Z"/> <path fill="currentColor" d="M247.1,93.1c-.4-2.4-1.2-3.1-3-2.8,1.8-.4,2.6.4,3,2.8.2,1.1.2,2.2.1,3.4,0-1.1,0-2.3-.1-3.4Z"/> <path fill="currentColor" d="M265.8,101.5c-2,0-3.3-.8-4.4-2,1,1.2,2.4,2.1,4.4,2Z"/> <path fill="currentColor" d="M258.9,51.4c.8-.9,1.5-1.7,2.2-2.6.4-.5.7-1.1,1-1.7-.3.6-.6,1.2-1,1.7-.7.9-1.5,1.7-2.2,2.6Z"/> <path fill="currentColor" d="M270.6,85.3c0,0,.1,0,.2,0,0,0-.1,0-.2,0-.7.2-1.4.3-2,.2.6,0,1.3,0,2-.2Z"/> <path fill="currentColor" d="M259.7,93.3c0,.1,0,.2-.1.3,0-.1,0-.2.1-.3Z"/> <path fill="currentColor" d="M240.5,50.9c0,1.3.3,2.4.8,3.4-.6-1-.8-2.1-.8-3.4Z"/> <path fill="currentColor" d="M269,104.1s0,0,0,0c0,0,0,0,0,0Z"/> <path fill="currentColor" d="M267,101.4c.4,0,.8,0,1.3,0-.4,0-.9-.1-1.3,0Z"/> <path fill="currentColor" d="M204.7,55.6s0,0,0,.1h0s0,0,0-.1c-3,.7-5,2.2-6.2,4.6,0,0,0,0,0,0,1.1-2.3,3.2-3.9,6.2-4.6Z"/> <path fill="currentColor" d="M202,250.3c0,1.2,0,2.3,0,3.5,0,2,.4,3.6,1.1,5-.7-1.3-1.1-3-1.1-5,0-1.2,0-2.3,0-3.5Z"/> <path fill="currentColor" d="M209.7,234.6c-2-.9-4.6-.6-6.2.9-.2.2-.4.5-.6.8.1-.3.3-.6.6-.8,1.6-1.5,4.2-1.8,6.2-.9Z"/> <path fill="currentColor" d="M192.3,111.2s0,0,0,0c-.4-.9-.7-2-.9-3.2.2,1.2.5,2.3.9,3.2Z"/> <path fill="currentColor" d="M202.6,237.5c0-.1,0-.3,0-.4,0,.1,0,.3,0,.4-.1,2.4-.3,4.8-.4,7.1.1-2.4.3-4.8.4-7.1Z"/> <path fill="currentColor" d="M193.9,74.4s0,0,0,0c-1.1,3.9-1.9,8-2.3,12.2,0,0,0,0,0,0,.4-4.2,1.3-8.3,2.3-12.2Z"/> <path fill="currentColor" d="M260.6,77.4c0,.1,0,.3,0,.4,0-.1,0-.3,0-.4Z"/> <path fill="currentColor" d="M260.7,76.8c0,.2,0,.4-.1.5,0-.2,0-.4.1-.5Z"/> <path fill="currentColor" d="M260.5,78c0,0,0,.1,0,.2,0,0,0-.1,0-.2Z"/> <path fill="currentColor" d="M245.5,57.6c.3.2.7.5,1,.8-.3-.3-.7-.5-1-.8Z"/> <path fill="currentColor" d="M260.5,79.3c0,0,0,.1,0,.2,0,0,0-.1,0-.2Z"/> <path fill="currentColor" d="M260.9,76.2c0,.1,0,.2-.1.3,0-.1,0-.2.1-.3Z"/> <path fill="currentColor" d="M261.1,42.6c.1,0,.3,0,.4,0-.1,0-.3,0-.4,0Z"/> <path fill="currentColor" d="M262.2,43c.3.5.5,1.1.6,1.7,0-.6-.2-1.2-.6-1.7Z"/> <path fill="currentColor" d="M254.8,61.9c.3.4.7.8,1,1.2-.4-.4-.7-.8-1-1.2Z"/> <path fill="currentColor" d="M262.2,47s0,0,0,.1c0,0,0,0,0-.1Z"/> <path fill="currentColor" d="M137.4,163.5c-.2,0-.3-.1-.5-.2.2,0,.3.2.5.2Z"/> <path fill="currentColor" d="M147.8,34.6c.2.3.5.5.7.7-.3-.2-.5-.5-.7-.7-.5-.6-1-1-1.5-1.3.5.3,1,.7,1.5,1.3Z"/> <path fill="currentColor" d="M138.7,48.8c.3-3.3.7-6.6,1.6-9.9-.8,3.2-1.3,6.5-1.6,9.9-.3,3.1,0,6.2.6,9.3-.7-3-.9-6.2-.6-9.3Z"/> <path fill="currentColor" d="M155.2,45.1c-2.3.7-4.4.2-6.1-1.7-.3-.3-.6-.6-.9-.9.3.3.6.6.9.9,1.7,1.9,3.7,2.4,6.1,1.7,1.9-.6,3.9-1.1,5.6-2,.6-.3,1.2-.5,1.7-.6-.5,0-1.1.3-1.7.6-1.7.9-3.7,1.4-5.6,2Z"/> <path fill="currentColor" d="M150.3,80.4s0,0,0,0c0-.2,0-.4,0-.6,0,.2,0,.4,0,.6,0,0,0,0,0,0Z"/> <path fill="currentColor" d="M148,80.5c-.5,0-1.1,0-1.7,0,0,0,0,0,0,0,.6,0,1.2,0,1.7,0Z"/> <path fill="currentColor" d="M151.7,37.2c-.1,0-.2-.1-.4-.2-.3-.1-.5-.3-.8-.4.3.1.5.3.8.4.1,0,.2.1.4.2Z"/> <path fill="currentColor" d="M151.6,27.8c.3-.7.6-1.5,1-2.1-.4.7-.7,1.4-1,2.1,2.1,1.8,3.2,4.1,3.2,6.9,0,.2,0,.4,0,.5,0-.2,0-.3,0-.5,0-2.8-1.2-5.1-3.2-6.9Z"/> <path fill="currentColor" d="M169.7,34.7c-.7,1.9-1.4,3.7-2.2,5.7.8-2,1.5-3.8,2.2-5.7,1.4-4,1-7.8-.8-11.3,1.9,3.6,2.2,7.4.8,11.3Z"/> <path fill="currentColor" d="M154.3,36.7c0,.1-.2.2-.3.3,0,0,.2-.2.3-.3Z"/> <path fill="currentColor" d="M152.8,37.4c0,0-.1,0-.2,0,0,0,.1,0,.2,0Z"/> <path fill="currentColor" d="M149.5,79.3c-.6-.2-1.3-.2-1.9.2.7-.4,1.3-.3,1.9-.2Z"/> <path fill="currentColor" d="M124.2,247.3c.2,0,.3,0,.5,0-.2,0-.3,0-.5,0Z"/> <path fill="currentColor" d="M125,247.4c.2,0,.3,0,.5,0-.1,0-.3,0-.5,0Z"/> <path fill="currentColor" d="M123.4,247c.2,0,.4.1.6.2-.2,0-.4-.1-.6-.2Z"/> <path fill="currentColor" d="M126.4,247.4c.2,0,.3,0,.5-.1-.1,0-.3.1-.5.1Z"/> <path fill="currentColor" d="M127,247.1c.2,0,.3-.2.5-.3-.1.1-.3.2-.5.3Z"/> <path fill="currentColor" d="M113.1,250.2c.2-.2.5-.4.8-.6-.3.2-.5.4-.8.6Z"/> <path fill="currentColor" d="M110.9,252.3c0,0,.2-.2.2-.3,0,0-.2.2-.2.3Z"/> <path fill="currentColor" d="M109.9,253.6s0,0,0,0c.2-.2.3-.4.5-.7-.2.2-.4.4-.5.7Z"/> <path fill="currentColor" d="M121.5,246.3s0,0,.1,0c0,0,0,0-.1,0Z"/> <path fill="currentColor" d="M122.2,246.6c.3.1.6.2.9.3-.3,0-.6-.2-.9-.3Z"/> <path fill="currentColor" d="M237.5,104.6c-1,.5-2,.9-3.1,1.4,1-.5,2-.9,3.1-1.4,1.7-.8,3-1,4.4-.4-1.3-.6-2.7-.4-4.4.4Z"/> <path fill="currentColor" d="M154.8,35.8c0-.1,0-.3,0-.4,0,.2,0,.3,0,.4Z"/> <path fill="currentColor" d="M153.3,37.3c.1,0,.2,0,.4-.1-.1,0-.2,0-.4.1Z"/> <path fill="currentColor" d="M153.7,37.2c0,0,.2-.1.3-.2,0,0-.2.1-.3.2Z"/> <path fill="currentColor" d="M154.3,36.7c0,0,.1-.2.2-.3,0,.1-.1.2-.2.3Z"/> <path fill="currentColor" d="M154.6,36.3c0-.1.1-.3.2-.4,0,.1-.1.3-.2.4Z"/> <path fill="currentColor" d="M135.9,162.3c-.1-.2-.3-.4-.4-.6.1.2.2.4.4.6Z"/> <path fill="currentColor" d="M152.2,37.3c0,0,.1,0,.2,0,0,0-.1,0-.2,0Z"/> <path fill="currentColor" d="M265.2,114.8c3.6,0,7-.4,10.1-2.3.8-.5,1.5-1.1,2.2-1.7-.7.6-1.4,1.2-2.2,1.7-3.1,1.9-6.5,2.4-10.1,2.3Z"/> <path fill="currentColor" d="M128.1,246.3c.1-.1.2-.3.3-.4,0,.1-.2.3-.3.4Z"/> <path fill="currentColor" d="M151.9,37.2c0,0,.2,0,.2,0,0,0-.2,0-.2,0Z"/> <path fill="currentColor" d="M141.3,45.4s0,0,0,0c0,0,0,0,0,0Z"/> <path fill="currentColor" d="M143.4,64.7c.4,0,.8,0,1.2-.2,1.6-.3,3-.8,4.3-1.4-1.3.6-2.8,1.1-4.3,1.4-.5,0-.9.1-1.2.2Z"/> <path fill="currentColor" d="M141.5,64s0,0,0,0c0,0,0,0,0,0Z"/> <path fill="currentColor" d="M154.2,59.7c1.5-1.2,2.8-2.6,4.2-4.1,0,0,0,0,0,0-1.4,1.5-2.7,2.8-4.2,4.1Z"/> <path fill="currentColor" d="M151.1,54.2c.6.2,1.2.4,1.9.6-.6-.1-1.3-.3-1.9-.6-3.7-1.5-6.6-4.2-8.9-7.3-.3-.4-.6-.8-.8-1.3.2.5.5.9.8,1.3,2.4,3.2,5.3,5.9,8.9,7.3Z"/> <path fill="currentColor" d="M141.8,64.3c-.1,0-.2-.2-.3-.3.1.1.2.2.3.3Z"/> <path fill="currentColor" d="M142.1,40.7c-.2.4-.4.8-.6,1.3.1-.5.3-.9.6-1.3Z"/> <path fill="currentColor" d="M143.8,39.5c1-.1,2.1.5,2.9,1.5.1.1.3.3.4.4-.1-.1-.3-.3-.4-.4-.8-1-1.9-1.6-2.9-1.5Z"/> <path fill="currentColor" d="M158,20.5c1.6-.8,3.3-1.1,5.1-1.1-1.8,0-3.6.3-5.1,1.1Z"/> <path fill="currentColor" d="M142.5,64.6s0,0-.1,0c0,0,0,0,.1,0Z"/> <path fill="currentColor" d="M152.8,37.4c.1,0,.2,0,.3,0-.1,0-.2,0-.3,0Z"/> <path fill="currentColor" d="M165.5,261.6c0,1,0,2.1.2,3.1,0-1-.1-2.1-.2-3.1-.2-9.2-.4-18.5-.7-27.7,0-.7-.2-1.3-.4-2,.2.7.4,1.3.4,2,.3,9.2.5,18.5.7,27.7Z"/> <path fill="currentColor" d="M183.4,271.1h0c-2.8,0-5.6,0-8.4.2-2.7.1-4.7-1.4-6.7-2.8,2,1.4,4,2.9,6.7,2.8,2.8-.1,5.6-.2,8.4-.2Z"/> <path fill="currentColor" d="M193.2,276.5c-.5,2.3-1.4,4.4-2.9,6.2,1.4-1.8,2.3-3.9,2.9-6.2.2-.9.2-1.7,0-2.4.2.7.2,1.5,0,2.4Z"/> <path fill="currentColor" d="M138,163.6c-.2,0-.3,0-.5-.1.2,0,.3,0,.5.1Z"/> <path fill="currentColor" d="M161,244.6c.2.5.5,1,.9,1.5-.4-.4-.7-.9-.9-1.5Z"/> <path fill="currentColor" d="M136.9,171.2c.3,0,.6.1.8.2-.2,0-.5-.2-.8-.2-.3.8-.8,1.7-1.1,2.6-.7,2.7-1.3,5.5-1.8,8.3.5-2.8,1.1-5.5,1.8-8.3.2-.9.7-1.8,1.1-2.6Z"/> <path fill="currentColor" d="M118.5,282.7c-.8.6-1.6.9-2.5.9.8,0,1.7-.2,2.5-.9,1.2-.9,2.6-1.8,3.4-3.1.8-1.2,1.3-2.6,1.8-3.9-.6,1.3-1.1,2.7-1.8,3.9-.8,1.2-2.2,2.1-3.4,3.1Z"/> <path fill="currentColor" d="M164.6,250.8c-.2,1.4-1.3,2.6-3.1,2.9-.5,0-.9.2-1.4.2.5,0,1-.2,1.4-.2,1.8-.2,3-1.4,3.1-2.9Z"/> <path fill="currentColor" d="M109.6,254c-2.6,3.9-3.8,8.3-3.7,13.1,0,.7.1,1.4.2,2.2,0-.7-.1-1.4-.2-2.2-.2-4.8,1.1-9.2,3.7-13.1Z"/> <path fill="currentColor" d="M186.5,286.4c.3-.5.7-.9,1.3-1.3.7-.5,1.3-1,1.8-1.5-.5.6-1.1,1.1-1.8,1.5-.6.4-1,.8-1.3,1.3Z"/> <path fill="currentColor" d="M132.3,197.5c.1-4.5.6-9,1.4-13.5-.8,4.5-1.3,8.9-1.4,13.5-.2,8.2-.2,16.4-1.8,24.6-.7,3.9-.7,7.9-1,12.2,0,0,0,0,0,0,.3-4.2.3-8.3,1-12.2,1.6-8.2,1.6-16.4,1.8-24.6Z"/> <path fill="currentColor" d="M106.4,271.4c0-.3,0-.5-.1-.8,0,.3,0,.5.1.8.9,4.7,3.5,8.4,7.2,11.2.3.2.5.4.8.5-.3-.1-.5-.3-.8-.5-3.8-2.8-6.3-6.5-7.2-11.2Z"/> <path fill="currentColor" d="M155,147.7s0,0,0,0c-1.4,3.5-3.2,6.7-5.6,9.4,2.4-2.7,4.2-5.9,5.6-9.4Z"/> <path fill="currentColor" d="M141,163c-.3.1-.5.2-.8.3.3,0,.5-.2.8-.3Z"/> <path fill="currentColor" d="M144.2,161.4c-.3.2-.7.4-1,.6.3-.2.6-.4,1-.6Z"/> <path fill="currentColor" d="M138.5,163.7s0,0,.1,0c-.2,0-.4,0-.6,0,.1,0,.3,0,.4,0Z"/> <path fill="currentColor" d="M152,276.1c1.8,6.1,4.3,11.8,11.1,14,0,0,0,0,.1,0,0,0,0,0-.1,0-6.8-2.2-9.3-7.9-11.1-14-.8-2.9.4-5.2,3-6.7,1.3-.7,2.5-1.4,3.7-2.2.4-.3.7-.5,1-.7-.3.2-.6.5-1,.7-1.2.8-2.5,1.5-3.7,2.2-2.6,1.5-3.9,3.8-3,6.7Z"/> <path fill="currentColor" d="M141.9,162.6c-.2.1-.4.2-.6.3.2,0,.4-.2.6-.3Z"/> <path fill="currentColor" d="M140.1,163.4c-.2,0-.4.1-.6.2.2,0,.4,0,.6-.2Z"/> <path fill="currentColor" d="M139.3,163.6c-.2,0-.3,0-.5,0,.1,0,.3,0,.5,0Z"/> <path fill="currentColor" d="M160.4,261.9c-.4-.9-.6-1.8-.7-2.6.1.9.3,1.7.7,2.6.6,1.3.8,2.1.7,2.8.1-.7-.1-1.5-.7-2.8Z"/> <path fill="currentColor" d="M128.5,245.8c.1-.2.2-.4.3-.6-.1.2-.2.4-.3.6Z"/> <path fill="currentColor" d="M181.2,294.1c-.2,0-.5,0-.7,0,.2,0,.5,0,.7,0Z"/> <path fill="currentColor" d="M178.5,294.2c0,0,.2,0,.2,0,0,0-.2,0-.3,0,0,0,0,0,0,0Z"/> <path fill="currentColor" d="M121.2,246.3c-.6-.1-1.1-.2-1.5,0-1.8.9-3.7,1.9-5.4,3,1.7-1.2,3.5-2.1,5.4-3,.4-.2.9-.2,1.5,0Z"/> <path fill="currentColor" d="M176.2,294.1c-.2,0-.4,0-.5,0,.2,0,.4,0,.5,0Z"/> <path fill="currentColor" d="M136.4,162.8c-.1-.1-.3-.3-.4-.4.1.2.3.3.4.4Z"/> <path fill="currentColor" d="M142.9,162.1c-.2.1-.4.2-.7.3.2-.1.4-.2.7-.3Z"/> <path fill="currentColor" d="M129.5,243.4c0,.3-.2.6-.3.8,0-.3.2-.5.3-.8,0,0,0,0,0,0Z"/> <path fill="currentColor" d="M128.9,245c0-.2.2-.4.2-.6,0,.2-.2.4-.2.6Z"/> <path fill="currentColor" d="M168.6,292.6c1.6.7,3.1,1.3,4.7,1.4h0s0,0,0,0c-1.6-.1-3.2-.8-4.7-1.4Z"/> <path fill="currentColor" d="M132.9,230.7c0-.5,0-.9,0-1.4.4-7.2.8-14.4,1.2-21.6-.4,7.2-.8,14.4-1.2,21.6,0,.5,0,.9,0,1.4Z"/> <path fill="currentColor" d="M128,246.4c-.1.2-.3.3-.4.4.2-.1.3-.3.4-.4Z"/> <path fill="currentColor" d="M126.3,247.4c-.2,0-.4,0-.7,0,.2,0,.4,0,.7,0Z"/> <path fill="currentColor" d="M136.8,163.2c-.2,0-.3-.2-.4-.3.1.1.3.2.4.3Z"/> <path fill="currentColor" d="M184.1,294.1c-.5,0-1,0-1.5,0,.5,0,1,0,1.5,0Z"/> <path fill="currentColor" d="M188.1,291.7c.3.2.7.5,1,.7-.3-.2-.7-.5-1-.7Z"/> <path fill="currentColor" d="M186,271.2c.7,0,1.4,0,2.1.1-.7,0-1.4,0-2.1-.1Z"/> <path fill="currentColor" d="M185,294.1c.7,0,1.3,0,2,0,0,0,0,0,0,0,0,0,0,0,0,0-.7,0-1.3,0-2,0Z"/> <path fill="currentColor" d="M164,230.5c-.3,0-.6.1-.9.2,0,0,0,0,0,0,.3,0,.6-.1.9-.2h0Z"/> <path fill="currentColor" d="M216.7,114.9c-.9,4-3.3,7.3-5.5,10.3.3,1.8.6,3.6.9,5.3-.3-1.7-.6-3.5-.9-5.3,2.2-3,4.5-6.3,5.5-10.3.2-1,.9-1.6,1.7-2-.9.5-1.5,1-1.7,2Z"/> <path fill="currentColor" d="M189.1,293.3s0,0,0,.1c0,0,0,0,0-.1Z"/> <path fill="currentColor" d="M195.3,148c0-.3,0-.5,0-.8h0c0,.3,0,.5,0,.8,0,.4,0,.9,0,1.3h0c0-.4,0-.9,0-1.3Z"/> <path fill="currentColor" d="M195.3,149.3c.4-.7.9-1.6,1.3-2.7-.5.2-.9.4-1.4.7,0,.3,0,.5,0,.8,0,.4,0,.9,0,1.3Z"/> <path fill="currentColor" d="M195.3,149.3c.4-.7.9-1.6,1.3-2.7-.5.2-.9.4-1.4.7,0,.3,0,.5,0,.8,0,.4,0,.9,0,1.3Z"/> <path fill="currentColor" d="M117.2,133c.7-2.3-.3-5-2.4-6.4-1.3-.9-2.7-1.4-4.4-1.3-4.1.3-8-.1-11.8-1.7-.8-.3-1.7-.3-2.6-.5-6.2-1.4-12.4-3.1-17.5-7.2-9.4-7.6-20.7-11.7-31.2-17.2-1.8-.9-3.6-.9-5.4.3-1,.7-2.2,1.1-3.2,1.9-4,3-7.5,6.3-7.6,11.9,0,1.6-.7,2.9-1.8,4-.4-.2-.7-.2-.8-.3-.3-.3-.6-.7-.8-1-2.5-3.8-2.8-8.1-2.4-12.5.1-1.4.2-2.9.2-4.3,0-3.1,1.8-6,4.7-7.3,1.6-.7,2.4-1.8,2.4-3.6,0-2.2-1-3.5-2.9-4.5-1.8-.9-3.6-1.8-5.2-2.9-2.1-1.4-2-2.1.3-3.9.2.7.4,1.3.6,1.9.2.6.5,1.2.7,1.9,1.1,0,2.1,0,3.1,0,3.6.3,4.1-.2,4.6-3.9.7-4.8,2.4-9.2,4.8-13.7.7,1.2,1.2,1.9,1.6,2.7.7,1.3,1.6,1.9,3.1,2,5.2.5,4.4.3,6-4,.2-.6.3-1.3.6-1.9.7-1.7,1.4-3.4,3.2-4.8.6,1.7.9,3.1,1.6,4.3.8,1.6,1,2.9.2,4.7-1.1,2.7,0,5,2.4,6.6.8.5,1.7,1,2.8,1.5-.3,2.4-.5,4.8-.8,7.3,3.5.4,3.6-3.9,6.6-4,3,1.8,6.2,3.6,9.2,5.8,7.7,5.4,16,9.7,24.5,13.6,2.6,1.2,5.2,2.6,7.6,4.1,3.4,2.1,6.7,4.5,10.1,6.5,1.1.7,3,1.2,4,.7,1.5-.7,2-2.6,1.8-4.4-.3-1.9-1.2-3.8-3.2-4.4-2.7-.7-4.7-2.5-7-3.8-3.4-2.1-6.8-4.2-10.4-6.1-6.3-3.4-13-5.8-19-9.7-3.5-2.3-6.9-4.5-10.4-6.7-3.6-2.2-3.6-2.2-2.7-6.2,0-.4,0-.9.2-1.3.5-3.3,1-6.6,1.6-9.8.4-2.3-1-5.7-2.8-6.7-2.5-1.3-4.2-.9-6.5,1.3-.9.8-1.8,1.5-2.8,2.3-1-1.2-1.7-2.3-2.6-3.3-3.3-3.8-8.3-3.7-11.4.2-.6.8-1.2,1.6-2.2,2.9-.5-.8-.7-1.5-1.2-1.9-3.2-2.9-6.3-2.5-8.5,1.1-1.1,1.8-2,3.8-3.2,5.5-.5.7-1.5,1.6-2.3,1.6-2.4,0-4,1.3-5.3,3-3,4-6,8-9,12-2.2,2.9-2.3,5.7-.1,8.5,1.1,1.4,2.4,2.6,3.8,3.8,2.3,2,2.3,1.9.9,4.5-3.6,6.9-5.2,14-2.1,21.5,1.1,2.6,2.4,5.1,3.4,7.6,1.3,3.5,3.8,5.5,7.5,5.5,2.4,0,5-.2,7.1-1,1.9-.8,2.6-3,3.2-5.1.9-3,1.4-6.3,3.7-8.8,1.4-1.5,2.8-2.2,4.7-1.6,2.8,1,5.7,1.8,8.4,3.1,6.8,3.2,13.6,6.2,19.5,10.9,2,1.6,4.1,3.1,6.5,4,5.4,2.1,10.9,3.8,16.3,5.7,5.8,2,11.7,2.4,17.8,2.5,1.2,0,1.8-.7,2.2-1.7Z"/> <path fill="currentColor" d="M165.7,36.9c1.5-3.6-.2-6.1-2.3-8.5-.9-1-1.9-2.4-3.3-1.6-1.2.7-2.4,2.2-2.6,3.5-.2,1.3.3,3.3,1.2,4.2,1.7,1.8,3.9,3.3,7,2.4Z"/> </svg>