<svg width="100%" xmlns="http://www.w3.org/2000/svg" version="1.1" viewBox="0 0 300 179.7"> <path fill="currentColor" d="M57.8,146.6c-2.2,1-3.8,1.7-5.3,2.5-12.9,6.9-29,3.7-38.2-6.8C3,129.4-.1,114.8,0,99.2c0-5,0-9.9,0-14.8,0-1,0-2,.2-3,4.2-14.1,3.2-20.2,6-34.4,1.2-6,2.7-12,4.1-18,1.8-7.3,11.5-16.7,23.2-16.4,6.7.1,11.9,2.6,16.3,6.6,3.6,3.3,6.9,6.9,10.3,10.3.6.6,1.2,1.1,2.3,2,1-1.1,1.9-1.8,2.5-2.8,3.4-5.6,6.7-11.2,10.2-16.8,5.6-9.1,15.9-13.6,28.2-11.1,6.8,1.4,11.8,5.4,15.5,10.1,4.6,5.9,8.6,12.2,12.8,18.3.3.5.9.9,1.6,1.5,4-2.2,8.3-4.1,11.7-6.7,8.8-6.9,18.2-7.3,28.4-2.8.6.3,1.3.4,2.3.8,2-2.5,4.2-5,6.1-7.6,8.9-11.8,23.6-11.4,35.4-5,8.6,4.7,13.8,12,18.7,19.5,2.1,3.2,3.9,6.7,6.2,10.6,3-1.7,6-3.1,8.6-4.9,13.1-9.1,35.6-2.5,42,9.9,3.7,7.1,6.5,14.4,7.3,22.2.7,6.4-1.7,11.6-6.3,16.9-5.5,6.2-12.6,9.5-20.3,12.3-3,1.1-6.7,1-10.3,1.5-1.3-1.7-2.5-3.3-4.1-5.5,2.7-2.5,5.5-5,8.1-7.6,3-3,5.8-6,8.6-9.1,6.2-7,5-14.5,1.5-22-1-2.2-2.5-4.2-3.8-6.3-1.8-2.6-3.7-3.2-6.8-1.5-5.1,2.9-10.4,5.6-14,10.2-3.7,4.7-8.2,9-12.6,13.3-3.9,3.9-12.8,4.7-17.6,1.7-1.9-1.1-4-5.8-3.3-7.9.4-1.3.9-2.7,1.7-3.9,5.5-7.5,3.3-15.1-.6-22.1-3.1-5.5-7.6-10.4-11.8-15.3-2.3-2.8-4.7-2.8-7.5-.4-1.9,1.6-3.5,3.7-4.5,5.9-2.3,5.1-4.3,10.4-6.1,15.6-.6,1.8-1.1,3.3-3.3,4.1-9,3-16.6.3-20.8-7.3-1.2-2.3-3.1-4.2-4.8-6.5-1.6.9-2.8,1.4-3.8,2.2-5.8,5-11.6,10-17.3,15.1-4.3,3.8-15.3,2.4-18.4-2.6-2-3.3-3.4-7-5.5-10.2-4.2-6.4-8.4-12.7-13.1-18.8-3.6-4.7-6.9-4.5-10.4.3-7.2,9.8-11.4,20.7-14.7,31.8-2.6,8.8-3.4,9.3-13.7,9.5-3.5,0-5.5-1.1-7-3.7-2.7-4.6-5.4-9.2-8.2-13.7-3.6-5.8-8.4-10.7-14.7-15.4-1.4,1.6-2.9,2.6-3.5,3.9-1.7,3.9-3.8,7.8-4.6,11.8-3.1,16.1-4.7,23.8-1.5,40,.8,3.9,1.7,7.9,3.4,11.5,2.4,5,1.6,8.8-4.7,10.1-3,.6-3.9,2.4-3.9,4.9.3,8.6,2.2,16.8,7.8,24.3,5.6,7.4,11,6.3,16.8-1.1,4.6-5.8,7.2-12.8,7.6-20.1,0-1.4.2-2.9.8-4.1.7-1.4,1.7-3,3.1-3.6,4.6-2.1,9,.4,13.1,1.5,2.9.8,3.9,3.9,3.9,7-.3,14.6,3.8,28.7,7.6,42.8.6,2.3,1.9,4.5,3.3,6.5,2.1,3.1,4.7,3.8,8,2,2.3-1.3,4.6-3.4,5.7-5.5,3.9-7.7,5.4-15.9,5.2-24.3-.2-5.1-.8-10.3-1-15.4-.2-5,1.7-7.8,5.4-8.5,5.9-1,12.6,1.7,14.2,5.9.4.9.7,1.9.7,2.9.1,8.6,2.9,16.9,5.9,25,1.4,3.8,4.2,7.4,6.9,10.8,1.5,1.9,4.4,1.6,5.6-.5,1.3-2.3,2.2-4.8,2.6-7.3.8-4.9,1-9.8,1.5-14.7.1-1.4,0-3,.9-4,1.3-1.5,3-3.1,5-3.7,3.3-1.1,12,2.4,14.2,5.2,6,7.5,11.9,15,18.1,22.4,1.9,2.2,4.2,4.2,6.7,5.9,4.2,2.9,8.4,2.8,11.3-1.1,5.8-7.9,10-16.4,7.2-26.3-.5-1.7-.9-3.5-1.6-5.2-1.7-4-.8-7.4,3.2-10.4,1.3.1,2.8.6,4.3.5,8.1-.6,11.4,3.3,13,9.5,1.7,6.7,6.1,12.3,10.6,17.8,2.8,3.4,6.6,5.4,10.9,7,3.4,1.3,6.4.4,7.7-2.7,2.3-5.3,4.7-2.2,4.3-8.1-.2-3.7.6-7.2,0-10.9-.8-4.2-2.5-8.3-4-12.5-.8-2.3-2.2-4.4-2.8-6.7-1-3.7.7-5.4,4.9-5.1,9.5.5,20.4,9.6,20.7,17.8.5,11.5,1.5,14.2-2.2,25.4-1.2,3.8-3.1,7.4-5,10.9-1.7,3-4.9,4.6-8.6,5.4-12.9,2.8-24.4.7-34.6-6.8-1-.7-2-1.5-3.6-2.8-1.3,2.2-2.6,4-3.5,5.9-7.7,16.1-35.9,18.8-48.9,5.4-3.3-3.4-6.8-6.8-10.7-10.7-1.1,1.8-2,3.1-2.6,4.4-5.8,12.6-19.2,16.2-32.6,8.5-2.7-1.5-5.3-3.1-7.9-4.7-.2,0-.4,0-1.1,0-.8,1.4-2,2.9-2.6,4.5-3.1,8.2-16.7,13.1-25.7,12.3-13.3-1.1-21.3-7.3-25.6-17.7-2-4.8-3.7-9.7-5.8-15.4"/> </svg>