<svg width="100%" xmlns="http://www.w3.org/2000/svg" version="1.1" viewBox="0 0 174.9 300"> <path fill="currentColor" d="M74.3,31c-1.3-2.6-2-3.8-2.6-5-3.5,1.1-6,9-5,16.3h19.5c4.6-10.1,8.1-20,13.3-28.8,4.5-7.7,13.6-10.1,21.5-13.3.9-.4,3.3.9,3.7,1.9,1.5,3.4,2.9,6.9,3.2,10.5.1,1.5-2.9,4.5-4.5,4.5-3.7,0-7.4-1.4-11.8-2.3-7.7,7-10.4,17-6.7,27.5-1.6,1.3-3.4,2.7-5.4,4.3,1,.9,1.6,2,2.3,1.9,1.8,0,3.5-.6,5.3-1,3.9-.8,5.9.8,6,4.7,0,3.4-.3,6.8,0,10.1.6,7,4.2,10.8,11.2,10.8,5.5,0,11.1-.7,16.5-1.7,6.9-1.3,11.8.5,16.9,5.8,6.6,6.8,11.6,14.1,15.2,22.8,3.3,8.1,2.9,15.4-2.4,22.5-9,12.2-20.5,21.2-36,21.3-10.4,0-21.1-1.1-29.4-9.8-3.8-4-9.6-6.7-15-8.4-7.3-2.4-14.5-.3-18.7,6.4-4.7,7.5-8.5,15.7-12,23.8-.8,1.9.8,5.2,2.1,7.4,2.7,4.6,4.4,8.2-.7,12.9-2.5,2.3-3.6,7.2-3.7,11-.2,6.3-3,11.3-6.4,16-5.7,8-8.8,16.5-7.1,26.3,0,.3.2.7,0,.9-6.2,10.9.7,20.2,4,29.7,2.5,7.2,5.2,8.3,12.7,7.9,2.2-.1,4.3-.5,6.4-.6,10.9-.6,15,2.9,16.7,13.7.7,4.4,1.5,8.9,2.3,13.9-3.3,4-8.4,5.9-13.6,4.6-10.4-2.5-21.1-4.7-30.7-9.2-17.2-8-30.5-20.4-34.6-40.2-1.7-8.1-3.8-16.1-6.1-24.1-2.1-7.2.9-13.7,1.6-20.6.6-6.3-3.4-13.2-1.4-20.2,2.8-9.7,5.2-19.4,8-29.1.8-2.6,2.4-5,3.2-7.6,2-6.4,7.2-12.1,4.8-19.7-.4-1.4.7-4,1.9-5,4.2-3.5,4.8-8.5,5.7-13.3,3.1-15.4,5.8-30.8,8.7-46.2,1.9-10,7.7-17.8,16.2-22.5,5.5-3,8.2-6.7,9.6-12.4,1.8-7.3,11.7-15.6,19-16.2,3.2-.3,5.3.9,6.6,3.9,1.4,3.2,1.5,6.2-1.3,8.4-2.6,2-5.7,3.5-9.1,5.5ZM63.8,125.5c3.4-2.6,7.2-5.8,11.4-8.4,2.5-1.6,5.5-2.9,8.4-3.2,10.3-1.4,19.9,0,28.8,6.5,7.6,5.6,16.2,10.1,25.9,11.5,13.1,1.9,23.6-8.1,22.4-21.3-.9-10.3-7.3-17.4-14.2-24-4-3.9-8.9-5.1-14.5-4-3.6.7-7.4.5-11,1.1-12.1,2-20.7-7.5-24.2-17.3-2.3-6.6-5.5-10.7-12.3-11.9-3.6-.7-7.2-1.6-10.8-1.8-5.5-.3-11.1.4-16.6,0-7.9-.4-9.1.1-10.9,7.6-2.6,10.7-5.1,21.5-7.6,32.3-2.1,9.2-4,18.5-6.1,28.7,10.3,1.4,20.2,2.8,31.2,4.3ZM40.2,201.9c1.4-4.3,2.6-7.9,3.9-11.5,1.4-3.8-.3-6.1-3.2-8.5-5.8-4.8-12.9-5.1-19.7-6.8-2.8-.7-5.3-1-6.8,2.5-1.8,4.1,2.2,4.6,2.2,6.6-.3,3.5-.6,7-.8,10.1,8.5,2.7,15.8,5,24.4,7.7ZM57.1,132c-4.4,0-8.4,0-12.4,0q-15.9-.5-20.9,14.4c-.3.8,0,1.7.1,2.6,1,.3,1.9.8,2.7.8,3.4,0,6.8.2,10.1,0,16.1-.7,16.3-.8,20.7-16.2,0-.3-.1-.6-.3-1.7ZM19.4,160.2c-.1,1-.2,2-.3,3,9.7,2.6,19.5,5.2,29.2,7.9.5-.5,1-1,1.4-1.5-5.4-2.5-6.3-6.4-3.4-11.4-9.7.7-18.3,1.4-27,2.1ZM30.7,220.5c1.4-2.8,2.8-5.6,4.2-8.4-6.3.4-6.4,3.9-4.2,8.4ZM73.3,283.3c-2.8,2.1-4.4,3.3-7,5.3,4.6.9,7.5,1.5,7-5.3Z"/> <path fill="currentColor" d="M73.2,68c5.5,5.6,6,10.9,3,16.1-3.4,5.9-9.3,3.9-15.6,3.9,3.3-7.7,6.8-14,12.6-20Z"/> </svg>