<svg width="100%" xmlns="http://www.w3.org/2000/svg" version="1.1" viewBox="0 0 236 300"> <path fill="currentColor" d="M116.4,76c-1.5,2.2-2.9,4.5-4.4,6.8-1.1,1.6-2.1,3.1-1,5.3.8,1.6-.3,3-1.9,3.2-2.3.4-3.1,2-3.8,3.8-3.1,8.1-6.3,16.1-9.4,24.2-.5,1.3-.5,2.8-.7,4.4,3.7,1.5,5.4,4.6,7.2,7.7,1.4,2.4.9,3.9-1.4,5.2-2.8-1.1-5.5-2.1-8.5-3.3-2.6,11.2-4.3,21.9-3.5,32.9.8,11.9,4.2,22.7,12.6,31.5,2.9,3,6,5.9,10.3,6.7,7.6,1.4,14.4-.8,20.4-5.3,3.6-2.7,7.1-5.6,10.1-8.9,7.3-7.9,14.4-16,17.7-26.7,1-3.2,1.6-5.8-.9-8.9-2.4-3.1-.7-6.7,2.9-8.4.9-.4,1.8-1.3,2.2-2.1,1.3-3,1.8-16.7.9-20.3-2.3.3-4.8,1.3-6.9.8-2-.5-3.7-2.6-5.7-4.1-1.4,2.2-3,4.3-6.1,3-3.8-1.5-6.6-5.2-5.9-8.4.7-3.3,3.2-4.5,6.5-4.8,1.7,1.6,3.4,3.2,4.6,4.3,2.7-1.3,4.9-2.4,7.1-3.4,1-.5,2-1.1,3-1.4,2.6-.9,3.5-2.6,3-5.2-.7-3.6-1.3-7.3-2.2-10.9-.4-1.5-1.1-3.1-2.2-4.2-1.9-1.8-2.4-3.9-2.1-6.1.6-5.3-2-8.9-5.6-12.2-4.7-4.2-8.7-3.8-12.8,1.1-10,12-21.2,5.5-23.5,4M78.9,155.5c1.5-9.3,2.9-18.3,4.4-27.4-4.9-3-9.9-6.2-15-9.2-12.1-7-22.1-16.6-32.5-25.7-5.6-4.8-11.1-9.7-16.5-14.7-1.7-1.6-3.1-3.7-4.1-5.8-.9-1.9-.2-4,1.8-5,1.7-.8,3.6-1.3,5.4.4,1.5,1.5,3.2,2.7,4.8,4.1,8.7,8.1,17.3,16.3,26.2,24.2,8.9,7.7,18.5,14.4,29,19.9,1.1.6,2.4.8,4.1,1.3.6-1.7,1.2-3.1,1.7-4.6,2.5-7,5-13.9,7.6-20.9,1.5-3.8,1.4-4.6-1.8-7.5-4.2-3.7-8.5-7.4-12.7-11.1-8.2-7.2-14.2-16.2-20.7-24.8-2.8-3.7-5.7-7.4-8.5-11.1-1.6-2.1-3.6-4.2-2-7.3,1.8-3.5,4.2-3.9,6.7-.9,4.3,5.4,8.6,10.8,12.7,16.4,7.4,10.2,15.2,20,25.5,27.4,2.3,1.6,4.1,3.9,6.4,6.2,2.3-3.6,4.4-6.7,6.2-9.9.5-.8.4-2.2.1-3.2-.5-1.9-1.2-3.7-2-5.4-5.5-11.2-8.8-23.1-11.4-35.2-1.2-5.3-2.2-10.7-3-16.1-.3-2.3,0-4.8.2-7.2,0-.8.7-2.1,1.3-2.2.9-.2,2.3.2,2.9.9,3.5,3.4,4.8,7.8,6,12.4,2.8,10.7,5.5,21.4,8.6,32.1,1.1,4,3,7.7,4.7,11.9,2.4-1.8,4.6-3.1,6.4-4.9,2.5-2.4,5.5-3.2,8.8-3.2,2.5,0,4.1-1,5.7-2.9,5.2-6.3,10.6-12.5,16-18.7.8-1,1.7-2,2.6-2.9,4.8-4.5,9.5-9.1,14.5-13.5,3.3-2.9,6.8-5.3,10.3-8,1.5-1.1,3.1-1,4.5,0,1.3,1,2.4,2.1,3.4,3.4,1.7,2.2,1.7,3.9-.2,6.1-.8,1-1.8,1.8-2.9,2.5-11.7,7.8-21.9,17.3-30.6,28.4-2.2,2.8-4.7,5.3-7,8-.8.9-1.5,2-2.7,3.5,12.7.8,17.1,10.7,23,19.6,2.9-2.2,5.5-4.3,8.2-6.2,10-7,19.9-14,31.2-19,7.2-3.2,14.9-3.8,21.9-7.1,1.9-.9,3.8-.5,4.9,1.7.3.6.7,1,1.1,1.5,3.8,4.9,2.2,9.6-3.9,11.2-2.6.7-5.3,1.2-8,1.6-18.8,3.2-33.1,14-46.7,26.4-.7.7-1.3,1.4-2.1,1.9-2,1.2-2.4,2.9-1.9,5,.3,1.6.7,3.2,1,4.7.3,1.6.6,3.1,1,5.4,1.9-.8,3.6-1.4,5.3-2.2,11.2-4.8,22.4-9.7,33.6-14.5,3.2-1.4,6.6-2.5,9.9-3.6,2-.7,3.8-.6,5,1.6.5,1,1.3,1.9,1.9,2.8,3.2,4.4,1.6,8.9-4,9.7-8.2,1.2-15.8,4.2-23.2,7.8-6.5,3.1-13.2,5.9-19.7,9-1.7.8-3.4,1.9-5.1,2.7-2,1-2.4,2.7-2.5,4.8-.4,8.5-.9,17-1.4,25.5,0,1.3-.1,2.5-.2,3.9,3.9,1.8,7.7,3.5,11.3,5.4,10,5.2,19.7,10.8,28.4,18.2,3.3,2.8,7.2,4.9,11.1,6.7,3.2,1.5,4.9,3.9,6.4,6.9,1.1,2.2.6,3.9-1,5.7-1.6,1.7-3.4,1.5-5.3,1.1-.2,0-.3-.1-.4-.2-6.5-4.2-13.3-8-19.3-12.7-9.8-7.8-20.3-14.1-32.1-18.2-.4-.1-.9,0-1.7,0-3,7.1-3.8,15.2-9.3,21.4-5.1,5.9-9.7,12.3-14.4,18.2,2.8,5.6,5.5,11.4,8.6,17,5.6,10.4,11.6,20.3,21.5,27.4,3.7,2.7,7.4,4.9,11.4,6.9,2.2,1.1,4.2,3,5.7,4.9,2.1,2.8,1.7,4.4-.5,6.9-1.9,2.2-3.2,2.3-6.4.9-8.4-3.5-16.2-8.5-22-15.2-6.7-7.7-11.7-16.8-17.5-25.4-1.1-1.6-13.3-7.3-12.1-14.1-3.7,1.6-6.8,2.9-9.5,4-2.4,5.6-5,10.8-6.9,16.2-3.1,8.6-5.9,17.4-8.6,26.1-.8,2.4-1.1,5.1-1.1,7.6-.1,5.9-2.2,11.3-4.4,16.6-2.2,5.4-4.1,10.8-8.3,15.1-.1.1-.2.3-.3.4-2.6,3.2-5.7,3.4-8.4.4-1.4-1.5-.9-3.1-.3-4.9,1.7-4.8,3.7-9.3,6.3-13.8,2.7-4.7,3.5-10.6,4.8-16.1,2.1-8.9,3.6-18,5.8-26.9.9-3.5,3-6.7,4.4-10.1,1.1-2.7,2.1-5.4,3.2-8.2-.8-.6-1.3-1.4-2-1.6-7.8-2-13.2-7.4-17.8-13.4-7.3-9.5-11.6-20.3-12.3-32.4-.2-3.7-.3-3.7-4.1-4.6-11.7-2.9-23.4-5.7-35.1-8.8-8.5-2.2-17-4.7-25.5-7-3.1-.8-6.3-1.3-9.4-1.9-4.7-1-6.6-3.3-5.8-7.2.7-3.5,2.4-4.7,5.9-3.8,6.5,1.7,12.9,3.7,19.4,5.4,7.4,1.9,15,3.3,22.4,5.2,9.1,2.3,18.2,4.8,27.3,7.2,1.2.3,2.5.4,3.7.6"/> <path fill="currentColor" d="M90.8,215.5c-2.9,2.8-5.5,5.7-8.5,8.3-7.1,6.1-14.3,12-21.5,17.9-1.7,1.4-3.5,2.8-5.5,3.8-8.3,4.4-14.8,11.3-22.2,16.9-1.9,1.4-3.3,3.4-3,6.2.1,1-.9,2.2-1.5,3.5-3.7-1.7-6.7-3.5-8.2-7-1.6-3.9-.7-6.8,2.6-9.7,6.3-5.4,12.5-11,18.8-16.5,1.7-1.5,3.5-3,5.5-4,7.9-3.9,14.4-9.6,20.7-15.6,3.8-3.6,7.5-7.4,11.2-11.2,2.9-2.9,6.3-2.5,8.3,1,1,1.8,1.9,3.7,3.3,6.3"/> <path fill="currentColor" d="M125,172.8c-7.4-.5-14.7-1.3-20.4-6.8-1.1-1.1-2.5-2.3-3-3.7-.5-1.5-.3-3.5.4-4.9.5-.8,2.5-1.1,3.8-1.1,1.2,0,2.5,1,3.7.8,6.8-.9,14-1,20.2-3.4,6.1-2.4,11.1-7.6,13.7-14.2,2-5,4-5.9,7.7-3.9,5,2.7,6,5.9,3.4,10.1-2.4,3.9-5.2,7.6-5.5,12.6,0,1.2-1.8,2.4-3,3.4-1.3,1.1-3.2,1.8-4.1,3.1-3.9,6.4-9.7,8.5-16.9,8"/> <path fill="currentColor" d="M110.6,124.5c0-5,1.5-7,4.9-7.1.8,0,1.6,0,2.3.4,5,2.5,5.5,11,.9,14.2-2.3,1.6-6.3,0-7.3-3.1-.5-1.7-.6-3.5-.8-4.4"/> </svg>